<svg width="100%" height="100%" viewBox="0 0 36 36" fill="none" xmlns="http://www.w3.org/2000/svg">
<path fill-rule="evenodd" clip-rule="evenodd" d="M12.9853 10.6684C12.9853 7.8988 15.2305 5.65356 18.0002 5.65356C20.7698 5.65356 23.015 7.8988 23.015 10.6684V19.7726H12.9853V10.6684ZM18.0002 7.90356C16.4732 7.90356 15.2353 9.14144 15.2353 10.6684V17.5226H20.765V10.6684C20.765 9.14144 19.5272 7.90356 18.0002 7.90356Z" fill="#754A47"/>
<path fill-rule="evenodd" clip-rule="evenodd" d="M12.9853 10.6684C12.9853 7.8988 15.2305 5.65356 18.0002 5.65356C20.7698 5.65356 23.015 7.8988 23.015 10.6684V19.7726H12.9853V10.6684ZM18.0002 7.90356C16.4732 7.90356 15.2353 9.14144 15.2353 10.6684V17.5226H20.765V10.6684C20.765 9.14144 19.5272 7.90356 18.0002 7.90356Z" fill="url(#paint0_radial_152_3655)"/>
<path fill-rule="evenodd" clip-rule="evenodd" d="M12.9853 10.6684C12.9853 7.8988 15.2305 5.65356 18.0002 5.65356C20.7698 5.65356 23.015 7.8988 23.015 10.6684V19.7726H12.9853V10.6684ZM18.0002 7.90356C16.4732 7.90356 15.2353 9.14144 15.2353 10.6684V17.5226H20.765V10.6684C20.765 9.14144 19.5272 7.90356 18.0002 7.90356Z" fill="url(#paint1_radial_152_3655)" fill-opacity="0.87"/>
<path fill-rule="evenodd" clip-rule="evenodd" d="M12.9853 10.6684C12.9853 7.8988 15.2305 5.65356 18.0002 5.65356C20.7698 5.65356 23.015 7.8988 23.015 10.6684V19.7726H12.9853V10.6684ZM18.0002 7.90356C16.4732 7.90356 15.2353 9.14144 15.2353 10.6684V17.5226H20.765V10.6684C20.765 9.14144 19.5272 7.90356 18.0002 7.90356Z" fill="url(#paint2_radial_152_3655)"/>
<path fill-rule="evenodd" clip-rule="evenodd" d="M12.9853 10.6684C12.9853 7.8988 15.2305 5.65356 18.0002 5.65356C20.7698 5.65356 23.015 7.8988 23.015 10.6684V19.7726H12.9853V10.6684ZM18.0002 7.90356C16.4732 7.90356 15.2353 9.14144 15.2353 10.6684V17.5226H20.765V10.6684C20.765 9.14144 19.5272 7.90356 18.0002 7.90356Z" fill="url(#paint3_radial_152_3655)"/>
<path fill-rule="evenodd" clip-rule="evenodd" d="M12.9853 10.6684C12.9853 7.8988 15.2305 5.65356 18.0002 5.65356C20.7698 5.65356 23.015 7.8988 23.015 10.6684V19.7726H12.9853V10.6684ZM18.0002 7.90356C16.4732 7.90356 15.2353 9.14144 15.2353 10.6684V17.5226H20.765V10.6684C20.765 9.14144 19.5272 7.90356 18.0002 7.90356Z" fill="url(#paint4_radial_152_3655)" fill-opacity="0.6"/>
<path fill-rule="evenodd" clip-rule="evenodd" d="M12.9853 10.6684C12.9853 7.8988 15.2305 5.65356 18.0002 5.65356C20.7698 5.65356 23.015 7.8988 23.015 10.6684V19.7726H12.9853V10.6684ZM18.0002 7.90356C16.4732 7.90356 15.2353 9.14144 15.2353 10.6684V17.5226H20.765V10.6684C20.765 9.14144 19.5272 7.90356 18.0002 7.90356Z" fill="url(#paint5_radial_152_3655)" fill-opacity="0.72"/>
<path fill-rule="evenodd" clip-rule="evenodd" d="M12.9853 10.6684C12.9853 7.8988 15.2305 5.65356 18.0002 5.65356C20.7698 5.65356 23.015 7.8988 23.015 10.6684V19.7726H12.9853V10.6684ZM18.0002 7.90356C16.4732 7.90356 15.2353 9.14144 15.2353 10.6684V17.5226H20.765V10.6684C20.765 9.14144 19.5272 7.90356 18.0002 7.90356Z" fill="url(#paint6_radial_152_3655)"/>
<path d="M2.30768 15.811C2.30768 14.5683 3.31504 13.561 4.55768 13.561H31.4426C32.6853 13.561 33.6926 14.5683 33.6926 15.811V31.4585C33.6926 32.7011 32.6853 33.7085 31.4426 33.7085H4.55768C3.31504 33.7085 2.30768 32.7011 2.30768 31.4585V15.811Z" fill="url(#paint7_linear_152_3655)"/>
<path d="M2.30768 15.811C2.30768 14.5683 3.31504 13.561 4.55768 13.561H31.4426C32.6853 13.561 33.6926 14.5683 33.6926 15.811V31.4585C33.6926 32.7011 32.6853 33.7085 31.4426 33.7085H4.55768C3.31504 33.7085 2.30768 32.7011 2.30768 31.4585V15.811Z" fill="url(#paint8_linear_152_3655)"/>
<path d="M2.30768 15.811C2.30768 14.5683 3.31504 13.561 4.55768 13.561H31.4426C32.6853 13.561 33.6926 14.5683 33.6926 15.811V31.4585C33.6926 32.7011 32.6853 33.7085 31.4426 33.7085H4.55768C3.31504 33.7085 2.30768 32.7011 2.30768 31.4585V15.811Z" fill="url(#paint9_radial_152_3655)"/>
<path d="M2.30768 15.811C2.30768 14.5683 3.31504 13.561 4.55768 13.561H31.4426C32.6853 13.561 33.6926 14.5683 33.6926 15.811V31.4585C33.6926 32.7011 32.6853 33.7085 31.4426 33.7085H4.55768C3.31504 33.7085 2.30768 32.7011 2.30768 31.4585V15.811Z" fill="url(#paint10_radial_152_3655)"/>
<path d="M2.30768 15.811C2.30768 14.5683 3.31504 13.561 4.55768 13.561H31.4426C32.6853 13.561 33.6926 14.5683 33.6926 15.811V31.4585C33.6926 32.7011 32.6853 33.7085 31.4426 33.7085H4.55768C3.31504 33.7085 2.30768 32.7011 2.30768 31.4585V15.811Z" fill="url(#paint11_linear_152_3655)"/>
<path d="M2.30768 15.811C2.30768 14.5683 3.31504 13.561 4.55768 13.561H31.4426C32.6853 13.561 33.6926 14.5683 33.6926 15.811V31.4585C33.6926 32.7011 32.6853 33.7085 31.4426 33.7085H4.55768C3.31504 33.7085 2.30768 32.7011 2.30768 31.4585V15.811Z" fill="url(#paint12_linear_152_3655)"/>
<path d="M2.30768 15.811C2.30768 14.5683 3.31504 13.561 4.55768 13.561H31.4426C32.6853 13.561 33.6926 14.5683 33.6926 15.811V31.4585C33.6926 32.7011 32.6853 33.7085 31.4426 33.7085H4.55768C3.31504 33.7085 2.30768 32.7011 2.30768 31.4585V15.811Z" fill="url(#paint13_linear_152_3655)"/>
<path d="M2.30768 15.811C2.30768 14.5683 3.31504 13.561 4.55768 13.561H31.4426C32.6853 13.561 33.6926 14.5683 33.6926 15.811V31.4585C33.6926 32.7011 32.6853 33.7085 31.4426 33.7085H4.55768C3.31504 33.7085 2.30768 32.7011 2.30768 31.4585V15.811Z" fill="url(#paint14_linear_152_3655)"/>
<path d="M2.30768 15.811C2.30768 14.5683 3.31504 13.561 4.55768 13.561H31.4426C32.6853 13.561 33.6926 14.5683 33.6926 15.811V31.4585C33.6926 32.7011 32.6853 33.7085 31.4426 33.7085H4.55768C3.31504 33.7085 2.30768 32.7011 2.30768 31.4585V15.811Z" fill="url(#paint15_linear_152_3655)"/>
<path d="M2.30768 15.811C2.30768 14.5683 3.31504 13.561 4.55768 13.561H31.4426C32.6853 13.561 33.6926 14.5683 33.6926 15.811V31.4585C33.6926 32.7011 32.6853 33.7085 31.4426 33.7085H4.55768C3.31504 33.7085 2.30768 32.7011 2.30768 31.4585V15.811Z" fill="url(#paint16_linear_152_3655)"/>
<path d="M2.30768 15.811C2.30768 14.5683 3.31504 13.561 4.55768 13.561H31.4426C32.6853 13.561 33.6926 14.5683 33.6926 15.811V31.4585C33.6926 32.7011 32.6853 33.7085 31.4426 33.7085H4.55768C3.31504 33.7085 2.30768 32.7011 2.30768 31.4585V15.811Z" fill="url(#paint17_linear_152_3655)"/>
<path d="M2.30768 15.811C2.30768 14.5683 3.31504 13.561 4.55768 13.561H31.4426C32.6853 13.561 33.6926 14.5683 33.6926 15.811V31.4585C33.6926 32.7011 32.6853 33.7085 31.4426 33.7085H4.55768C3.31504 33.7085 2.30768 32.7011 2.30768 31.4585V15.811Z" fill="url(#paint18_linear_152_3655)"/>
<path d="M2.30768 15.811C2.30768 14.5683 3.31504 13.561 4.55768 13.561H31.4426C32.6853 13.561 33.6926 14.5683 33.6926 15.811V31.4585C33.6926 32.7011 32.6853 33.7085 31.4426 33.7085H4.55768C3.31504 33.7085 2.30768 32.7011 2.30768 31.4585V15.811Z" fill="url(#paint19_radial_152_3655)"/>
<path d="M2.30768 15.811C2.30768 14.5683 3.31504 13.561 4.55768 13.561H31.4426C32.6853 13.561 33.6926 14.5683 33.6926 15.811V31.4585C33.6926 32.7011 32.6853 33.7085 31.4426 33.7085H4.55768C3.31504 33.7085 2.30768 32.7011 2.30768 31.4585V15.811Z" fill="url(#paint20_radial_152_3655)"/>
<path d="M2.30768 15.811C2.30768 14.5683 3.31504 13.561 4.55768 13.561H31.4426C32.6853 13.561 33.6926 14.5683 33.6926 15.811V31.4585C33.6926 32.7011 32.6853 33.7085 31.4426 33.7085H4.55768C3.31504 33.7085 2.30768 32.7011 2.30768 31.4585V15.811Z" fill="url(#paint21_radial_152_3655)"/>
<path d="M2.30768 12.3865C2.30768 11.1439 3.31504 10.1365 4.55768 10.1365H31.4426C32.6853 10.1365 33.6926 11.1439 33.6926 12.3865V17.4032C33.6926 19.5778 31.9297 21.3407 29.7551 21.3407H6.24518C4.07056 21.3407 2.30768 19.5778 2.30768 17.4032V12.3865Z" fill="url(#paint22_linear_152_3655)"/>
<path d="M2.30768 12.3865C2.30768 11.1439 3.31504 10.1365 4.55768 10.1365H31.4426C32.6853 10.1365 33.6926 11.1439 33.6926 12.3865V17.4032C33.6926 19.5778 31.9297 21.3407 29.7551 21.3407H6.24518C4.07056 21.3407 2.30768 19.5778 2.30768 17.4032V12.3865Z" fill="url(#paint23_linear_152_3655)"/>
<path d="M2.30768 12.3865C2.30768 11.1439 3.31504 10.1365 4.55768 10.1365H31.4426C32.6853 10.1365 33.6926 11.1439 33.6926 12.3865V17.4032C33.6926 19.5778 31.9297 21.3407 29.7551 21.3407H6.24518C4.07056 21.3407 2.30768 19.5778 2.30768 17.4032V12.3865Z" fill="url(#paint24_linear_152_3655)"/>
<path d="M2.30768 12.3865C2.30768 11.1439 3.31504 10.1365 4.55768 10.1365H31.4426C32.6853 10.1365 33.6926 11.1439 33.6926 12.3865V17.4032C33.6926 19.5778 31.9297 21.3407 29.7551 21.3407H6.24518C4.07056 21.3407 2.30768 19.5778 2.30768 17.4032V12.3865Z" fill="url(#paint25_linear_152_3655)"/>
<path d="M2.30768 12.3865C2.30768 11.1439 3.31504 10.1365 4.55768 10.1365H31.4426C32.6853 10.1365 33.6926 11.1439 33.6926 12.3865V17.4032C33.6926 19.5778 31.9297 21.3407 29.7551 21.3407H6.24518C4.07056 21.3407 2.30768 19.5778 2.30768 17.4032V12.3865Z" fill="url(#paint26_linear_152_3655)"/>
<path d="M2.30768 12.3865C2.30768 11.1439 3.31504 10.1365 4.55768 10.1365H31.4426C32.6853 10.1365 33.6926 11.1439 33.6926 12.3865V17.4032C33.6926 19.5778 31.9297 21.3407 29.7551 21.3407H6.24518C4.07056 21.3407 2.30768 19.5778 2.30768 17.4032V12.3865Z" fill="url(#paint27_radial_152_3655)"/>
<rect x="14.3427" y="19.1797" width="7.31426" height="5.51895" rx="1" fill="url(#paint28_linear_152_3655)"/>
<rect x="14.3427" y="19.1797" width="7.31426" height="5.51895" rx="1" fill="url(#paint29_linear_152_3655)"/>
<rect x="14.3427" y="19.1797" width="7.31426" height="5.51895" rx="1" fill="url(#paint30_linear_152_3655)"/>
<rect x="14.3427" y="19.1797" width="7.31426" height="5.51895" rx="1" fill="url(#paint31_radial_152_3655)"/>
<rect x="14.3427" y="19.1797" width="7.31426" height="5.51895" rx="1" fill="url(#paint32_radial_152_3655)"/>
<rect x="14.3427" y="19.1797" width="7.31426" height="5.51895" rx="1" fill="url(#paint33_linear_152_3655)"/>
<rect x="14.3427" y="19.1797" width="7.31426" height="5.51895" rx="1" fill="url(#paint34_radial_152_3655)"/>
<rect x="14.3427" y="19.1797" width="7.31426" height="5.51895" rx="1" fill="url(#paint35_linear_152_3655)"/>
<rect x="14.3427" y="19.1797" width="7.31426" height="5.51895" rx="1" fill="url(#paint36_linear_152_3655)"/>
<path d="M21.6569 21.3408H14.3427V20.3047C14.3427 19.6834 14.8463 19.1797 15.4677 19.1797H20.5319C21.1532 19.1797 21.6569 19.6834 21.6569 20.3047V21.3408Z" fill="url(#paint37_linear_152_3655)"/>
<path d="M21.6569 21.3408H14.3427V20.3047C14.3427 19.6834 14.8463 19.1797 15.4677 19.1797H20.5319C21.1532 19.1797 21.6569 19.6834 21.6569 20.3047V21.3408Z" fill="url(#paint38_linear_152_3655)"/>
<defs>
<radialGradient id="paint0_radial_152_3655" cx="0" cy="0" r="1" gradientUnits="userSpaceOnUse" gradientTransform="translate(18.3418 10.4692) rotate(101.293) scale(3.66938 2.97639)">
<stop offset="0.645833" stop-color="#77425B"/>
<stop offset="1" stop-color="#774256" stop-opacity="0"/>
</radialGradient>
<radialGradient id="paint1_radial_152_3655" cx="0" cy="0" r="1" gradientUnits="userSpaceOnUse" gradientTransform="translate(18.3418 10.4692) rotate(101.293) scale(3.66938 2.97639)">
<stop offset="0.546875" stop-color="#603C3A"/>
<stop offset="1" stop-color="#603C3A" stop-opacity="0"/>
</radialGradient>
<radialGradient id="paint2_radial_152_3655" cx="0" cy="0" r="1" gradientUnits="userSpaceOnUse" gradientTransform="translate(12.121 8.53709) rotate(107.475) scale(2.95954 1.89669)">
<stop offset="0.333333" stop-color="#77425C"/>
<stop offset="1" stop-color="#774256" stop-opacity="0"/>
</radialGradient>
<radialGradient id="paint3_radial_152_3655" cx="0" cy="0" r="1" gradientUnits="userSpaceOnUse" gradientTransform="translate(12.121 8.53709) rotate(107.475) scale(2.95954 1.89669)">
<stop offset="0.333333" stop-color="#603C3A"/>
<stop offset="1" stop-color="#603C3A" stop-opacity="0"/>
</radialGradient>
<radialGradient id="paint4_radial_152_3655" cx="0" cy="0" r="1" gradientUnits="userSpaceOnUse" gradientTransform="translate(20.343 7.2686) rotate(124.287) scale(0.643262 1.31871)">
<stop stop-color="#98726F"/>
<stop offset="1" stop-color="#98726F" stop-opacity="0"/>
</radialGradient>
<radialGradient id="paint5_radial_152_3655" cx="0" cy="0" r="1" gradientUnits="userSpaceOnUse" gradientTransform="translate(21.6476 8.5973) rotate(135) scale(0.785793 2.14548)">
<stop stop-color="#98726F"/>
<stop offset="1" stop-color="#98726F" stop-opacity="0"/>
</radialGradient>
<radialGradient id="paint6_radial_152_3655" cx="0" cy="0" r="1" gradientUnits="userSpaceOnUse" gradientTransform="translate(15.2457 8.37988) rotate(-148.57) scale(0.509618 2.09115)">
<stop stop-color="#7D5952"/>
<stop offset="1" stop-color="#7D5952" stop-opacity="0"/>
</radialGradient>
<linearGradient id="paint7_linear_152_3655" x1="18.0001" y1="22.2188" x2="18.0001" y2="33.376" gradientUnits="userSpaceOnUse">
<stop stop-color="#81505E"/>
<stop offset="1" stop-color="#754759"/>
</linearGradient>
<linearGradient id="paint8_linear_152_3655" x1="18.0001" y1="21.0963" x2="18.0001" y2="21.8741" gradientUnits="userSpaceOnUse">
<stop offset="0.151099" stop-color="#74394F"/>
<stop offset="1" stop-color="#74394F" stop-opacity="0"/>
</linearGradient>
<radialGradient id="paint9_radial_152_3655" cx="0" cy="0" r="1" gradientUnits="userSpaceOnUse" gradientTransform="translate(2.08015 22.7971) rotate(-7.96175) scale(3.81632)">
<stop offset="0.490139" stop-color="#81515F"/>
<stop offset="1" stop-color="#81515F" stop-opacity="0"/>
</radialGradient>
<radialGradient id="paint10_radial_152_3655" cx="0" cy="0" r="1" gradientUnits="userSpaceOnUse" gradientTransform="translate(34.2093 21.9383) rotate(177.013) scale(2.92398)">
<stop offset="0.490139" stop-color="#81515F"/>
<stop offset="1" stop-color="#81515F" stop-opacity="0"/>
</radialGradient>
<linearGradient id="paint11_linear_152_3655" x1="18.0001" y1="33.8573" x2="18.0001" y2="33.0189" gradientUnits="userSpaceOnUse">
<stop stop-color="#722E6C"/>
<stop offset="1" stop-color="#722E6C" stop-opacity="0"/>
</linearGradient>
<linearGradient id="paint12_linear_152_3655" x1="32.7116" y1="34.4453" x2="31.7004" y2="33.2362" gradientUnits="userSpaceOnUse">
<stop stop-color="#722E60"/>
<stop offset="1" stop-color="#722E6C" stop-opacity="0"/>
</linearGradient>
<linearGradient id="paint13_linear_152_3655" x1="34.2387" y1="28.1544" x2="33.382" y2="28.1544" gradientUnits="userSpaceOnUse">
<stop stop-color="#722E60"/>
<stop offset="1" stop-color="#722E6C" stop-opacity="0"/>
</linearGradient>
<linearGradient id="paint14_linear_152_3655" x1="33.6926" y1="26.1022" x2="33.0157" y2="26.1022" gradientUnits="userSpaceOnUse">
<stop stop-color="#946869"/>
<stop offset="1" stop-color="#946869" stop-opacity="0"/>
</linearGradient>
<linearGradient id="paint15_linear_152_3655" x1="33.528" y1="32.9231" x2="32.811" y2="32.3423" gradientUnits="userSpaceOnUse">
<stop stop-color="#946869"/>
<stop offset="1" stop-color="#946869" stop-opacity="0"/>
</linearGradient>
<linearGradient id="paint16_linear_152_3655" x1="2.30768" y1="25.6358" x2="3.04398" y2="25.6358" gradientUnits="userSpaceOnUse">
<stop stop-color="#693A47"/>
<stop offset="1" stop-color="#693A47" stop-opacity="0"/>
</linearGradient>
<linearGradient id="paint17_linear_152_3655" x1="2.80371" y1="33.2579" x2="3.19482" y2="32.4888" gradientUnits="userSpaceOnUse">
<stop stop-color="#693A3D"/>
<stop offset="1" stop-color="#693A47" stop-opacity="0"/>
</linearGradient>
<linearGradient id="paint18_linear_152_3655" x1="17.7125" y1="33.7085" x2="17.7125" y2="33.1506" gradientUnits="userSpaceOnUse">
<stop stop-color="#693A3D"/>
<stop offset="1" stop-color="#693A47" stop-opacity="0"/>
</linearGradient>
<radialGradient id="paint19_radial_152_3655" cx="0" cy="0" r="1" gradientUnits="userSpaceOnUse" gradientTransform="translate(15.1819 23.8413) rotate(88.3153) scale(1.50314)">
<stop offset="0.385489" stop-color="#70344D"/>
<stop offset="1" stop-color="#70344D" stop-opacity="0"/>
</radialGradient>
<radialGradient id="paint20_radial_152_3655" cx="0" cy="0" r="1" gradientUnits="userSpaceOnUse" gradientTransform="translate(17.7598 23.9654) rotate(80.0569) scale(1.39186 3.00027)">
<stop offset="0.4875" stop-color="#70344D"/>
<stop offset="1" stop-color="#70344D" stop-opacity="0"/>
</radialGradient>
<radialGradient id="paint21_radial_152_3655" cx="0" cy="0" r="1" gradientUnits="userSpaceOnUse" gradientTransform="translate(14.7343 22.151) rotate(1.4688) scale(1.08866 2.3467)">
<stop offset="0.4875" stop-color="#70344D" stop-opacity="0.73"/>
<stop offset="1" stop-color="#70344D" stop-opacity="0"/>
</radialGradient>
<linearGradient id="paint22_linear_152_3655" x1="18.0001" y1="10.1365" x2="18.0001" y2="21.3407" gradientUnits="userSpaceOnUse">
<stop stop-color="#82525B"/>
<stop offset="1" stop-color="#714654"/>
</linearGradient>
<linearGradient id="paint23_linear_152_3655" x1="18.0001" y1="21.3407" x2="18.0001" y2="20.1549" gradientUnits="userSpaceOnUse">
<stop stop-color="#632752"/>
<stop offset="0.667599" stop-color="#632752" stop-opacity="0"/>
</linearGradient>
<linearGradient id="paint24_linear_152_3655" x1="31.9804" y1="21.1832" x2="31.0649" y2="20.2139" gradientUnits="userSpaceOnUse">
<stop stop-color="#632752"/>
<stop offset="1" stop-color="#632752" stop-opacity="0"/>
</linearGradient>
<linearGradient id="paint25_linear_152_3655" x1="3.43868" y1="20.5639" x2="4.16569" y2="19.5677" gradientUnits="userSpaceOnUse">
<stop stop-color="#632752"/>
<stop offset="1" stop-color="#632752" stop-opacity="0"/>
</linearGradient>
<linearGradient id="paint26_linear_152_3655" x1="32.4073" y1="20.6854" x2="31.7967" y2="19.8213" gradientUnits="userSpaceOnUse">
<stop stop-color="#6A315C"/>
<stop offset="1" stop-color="#6A315C" stop-opacity="0"/>
</linearGradient>
<radialGradient id="paint27_radial_152_3655" cx="0" cy="0" r="1" gradientUnits="userSpaceOnUse" gradientTransform="translate(15.3665 20.9257) rotate(-40.3645) scale(1.9453)">
<stop offset="0.4875" stop-color="#683153"/>
<stop offset="1" stop-color="#693354" stop-opacity="0"/>
</radialGradient>
<linearGradient id="paint28_linear_152_3655" x1="17.9998" y1="21.4454" x2="17.9998" y2="24.6986" gradientUnits="userSpaceOnUse">
<stop stop-color="#D38773"/>
<stop offset="1" stop-color="#D17A55"/>
</linearGradient>
<linearGradient id="paint29_linear_152_3655" x1="21.6569" y1="23.0624" x2="21.3817" y2="23.0624" gradientUnits="userSpaceOnUse">
<stop stop-color="#DE987D"/>
<stop offset="1" stop-color="#DE987D" stop-opacity="0"/>
</linearGradient>
<linearGradient id="paint30_linear_152_3655" x1="18.9038" y1="24.6987" x2="18.9038" y2="24.4936" gradientUnits="userSpaceOnUse">
<stop stop-color="#DE987D"/>
<stop offset="1" stop-color="#DE987D" stop-opacity="0"/>
</linearGradient>
<radialGradient id="paint31_radial_152_3655" cx="0" cy="0" r="1" gradientUnits="userSpaceOnUse" gradientTransform="translate(20.5602 24.9489) rotate(-35.8376) scale(1.03694 0.352833)">
<stop stop-color="#DE987D"/>
<stop offset="1" stop-color="#DE987D" stop-opacity="0"/>
</radialGradient>
<radialGradient id="paint32_radial_152_3655" cx="0" cy="0" r="1" gradientUnits="userSpaceOnUse" gradientTransform="translate(21.1206 24.7505) rotate(-58.344) scale(1.02185 0.347699)">
<stop stop-color="#DE987D"/>
<stop offset="1" stop-color="#DE987D" stop-opacity="0"/>
</radialGradient>
<linearGradient id="paint33_linear_152_3655" x1="14.3427" y1="22.4214" x2="14.6231" y2="22.4214" gradientUnits="userSpaceOnUse">
<stop stop-color="#CC685C"/>
<stop offset="1" stop-color="#CC685C" stop-opacity="0"/>
</linearGradient>
<radialGradient id="paint34_radial_152_3655" cx="0" cy="0" r="1" gradientUnits="userSpaceOnUse" gradientTransform="translate(14.7648 24.6987) rotate(-54.589) scale(0.543593 10.8679)">
<stop stop-color="#CC685C"/>
<stop offset="1" stop-color="#CC685C" stop-opacity="0"/>
</radialGradient>
<linearGradient id="paint35_linear_152_3655" x1="17.9998" y1="21.129" x2="17.9998" y2="21.7091" gradientUnits="userSpaceOnUse">
<stop offset="0.333334" stop-color="#6D311A"/>
<stop offset="1" stop-color="#C46E44" stop-opacity="0"/>
</linearGradient>
<linearGradient id="paint36_linear_152_3655" x1="17.9998" y1="19.1797" x2="17.9998" y2="25.8684" gradientUnits="userSpaceOnUse">
<stop offset="0.711695" stop-color="#CA624F" stop-opacity="0"/>
<stop offset="0.873443" stop-color="#CA624F"/>
</linearGradient>
<linearGradient id="paint37_linear_152_3655" x1="17.9998" y1="20.2602" x2="17.9998" y2="21.3408" gradientUnits="userSpaceOnUse">
<stop stop-color="#D89577"/>
<stop offset="1" stop-color="#CB7368"/>
</linearGradient>
<linearGradient id="paint38_linear_152_3655" x1="17.9998" y1="19.1797" x2="17.9998" y2="19.4148" gradientUnits="userSpaceOnUse">
<stop stop-color="#E2A37B"/>
<stop offset="1" stop-color="#E2A37B" stop-opacity="0"/>
</linearGradient>
</defs>
</svg>
