<svg width="32" height="32" viewBox="0 0 32 32" fill="none" xmlns="http://www.w3.org/2000/svg">
<path d="M17.5943 11.47C17.5843 11.47 17.5843 11.47 17.5843 11.47L15.4643 7.72C14.8343 6.52 14.8643 5.12 15.5443 3.95C16.2343 2.73 17.5643 2 18.9643 2H19.0043C19.5543 2 20.0043 2.45 20.0043 3C20.0043 3.55 19.5543 4 19.0043 4H18.9543C18.2543 4 17.6043 4.36 17.2543 4.96C16.9343 5.52 16.9243 6.19 17.2143 6.77L19.3143 10.48C19.3143 10.49 19.3143 10.49 19.3143 10.49L17.5943 11.47Z" fill="url(#paint0_radial_210_2494)"/>
<path d="M17.5943 11.47C17.5843 11.47 17.5843 11.47 17.5843 11.47L15.4643 7.72C14.8343 6.52 14.8643 5.12 15.5443 3.95C16.2343 2.73 17.5643 2 18.9643 2H19.0043C19.5543 2 20.0043 2.45 20.0043 3C20.0043 3.55 19.5543 4 19.0043 4H18.9543C18.2543 4 17.6043 4.36 17.2543 4.96C16.9343 5.52 16.9243 6.19 17.2143 6.77L19.3143 10.48C19.3143 10.49 19.3143 10.49 19.3143 10.49L17.5943 11.47Z" fill="url(#paint1_radial_210_2494)"/>
<path d="M16.0042 13.34C18.3073 13.34 20.1742 11.473 20.1742 9.17C20.1742 6.86697 18.3073 5 16.0042 5C13.7012 5 11.8342 6.86697 11.8342 9.17C11.8342 11.473 13.7012 13.34 16.0042 13.34Z" fill="#A8C245"/>
<path d="M16.0042 13.34C18.3073 13.34 20.1742 11.473 20.1742 9.17C20.1742 6.86697 18.3073 5 16.0042 5C13.7012 5 11.8342 6.86697 11.8342 9.17C11.8342 11.473 13.7012 13.34 16.0042 13.34Z" fill="url(#paint2_radial_210_2494)"/>
<path d="M8.49428 30C6.33428 30 4.52428 28.34 4.33428 26.19L3.01428 11.07C2.82428 8.88 4.55428 7 6.75428 7H9.53428C11.2643 7 12.6543 8.4 12.6543 10.12V25.82C12.6643 28.13 10.7943 30 8.49428 30Z" fill="url(#paint3_linear_210_2494)"/>
<path d="M8.49428 30C6.33428 30 4.52428 28.34 4.33428 26.19L3.01428 11.07C2.82428 8.88 4.55428 7 6.75428 7H9.53428C11.2643 7 12.6543 8.4 12.6543 10.12V25.82C12.6643 28.13 10.7943 30 8.49428 30Z" fill="url(#paint4_radial_210_2494)"/>
<path d="M8.49428 30C6.33428 30 4.52428 28.34 4.33428 26.19L3.01428 11.07C2.82428 8.88 4.55428 7 6.75428 7H9.53428C11.2643 7 12.6543 8.4 12.6543 10.12V25.82C12.6643 28.13 10.7943 30 8.49428 30Z" fill="url(#paint5_radial_210_2494)"/>
<path d="M8.49428 30C6.33428 30 4.52428 28.34 4.33428 26.19L3.01428 11.07C2.82428 8.88 4.55428 7 6.75428 7H9.53428C11.2643 7 12.6543 8.4 12.6543 10.12V25.82C12.6643 28.13 10.7943 30 8.49428 30Z" fill="url(#paint6_radial_210_2494)"/>
<path d="M8.49428 30C6.33428 30 4.52428 28.34 4.33428 26.19L3.01428 11.07C2.82428 8.88 4.55428 7 6.75428 7H9.53428C11.2643 7 12.6543 8.4 12.6543 10.12V25.82C12.6643 28.13 10.7943 30 8.49428 30Z" fill="url(#paint7_radial_210_2494)"/>
<path d="M8.49428 30C6.33428 30 4.52428 28.34 4.33428 26.19L3.01428 11.07C2.82428 8.88 4.55428 7 6.75428 7H9.53428C11.2643 7 12.6543 8.4 12.6543 10.12V25.82C12.6643 28.13 10.7943 30 8.49428 30Z" fill="url(#paint8_radial_210_2494)"/>
<path d="M8.49428 30C6.33428 30 4.52428 28.34 4.33428 26.19L3.01428 11.07C2.82428 8.88 4.55428 7 6.75428 7H9.53428C11.2643 7 12.6543 8.4 12.6543 10.12V25.82C12.6643 28.13 10.7943 30 8.49428 30Z" fill="url(#paint9_radial_210_2494)"/>
<path d="M23.5143 30C25.6743 30 27.4843 28.34 27.6743 26.19L28.9843 11.08C29.1843 8.88 27.4543 7 25.2543 7H22.4743C20.7443 7 19.3543 8.4 19.3543 10.12V25.82C19.3443 28.13 21.2143 30 23.5143 30Z" fill="url(#paint10_linear_210_2494)"/>
<path d="M23.5143 30C25.6743 30 27.4843 28.34 27.6743 26.19L28.9843 11.08C29.1843 8.88 27.4543 7 25.2543 7H22.4743C20.7443 7 19.3543 8.4 19.3543 10.12V25.82C19.3443 28.13 21.2143 30 23.5143 30Z" fill="url(#paint11_linear_210_2494)"/>
<path d="M23.5143 30C25.6743 30 27.4843 28.34 27.6743 26.19L28.9843 11.08C29.1843 8.88 27.4543 7 25.2543 7H22.4743C20.7443 7 19.3543 8.4 19.3543 10.12V25.82C19.3443 28.13 21.2143 30 23.5143 30Z" fill="url(#paint12_linear_210_2494)"/>
<path d="M23.5143 30C25.6743 30 27.4843 28.34 27.6743 26.19L28.9843 11.08C29.1843 8.88 27.4543 7 25.2543 7H22.4743C20.7443 7 19.3543 8.4 19.3543 10.12V25.82C19.3443 28.13 21.2143 30 23.5143 30Z" fill="url(#paint13_linear_210_2494)"/>
<path d="M23.5143 30C25.6743 30 27.4843 28.34 27.6743 26.19L28.9843 11.08C29.1843 8.88 27.4543 7 25.2543 7H22.4743C20.7443 7 19.3543 8.4 19.3543 10.12V25.82C19.3443 28.13 21.2143 30 23.5143 30Z" fill="url(#paint14_linear_210_2494)"/>
<path d="M23.5143 30C25.6743 30 27.4843 28.34 27.6743 26.19L28.9843 11.08C29.1843 8.88 27.4543 7 25.2543 7H22.4743C20.7443 7 19.3543 8.4 19.3543 10.12V25.82C19.3443 28.13 21.2143 30 23.5143 30Z" fill="url(#paint15_radial_210_2494)"/>
<path d="M23.5143 30C25.6743 30 27.4843 28.34 27.6743 26.19L28.9843 11.08C29.1843 8.88 27.4543 7 25.2543 7H22.4743C20.7443 7 19.3543 8.4 19.3543 10.12V25.82C19.3443 28.13 21.2143 30 23.5143 30Z" fill="url(#paint16_radial_210_2494)"/>
<path d="M16.0043 30C12.6943 30 10.0043 27.31 10.0043 24V10.75C10.0043 8.68 11.6843 7 13.7543 7H18.2543C20.3243 7 22.0043 8.68 22.0043 10.75V24C22.0043 27.31 19.3143 30 16.0043 30Z" fill="url(#paint17_linear_210_2494)"/>
<path d="M16.0043 30C12.6943 30 10.0043 27.31 10.0043 24V10.75C10.0043 8.68 11.6843 7 13.7543 7H18.2543C20.3243 7 22.0043 8.68 22.0043 10.75V24C22.0043 27.31 19.3143 30 16.0043 30Z" fill="url(#paint18_radial_210_2494)"/>
<path d="M16.0043 30C12.6943 30 10.0043 27.31 10.0043 24V10.75C10.0043 8.68 11.6843 7 13.7543 7H18.2543C20.3243 7 22.0043 8.68 22.0043 10.75V24C22.0043 27.31 19.3143 30 16.0043 30Z" fill="url(#paint19_radial_210_2494)"/>
<path d="M16.0043 30C12.6943 30 10.0043 27.31 10.0043 24V10.75C10.0043 8.68 11.6843 7 13.7543 7H18.2543C20.3243 7 22.0043 8.68 22.0043 10.75V24C22.0043 27.31 19.3143 30 16.0043 30Z" fill="url(#paint20_radial_210_2494)"/>
<path d="M16.0043 30C12.6943 30 10.0043 27.31 10.0043 24V10.75C10.0043 8.68 11.6843 7 13.7543 7H18.2543C20.3243 7 22.0043 8.68 22.0043 10.75V24C22.0043 27.31 19.3143 30 16.0043 30Z" fill="url(#paint21_radial_210_2494)"/>
<path d="M16.0043 30C12.6943 30 10.0043 27.31 10.0043 24V10.75C10.0043 8.68 11.6843 7 13.7543 7H18.2543C20.3243 7 22.0043 8.68 22.0043 10.75V24C22.0043 27.31 19.3143 30 16.0043 30Z" fill="url(#paint22_radial_210_2494)"/>
<path d="M16.0043 30C12.6943 30 10.0043 27.31 10.0043 24V10.75C10.0043 8.68 11.6843 7 13.7543 7H18.2543C20.3243 7 22.0043 8.68 22.0043 10.75V24C22.0043 27.31 19.3143 30 16.0043 30Z" fill="url(#paint23_radial_210_2494)"/>
<defs>
<radialGradient id="paint0_radial_210_2494" cx="0" cy="0" r="1" gradientUnits="userSpaceOnUse" gradientTransform="translate(19 5.65625) rotate(-136.532) scale(4.13363 5.26925)">
<stop offset="0.359979" stop-color="#B9BE4F"/>
<stop offset="0.529751" stop-color="#F5EF41"/>
<stop offset="0.729537" stop-color="#EDEE43"/>
<stop offset="0.944828" stop-color="#B6C24B"/>
</radialGradient>
<radialGradient id="paint1_radial_210_2494" cx="0" cy="0" r="1" gradientUnits="userSpaceOnUse" gradientTransform="translate(19.5 2.84375) rotate(147.995) scale(1.17925 1.27502)">
<stop stop-color="#FFFF5E"/>
<stop offset="1" stop-color="#FFFF5C" stop-opacity="0"/>
</radialGradient>
<radialGradient id="paint2_radial_210_2494" cx="0" cy="0" r="1" gradientUnits="userSpaceOnUse" gradientTransform="translate(18.75 7.25) rotate(143.643) scale(5.58772)">
<stop stop-color="#F7FF4D"/>
<stop offset="0.576923" stop-color="#CEEC3A"/>
<stop offset="1" stop-color="#F5FF4B" stop-opacity="0"/>
</radialGradient>
<linearGradient id="paint3_linear_210_2494" x1="3.4375" y1="18" x2="10.9375" y2="18" gradientUnits="userSpaceOnUse">
<stop stop-color="#55825F"/>
<stop offset="0.516667" stop-color="#3C7B4F"/>
<stop offset="1" stop-color="#507A57"/>
</linearGradient>
<radialGradient id="paint4_radial_210_2494" cx="0" cy="0" r="1" gradientUnits="userSpaceOnUse" gradientTransform="translate(-0.3125 11.125) rotate(65.4458) scale(21.5074 18.7295)">
<stop offset="0.690908" stop-color="#375E6F" stop-opacity="0"/>
<stop offset="1" stop-color="#365C6D"/>
</radialGradient>
<radialGradient id="paint5_radial_210_2494" cx="0" cy="0" r="1" gradientUnits="userSpaceOnUse" gradientTransform="translate(9.6875 7) rotate(115.523) scale(7.68775 7.22952)">
<stop stop-color="#7CAA51"/>
<stop offset="1" stop-color="#73A645" stop-opacity="0"/>
</radialGradient>
<radialGradient id="paint6_radial_210_2494" cx="0" cy="0" r="1" gradientUnits="userSpaceOnUse" gradientTransform="translate(12 16.5) rotate(180) scale(4.5 10.7748)">
<stop stop-color="#1E4834"/>
<stop offset="0.723572" stop-color="#0B4946" stop-opacity="0"/>
</radialGradient>
<radialGradient id="paint7_radial_210_2494" cx="0" cy="0" r="1" gradientUnits="userSpaceOnUse" gradientTransform="translate(12.5 12) rotate(-161.565) scale(4.74342 7.03918)">
<stop stop-color="#1E4834"/>
<stop offset="0.723572" stop-color="#0B4946" stop-opacity="0"/>
</radialGradient>
<radialGradient id="paint8_radial_210_2494" cx="0" cy="0" r="1" gradientUnits="userSpaceOnUse" gradientTransform="translate(12.5 20.5) rotate(174.289) scale(5.02494 12.0317)">
<stop stop-color="#1E4834"/>
<stop offset="0.862889" stop-color="#0B4946" stop-opacity="0"/>
</radialGradient>
<radialGradient id="paint9_radial_210_2494" cx="0" cy="0" r="1" gradientUnits="userSpaceOnUse" gradientTransform="translate(12 11) rotate(-156.801) scale(3.80789 6.07854)">
<stop stop-color="#1E4834"/>
<stop offset="0.696007" stop-color="#0B4946" stop-opacity="0"/>
</radialGradient>
<linearGradient id="paint10_linear_210_2494" x1="27.5" y1="23.5" x2="19.5" y2="23" gradientUnits="userSpaceOnUse">
<stop stop-color="#A6CD6A"/>
<stop offset="1" stop-color="#2F873D"/>
</linearGradient>
<linearGradient id="paint11_linear_210_2494" x1="27.5" y1="17.5" x2="12.5" y2="16.5" gradientUnits="userSpaceOnUse">
<stop stop-color="#9EC94F" stop-opacity="0"/>
<stop offset="1" stop-color="#008461"/>
</linearGradient>
<linearGradient id="paint12_linear_210_2494" x1="28" y1="6" x2="24.1742" y2="32.0402" gradientUnits="userSpaceOnUse">
<stop offset="0.544335" stop-color="#9FE152" stop-opacity="0"/>
<stop offset="0.910186" stop-color="#2E6D64"/>
</linearGradient>
<linearGradient id="paint13_linear_210_2494" x1="28" y1="6" x2="22.5" y2="31" gradientUnits="userSpaceOnUse">
<stop offset="0.544335" stop-color="#AFDF77" stop-opacity="0"/>
<stop offset="0.946353" stop-color="#095055"/>
</linearGradient>
<linearGradient id="paint14_linear_210_2494" x1="30" y1="9" x2="19" y2="9" gradientUnits="userSpaceOnUse">
<stop offset="0.515625" stop-color="#5C8E22" stop-opacity="0"/>
<stop offset="1" stop-color="#205A16" stop-opacity="0.5"/>
</linearGradient>
<radialGradient id="paint15_radial_210_2494" cx="0" cy="0" r="1" gradientUnits="userSpaceOnUse" gradientTransform="translate(27 9) rotate(-180) scale(10 8.86871)">
<stop stop-color="#CDFF62" stop-opacity="0.5"/>
<stop offset="0.556296" stop-color="#8ADD2A" stop-opacity="0"/>
</radialGradient>
<radialGradient id="paint16_radial_210_2494" cx="0" cy="0" r="1" gradientUnits="userSpaceOnUse" gradientTransform="translate(27 9) rotate(-180) scale(10 8.86871)">
<stop offset="0.0625" stop-color="#CAFE5D" stop-opacity="0.5"/>
<stop offset="0.556296" stop-color="#A9B997" stop-opacity="0"/>
</radialGradient>
<linearGradient id="paint17_linear_210_2494" x1="10.0043" y1="16.375" x2="22.0043" y2="16.375" gradientUnits="userSpaceOnUse">
<stop stop-color="#538058"/>
<stop offset="0.207977" stop-color="#4A844D"/>
<stop offset="0.609019" stop-color="#70A366"/>
<stop offset="1" stop-color="#83B84C"/>
</linearGradient>
<radialGradient id="paint18_radial_210_2494" cx="0" cy="0" r="1" gradientUnits="userSpaceOnUse" gradientTransform="translate(16.0043 9.5) rotate(90) scale(23.9375 25.4732)">
<stop offset="0.638021" stop-color="#3D6176" stop-opacity="0"/>
<stop offset="0.88052" stop-color="#415F7A"/>
</radialGradient>
<radialGradient id="paint19_radial_210_2494" cx="0" cy="0" r="1" gradientUnits="userSpaceOnUse" gradientTransform="translate(19 10) rotate(114.444) scale(6.04152 6.42913)">
<stop offset="0.0208333" stop-color="#A4D84E" stop-opacity="0.65"/>
<stop offset="0.800382" stop-color="#60965C" stop-opacity="0"/>
</radialGradient>
<radialGradient id="paint20_radial_210_2494" cx="0" cy="0" r="1" gradientUnits="userSpaceOnUse" gradientTransform="translate(19 10) rotate(114.444) scale(6.04152 6.42913)">
<stop offset="0.0208333" stop-color="#A4D84E" stop-opacity="0.65"/>
<stop offset="0.800382" stop-color="#60965C" stop-opacity="0"/>
</radialGradient>
<radialGradient id="paint21_radial_210_2494" cx="0" cy="0" r="1" gradientUnits="userSpaceOnUse" gradientTransform="translate(20 13.5) rotate(-90) scale(9.5 4.66904)">
<stop offset="0.0208333" stop-color="#A4D84E" stop-opacity="0.38"/>
<stop offset="0.800382" stop-color="#60965C" stop-opacity="0"/>
</radialGradient>
<radialGradient id="paint22_radial_210_2494" cx="0" cy="0" r="1" gradientUnits="userSpaceOnUse" gradientTransform="translate(20 15) rotate(-90) scale(11 5.40626)">
<stop offset="0.0208333" stop-color="#A4D84E" stop-opacity="0.38"/>
<stop offset="0.800382" stop-color="#60965C" stop-opacity="0"/>
</radialGradient>
<radialGradient id="paint23_radial_210_2494" cx="0" cy="0" r="1" gradientUnits="userSpaceOnUse" gradientTransform="translate(20 20.5) rotate(-90) scale(9.5 4.66904)">
<stop offset="0.0208333" stop-color="#A4D84E" stop-opacity="0.38"/>
<stop offset="0.800382" stop-color="#60965C" stop-opacity="0"/>
</radialGradient>
</defs>
</svg>
