<svg width="100%" height="100%" viewBox="0 0 36 36" fill="none" xmlns="http://www.w3.org/2000/svg">
<path fill-rule="evenodd" clip-rule="evenodd" d="M7.44851 6.72583C7.88343 6.72583 8.23601 7.07841 8.23601 7.51333V10.1354C8.23601 10.2196 8.26752 10.3008 8.32434 10.363L9.98108 12.1765C10.2744 12.4976 10.2519 12.9957 9.93084 13.2891C9.60974 13.5824 9.11163 13.5599 8.81828 13.2388L7.16153 11.4254C6.83955 11.0729 6.66101 10.6128 6.66101 10.1354V7.51333C6.66101 7.07841 7.01359 6.72583 7.44851 6.72583Z" fill="url(#paint0_linear_220_3520)"/>
<path fill-rule="evenodd" clip-rule="evenodd" d="M7.44851 6.72583C7.88343 6.72583 8.23601 7.07841 8.23601 7.51333V10.1354C8.23601 10.2196 8.26752 10.3008 8.32434 10.363L9.98108 12.1765C10.2744 12.4976 10.2519 12.9957 9.93084 13.2891C9.60974 13.5824 9.11163 13.5599 8.81828 13.2388L7.16153 11.4254C6.83955 11.0729 6.66101 10.6128 6.66101 10.1354V7.51333C6.66101 7.07841 7.01359 6.72583 7.44851 6.72583Z" fill="url(#paint1_radial_220_3520)"/>
<path fill-rule="evenodd" clip-rule="evenodd" d="M7.44851 6.72583C7.88343 6.72583 8.23601 7.07841 8.23601 7.51333V10.1354C8.23601 10.2196 8.26752 10.3008 8.32434 10.363L9.98108 12.1765C10.2744 12.4976 10.2519 12.9957 9.93084 13.2891C9.60974 13.5824 9.11163 13.5599 8.81828 13.2388L7.16153 11.4254C6.83955 11.0729 6.66101 10.6128 6.66101 10.1354V7.51333C6.66101 7.07841 7.01359 6.72583 7.44851 6.72583Z" fill="url(#paint2_radial_220_3520)"/>
<path fill-rule="evenodd" clip-rule="evenodd" d="M7.44851 6.72583C7.88343 6.72583 8.23601 7.07841 8.23601 7.51333V10.1354C8.23601 10.2196 8.26752 10.3008 8.32434 10.363L9.98108 12.1765C10.2744 12.4976 10.2519 12.9957 9.93084 13.2891C9.60974 13.5824 9.11163 13.5599 8.81828 13.2388L7.16153 11.4254C6.83955 11.0729 6.66101 10.6128 6.66101 10.1354V7.51333C6.66101 7.07841 7.01359 6.72583 7.44851 6.72583Z" fill="url(#paint3_radial_220_3520)"/>
<path fill-rule="evenodd" clip-rule="evenodd" d="M7.44851 6.72583C7.88343 6.72583 8.23601 7.07841 8.23601 7.51333V10.1354C8.23601 10.2196 8.26752 10.3008 8.32434 10.363L9.98108 12.1765C10.2744 12.4976 10.2519 12.9957 9.93084 13.2891C9.60974 13.5824 9.11163 13.5599 8.81828 13.2388L7.16153 11.4254C6.83955 11.0729 6.66101 10.6128 6.66101 10.1354V7.51333C6.66101 7.07841 7.01359 6.72583 7.44851 6.72583Z" fill="url(#paint4_radial_220_3520)"/>
<path fill-rule="evenodd" clip-rule="evenodd" d="M7.44851 6.72583C7.88343 6.72583 8.23601 7.07841 8.23601 7.51333V10.1354C8.23601 10.2196 8.26752 10.3008 8.32434 10.363L9.98108 12.1765C10.2744 12.4976 10.2519 12.9957 9.93084 13.2891C9.60974 13.5824 9.11163 13.5599 8.81828 13.2388L7.16153 11.4254C6.83955 11.0729 6.66101 10.6128 6.66101 10.1354V7.51333C6.66101 7.07841 7.01359 6.72583 7.44851 6.72583Z" fill="url(#paint5_radial_220_3520)"/>
<path fill-rule="evenodd" clip-rule="evenodd" d="M7.44851 6.72583C7.88343 6.72583 8.23601 7.07841 8.23601 7.51333V10.1354C8.23601 10.2196 8.26752 10.3008 8.32434 10.363L9.98108 12.1765C10.2744 12.4976 10.2519 12.9957 9.93084 13.2891C9.60974 13.5824 9.11163 13.5599 8.81828 13.2388L7.16153 11.4254C6.83955 11.0729 6.66101 10.6128 6.66101 10.1354V7.51333C6.66101 7.07841 7.01359 6.72583 7.44851 6.72583Z" fill="url(#paint6_radial_220_3520)"/>
<path fill-rule="evenodd" clip-rule="evenodd" d="M7.44851 6.72583C7.88343 6.72583 8.23601 7.07841 8.23601 7.51333V10.1354C8.23601 10.2196 8.26752 10.3008 8.32434 10.363L9.98108 12.1765C10.2744 12.4976 10.2519 12.9957 9.93084 13.2891C9.60974 13.5824 9.11163 13.5599 8.81828 13.2388L7.16153 11.4254C6.83955 11.0729 6.66101 10.6128 6.66101 10.1354V7.51333C6.66101 7.07841 7.01359 6.72583 7.44851 6.72583Z" fill="url(#paint7_radial_220_3520)"/>
<path fill-rule="evenodd" clip-rule="evenodd" d="M7.44851 6.72583C7.88343 6.72583 8.23601 7.07841 8.23601 7.51333V10.1354C8.23601 10.2196 8.26752 10.3008 8.32434 10.363L9.98108 12.1765C10.2744 12.4976 10.2519 12.9957 9.93084 13.2891C9.60974 13.5824 9.11163 13.5599 8.81828 13.2388L7.16153 11.4254C6.83955 11.0729 6.66101 10.6128 6.66101 10.1354V7.51333C6.66101 7.07841 7.01359 6.72583 7.44851 6.72583Z" fill="url(#paint8_radial_220_3520)"/>
<path fill-rule="evenodd" clip-rule="evenodd" d="M7.1743 16.7031C6.64815 16.6247 6.15782 16.6156 5.73977 16.638C5.15817 16.669 4.58242 16.9767 4.07091 17.4764L3.4549 18.0783C3.14381 18.3822 2.64522 18.3764 2.34128 18.0653C2.03734 17.7542 2.04314 17.2556 2.35423 16.9517L2.97024 16.3498C3.65288 15.6829 4.57026 15.1232 5.65576 15.0652C6.1602 15.0383 6.75816 15.0487 7.40632 15.1453C7.83649 15.2093 8.13329 15.61 8.06922 16.0402C8.00515 16.4703 7.60448 16.7671 7.1743 16.7031Z" fill="url(#paint9_linear_220_3520)"/>
<path fill-rule="evenodd" clip-rule="evenodd" d="M7.1743 16.7031C6.64815 16.6247 6.15782 16.6156 5.73977 16.638C5.15817 16.669 4.58242 16.9767 4.07091 17.4764L3.4549 18.0783C3.14381 18.3822 2.64522 18.3764 2.34128 18.0653C2.03734 17.7542 2.04314 17.2556 2.35423 16.9517L2.97024 16.3498C3.65288 15.6829 4.57026 15.1232 5.65576 15.0652C6.1602 15.0383 6.75816 15.0487 7.40632 15.1453C7.83649 15.2093 8.13329 15.61 8.06922 16.0402C8.00515 16.4703 7.60448 16.7671 7.1743 16.7031Z" fill="url(#paint10_radial_220_3520)"/>
<path fill-rule="evenodd" clip-rule="evenodd" d="M7.1743 16.7031C6.64815 16.6247 6.15782 16.6156 5.73977 16.638C5.15817 16.669 4.58242 16.9767 4.07091 17.4764L3.4549 18.0783C3.14381 18.3822 2.64522 18.3764 2.34128 18.0653C2.03734 17.7542 2.04314 17.2556 2.35423 16.9517L2.97024 16.3498C3.65288 15.6829 4.57026 15.1232 5.65576 15.0652C6.1602 15.0383 6.75816 15.0487 7.40632 15.1453C7.83649 15.2093 8.13329 15.61 8.06922 16.0402C8.00515 16.4703 7.60448 16.7671 7.1743 16.7031Z" fill="url(#paint11_radial_220_3520)"/>
<path fill-rule="evenodd" clip-rule="evenodd" d="M7.1743 16.7031C6.64815 16.6247 6.15782 16.6156 5.73977 16.638C5.15817 16.669 4.58242 16.9767 4.07091 17.4764L3.4549 18.0783C3.14381 18.3822 2.64522 18.3764 2.34128 18.0653C2.03734 17.7542 2.04314 17.2556 2.35423 16.9517L2.97024 16.3498C3.65288 15.6829 4.57026 15.1232 5.65576 15.0652C6.1602 15.0383 6.75816 15.0487 7.40632 15.1453C7.83649 15.2093 8.13329 15.61 8.06922 16.0402C8.00515 16.4703 7.60448 16.7671 7.1743 16.7031Z" fill="url(#paint12_radial_220_3520)"/>
<path fill-rule="evenodd" clip-rule="evenodd" d="M7.1743 16.7031C6.64815 16.6247 6.15782 16.6156 5.73977 16.638C5.15817 16.669 4.58242 16.9767 4.07091 17.4764L3.4549 18.0783C3.14381 18.3822 2.64522 18.3764 2.34128 18.0653C2.03734 17.7542 2.04314 17.2556 2.35423 16.9517L2.97024 16.3498C3.65288 15.6829 4.57026 15.1232 5.65576 15.0652C6.1602 15.0383 6.75816 15.0487 7.40632 15.1453C7.83649 15.2093 8.13329 15.61 8.06922 16.0402C8.00515 16.4703 7.60448 16.7671 7.1743 16.7031Z" fill="url(#paint13_radial_220_3520)"/>
<path fill-rule="evenodd" clip-rule="evenodd" d="M7.1743 16.7031C6.64815 16.6247 6.15782 16.6156 5.73977 16.638C5.15817 16.669 4.58242 16.9767 4.07091 17.4764L3.4549 18.0783C3.14381 18.3822 2.64522 18.3764 2.34128 18.0653C2.03734 17.7542 2.04314 17.2556 2.35423 16.9517L2.97024 16.3498C3.65288 15.6829 4.57026 15.1232 5.65576 15.0652C6.1602 15.0383 6.75816 15.0487 7.40632 15.1453C7.83649 15.2093 8.13329 15.61 8.06922 16.0402C8.00515 16.4703 7.60448 16.7671 7.1743 16.7031Z" fill="url(#paint14_linear_220_3520)"/>
<path fill-rule="evenodd" clip-rule="evenodd" d="M7.1743 16.7031C6.64815 16.6247 6.15782 16.6156 5.73977 16.638C5.15817 16.669 4.58242 16.9767 4.07091 17.4764L3.4549 18.0783C3.14381 18.3822 2.64522 18.3764 2.34128 18.0653C2.03734 17.7542 2.04314 17.2556 2.35423 16.9517L2.97024 16.3498C3.65288 15.6829 4.57026 15.1232 5.65576 15.0652C6.1602 15.0383 6.75816 15.0487 7.40632 15.1453C7.83649 15.2093 8.13329 15.61 8.06922 16.0402C8.00515 16.4703 7.60448 16.7671 7.1743 16.7031Z" fill="url(#paint15_radial_220_3520)"/>
<path fill-rule="evenodd" clip-rule="evenodd" d="M7.1743 16.7031C6.64815 16.6247 6.15782 16.6156 5.73977 16.638C5.15817 16.669 4.58242 16.9767 4.07091 17.4764L3.4549 18.0783C3.14381 18.3822 2.64522 18.3764 2.34128 18.0653C2.03734 17.7542 2.04314 17.2556 2.35423 16.9517L2.97024 16.3498C3.65288 15.6829 4.57026 15.1232 5.65576 15.0652C6.1602 15.0383 6.75816 15.0487 7.40632 15.1453C7.83649 15.2093 8.13329 15.61 8.06922 16.0402C8.00515 16.4703 7.60448 16.7671 7.1743 16.7031Z" fill="url(#paint16_radial_220_3520)"/>
<path fill-rule="evenodd" clip-rule="evenodd" d="M8.52008 25.4604C8.79205 25.7998 8.73738 26.2954 8.39799 26.5673L6.58671 28.0188C6.24033 28.2963 6.03875 28.7162 6.03875 29.1601V32.1755C6.03875 32.6104 5.68617 32.963 5.25125 32.963C4.81632 32.963 4.46375 32.6104 4.46375 32.1755V29.1601C4.46375 28.2382 4.88241 27.3662 5.60182 26.7897L7.4131 25.3383C7.7525 25.0663 8.24811 25.121 8.52008 25.4604Z" fill="url(#paint17_linear_220_3520)"/>
<path fill-rule="evenodd" clip-rule="evenodd" d="M8.52008 25.4604C8.79205 25.7998 8.73738 26.2954 8.39799 26.5673L6.58671 28.0188C6.24033 28.2963 6.03875 28.7162 6.03875 29.1601V32.1755C6.03875 32.6104 5.68617 32.963 5.25125 32.963C4.81632 32.963 4.46375 32.6104 4.46375 32.1755V29.1601C4.46375 28.2382 4.88241 27.3662 5.60182 26.7897L7.4131 25.3383C7.7525 25.0663 8.24811 25.121 8.52008 25.4604Z" fill="url(#paint18_radial_220_3520)"/>
<path fill-rule="evenodd" clip-rule="evenodd" d="M8.52008 25.4604C8.79205 25.7998 8.73738 26.2954 8.39799 26.5673L6.58671 28.0188C6.24033 28.2963 6.03875 28.7162 6.03875 29.1601V32.1755C6.03875 32.6104 5.68617 32.963 5.25125 32.963C4.81632 32.963 4.46375 32.6104 4.46375 32.1755V29.1601C4.46375 28.2382 4.88241 27.3662 5.60182 26.7897L7.4131 25.3383C7.7525 25.0663 8.24811 25.121 8.52008 25.4604Z" fill="url(#paint19_radial_220_3520)"/>
<path fill-rule="evenodd" clip-rule="evenodd" d="M8.52008 25.4604C8.79205 25.7998 8.73738 26.2954 8.39799 26.5673L6.58671 28.0188C6.24033 28.2963 6.03875 28.7162 6.03875 29.1601V32.1755C6.03875 32.6104 5.68617 32.963 5.25125 32.963C4.81632 32.963 4.46375 32.6104 4.46375 32.1755V29.1601C4.46375 28.2382 4.88241 27.3662 5.60182 26.7897L7.4131 25.3383C7.7525 25.0663 8.24811 25.121 8.52008 25.4604Z" fill="url(#paint20_radial_220_3520)"/>
<path fill-rule="evenodd" clip-rule="evenodd" d="M8.52008 25.4604C8.79205 25.7998 8.73738 26.2954 8.39799 26.5673L6.58671 28.0188C6.24033 28.2963 6.03875 28.7162 6.03875 29.1601V32.1755C6.03875 32.6104 5.68617 32.963 5.25125 32.963C4.81632 32.963 4.46375 32.6104 4.46375 32.1755V29.1601C4.46375 28.2382 4.88241 27.3662 5.60182 26.7897L7.4131 25.3383C7.7525 25.0663 8.24811 25.121 8.52008 25.4604Z" fill="url(#paint21_radial_220_3520)"/>
<path fill-rule="evenodd" clip-rule="evenodd" d="M8.52008 25.4604C8.79205 25.7998 8.73738 26.2954 8.39799 26.5673L6.58671 28.0188C6.24033 28.2963 6.03875 28.7162 6.03875 29.1601V32.1755C6.03875 32.6104 5.68617 32.963 5.25125 32.963C4.81632 32.963 4.46375 32.6104 4.46375 32.1755V29.1601C4.46375 28.2382 4.88241 27.3662 5.60182 26.7897L7.4131 25.3383C7.7525 25.0663 8.24811 25.121 8.52008 25.4604Z" fill="url(#paint22_radial_220_3520)"/>
<path fill-rule="evenodd" clip-rule="evenodd" d="M8.52008 25.4604C8.79205 25.7998 8.73738 26.2954 8.39799 26.5673L6.58671 28.0188C6.24033 28.2963 6.03875 28.7162 6.03875 29.1601V32.1755C6.03875 32.6104 5.68617 32.963 5.25125 32.963C4.81632 32.963 4.46375 32.6104 4.46375 32.1755V29.1601C4.46375 28.2382 4.88241 27.3662 5.60182 26.7897L7.4131 25.3383C7.7525 25.0663 8.24811 25.121 8.52008 25.4604Z" fill="url(#paint23_radial_220_3520)"/>
<path fill-rule="evenodd" clip-rule="evenodd" d="M8.52008 25.4604C8.79205 25.7998 8.73738 26.2954 8.39799 26.5673L6.58671 28.0188C6.24033 28.2963 6.03875 28.7162 6.03875 29.1601V32.1755C6.03875 32.6104 5.68617 32.963 5.25125 32.963C4.81632 32.963 4.46375 32.6104 4.46375 32.1755V29.1601C4.46375 28.2382 4.88241 27.3662 5.60182 26.7897L7.4131 25.3383C7.7525 25.0663 8.24811 25.121 8.52008 25.4604Z" fill="url(#paint24_radial_220_3520)"/>
<path fill-rule="evenodd" clip-rule="evenodd" d="M8.52008 25.4604C8.79205 25.7998 8.73738 26.2954 8.39799 26.5673L6.58671 28.0188C6.24033 28.2963 6.03875 28.7162 6.03875 29.1601V32.1755C6.03875 32.6104 5.68617 32.963 5.25125 32.963C4.81632 32.963 4.46375 32.6104 4.46375 32.1755V29.1601C4.46375 28.2382 4.88241 27.3662 5.60182 26.7897L7.4131 25.3383C7.7525 25.0663 8.24811 25.121 8.52008 25.4604Z" fill="url(#paint25_radial_220_3520)"/>
<path fill-rule="evenodd" clip-rule="evenodd" d="M28.5514 6.72583C28.1164 6.72583 27.7639 7.07841 27.7639 7.51333V10.1354C27.7639 10.2196 27.7324 10.3008 27.6755 10.363L26.0188 12.1765C25.7254 12.4976 25.7479 12.9957 26.069 13.2891C26.3901 13.5824 26.8882 13.5599 27.1816 13.2388L28.8383 11.4254C29.1603 11.0729 29.3389 10.6128 29.3389 10.1354V7.51333C29.3389 7.07841 28.9863 6.72583 28.5514 6.72583Z" fill="url(#paint26_linear_220_3520)"/>
<path fill-rule="evenodd" clip-rule="evenodd" d="M28.5514 6.72583C28.1164 6.72583 27.7639 7.07841 27.7639 7.51333V10.1354C27.7639 10.2196 27.7324 10.3008 27.6755 10.363L26.0188 12.1765C25.7254 12.4976 25.7479 12.9957 26.069 13.2891C26.3901 13.5824 26.8882 13.5599 27.1816 13.2388L28.8383 11.4254C29.1603 11.0729 29.3389 10.6128 29.3389 10.1354V7.51333C29.3389 7.07841 28.9863 6.72583 28.5514 6.72583Z" fill="url(#paint27_radial_220_3520)"/>
<path fill-rule="evenodd" clip-rule="evenodd" d="M28.5514 6.72583C28.1164 6.72583 27.7639 7.07841 27.7639 7.51333V10.1354C27.7639 10.2196 27.7324 10.3008 27.6755 10.363L26.0188 12.1765C25.7254 12.4976 25.7479 12.9957 26.069 13.2891C26.3901 13.5824 26.8882 13.5599 27.1816 13.2388L28.8383 11.4254C29.1603 11.0729 29.3389 10.6128 29.3389 10.1354V7.51333C29.3389 7.07841 28.9863 6.72583 28.5514 6.72583Z" fill="url(#paint28_radial_220_3520)"/>
<path fill-rule="evenodd" clip-rule="evenodd" d="M28.5514 6.72583C28.1164 6.72583 27.7639 7.07841 27.7639 7.51333V10.1354C27.7639 10.2196 27.7324 10.3008 27.6755 10.363L26.0188 12.1765C25.7254 12.4976 25.7479 12.9957 26.069 13.2891C26.3901 13.5824 26.8882 13.5599 27.1816 13.2388L28.8383 11.4254C29.1603 11.0729 29.3389 10.6128 29.3389 10.1354V7.51333C29.3389 7.07841 28.9863 6.72583 28.5514 6.72583Z" fill="url(#paint29_radial_220_3520)"/>
<path fill-rule="evenodd" clip-rule="evenodd" d="M28.5514 6.72583C28.1164 6.72583 27.7639 7.07841 27.7639 7.51333V10.1354C27.7639 10.2196 27.7324 10.3008 27.6755 10.363L26.0188 12.1765C25.7254 12.4976 25.7479 12.9957 26.069 13.2891C26.3901 13.5824 26.8882 13.5599 27.1816 13.2388L28.8383 11.4254C29.1603 11.0729 29.3389 10.6128 29.3389 10.1354V7.51333C29.3389 7.07841 28.9863 6.72583 28.5514 6.72583Z" fill="url(#paint30_radial_220_3520)"/>
<path fill-rule="evenodd" clip-rule="evenodd" d="M28.5514 6.72583C28.1164 6.72583 27.7639 7.07841 27.7639 7.51333V10.1354C27.7639 10.2196 27.7324 10.3008 27.6755 10.363L26.0188 12.1765C25.7254 12.4976 25.7479 12.9957 26.069 13.2891C26.3901 13.5824 26.8882 13.5599 27.1816 13.2388L28.8383 11.4254C29.1603 11.0729 29.3389 10.6128 29.3389 10.1354V7.51333C29.3389 7.07841 28.9863 6.72583 28.5514 6.72583Z" fill="url(#paint31_radial_220_3520)"/>
<path fill-rule="evenodd" clip-rule="evenodd" d="M28.5514 6.72583C28.1164 6.72583 27.7639 7.07841 27.7639 7.51333V10.1354C27.7639 10.2196 27.7324 10.3008 27.6755 10.363L26.0188 12.1765C25.7254 12.4976 25.7479 12.9957 26.069 13.2891C26.3901 13.5824 26.8882 13.5599 27.1816 13.2388L28.8383 11.4254C29.1603 11.0729 29.3389 10.6128 29.3389 10.1354V7.51333C29.3389 7.07841 28.9863 6.72583 28.5514 6.72583Z" fill="url(#paint32_radial_220_3520)"/>
<path fill-rule="evenodd" clip-rule="evenodd" d="M28.5514 6.72583C28.1164 6.72583 27.7639 7.07841 27.7639 7.51333V10.1354C27.7639 10.2196 27.7324 10.3008 27.6755 10.363L26.0188 12.1765C25.7254 12.4976 25.7479 12.9957 26.069 13.2891C26.3901 13.5824 26.8882 13.5599 27.1816 13.2388L28.8383 11.4254C29.1603 11.0729 29.3389 10.6128 29.3389 10.1354V7.51333C29.3389 7.07841 28.9863 6.72583 28.5514 6.72583Z" fill="url(#paint33_radial_220_3520)"/>
<path fill-rule="evenodd" clip-rule="evenodd" d="M28.8257 16.7031C29.3519 16.6247 29.8422 16.6156 30.2602 16.638C30.8418 16.669 31.4176 16.9767 31.9291 17.4764L32.5451 18.0783C32.8562 18.3822 33.3548 18.3764 33.6587 18.0653C33.9627 17.7542 33.9569 17.2556 33.6458 16.9517L33.0298 16.3498C32.3471 15.6829 31.4297 15.1232 30.3442 15.0652C29.8398 15.0383 29.2418 15.0487 28.5937 15.1453C28.1635 15.2093 27.8667 15.61 27.9308 16.0402C27.9949 16.4703 28.3955 16.7671 28.8257 16.7031Z" fill="url(#paint34_linear_220_3520)"/>
<path fill-rule="evenodd" clip-rule="evenodd" d="M28.8257 16.7031C29.3519 16.6247 29.8422 16.6156 30.2602 16.638C30.8418 16.669 31.4176 16.9767 31.9291 17.4764L32.5451 18.0783C32.8562 18.3822 33.3548 18.3764 33.6587 18.0653C33.9627 17.7542 33.9569 17.2556 33.6458 16.9517L33.0298 16.3498C32.3471 15.6829 31.4297 15.1232 30.3442 15.0652C29.8398 15.0383 29.2418 15.0487 28.5937 15.1453C28.1635 15.2093 27.8667 15.61 27.9308 16.0402C27.9949 16.4703 28.3955 16.7671 28.8257 16.7031Z" fill="url(#paint35_radial_220_3520)"/>
<path fill-rule="evenodd" clip-rule="evenodd" d="M28.8257 16.7031C29.3519 16.6247 29.8422 16.6156 30.2602 16.638C30.8418 16.669 31.4176 16.9767 31.9291 17.4764L32.5451 18.0783C32.8562 18.3822 33.3548 18.3764 33.6587 18.0653C33.9627 17.7542 33.9569 17.2556 33.6458 16.9517L33.0298 16.3498C32.3471 15.6829 31.4297 15.1232 30.3442 15.0652C29.8398 15.0383 29.2418 15.0487 28.5937 15.1453C28.1635 15.2093 27.8667 15.61 27.9308 16.0402C27.9949 16.4703 28.3955 16.7671 28.8257 16.7031Z" fill="url(#paint36_radial_220_3520)"/>
<path fill-rule="evenodd" clip-rule="evenodd" d="M28.8257 16.7031C29.3519 16.6247 29.8422 16.6156 30.2602 16.638C30.8418 16.669 31.4176 16.9767 31.9291 17.4764L32.5451 18.0783C32.8562 18.3822 33.3548 18.3764 33.6587 18.0653C33.9627 17.7542 33.9569 17.2556 33.6458 16.9517L33.0298 16.3498C32.3471 15.6829 31.4297 15.1232 30.3442 15.0652C29.8398 15.0383 29.2418 15.0487 28.5937 15.1453C28.1635 15.2093 27.8667 15.61 27.9308 16.0402C27.9949 16.4703 28.3955 16.7671 28.8257 16.7031Z" fill="url(#paint37_radial_220_3520)"/>
<path fill-rule="evenodd" clip-rule="evenodd" d="M28.8257 16.7031C29.3519 16.6247 29.8422 16.6156 30.2602 16.638C30.8418 16.669 31.4176 16.9767 31.9291 17.4764L32.5451 18.0783C32.8562 18.3822 33.3548 18.3764 33.6587 18.0653C33.9627 17.7542 33.9569 17.2556 33.6458 16.9517L33.0298 16.3498C32.3471 15.6829 31.4297 15.1232 30.3442 15.0652C29.8398 15.0383 29.2418 15.0487 28.5937 15.1453C28.1635 15.2093 27.8667 15.61 27.9308 16.0402C27.9949 16.4703 28.3955 16.7671 28.8257 16.7031Z" fill="url(#paint38_radial_220_3520)"/>
<path fill-rule="evenodd" clip-rule="evenodd" d="M28.8257 16.7031C29.3519 16.6247 29.8422 16.6156 30.2602 16.638C30.8418 16.669 31.4176 16.9767 31.9291 17.4764L32.5451 18.0783C32.8562 18.3822 33.3548 18.3764 33.6587 18.0653C33.9627 17.7542 33.9569 17.2556 33.6458 16.9517L33.0298 16.3498C32.3471 15.6829 31.4297 15.1232 30.3442 15.0652C29.8398 15.0383 29.2418 15.0487 28.5937 15.1453C28.1635 15.2093 27.8667 15.61 27.9308 16.0402C27.9949 16.4703 28.3955 16.7671 28.8257 16.7031Z" fill="url(#paint39_linear_220_3520)"/>
<path fill-rule="evenodd" clip-rule="evenodd" d="M28.8257 16.7031C29.3519 16.6247 29.8422 16.6156 30.2602 16.638C30.8418 16.669 31.4176 16.9767 31.9291 17.4764L32.5451 18.0783C32.8562 18.3822 33.3548 18.3764 33.6587 18.0653C33.9627 17.7542 33.9569 17.2556 33.6458 16.9517L33.0298 16.3498C32.3471 15.6829 31.4297 15.1232 30.3442 15.0652C29.8398 15.0383 29.2418 15.0487 28.5937 15.1453C28.1635 15.2093 27.8667 15.61 27.9308 16.0402C27.9949 16.4703 28.3955 16.7671 28.8257 16.7031Z" fill="url(#paint40_radial_220_3520)"/>
<path fill-rule="evenodd" clip-rule="evenodd" d="M28.8257 16.7031C29.3519 16.6247 29.8422 16.6156 30.2602 16.638C30.8418 16.669 31.4176 16.9767 31.9291 17.4764L32.5451 18.0783C32.8562 18.3822 33.3548 18.3764 33.6587 18.0653C33.9627 17.7542 33.9569 17.2556 33.6458 16.9517L33.0298 16.3498C32.3471 15.6829 31.4297 15.1232 30.3442 15.0652C29.8398 15.0383 29.2418 15.0487 28.5937 15.1453C28.1635 15.2093 27.8667 15.61 27.9308 16.0402C27.9949 16.4703 28.3955 16.7671 28.8257 16.7031Z" fill="url(#paint41_radial_220_3520)"/>
<path fill-rule="evenodd" clip-rule="evenodd" d="M27.4798 25.4604C27.2078 25.7998 27.2625 26.2954 27.6019 26.5673L29.4132 28.0188C29.7596 28.2963 29.9611 28.7162 29.9611 29.1601V32.1755C29.9611 32.6104 30.3137 32.963 30.7486 32.963C31.1836 32.963 31.5361 32.6104 31.5361 32.1755V29.1601C31.5361 28.2382 31.1175 27.3662 30.3981 26.7897L28.5868 25.3383C28.2474 25.0663 27.7518 25.121 27.4798 25.4604Z" fill="url(#paint42_linear_220_3520)"/>
<path fill-rule="evenodd" clip-rule="evenodd" d="M27.4798 25.4604C27.2078 25.7998 27.2625 26.2954 27.6019 26.5673L29.4132 28.0188C29.7596 28.2963 29.9611 28.7162 29.9611 29.1601V32.1755C29.9611 32.6104 30.3137 32.963 30.7486 32.963C31.1836 32.963 31.5361 32.6104 31.5361 32.1755V29.1601C31.5361 28.2382 31.1175 27.3662 30.3981 26.7897L28.5868 25.3383C28.2474 25.0663 27.7518 25.121 27.4798 25.4604Z" fill="url(#paint43_radial_220_3520)"/>
<path fill-rule="evenodd" clip-rule="evenodd" d="M27.4798 25.4604C27.2078 25.7998 27.2625 26.2954 27.6019 26.5673L29.4132 28.0188C29.7596 28.2963 29.9611 28.7162 29.9611 29.1601V32.1755C29.9611 32.6104 30.3137 32.963 30.7486 32.963C31.1836 32.963 31.5361 32.6104 31.5361 32.1755V29.1601C31.5361 28.2382 31.1175 27.3662 30.3981 26.7897L28.5868 25.3383C28.2474 25.0663 27.7518 25.121 27.4798 25.4604Z" fill="url(#paint44_radial_220_3520)"/>
<path fill-rule="evenodd" clip-rule="evenodd" d="M27.4798 25.4604C27.2078 25.7998 27.2625 26.2954 27.6019 26.5673L29.4132 28.0188C29.7596 28.2963 29.9611 28.7162 29.9611 29.1601V32.1755C29.9611 32.6104 30.3137 32.963 30.7486 32.963C31.1836 32.963 31.5361 32.6104 31.5361 32.1755V29.1601C31.5361 28.2382 31.1175 27.3662 30.3981 26.7897L28.5868 25.3383C28.2474 25.0663 27.7518 25.121 27.4798 25.4604Z" fill="url(#paint45_radial_220_3520)"/>
<path fill-rule="evenodd" clip-rule="evenodd" d="M27.4798 25.4604C27.2078 25.7998 27.2625 26.2954 27.6019 26.5673L29.4132 28.0188C29.7596 28.2963 29.9611 28.7162 29.9611 29.1601V32.1755C29.9611 32.6104 30.3137 32.963 30.7486 32.963C31.1836 32.963 31.5361 32.6104 31.5361 32.1755V29.1601C31.5361 28.2382 31.1175 27.3662 30.3981 26.7897L28.5868 25.3383C28.2474 25.0663 27.7518 25.121 27.4798 25.4604Z" fill="url(#paint46_radial_220_3520)"/>
<path fill-rule="evenodd" clip-rule="evenodd" d="M27.4798 25.4604C27.2078 25.7998 27.2625 26.2954 27.6019 26.5673L29.4132 28.0188C29.7596 28.2963 29.9611 28.7162 29.9611 29.1601V32.1755C29.9611 32.6104 30.3137 32.963 30.7486 32.963C31.1836 32.963 31.5361 32.6104 31.5361 32.1755V29.1601C31.5361 28.2382 31.1175 27.3662 30.3981 26.7897L28.5868 25.3383C28.2474 25.0663 27.7518 25.121 27.4798 25.4604Z" fill="url(#paint47_radial_220_3520)"/>
<path fill-rule="evenodd" clip-rule="evenodd" d="M27.4798 25.4604C27.2078 25.7998 27.2625 26.2954 27.6019 26.5673L29.4132 28.0188C29.7596 28.2963 29.9611 28.7162 29.9611 29.1601V32.1755C29.9611 32.6104 30.3137 32.963 30.7486 32.963C31.1836 32.963 31.5361 32.6104 31.5361 32.1755V29.1601C31.5361 28.2382 31.1175 27.3662 30.3981 26.7897L28.5868 25.3383C28.2474 25.0663 27.7518 25.121 27.4798 25.4604Z" fill="url(#paint48_radial_220_3520)"/>
<path fill-rule="evenodd" clip-rule="evenodd" d="M27.4798 25.4604C27.2078 25.7998 27.2625 26.2954 27.6019 26.5673L29.4132 28.0188C29.7596 28.2963 29.9611 28.7162 29.9611 29.1601V32.1755C29.9611 32.6104 30.3137 32.963 30.7486 32.963C31.1836 32.963 31.5361 32.6104 31.5361 32.1755V29.1601C31.5361 28.2382 31.1175 27.3662 30.3981 26.7897L28.5868 25.3383C28.2474 25.0663 27.7518 25.121 27.4798 25.4604Z" fill="url(#paint49_radial_220_3520)"/>
<path fill-rule="evenodd" clip-rule="evenodd" d="M21.3638 2.351C21.0419 2.16302 20.6285 2.2716 20.4405 2.59353L18.3207 6.22376C18.1327 6.54569 18.2413 6.95905 18.5633 7.14703C18.8852 7.33502 19.2985 7.22643 19.4865 6.90451L21.6063 3.27427C21.7943 2.95235 21.6857 2.53898 21.3638 2.351Z" fill="url(#paint50_linear_220_3520)"/>
<path fill-rule="evenodd" clip-rule="evenodd" d="M21.3638 2.351C21.0419 2.16302 20.6285 2.2716 20.4405 2.59353L18.3207 6.22376C18.1327 6.54569 18.2413 6.95905 18.5633 7.14703C18.8852 7.33502 19.2985 7.22643 19.4865 6.90451L21.6063 3.27427C21.7943 2.95235 21.6857 2.53898 21.3638 2.351Z" fill="url(#paint51_linear_220_3520)"/>
<path fill-rule="evenodd" clip-rule="evenodd" d="M21.3638 2.351C21.0419 2.16302 20.6285 2.2716 20.4405 2.59353L18.3207 6.22376C18.1327 6.54569 18.2413 6.95905 18.5633 7.14703C18.8852 7.33502 19.2985 7.22643 19.4865 6.90451L21.6063 3.27427C21.7943 2.95235 21.6857 2.53898 21.3638 2.351Z" fill="url(#paint52_linear_220_3520)"/>
<path fill-rule="evenodd" clip-rule="evenodd" d="M21.3638 2.351C21.0419 2.16302 20.6285 2.2716 20.4405 2.59353L18.3207 6.22376C18.1327 6.54569 18.2413 6.95905 18.5633 7.14703C18.8852 7.33502 19.2985 7.22643 19.4865 6.90451L21.6063 3.27427C21.7943 2.95235 21.6857 2.53898 21.3638 2.351Z" fill="url(#paint53_radial_220_3520)"/>
<path fill-rule="evenodd" clip-rule="evenodd" d="M14.6362 2.351C14.9581 2.16302 15.3715 2.2716 15.5595 2.59353L17.6793 6.22376C17.8673 6.54569 17.7587 6.95905 17.4367 7.14703C17.1148 7.33502 16.7015 7.22643 16.5135 6.90451L14.3937 3.27427C14.2057 2.95235 14.3143 2.53898 14.6362 2.351Z" fill="url(#paint54_linear_220_3520)"/>
<path fill-rule="evenodd" clip-rule="evenodd" d="M14.6362 2.351C14.9581 2.16302 15.3715 2.2716 15.5595 2.59353L17.6793 6.22376C17.8673 6.54569 17.7587 6.95905 17.4367 7.14703C17.1148 7.33502 16.7015 7.22643 16.5135 6.90451L14.3937 3.27427C14.2057 2.95235 14.3143 2.53898 14.6362 2.351Z" fill="url(#paint55_radial_220_3520)"/>
<path fill-rule="evenodd" clip-rule="evenodd" d="M14.6362 2.351C14.9581 2.16302 15.3715 2.2716 15.5595 2.59353L17.6793 6.22376C17.8673 6.54569 17.7587 6.95905 17.4367 7.14703C17.1148 7.33502 16.7015 7.22643 16.5135 6.90451L14.3937 3.27427C14.2057 2.95235 14.3143 2.53898 14.6362 2.351Z" fill="url(#paint56_linear_220_3520)"/>
<path fill-rule="evenodd" clip-rule="evenodd" d="M14.6362 2.351C14.9581 2.16302 15.3715 2.2716 15.5595 2.59353L17.6793 6.22376C17.8673 6.54569 17.7587 6.95905 17.4367 7.14703C17.1148 7.33502 16.7015 7.22643 16.5135 6.90451L14.3937 3.27427C14.2057 2.95235 14.3143 2.53898 14.6362 2.351Z" fill="url(#paint57_linear_220_3520)"/>
<path fill-rule="evenodd" clip-rule="evenodd" d="M14.6362 2.351C14.9581 2.16302 15.3715 2.2716 15.5595 2.59353L17.6793 6.22376C17.8673 6.54569 17.7587 6.95905 17.4367 7.14703C17.1148 7.33502 16.7015 7.22643 16.5135 6.90451L14.3937 3.27427C14.2057 2.95235 14.3143 2.53898 14.6362 2.351Z" fill="url(#paint58_radial_220_3520)"/>
<ellipse cx="18" cy="11.108" rx="7.58936" ry="5.87988" fill="url(#paint59_radial_220_3520)"/>
<ellipse cx="18" cy="11.108" rx="7.58936" ry="5.87988" fill="url(#paint60_radial_220_3520)"/>
<ellipse cx="18" cy="11.108" rx="7.58936" ry="5.87988" fill="url(#paint61_radial_220_3520)"/>
<ellipse cx="18" cy="11.108" rx="7.58936" ry="5.87988" fill="url(#paint62_radial_220_3520)"/>
<ellipse cx="18" cy="11.108" rx="7.58936" ry="5.87988" fill="url(#paint63_radial_220_3520)"/>
<path d="M10.4739 10.6197C7.44763 12.9034 5.5014 16.5259 5.5014 20.5984C5.5014 27.1234 10.4964 32.4784 16.8751 33.0522C17.0927 33.0719 17.3101 33.0879 17.5299 33.0976V10.5972H10.4851C10.4851 10.6028 10.4823 10.6056 10.4795 10.6084C10.4767 10.6112 10.4739 10.614 10.4739 10.6197Z" fill="url(#paint64_linear_220_3520)"/>
<path d="M10.4739 10.6197C7.44763 12.9034 5.5014 16.5259 5.5014 20.5984C5.5014 27.1234 10.4964 32.4784 16.8751 33.0522C17.0927 33.0719 17.3101 33.0879 17.5299 33.0976V10.5972H10.4851C10.4851 10.6028 10.4823 10.6056 10.4795 10.6084C10.4767 10.6112 10.4739 10.614 10.4739 10.6197Z" fill="url(#paint65_radial_220_3520)"/>
<path d="M25.5261 10.6197C28.5524 12.9034 30.4986 16.5259 30.4986 20.5984C30.4986 27.1234 25.5036 32.4784 19.1249 33.0522C18.9073 33.0719 18.6899 33.0879 18.4701 33.0976V10.5972H25.5149C25.5149 10.6028 25.5177 10.6056 25.5205 10.6084C25.5233 10.6112 25.5261 10.614 25.5261 10.6197Z" fill="url(#paint66_linear_220_3520)"/>
<path d="M25.5261 10.6197C28.5524 12.9034 30.4986 16.5259 30.4986 20.5984C30.4986 27.1234 25.5036 32.4784 19.1249 33.0522C18.9073 33.0719 18.6899 33.0879 18.4701 33.0976V10.5972H25.5149C25.5149 10.6028 25.5177 10.6056 25.5205 10.6084C25.5233 10.6112 25.5261 10.614 25.5261 10.6197Z" fill="url(#paint67_radial_220_3520)"/>
<path d="M18 21.1272C20.4231 21.1272 22.3875 19.1628 22.3875 16.7397C22.3875 14.3165 20.4231 12.3522 18 12.3522C15.5768 12.3522 13.6125 14.3165 13.6125 16.7397C13.6125 19.1628 15.5768 21.1272 18 21.1272Z" fill="url(#paint68_radial_220_3520)"/>
<path d="M11.5312 27.7534C13.1715 27.7534 14.5012 26.4236 14.5012 24.7834C14.5012 23.1431 13.1715 21.8134 11.5312 21.8134C9.89093 21.8134 8.56122 23.1431 8.56122 24.7834C8.56122 26.4236 9.89093 27.7534 11.5312 27.7534Z" fill="url(#paint69_radial_220_3520)"/>
<path d="M7.6725 13.6683C7.65 13.6683 7.6275 13.6683 7.59375 13.6683C6.58125 15.1758 5.895 16.9196 5.625 18.7871C6.15375 19.2933 6.87375 19.5971 7.6725 19.5971C9.315 19.5971 10.6425 18.2696 10.6425 16.6271C10.6425 14.9846 9.315 13.6683 7.6725 13.6683Z" fill="url(#paint70_radial_220_3520)"/>
<path d="M7.6725 13.6683C7.65 13.6683 7.6275 13.6683 7.59375 13.6683C6.58125 15.1758 5.895 16.9196 5.625 18.7871C6.15375 19.2933 6.87375 19.5971 7.6725 19.5971C9.315 19.5971 10.6425 18.2696 10.6425 16.6271C10.6425 14.9846 9.315 13.6683 7.6725 13.6683Z" fill="url(#paint71_radial_220_3520)"/>
<path d="M7.6725 13.6683C7.65 13.6683 7.6275 13.6683 7.59375 13.6683C6.58125 15.1758 5.895 16.9196 5.625 18.7871C6.15375 19.2933 6.87375 19.5971 7.6725 19.5971C9.315 19.5971 10.6425 18.2696 10.6425 16.6271C10.6425 14.9846 9.315 13.6683 7.6725 13.6683Z" fill="url(#paint72_radial_220_3520)"/>
<path d="M30.3638 18.7871C30.0938 16.9083 29.4076 15.1758 28.3951 13.6683C28.3726 13.6683 28.3501 13.6683 28.3163 13.6683C26.6738 13.6683 25.3463 14.9958 25.3463 16.6383C25.3463 18.2808 26.6738 19.6083 28.3163 19.6083C29.1151 19.5971 29.8351 19.2933 30.3638 18.7871Z" fill="url(#paint73_radial_220_3520)"/>
<path d="M30.3638 18.7871C30.0938 16.9083 29.4076 15.1758 28.3951 13.6683C28.3726 13.6683 28.3501 13.6683 28.3163 13.6683C26.6738 13.6683 25.3463 14.9958 25.3463 16.6383C25.3463 18.2808 26.6738 19.6083 28.3163 19.6083C29.1151 19.5971 29.8351 19.2933 30.3638 18.7871Z" fill="url(#paint74_radial_220_3520)"/>
<path d="M24.4687 27.7534C26.109 27.7534 27.4387 26.4236 27.4387 24.7834C27.4387 23.1431 26.109 21.8134 24.4687 21.8134C22.8284 21.8134 21.4987 23.1431 21.4987 24.7834C21.4987 26.4236 22.8284 27.7534 24.4687 27.7534Z" fill="url(#paint75_radial_220_3520)"/>
<path d="M18 31.0272C18.9071 31.0272 19.6425 30.2918 19.6425 29.3847C19.6425 28.4776 18.9071 27.7422 18 27.7422C17.0929 27.7422 16.3575 28.4776 16.3575 29.3847C16.3575 30.2918 17.0929 31.0272 18 31.0272Z" fill="#4B2958"/>
<rect x="17.5298" y="10.5972" width="0.94043" height="22.062" fill="url(#paint76_linear_220_3520)"/>
<rect x="17.5298" y="10.5972" width="0.94043" height="22.062" fill="url(#paint77_linear_220_3520)"/>
<rect x="17.5298" y="10.5972" width="0.94043" height="22.062" fill="url(#paint78_linear_220_3520)"/>
<rect x="17.5298" y="10.5972" width="0.94043" height="22.062" fill="url(#paint79_linear_220_3520)"/>
<defs>
<linearGradient id="paint0_linear_220_3520" x1="7.72644" y1="7.70285" x2="10.842" y2="10.346" gradientUnits="userSpaceOnUse">
<stop stop-color="#5A5162"/>
<stop offset="1" stop-color="#391D46"/>
</linearGradient>
<radialGradient id="paint1_radial_220_3520" cx="0" cy="0" r="1" gradientUnits="userSpaceOnUse" gradientTransform="translate(8.27974 10.9584) rotate(48.5323) scale(2.28376 0.489277)">
<stop stop-color="#736C7A" stop-opacity="0.6"/>
<stop offset="1" stop-color="#5E5566" stop-opacity="0"/>
</radialGradient>
<radialGradient id="paint2_radial_220_3520" cx="0" cy="0" r="1" gradientUnits="userSpaceOnUse" gradientTransform="translate(7.75317 7.74615) rotate(89.2655) scale(3.09137 0.6623)">
<stop stop-color="#857D8D" stop-opacity="0.9"/>
<stop offset="1" stop-color="#796F83" stop-opacity="0"/>
</radialGradient>
<radialGradient id="paint3_radial_220_3520" cx="0" cy="0" r="1" gradientUnits="userSpaceOnUse" gradientTransform="translate(7.70412 6.2595) rotate(39.0355) scale(1.76859 1.27428)">
<stop stop-color="#463853" stop-opacity="0.9"/>
<stop offset="0.413146" stop-color="#463853" stop-opacity="0.9"/>
<stop offset="1" stop-color="#45335A" stop-opacity="0"/>
</radialGradient>
<radialGradient id="paint4_radial_220_3520" cx="0" cy="0" r="1" gradientUnits="userSpaceOnUse" gradientTransform="translate(9.91143 9.52568) rotate(-98.4889) scale(2.69596 2.12208)">
<stop offset="0.365113" stop-color="#6F2DA5" stop-opacity="0.8"/>
<stop offset="1" stop-color="#6F2DA5" stop-opacity="0"/>
</radialGradient>
<radialGradient id="paint5_radial_220_3520" cx="0" cy="0" r="1" gradientUnits="userSpaceOnUse" gradientTransform="translate(7.80217 7.35009) rotate(-36.6071) scale(0.578394 0.401958)">
<stop stop-color="#8B8492"/>
<stop offset="1" stop-color="#746D7B" stop-opacity="0"/>
</radialGradient>
<radialGradient id="paint6_radial_220_3520" cx="0" cy="0" r="1" gradientUnits="userSpaceOnUse" gradientTransform="translate(7.03276 11.2768) rotate(48.1088) scale(2.9801 0.436064)">
<stop stop-color="#9E94A6" stop-opacity="0.8"/>
<stop offset="0.963542" stop-color="#5F5864" stop-opacity="0"/>
</radialGradient>
<radialGradient id="paint7_radial_220_3520" cx="0" cy="0" r="1" gradientUnits="userSpaceOnUse" gradientTransform="translate(6.43889 10.5761) rotate(66.0923) scale(1.2239 0.812762)">
<stop stop-color="#9E94A6" stop-opacity="0.8"/>
<stop offset="0.963542" stop-color="#5F5864" stop-opacity="0"/>
</radialGradient>
<radialGradient id="paint8_radial_220_3520" cx="0" cy="0" r="1" gradientUnits="userSpaceOnUse" gradientTransform="translate(6.66101 9.15729) rotate(90) scale(2.51462 0.268502)">
<stop stop-color="#9E94A6"/>
<stop offset="0.963542" stop-color="#756781" stop-opacity="0"/>
</radialGradient>
<linearGradient id="paint9_linear_220_3520" x1="3.91813" y1="15.5215" x2="4.4952" y2="17.2407" gradientUnits="userSpaceOnUse">
<stop stop-color="#5A5162"/>
<stop offset="1" stop-color="#391D46"/>
</linearGradient>
<radialGradient id="paint10_radial_220_3520" cx="0" cy="0" r="1" gradientUnits="userSpaceOnUse" gradientTransform="translate(2.8125 16.8749) rotate(-146.812) scale(1.66985 1.85197)">
<stop stop-color="#5E5566"/>
<stop offset="1" stop-color="#5E5566" stop-opacity="0"/>
</radialGradient>
<radialGradient id="paint11_radial_220_3520" cx="0" cy="0" r="1" gradientUnits="userSpaceOnUse" gradientTransform="translate(4.62745 17.7817) rotate(-36.7992) scale(5.41673 2.97588)">
<stop offset="0.403842" stop-color="#8C8199" stop-opacity="0"/>
<stop offset="0.463528" stop-color="#8C8199" stop-opacity="0.133181"/>
<stop offset="0.538289" stop-color="#8C8199" stop-opacity="0.3"/>
<stop offset="0.558066" stop-color="#8C8199" stop-opacity="0.3"/>
<stop offset="0.647754" stop-color="#8C8199" stop-opacity="0"/>
</radialGradient>
<radialGradient id="paint12_radial_220_3520" cx="0" cy="0" r="1" gradientUnits="userSpaceOnUse" gradientTransform="translate(2.11707 17.6747) rotate(37.4474) scale(1.32985 0.950564)">
<stop stop-color="#463853" stop-opacity="0.9"/>
<stop offset="0.413146" stop-color="#463853" stop-opacity="0.9"/>
<stop offset="1" stop-color="#45335A" stop-opacity="0"/>
</radialGradient>
<radialGradient id="paint13_radial_220_3520" cx="0" cy="0" r="1" gradientUnits="userSpaceOnUse" gradientTransform="translate(6.75 17.3934) rotate(165.007) scale(4.21275 1.55757)">
<stop offset="0.365113" stop-color="#6F2DA5" stop-opacity="0.8"/>
<stop offset="1" stop-color="#6F2DA5" stop-opacity="0"/>
</radialGradient>
<linearGradient id="paint14_linear_220_3520" x1="7.55859" y1="16.3299" x2="4.6582" y2="16.0487" gradientUnits="userSpaceOnUse">
<stop stop-color="#402B49"/>
<stop offset="1" stop-color="#402B49" stop-opacity="0"/>
</linearGradient>
<radialGradient id="paint15_radial_220_3520" cx="0" cy="0" r="1" gradientUnits="userSpaceOnUse" gradientTransform="translate(5.4668 20.1268) rotate(-151.52) scale(4.93958 6.42196)">
<stop offset="0.35759" stop-color="#ECE0F8" stop-opacity="0.6"/>
<stop offset="0.546372" stop-color="#ECE0F8" stop-opacity="0.6"/>
<stop offset="0.618692" stop-color="#6A448F" stop-opacity="0"/>
</radialGradient>
<radialGradient id="paint16_radial_220_3520" cx="0" cy="0" r="1" gradientUnits="userSpaceOnUse" gradientTransform="translate(2.34668 16.9979) rotate(-141.875) scale(0.882634 0.388499)">
<stop stop-color="#746D7B"/>
<stop offset="1" stop-color="#746D7B" stop-opacity="0"/>
</radialGradient>
<linearGradient id="paint17_linear_220_3520" x1="7.43953" y1="32.2862" x2="8.2271" y2="24.2716" gradientUnits="userSpaceOnUse">
<stop stop-color="#5A5162"/>
<stop offset="1" stop-color="#391D46"/>
</linearGradient>
<radialGradient id="paint18_radial_220_3520" cx="0" cy="0" r="1" gradientUnits="userSpaceOnUse" gradientTransform="translate(6.20997 34.4683) rotate(-61.0775) scale(4.23643 3.42737)">
<stop offset="0.365113" stop-color="#6F2DA5" stop-opacity="0.8"/>
<stop offset="1" stop-color="#6F2DA5" stop-opacity="0"/>
</radialGradient>
<radialGradient id="paint19_radial_220_3520" cx="0" cy="0" r="1" gradientUnits="userSpaceOnUse" gradientTransform="translate(5.54138 30.5107) rotate(90.3165) scale(4.81629 0.68478)">
<stop stop-color="#736C7A" stop-opacity="0.9"/>
<stop offset="1" stop-color="#5E5566" stop-opacity="0"/>
</radialGradient>
<radialGradient id="paint20_radial_220_3520" cx="0" cy="0" r="1" gradientUnits="userSpaceOnUse" gradientTransform="translate(7.3774 26.4928) rotate(136.38) scale(3.12425 0.696945)">
<stop stop-color="#736C7A" stop-opacity="0.9"/>
<stop offset="1" stop-color="#5E5566" stop-opacity="0"/>
</radialGradient>
<radialGradient id="paint21_radial_220_3520" cx="0" cy="0" r="1" gradientUnits="userSpaceOnUse" gradientTransform="translate(5.05357 32.963) rotate(-132.933) scale(1.29177 0.922272)">
<stop stop-color="#463853" stop-opacity="0.9"/>
<stop offset="0.413146" stop-color="#463853" stop-opacity="0.9"/>
<stop offset="1" stop-color="#45335A" stop-opacity="0"/>
</radialGradient>
<radialGradient id="paint22_radial_220_3520" cx="0" cy="0" r="1" gradientUnits="userSpaceOnUse" gradientTransform="translate(7.69319 29.8301) rotate(92.7564) scale(3.13651 2.53752)">
<stop offset="0.365113" stop-color="#6F2DA5" stop-opacity="0.8"/>
<stop offset="1" stop-color="#6F2DA5" stop-opacity="0"/>
</radialGradient>
<radialGradient id="paint23_radial_220_3520" cx="0" cy="0" r="1" gradientUnits="userSpaceOnUse" gradientTransform="translate(4.46375 29.6858) rotate(90) scale(4.09777 0.56667)">
<stop offset="0.117149" stop-color="#9E94A6"/>
<stop offset="0.963542" stop-color="#5F5864" stop-opacity="0"/>
</radialGradient>
<radialGradient id="paint24_radial_220_3520" cx="0" cy="0" r="1" gradientUnits="userSpaceOnUse" gradientTransform="translate(5.62121 26.8121) rotate(-39.3518) scale(3.4411 0.47586)">
<stop offset="0.117149" stop-color="#9E94A6"/>
<stop offset="0.963542" stop-color="#5F5864" stop-opacity="0"/>
</radialGradient>
<radialGradient id="paint25_radial_220_3520" cx="0" cy="0" r="1" gradientUnits="userSpaceOnUse" gradientTransform="translate(4.64999 27.9164) rotate(107.371) scale(2.71834 0.7532)">
<stop offset="0.117149" stop-color="#9E94A6"/>
<stop offset="0.963542" stop-color="#5F5864" stop-opacity="0"/>
</radialGradient>
<linearGradient id="paint26_linear_220_3520" x1="28.2734" y1="7.70285" x2="25.1579" y2="10.346" gradientUnits="userSpaceOnUse">
<stop stop-color="#5A5162"/>
<stop offset="1" stop-color="#391D46"/>
</linearGradient>
<radialGradient id="paint27_radial_220_3520" cx="0" cy="0" r="1" gradientUnits="userSpaceOnUse" gradientTransform="translate(28.4071 10.8449) rotate(131.082) scale(2.88154 0.617348)">
<stop stop-color="#736C7A" stop-opacity="0.6"/>
<stop offset="1" stop-color="#5E5566" stop-opacity="0"/>
</radialGradient>
<radialGradient id="paint28_radial_220_3520" cx="0" cy="0" r="1" gradientUnits="userSpaceOnUse" gradientTransform="translate(28.8527 7.8189) rotate(90) scale(3.32302 0.71193)">
<stop stop-color="#736C7A" stop-opacity="0.9"/>
<stop offset="1" stop-color="#5E5566" stop-opacity="0"/>
</radialGradient>
<radialGradient id="paint29_radial_220_3520" cx="0" cy="0" r="1" gradientUnits="userSpaceOnUse" gradientTransform="translate(28.2958 6.2595) rotate(140.964) scale(1.76859 1.27428)">
<stop stop-color="#463853" stop-opacity="0.9"/>
<stop offset="0.413146" stop-color="#463853" stop-opacity="0.9"/>
<stop offset="1" stop-color="#45335A" stop-opacity="0"/>
</radialGradient>
<radialGradient id="paint30_radial_220_3520" cx="0" cy="0" r="1" gradientUnits="userSpaceOnUse" gradientTransform="translate(30.6442 11.0765) rotate(113.199) scale(3.00073 2.36198)">
<stop offset="0.365113" stop-color="#6F2DA5" stop-opacity="0.8"/>
<stop offset="1" stop-color="#6F2DA5" stop-opacity="0"/>
</radialGradient>
<radialGradient id="paint31_radial_220_3520" cx="0" cy="0" r="1" gradientUnits="userSpaceOnUse" gradientTransform="translate(29.0226 7.2727) rotate(-28.706) scale(0.725674 0.504311)">
<stop stop-color="#8B8492"/>
<stop offset="1" stop-color="#746D7B" stop-opacity="0"/>
</radialGradient>
<radialGradient id="paint32_radial_220_3520" cx="0" cy="0" r="1" gradientUnits="userSpaceOnUse" gradientTransform="translate(27.7711 8.45948) rotate(90) scale(2.41245 0.257593)">
<stop stop-color="#9E94A6"/>
<stop offset="0.963542" stop-color="#5F5864" stop-opacity="0"/>
</radialGradient>
<radialGradient id="paint33_radial_220_3520" cx="0" cy="0" r="1" gradientUnits="userSpaceOnUse" gradientTransform="translate(26.9389 11.1791) rotate(133.107) scale(1.69628 0.248209)">
<stop stop-color="#9E94A6" stop-opacity="0.8"/>
<stop offset="0.963542" stop-color="#5F5864" stop-opacity="0"/>
</radialGradient>
<linearGradient id="paint34_linear_220_3520" x1="32.0819" y1="15.5215" x2="31.5048" y2="17.2407" gradientUnits="userSpaceOnUse">
<stop stop-color="#5A5162"/>
<stop offset="1" stop-color="#391D46"/>
</linearGradient>
<radialGradient id="paint35_radial_220_3520" cx="0" cy="0" r="1" gradientUnits="userSpaceOnUse" gradientTransform="translate(33.1875 16.8749) rotate(-33.1882) scale(1.66985 1.85197)">
<stop stop-color="#5E5566"/>
<stop offset="1" stop-color="#5E5566" stop-opacity="0"/>
</radialGradient>
<radialGradient id="paint36_radial_220_3520" cx="0" cy="0" r="1" gradientUnits="userSpaceOnUse" gradientTransform="translate(31.3726 17.7817) rotate(-143.201) scale(5.41673 2.97588)">
<stop offset="0.403842" stop-color="#8C8199" stop-opacity="0"/>
<stop offset="0.463528" stop-color="#8C8199" stop-opacity="0.133181"/>
<stop offset="0.538289" stop-color="#8C8199" stop-opacity="0.3"/>
<stop offset="0.558066" stop-color="#8C8199" stop-opacity="0.3"/>
<stop offset="0.647754" stop-color="#8C8199" stop-opacity="0"/>
</radialGradient>
<radialGradient id="paint37_radial_220_3520" cx="0" cy="0" r="1" gradientUnits="userSpaceOnUse" gradientTransform="translate(33.8829 17.6747) rotate(142.553) scale(1.32985 0.950564)">
<stop stop-color="#463853" stop-opacity="0.9"/>
<stop offset="0.413146" stop-color="#463853" stop-opacity="0.9"/>
<stop offset="1" stop-color="#45335A" stop-opacity="0"/>
</radialGradient>
<radialGradient id="paint38_radial_220_3520" cx="0" cy="0" r="1" gradientUnits="userSpaceOnUse" gradientTransform="translate(29.25 17.3934) rotate(14.993) scale(4.21275 1.55757)">
<stop offset="0.365113" stop-color="#6F2DA5" stop-opacity="0.8"/>
<stop offset="1" stop-color="#6F2DA5" stop-opacity="0"/>
</radialGradient>
<linearGradient id="paint39_linear_220_3520" x1="28.4414" y1="16.3299" x2="31.3418" y2="16.0487" gradientUnits="userSpaceOnUse">
<stop stop-color="#402B49"/>
<stop offset="1" stop-color="#402B49" stop-opacity="0"/>
</linearGradient>
<radialGradient id="paint40_radial_220_3520" cx="0" cy="0" r="1" gradientUnits="userSpaceOnUse" gradientTransform="translate(30.5332 20.1268) rotate(-28.4803) scale(4.93958 6.42196)">
<stop offset="0.35759" stop-color="#ECE0F8" stop-opacity="0.6"/>
<stop offset="0.546372" stop-color="#ECE0F8" stop-opacity="0.6"/>
<stop offset="0.618692" stop-color="#6A448F" stop-opacity="0"/>
</radialGradient>
<radialGradient id="paint41_radial_220_3520" cx="0" cy="0" r="1" gradientUnits="userSpaceOnUse" gradientTransform="translate(33.6533 16.9979) rotate(-38.1252) scale(0.882634 0.388499)">
<stop stop-color="#746D7B"/>
<stop offset="1" stop-color="#746D7B" stop-opacity="0"/>
</radialGradient>
<linearGradient id="paint42_linear_220_3520" x1="28.5603" y1="32.2862" x2="27.7728" y2="24.2716" gradientUnits="userSpaceOnUse">
<stop stop-color="#5A5162"/>
<stop offset="1" stop-color="#391D46"/>
</linearGradient>
<radialGradient id="paint43_radial_220_3520" cx="0" cy="0" r="1" gradientUnits="userSpaceOnUse" gradientTransform="translate(29.7899 34.4683) rotate(-118.923) scale(4.23643 3.42737)">
<stop offset="0.365113" stop-color="#6F2DA5" stop-opacity="0.8"/>
<stop offset="1" stop-color="#6F2DA5" stop-opacity="0"/>
</radialGradient>
<radialGradient id="paint44_radial_220_3520" cx="0" cy="0" r="1" gradientUnits="userSpaceOnUse" gradientTransform="translate(30.9714 30.0061) rotate(90) scale(5.30438 0.754177)">
<stop stop-color="#736C7A" stop-opacity="0.9"/>
<stop offset="1" stop-color="#5E5566" stop-opacity="0"/>
</radialGradient>
<radialGradient id="paint45_radial_220_3520" cx="0" cy="0" r="1" gradientUnits="userSpaceOnUse" gradientTransform="translate(28.8849 26.1598) rotate(44.8677) scale(3.84854 0.858516)">
<stop stop-color="#736C7A" stop-opacity="0.9"/>
<stop offset="1" stop-color="#5E5566" stop-opacity="0"/>
</radialGradient>
<radialGradient id="paint46_radial_220_3520" cx="0" cy="0" r="1" gradientUnits="userSpaceOnUse" gradientTransform="translate(30.9463 32.963) rotate(-47.0673) scale(1.29177 0.922272)">
<stop stop-color="#463853" stop-opacity="0.9"/>
<stop offset="0.413146" stop-color="#463853" stop-opacity="0.9"/>
<stop offset="1" stop-color="#45335A" stop-opacity="0"/>
</radialGradient>
<radialGradient id="paint47_radial_220_3520" cx="0" cy="0" r="1" gradientUnits="userSpaceOnUse" gradientTransform="translate(28.3067 29.8301) rotate(87.2436) scale(3.13651 2.53752)">
<stop offset="0.365113" stop-color="#6F2DA5" stop-opacity="0.8"/>
<stop offset="1" stop-color="#6F2DA5" stop-opacity="0"/>
</radialGradient>
<radialGradient id="paint48_radial_220_3520" cx="0" cy="0" r="1" gradientUnits="userSpaceOnUse" gradientTransform="translate(31.0594 31.9921) rotate(-20.2825) scale(0.616424 0.343458)">
<stop stop-color="#8B8492" stop-opacity="0.6"/>
<stop offset="1" stop-color="#746D7B" stop-opacity="0"/>
</radialGradient>
<radialGradient id="paint49_radial_220_3520" cx="0" cy="0" r="1" gradientUnits="userSpaceOnUse" gradientTransform="translate(29.9282 30.5088) rotate(89.2223) scale(2.77814 0.384181)">
<stop offset="0.117149" stop-color="#9E94A6"/>
<stop offset="0.963542" stop-color="#5F5864" stop-opacity="0"/>
</radialGradient>
<linearGradient id="paint50_linear_220_3520" x1="19.6622" y1="4.07124" x2="20.8953" y2="4.74901" gradientUnits="userSpaceOnUse">
<stop offset="0.149079" stop-color="#372F3D"/>
<stop offset="0.579294" stop-color="#594D62"/>
<stop offset="1" stop-color="#43354E"/>
</linearGradient>
<linearGradient id="paint51_linear_220_3520" x1="20.1466" y1="5.42544" x2="20.4989" y2="3.27854" gradientUnits="userSpaceOnUse">
<stop stop-color="#382E41"/>
<stop offset="1" stop-color="#64586E" stop-opacity="0"/>
</linearGradient>
<linearGradient id="paint52_linear_220_3520" x1="19.1953" y1="4.53386" x2="19.5164" y2="4.71461" gradientUnits="userSpaceOnUse">
<stop offset="0.0989583" stop-color="#A098A9"/>
<stop offset="1" stop-color="#504D54" stop-opacity="0"/>
</linearGradient>
<radialGradient id="paint53_radial_220_3520" cx="0" cy="0" r="1" gradientUnits="userSpaceOnUse" gradientTransform="translate(21.4805 2.83757) rotate(120.466) scale(0.520042 0.509347)">
<stop offset="0.147387" stop-color="#786E81"/>
<stop offset="1" stop-color="#786E81" stop-opacity="0"/>
</radialGradient>
<linearGradient id="paint54_linear_220_3520" x1="16.4253" y1="4.01619" x2="15.1922" y2="4.67677" gradientUnits="userSpaceOnUse">
<stop offset="0.149079" stop-color="#372F3D"/>
<stop offset="0.423439" stop-color="#594D62"/>
<stop offset="0.53125" stop-color="#594D62"/>
<stop offset="1" stop-color="#43354E"/>
</linearGradient>
<radialGradient id="paint55_radial_220_3520" cx="0" cy="0" r="1" gradientUnits="userSpaceOnUse" gradientTransform="translate(15.5305 3.45623) rotate(59.9848) scale(3.40879 0.392374)">
<stop stop-color="#706A76"/>
<stop offset="1" stop-color="#706A76" stop-opacity="0"/>
</radialGradient>
<linearGradient id="paint56_linear_220_3520" x1="16.3083" y1="5.49048" x2="16.0989" y2="3.88502" gradientUnits="userSpaceOnUse">
<stop stop-color="#382E41"/>
<stop offset="1" stop-color="#64586E" stop-opacity="0"/>
</linearGradient>
<linearGradient id="paint57_linear_220_3520" x1="15.4234" y1="5.2713" x2="15.8383" y2="5.03389" gradientUnits="userSpaceOnUse">
<stop offset="0.0989583" stop-color="#A098A9"/>
<stop offset="1" stop-color="#504D54" stop-opacity="0"/>
</linearGradient>
<radialGradient id="paint58_radial_220_3520" cx="0" cy="0" r="1" gradientUnits="userSpaceOnUse" gradientTransform="translate(14.8351 2.47842) rotate(-5.5722) scale(0.591337 0.602312)">
<stop stop-color="#3C3245"/>
<stop offset="1" stop-color="#4D4058" stop-opacity="0"/>
</radialGradient>
<radialGradient id="paint59_radial_220_3520" cx="0" cy="0" r="1" gradientUnits="userSpaceOnUse" gradientTransform="translate(20.4878 10.6503) rotate(-90) scale(4.40389 8.01508)">
<stop stop-color="#6F6776"/>
<stop offset="1" stop-color="#483C51"/>
</radialGradient>
<radialGradient id="paint60_radial_220_3520" cx="0" cy="0" r="1" gradientUnits="userSpaceOnUse" gradientTransform="translate(18.3298 11.487) rotate(82.9716) scale(6.47836 8.36183)">
<stop offset="0.822917" stop-color="#4E4854" stop-opacity="0"/>
<stop offset="1" stop-color="#817D85"/>
</radialGradient>
<radialGradient id="paint61_radial_220_3520" cx="0" cy="0" r="1" gradientUnits="userSpaceOnUse" gradientTransform="translate(19.7402 5.38635) rotate(34.5085) scale(1.19457 0.638716)">
<stop stop-color="#382B42"/>
<stop offset="1" stop-color="#382B42" stop-opacity="0"/>
</radialGradient>
<radialGradient id="paint62_radial_220_3520" cx="0" cy="0" r="1" gradientUnits="userSpaceOnUse" gradientTransform="translate(16.2949 5.32483) rotate(121.042) scale(1.10788 0.919406)">
<stop stop-color="#382B42"/>
<stop offset="1" stop-color="#382B42" stop-opacity="0"/>
</radialGradient>
<radialGradient id="paint63_radial_220_3520" cx="0" cy="0" r="1" gradientUnits="userSpaceOnUse" gradientTransform="translate(23.8347 8.62451) rotate(2.86241) scale(4.40939 3.04589)">
<stop stop-color="#8E8696" stop-opacity="0.6"/>
<stop offset="1" stop-color="#736C7A" stop-opacity="0"/>
</radialGradient>
<linearGradient id="paint64_linear_220_3520" x1="24.75" y1="11.2501" x2="21.3046" y2="32.65" gradientUnits="userSpaceOnUse">
<stop stop-color="#C4355B"/>
<stop offset="0.3125" stop-color="#E7587D"/>
<stop offset="1" stop-color="#B41F64"/>
</linearGradient>
<radialGradient id="paint65_radial_220_3520" cx="0" cy="0" r="1" gradientUnits="userSpaceOnUse" gradientTransform="translate(18 20.4916) rotate(90) scale(13.7701)">
<stop offset="0.83592" stop-color="#B5316C" stop-opacity="0"/>
<stop offset="0.912281" stop-color="#B5316C"/>
<stop offset="1" stop-color="#B5316C" stop-opacity="0.9"/>
</radialGradient>
<linearGradient id="paint66_linear_220_3520" x1="24.75" y1="11.2501" x2="21.3046" y2="32.65" gradientUnits="userSpaceOnUse">
<stop stop-color="#C4355B"/>
<stop offset="0.3125" stop-color="#E7587D"/>
<stop offset="1" stop-color="#B41F64"/>
</linearGradient>
<radialGradient id="paint67_radial_220_3520" cx="0" cy="0" r="1" gradientUnits="userSpaceOnUse" gradientTransform="translate(18 20.4916) rotate(90) scale(13.7701)">
<stop offset="0.83592" stop-color="#B5316C" stop-opacity="0"/>
<stop offset="0.912281" stop-color="#B5316C"/>
<stop offset="1" stop-color="#B5316C" stop-opacity="0.9"/>
</radialGradient>
<radialGradient id="paint68_radial_220_3520" cx="0" cy="0" r="1" gradientUnits="userSpaceOnUse" gradientTransform="translate(22.3875 15.8453) rotate(180) scale(9.16872)">
<stop offset="0.00558659" stop-color="#665667"/>
<stop offset="1" stop-color="#4A354C"/>
</radialGradient>
<radialGradient id="paint69_radial_220_3520" cx="0" cy="0" r="1" gradientUnits="userSpaceOnUse" gradientTransform="translate(13.3594 21.8134) rotate(123.54) scale(7.12653 7.12653)">
<stop offset="0.00558659" stop-color="#472F4D"/>
<stop offset="1" stop-color="#44294F"/>
</radialGradient>
<radialGradient id="paint70_radial_220_3520" cx="0" cy="0" r="1" gradientUnits="userSpaceOnUse" gradientTransform="translate(6.53906 13.0679) rotate(68.542) scale(7.01549)">
<stop offset="0.00558659" stop-color="#878088"/>
<stop offset="1" stop-color="#453047"/>
</radialGradient>
<radialGradient id="paint71_radial_220_3520" cx="0" cy="0" r="1" gradientUnits="userSpaceOnUse" gradientTransform="translate(5.13281 10.6069) rotate(66.0309) scale(7.38703 1.62803)">
<stop stop-color="#9A959B"/>
<stop offset="1" stop-color="#9A959B" stop-opacity="0"/>
</radialGradient>
<radialGradient id="paint72_radial_220_3520" cx="0" cy="0" r="1" gradientUnits="userSpaceOnUse" gradientTransform="translate(6.08203 14.4214) rotate(81.1533) scale(4.57197 0.783631)">
<stop stop-color="#321934"/>
<stop offset="0.874094" stop-color="#321934" stop-opacity="0"/>
</radialGradient>
<radialGradient id="paint73_radial_220_3520" cx="0" cy="0" r="1" gradientUnits="userSpaceOnUse" gradientTransform="translate(25.7696 15.4233) rotate(28.7747) scale(4.89329 5.53771)">
<stop stop-color="#7F7080"/>
<stop offset="1" stop-color="#645166"/>
</radialGradient>
<radialGradient id="paint74_radial_220_3520" cx="0" cy="0" r="1" gradientUnits="userSpaceOnUse" gradientTransform="translate(30.041 16.6383) rotate(101.592) scale(2.88685 0.79694)">
<stop stop-color="#4A2F4D"/>
<stop offset="1" stop-color="#4A2F4D" stop-opacity="0"/>
</radialGradient>
<radialGradient id="paint75_radial_220_3520" cx="0" cy="0" r="1" gradientUnits="userSpaceOnUse" gradientTransform="translate(26.2265 21.8134) rotate(117.785) scale(5.73178)">
<stop offset="0.00558659" stop-color="#664F64"/>
<stop offset="1" stop-color="#503459"/>
</radialGradient>
<linearGradient id="paint76_linear_220_3520" x1="18" y1="10.5972" x2="18" y2="26.9547" gradientUnits="userSpaceOnUse">
<stop stop-color="#3C3144"/>
<stop offset="1" stop-color="#3D2154"/>
</linearGradient>
<linearGradient id="paint77_linear_220_3520" x1="15.3004" y1="12.269" x2="24.1875" y2="12.375" gradientUnits="userSpaceOnUse">
<stop offset="0.209342" stop-color="#8E8696"/>
<stop offset="0.421229" stop-color="#4F3960" stop-opacity="0"/>
</linearGradient>
<linearGradient id="paint78_linear_220_3520" x1="18" y1="10.5972" x2="18" y2="10.8094" gradientUnits="userSpaceOnUse">
<stop stop-color="#291735" stop-opacity="0.9"/>
<stop offset="1" stop-color="#5E496B" stop-opacity="0"/>
</linearGradient>
<linearGradient id="paint79_linear_220_3520" x1="17.5298" y1="12.257" x2="18.4702" y2="12.257" gradientUnits="userSpaceOnUse">
<stop stop-color="#352C3D"/>
<stop offset="0.0991237" stop-color="#473B51" stop-opacity="0"/>
<stop offset="0.90636" stop-color="#281933" stop-opacity="0"/>
<stop offset="1" stop-color="#281933"/>
</linearGradient>
</defs>
</svg>
