<svg width="100%" height="100%" viewBox="0 0 36 36" fill="none" xmlns="http://www.w3.org/2000/svg">
<rect x="2.33789" y="4.03442" width="31.3242" height="29.2414" rx="5.25" fill="url(#paint0_linear_152_3607)"/>
<rect x="2.33789" y="4.03442" width="31.3242" height="29.2414" rx="5.25" fill="url(#paint1_linear_152_3607)"/>
<rect x="2.33789" y="4.03442" width="31.3242" height="29.2414" rx="5.25" fill="url(#paint2_linear_152_3607)"/>
<rect x="2.33789" y="4.03442" width="31.3242" height="29.2414" rx="5.25" fill="url(#paint3_linear_152_3607)"/>
<rect x="2.33789" y="4.03442" width="31.3242" height="29.2414" rx="5.25" fill="url(#paint4_linear_152_3607)"/>
<rect x="2.33789" y="4.03442" width="31.3242" height="29.2414" rx="5.25" fill="url(#paint5_linear_152_3607)"/>
<rect x="2.33789" y="4.03442" width="31.3242" height="29.2414" rx="5.25" fill="url(#paint6_radial_152_3607)"/>
<rect x="2.33789" y="4.03442" width="31.3242" height="29.2414" rx="5.25" fill="url(#paint7_radial_152_3607)"/>
<rect x="2.33789" y="4.03442" width="31.3242" height="29.2414" rx="5.25" fill="url(#paint8_linear_152_3607)"/>
<rect x="2.33789" y="4.03442" width="31.3242" height="29.2414" rx="5.25" fill="url(#paint9_linear_152_3607)"/>
<path d="M33.6621 11.6985H2.33789V9.77193C2.33789 6.6032 4.90663 4.03442 8.07536 4.03442H27.9246C31.0934 4.03442 33.6621 6.6032 33.6621 9.77193V11.6985Z" fill="url(#paint10_linear_152_3607)"/>
<path d="M33.6621 11.6985H2.33789V9.77193C2.33789 6.6032 4.90663 4.03442 8.07536 4.03442H27.9246C31.0934 4.03442 33.6621 6.6032 33.6621 9.77193V11.6985Z" fill="url(#paint11_linear_152_3607)"/>
<path d="M33.6621 11.6985H2.33789V9.77193C2.33789 6.6032 4.90663 4.03442 8.07536 4.03442H27.9246C31.0934 4.03442 33.6621 6.6032 33.6621 9.77193V11.6985Z" fill="url(#paint12_radial_152_3607)"/>
<path d="M33.6621 11.6985H2.33789V9.77193C2.33789 6.6032 4.90663 4.03442 8.07536 4.03442H27.9246C31.0934 4.03442 33.6621 6.6032 33.6621 9.77193V11.6985Z" fill="url(#paint13_radial_152_3607)"/>
<path d="M33.6621 11.6985H2.33789V9.77193C2.33789 6.6032 4.90663 4.03442 8.07536 4.03442H27.9246C31.0934 4.03442 33.6621 6.6032 33.6621 9.77193V11.6985Z" fill="url(#paint14_linear_152_3607)"/>
<path d="M33.6621 11.6985H2.33789V9.77193C2.33789 6.6032 4.90663 4.03442 8.07536 4.03442H27.9246C31.0934 4.03442 33.6621 6.6032 33.6621 9.77193V11.6985Z" fill="url(#paint15_linear_152_3607)"/>
<path d="M33.6621 11.6985H2.33789V9.77193C2.33789 6.6032 4.90663 4.03442 8.07536 4.03442H27.9246C31.0934 4.03442 33.6621 6.6032 33.6621 9.77193V11.6985Z" fill="url(#paint16_radial_152_3607)"/>
<path d="M33.6621 11.6985H2.33789V9.77193C2.33789 6.6032 4.90663 4.03442 8.07536 4.03442H27.9246C31.0934 4.03442 33.6621 6.6032 33.6621 9.77193V11.6985Z" fill="url(#paint17_radial_152_3607)"/>
<path d="M33.6621 11.6985H2.33789V9.77193C2.33789 6.6032 4.90663 4.03442 8.07536 4.03442H27.9246C31.0934 4.03442 33.6621 6.6032 33.6621 9.77193V11.6985Z" fill="url(#paint18_radial_152_3607)"/>
<path d="M33.6621 11.6985H2.33789V9.77193C2.33789 6.6032 4.90663 4.03442 8.07536 4.03442H27.9246C31.0934 4.03442 33.6621 6.6032 33.6621 9.77193V11.6985Z" fill="url(#paint19_radial_152_3607)"/>
<path d="M33.6621 11.6985H2.33789V9.77193C2.33789 6.6032 4.90663 4.03442 8.07536 4.03442H27.9246C31.0934 4.03442 33.6621 6.6032 33.6621 9.77193V11.6985Z" fill="url(#paint20_radial_152_3607)"/>
<path d="M33.6622 22.7368V27.5384C33.6622 30.7071 31.0935 33.2759 27.9248 33.2759H23.0587L33.6622 22.7368Z" fill="#D3CBDD"/>
<path d="M33.6622 22.7368V27.5384C33.6622 30.7071 31.0935 33.2759 27.9248 33.2759H23.0587L33.6622 22.7368Z" fill="url(#paint21_linear_152_3607)"/>
<path d="M33.6622 22.7368V27.5384C33.6622 30.7071 31.0935 33.2759 27.9248 33.2759H23.0587L33.6622 22.7368Z" fill="url(#paint22_radial_152_3607)"/>
<path d="M33.6622 22.7368V27.5384C33.6622 30.7071 31.0935 33.2759 27.9248 33.2759H23.0587L33.6622 22.7368Z" fill="url(#paint23_linear_152_3607)"/>
<path d="M33.6622 22.7368V27.5384C33.6622 30.7071 31.0935 33.2759 27.9248 33.2759H23.0587L33.6622 22.7368Z" fill="url(#paint24_linear_152_3607)"/>
<path d="M33.6622 22.7368V27.5384C33.6622 30.7071 31.0935 33.2759 27.9248 33.2759H23.0587L33.6622 22.7368Z" fill="url(#paint25_linear_152_3607)"/>
<path d="M33.6622 22.7368V27.5384C33.6622 30.7071 31.0935 33.2759 27.9248 33.2759H23.0587L33.6622 22.7368Z" fill="url(#paint26_radial_152_3607)"/>
<rect x="23.1064" y="14.8625" width="3.15527" height="3.15527" rx="0.1" fill="#9896A1"/>
<rect x="23.1064" y="14.8625" width="3.15527" height="3.15527" rx="0.1" fill="url(#paint27_linear_152_3607)"/>
<rect x="23.1064" y="14.8625" width="3.15527" height="3.15527" rx="0.1" fill="url(#paint28_linear_152_3607)"/>
<rect x="23.1064" y="14.8625" width="3.15527" height="3.15527" rx="0.1" fill="url(#paint29_linear_152_3607)"/>
<rect x="23.1064" y="14.8625" width="3.15527" height="3.15527" rx="0.1" fill="url(#paint30_linear_152_3607)"/>
<rect x="23.1064" y="20.4875" width="3.15527" height="3.15527" rx="0.1" fill="url(#paint31_linear_152_3607)"/>
<rect x="23.1064" y="20.4875" width="3.15527" height="3.15527" rx="0.1" fill="url(#paint32_linear_152_3607)"/>
<rect x="23.1064" y="20.4875" width="3.15527" height="3.15527" rx="0.1" fill="url(#paint33_linear_152_3607)"/>
<rect x="23.1064" y="20.4875" width="3.15527" height="3.15527" rx="0.1" fill="url(#paint34_linear_152_3607)"/>
<rect x="23.1064" y="20.4875" width="3.15527" height="3.15527" rx="0.1" fill="url(#paint35_linear_152_3607)"/>
<rect x="23.1064" y="26.2538" width="3.15527" height="3.15527" rx="0.1" fill="#9896A1"/>
<rect x="23.1064" y="26.2538" width="3.15527" height="3.15527" rx="0.1" fill="url(#paint36_linear_152_3607)"/>
<rect x="23.1064" y="26.2538" width="3.15527" height="3.15527" rx="0.1" fill="url(#paint37_linear_152_3607)"/>
<rect x="23.1064" y="26.2538" width="3.15527" height="3.15527" rx="0.1" fill="url(#paint38_linear_152_3607)"/>
<rect x="23.1064" y="26.2538" width="3.15527" height="3.15527" rx="0.1" fill="url(#paint39_linear_152_3607)"/>
<rect x="16.3696" y="26.1123" width="3.15527" height="3.15527" rx="0.1" fill="#9896A1"/>
<rect x="16.3696" y="26.1123" width="3.15527" height="3.15527" rx="0.1" fill="url(#paint40_linear_152_3607)"/>
<rect x="16.3696" y="26.1123" width="3.15527" height="3.15527" rx="0.1" fill="url(#paint41_linear_152_3607)"/>
<rect x="16.3696" y="26.1123" width="3.15527" height="3.15527" rx="0.1" fill="url(#paint42_linear_152_3607)"/>
<rect x="16.3696" y="26.1123" width="3.15527" height="3.15527" rx="0.1" fill="url(#paint43_linear_152_3607)"/>
<rect x="16.3696" y="20.4875" width="3.15527" height="3.15527" rx="0.1" fill="#9896A1"/>
<rect x="16.3696" y="20.4875" width="3.15527" height="3.15527" rx="0.1" fill="url(#paint44_linear_152_3607)"/>
<rect x="16.3696" y="20.4875" width="3.15527" height="3.15527" rx="0.1" fill="url(#paint45_linear_152_3607)"/>
<rect x="16.3696" y="20.4875" width="3.15527" height="3.15527" rx="0.1" fill="url(#paint46_linear_152_3607)"/>
<rect x="16.3696" y="20.4875" width="3.15527" height="3.15527" rx="0.1" fill="url(#paint47_linear_152_3607)"/>
<rect x="9.63281" y="26.1123" width="3.15527" height="3.15527" rx="0.1" fill="#9896A1"/>
<rect x="9.63281" y="26.1123" width="3.15527" height="3.15527" rx="0.1" fill="url(#paint48_linear_152_3607)"/>
<rect x="9.63281" y="26.1123" width="3.15527" height="3.15527" rx="0.1" fill="url(#paint49_linear_152_3607)"/>
<rect x="9.63281" y="26.1123" width="3.15527" height="3.15527" rx="0.1" fill="url(#paint50_linear_152_3607)"/>
<rect x="9.63281" y="26.1123" width="3.15527" height="3.15527" rx="0.1" fill="url(#paint51_linear_152_3607)"/>
<rect x="9.63281" y="20.4875" width="3.15527" height="3.15527" rx="0.1" fill="#9896A1"/>
<rect x="9.63281" y="20.4875" width="3.15527" height="3.15527" rx="0.1" fill="url(#paint52_linear_152_3607)"/>
<rect x="9.63281" y="20.4875" width="3.15527" height="3.15527" rx="0.1" fill="url(#paint53_linear_152_3607)"/>
<rect x="9.63281" y="20.4875" width="3.15527" height="3.15527" rx="0.1" fill="url(#paint54_linear_152_3607)"/>
<rect x="9.63281" y="20.4875" width="3.15527" height="3.15527" rx="0.1" fill="url(#paint55_linear_152_3607)"/>
<rect x="9.63281" y="14.8625" width="3.15527" height="3.15527" rx="0.1" fill="#9896A1"/>
<rect x="9.63281" y="14.8625" width="3.15527" height="3.15527" rx="0.1" fill="url(#paint56_linear_152_3607)"/>
<rect x="9.63281" y="14.8625" width="3.15527" height="3.15527" rx="0.1" fill="url(#paint57_linear_152_3607)"/>
<rect x="9.63281" y="14.8625" width="3.15527" height="3.15527" rx="0.1" fill="url(#paint58_linear_152_3607)"/>
<rect x="9.63281" y="14.8625" width="3.15527" height="3.15527" rx="0.1" fill="url(#paint59_linear_152_3607)"/>
<rect x="16.3696" y="14.8625" width="3.15527" height="3.15527" rx="0.1" fill="#9896A1"/>
<rect x="16.3696" y="14.8625" width="3.15527" height="3.15527" rx="0.1" fill="url(#paint60_linear_152_3607)"/>
<rect x="16.3696" y="14.8625" width="3.15527" height="3.15527" rx="0.1" fill="url(#paint61_linear_152_3607)"/>
<rect x="16.3696" y="14.8625" width="3.15527" height="3.15527" rx="0.1" fill="url(#paint62_linear_152_3607)"/>
<rect x="16.3696" y="14.8625" width="3.15527" height="3.15527" rx="0.1" fill="url(#paint63_linear_152_3607)"/>
<path d="M33.5558 22.9363C33.624 22.8681 33.6623 22.7757 33.6623 22.6792C33.6623 22.4784 33.4995 22.3157 33.2987 22.3157H31.9834C26.8575 22.3157 22.7021 26.471 22.7021 31.5969V32.9123C22.7021 33.1131 22.8649 33.2758 23.0657 33.2758C23.1621 33.2758 23.2546 33.2375 23.3228 33.1694L33.5558 22.9363Z" fill="url(#paint64_radial_152_3607)"/>
<path d="M33.5558 22.9363C33.624 22.8681 33.6623 22.7757 33.6623 22.6792C33.6623 22.4784 33.4995 22.3157 33.2987 22.3157H31.9834C26.8575 22.3157 22.7021 26.471 22.7021 31.5969V32.9123C22.7021 33.1131 22.8649 33.2758 23.0657 33.2758C23.1621 33.2758 23.2546 33.2375 23.3228 33.1694L33.5558 22.9363Z" fill="url(#paint65_linear_152_3607)"/>
<path d="M33.5558 22.9363C33.624 22.8681 33.6623 22.7757 33.6623 22.6792C33.6623 22.4784 33.4995 22.3157 33.2987 22.3157H31.9834C26.8575 22.3157 22.7021 26.471 22.7021 31.5969V32.9123C22.7021 33.1131 22.8649 33.2758 23.0657 33.2758C23.1621 33.2758 23.2546 33.2375 23.3228 33.1694L33.5558 22.9363Z" fill="url(#paint66_radial_152_3607)"/>
<rect x="9.17578" y="1.85474" width="2.8125" height="7.1543" rx="1.40625" fill="url(#paint67_linear_152_3607)"/>
<rect x="9.17578" y="1.85474" width="2.8125" height="7.1543" rx="1.40625" fill="url(#paint68_radial_152_3607)"/>
<rect x="9.17578" y="1.85474" width="2.8125" height="7.1543" rx="1.40625" fill="url(#paint69_radial_152_3607)"/>
<rect x="23.8535" y="1.85474" width="2.8125" height="7.1543" rx="1.40625" fill="url(#paint70_linear_152_3607)"/>
<rect x="23.8535" y="1.85474" width="2.8125" height="7.1543" rx="1.40625" fill="url(#paint71_radial_152_3607)"/>
<rect x="23.8535" y="1.85474" width="2.8125" height="7.1543" rx="1.40625" fill="url(#paint72_radial_152_3607)"/>
<defs>
<linearGradient id="paint0_linear_152_3607" x1="5.82225" y1="20.3469" x2="31.526" y2="20.3469" gradientUnits="userSpaceOnUse">
<stop stop-color="#E4DEEC"/>
<stop offset="1" stop-color="#E7E2EF"/>
</linearGradient>
<linearGradient id="paint1_linear_152_3607" x1="1.60704" y1="19.4529" x2="5.2454" y2="19.4529" gradientUnits="userSpaceOnUse">
<stop stop-color="#AC9EBF" stop-opacity="0.73"/>
<stop offset="0.565214" stop-color="#AC9EBF" stop-opacity="0.226703"/>
<stop offset="0.831735" stop-color="#AC9EBF" stop-opacity="0.0550695"/>
<stop offset="1" stop-color="#AC9EBF" stop-opacity="0"/>
</linearGradient>
<linearGradient id="paint2_linear_152_3607" x1="2.05871" y1="19.049" x2="5.58789" y2="19.049" gradientUnits="userSpaceOnUse">
<stop stop-color="#CCC9D1"/>
<stop offset="0.504059" stop-color="#CCC9D1" stop-opacity="0.381425"/>
<stop offset="0.748215" stop-color="#CCC9D1" stop-opacity="0.133098"/>
<stop offset="1" stop-color="#CCC9D1" stop-opacity="0"/>
</linearGradient>
<linearGradient id="paint3_linear_152_3607" x1="1.52409" y1="19.7106" x2="3.927" y2="19.7106" gradientUnits="userSpaceOnUse">
<stop stop-color="#AB9EBE" stop-opacity="0.62"/>
<stop offset="0.844796" stop-color="#AB9EBE" stop-opacity="0.03"/>
<stop offset="1" stop-color="#AB9EBE" stop-opacity="0"/>
</linearGradient>
<linearGradient id="paint4_linear_152_3607" x1="9.43067" y1="35.8214" x2="9.43067" y2="29.1237" gradientUnits="userSpaceOnUse">
<stop stop-color="#AC9EBF"/>
<stop offset="0.777445" stop-color="#AC9EBF" stop-opacity="0.164632"/>
<stop offset="1" stop-color="#AC9EBF" stop-opacity="0"/>
</linearGradient>
<linearGradient id="paint5_linear_152_3607" x1="11.4055" y1="35.3462" x2="11.4055" y2="31.5856" gradientUnits="userSpaceOnUse">
<stop offset="0.364621" stop-color="#AC9EBF"/>
<stop offset="0.865223" stop-color="#AC9EBF" stop-opacity="0.0952221"/>
<stop offset="1" stop-color="#AC9EBF" stop-opacity="0"/>
</linearGradient>
<radialGradient id="paint6_radial_152_3607" cx="0" cy="0" r="1" gradientUnits="userSpaceOnUse" gradientTransform="translate(27.634 6.82161) rotate(133.809) scale(34.4879 20.9363)">
<stop stop-color="#AC9EBF" stop-opacity="0"/>
<stop offset="0.884758" stop-color="#AC9EBF" stop-opacity="0.0191153"/>
<stop offset="0.911221" stop-color="#AC9EBF" stop-opacity="0.116465"/>
<stop offset="1" stop-color="#AC9EBF" stop-opacity="0.73"/>
</radialGradient>
<radialGradient id="paint7_radial_152_3607" cx="0" cy="0" r="1" gradientUnits="userSpaceOnUse" gradientTransform="translate(27.634 6.82161) rotate(133.809) scale(34.4879 20.9363)">
<stop stop-color="#AB9EBE" stop-opacity="0"/>
<stop offset="0.941889" stop-color="#AB9EBE" stop-opacity="0.0191153"/>
<stop offset="0.968045" stop-color="#AB9EBE" stop-opacity="0.116465"/>
<stop offset="1" stop-color="#AB9EBE" stop-opacity="0.73"/>
</radialGradient>
<linearGradient id="paint8_linear_152_3607" x1="33.798" y1="18.6551" x2="30.9202" y2="18.6551" gradientUnits="userSpaceOnUse">
<stop offset="0.145191" stop-color="#F4F1F9"/>
<stop offset="0.616923" stop-color="#F4F1F9" stop-opacity="0.496781"/>
<stop offset="0.823441" stop-color="#F4F1F9" stop-opacity="0.121417"/>
<stop offset="1" stop-color="#F4F1F9" stop-opacity="0"/>
</linearGradient>
<linearGradient id="paint9_linear_152_3607" x1="34.551" y1="19.6299" x2="32.8547" y2="19.6299" gradientUnits="userSpaceOnUse">
<stop stop-color="#AB9EBE" stop-opacity="0.72"/>
<stop offset="0.85823" stop-color="#AB9EBE" stop-opacity="0.0549551"/>
<stop offset="1" stop-color="#AB9EBE" stop-opacity="0"/>
</linearGradient>
<linearGradient id="paint10_linear_152_3607" x1="1.97019" y1="9.95354" x2="31.3159" y2="9.95354" gradientUnits="userSpaceOnUse">
<stop stop-color="#4271C7"/>
<stop offset="0.794195" stop-color="#4F9FDC"/>
</linearGradient>
<linearGradient id="paint11_linear_152_3607" x1="18" y1="4.03442" x2="18" y2="6.18994" gradientUnits="userSpaceOnUse">
<stop offset="0.315625" stop-color="#5591D3"/>
<stop offset="1" stop-color="#5591D3" stop-opacity="0"/>
</linearGradient>
<radialGradient id="paint12_radial_152_3607" cx="0" cy="0" r="1" gradientUnits="userSpaceOnUse" gradientTransform="translate(26.9969 11.1407) rotate(-55.7615) scale(7.28992 6.68159)">
<stop stop-color="#70C0F8" stop-opacity="0"/>
<stop offset="0.537712" stop-color="#70C0F8" stop-opacity="0.129121"/>
<stop offset="0.600109" stop-color="#70C0F8" stop-opacity="0.242949"/>
<stop offset="0.777418" stop-color="#70C0F8" stop-opacity="0.823821"/>
<stop offset="0.806938" stop-color="#70C0F8" stop-opacity="0.911572"/>
<stop offset="0.837741" stop-color="#70C0F8" stop-opacity="0.94"/>
<stop offset="0.877133" stop-color="#70C0F8" stop-opacity="0.95"/>
<stop offset="0.910017" stop-color="#70C0F8" stop-opacity="0.747082"/>
<stop offset="0.953809" stop-color="#70C0F8" stop-opacity="0.445935"/>
<stop offset="1" stop-color="#70C0F8" stop-opacity="0.07"/>
</radialGradient>
<radialGradient id="paint13_radial_152_3607" cx="0" cy="0" r="1" gradientUnits="userSpaceOnUse" gradientTransform="translate(22.4938 7.08164) rotate(-32.5413) scale(6.66998 15.1752)">
<stop offset="0.411532" stop-color="#4F9FDC"/>
<stop offset="0.653004" stop-color="#4F9FDC" stop-opacity="0.82"/>
<stop offset="0.765553" stop-color="#4F9FDC" stop-opacity="0.42869"/>
<stop offset="0.858234" stop-color="#4F9FDC" stop-opacity="0.187929"/>
<stop offset="1" stop-color="#4F9FDC" stop-opacity="0"/>
</radialGradient>
<linearGradient id="paint14_linear_152_3607" x1="23.8219" y1="12.6223" x2="23.8219" y2="10.5717" gradientUnits="userSpaceOnUse">
<stop stop-color="#437AC4"/>
<stop offset="0.837011" stop-color="#437AC4" stop-opacity="0.0841696"/>
<stop offset="1" stop-color="#437AC4" stop-opacity="0"/>
</linearGradient>
<linearGradient id="paint15_linear_152_3607" x1="1.97019" y1="9.95354" x2="31.3159" y2="9.95354" gradientUnits="userSpaceOnUse">
<stop stop-color="#4271C7"/>
<stop offset="0.794195" stop-color="#4F9FDC" stop-opacity="0.25"/>
</linearGradient>
<radialGradient id="paint16_radial_152_3607" cx="0" cy="0" r="1" gradientUnits="userSpaceOnUse" gradientTransform="translate(24.4252 11.6985) rotate(-170.157) scale(22.4173 12.4625)">
<stop offset="0.710095" stop-color="#3E62C2" stop-opacity="0"/>
<stop offset="1" stop-color="#3B41A1"/>
</radialGradient>
<radialGradient id="paint17_radial_152_3607" cx="0" cy="0" r="1" gradientUnits="userSpaceOnUse" gradientTransform="translate(24.6613 7.50943) rotate(173.753) scale(2.21132)">
<stop offset="0.146645" stop-color="#407FC8"/>
<stop offset="0.874064" stop-color="#407FC8" stop-opacity="0.141953"/>
<stop offset="1" stop-color="#407FC8" stop-opacity="0"/>
</radialGradient>
<radialGradient id="paint18_radial_152_3607" cx="0" cy="0" r="1" gradientUnits="userSpaceOnUse" gradientTransform="translate(24.1365 4.74402) rotate(-179.549) scale(2.47466 5.33427)">
<stop offset="0.12869" stop-color="#407FC8"/>
<stop offset="0.517303" stop-color="#407FC8" stop-opacity="0.624625"/>
<stop offset="0.841964" stop-color="#407FC8" stop-opacity="0.141953"/>
<stop offset="1" stop-color="#407FC8" stop-opacity="0"/>
</radialGradient>
<radialGradient id="paint19_radial_152_3607" cx="0" cy="0" r="1" gradientUnits="userSpaceOnUse" gradientTransform="translate(9.86574 7.9251) rotate(-180) scale(1.91406)">
<stop stop-color="#375DB2"/>
<stop offset="0.83386" stop-color="#375DB2" stop-opacity="0.0893559"/>
<stop offset="1" stop-color="#375DB2" stop-opacity="0"/>
</radialGradient>
<radialGradient id="paint20_radial_152_3607" cx="0" cy="0" r="1" gradientUnits="userSpaceOnUse" gradientTransform="translate(9.21063 5.62511) rotate(174.289) scale(1.92228 3.9372)">
<stop stop-color="#375DB2"/>
<stop offset="0.428737" stop-color="#375DB2" stop-opacity="0.606993"/>
<stop offset="0.83386" stop-color="#375DB2" stop-opacity="0.0893559"/>
<stop offset="1" stop-color="#375DB2" stop-opacity="0"/>
</radialGradient>
<linearGradient id="paint21_linear_152_3607" x1="33.1111" y1="26.632" x2="30.0065" y2="26.632" gradientUnits="userSpaceOnUse">
<stop stop-color="#EFEAF6"/>
<stop offset="0.589482" stop-color="#EFEAF6" stop-opacity="0.2095"/>
<stop offset="0.848243" stop-color="#EFEAF6" stop-opacity="0.069066"/>
<stop offset="1" stop-color="#EFEAF6" stop-opacity="0"/>
</linearGradient>
<radialGradient id="paint22_radial_152_3607" cx="0" cy="0" r="1" gradientUnits="userSpaceOnUse" gradientTransform="translate(26.0827 25.2554) rotate(47.0246) scale(8.66884 12.0721)">
<stop stop-color="#EFEAF6" stop-opacity="0"/>
<stop offset="0.382846" stop-color="#EFEAF6" stop-opacity="0.069066"/>
<stop offset="0.609706" stop-color="#EFEAF6" stop-opacity="0.38"/>
<stop offset="0.844218" stop-color="#EFEAF6"/>
</radialGradient>
<linearGradient id="paint23_linear_152_3607" x1="27.3034" y1="27.0275" x2="29.2255" y2="28.9891" gradientUnits="userSpaceOnUse">
<stop stop-color="#A89BBA" stop-opacity="0.69"/>
<stop offset="0.880123" stop-color="#A89BBA" stop-opacity="0.0522108"/>
<stop offset="1" stop-color="#A89BBA" stop-opacity="0"/>
</linearGradient>
<linearGradient id="paint24_linear_152_3607" x1="29.0392" y1="35.6562" x2="29.0392" y2="30.7265" gradientUnits="userSpaceOnUse">
<stop offset="0.248984" stop-color="#A89BBA"/>
<stop offset="0.856001" stop-color="#A89BBA" stop-opacity="0.0971553"/>
<stop offset="1" stop-color="#A89BBA" stop-opacity="0"/>
</linearGradient>
<linearGradient id="paint25_linear_152_3607" x1="34.7857" y1="24.7819" x2="32.9276" y2="24.7819" gradientUnits="userSpaceOnUse">
<stop stop-color="#A89BBA" stop-opacity="0.74"/>
<stop offset="0.839186" stop-color="#A89BBA" stop-opacity="0.0553304"/>
<stop offset="0.91781" stop-color="#A89BBA" stop-opacity="0.0244732"/>
<stop offset="1" stop-color="#A89BBA" stop-opacity="0"/>
</linearGradient>
<radialGradient id="paint26_radial_152_3607" cx="0" cy="0" r="1" gradientUnits="userSpaceOnUse" gradientTransform="translate(24.8488 24.7198) rotate(44.9994) scale(10.0435 9.25518)">
<stop stop-color="#A89BBA" stop-opacity="0"/>
<stop offset="0.899092" stop-color="#A89BBA" stop-opacity="0.0553304"/>
<stop offset="0.920202" stop-color="#A89BBA" stop-opacity="0.090963"/>
<stop offset="0.938557" stop-color="#A89BBA" stop-opacity="0.171545"/>
<stop offset="1" stop-color="#A89BBA" stop-opacity="0.5"/>
</radialGradient>
<linearGradient id="paint27_linear_152_3607" x1="23.1064" y1="16.4402" x2="23.2981" y2="16.4402" gradientUnits="userSpaceOnUse">
<stop stop-color="#92909B"/>
<stop offset="1" stop-color="#92909B" stop-opacity="0"/>
</linearGradient>
<linearGradient id="paint28_linear_152_3607" x1="24.6841" y1="18.0178" x2="24.6841" y2="17.7902" gradientUnits="userSpaceOnUse">
<stop stop-color="#92909B"/>
<stop offset="1" stop-color="#92909B" stop-opacity="0"/>
</linearGradient>
<linearGradient id="paint29_linear_152_3607" x1="24.6841" y1="14.8625" x2="24.6841" y2="15.0453" gradientUnits="userSpaceOnUse">
<stop stop-color="#A7A5AE"/>
<stop offset="1" stop-color="#A7A5AE" stop-opacity="0"/>
</linearGradient>
<linearGradient id="paint30_linear_152_3607" x1="26.2617" y1="16.6696" x2="26.0555" y2="16.6696" gradientUnits="userSpaceOnUse">
<stop stop-color="#A7A5AE"/>
<stop offset="1" stop-color="#A7A5AE" stop-opacity="0"/>
</linearGradient>
<linearGradient id="paint31_linear_152_3607" x1="26.5957" y1="20.4875" x2="22.4824" y2="23.4407" gradientUnits="userSpaceOnUse">
<stop stop-color="#4C92DE"/>
<stop offset="1" stop-color="#4B91DB"/>
</linearGradient>
<linearGradient id="paint32_linear_152_3607" x1="23.1064" y1="22.0652" x2="23.294" y2="22.0652" gradientUnits="userSpaceOnUse">
<stop stop-color="#417FD1"/>
<stop offset="1" stop-color="#417FD1" stop-opacity="0"/>
</linearGradient>
<linearGradient id="paint33_linear_152_3607" x1="24.5593" y1="23.6428" x2="24.5593" y2="23.4287" gradientUnits="userSpaceOnUse">
<stop stop-color="#417FD1"/>
<stop offset="1" stop-color="#417FD1" stop-opacity="0"/>
</linearGradient>
<linearGradient id="paint34_linear_152_3607" x1="24.6841" y1="20.4875" x2="24.6841" y2="20.8407" gradientUnits="userSpaceOnUse">
<stop stop-color="#59A1EA"/>
<stop offset="1" stop-color="#59A1EA" stop-opacity="0"/>
</linearGradient>
<linearGradient id="paint35_linear_152_3607" x1="26.2617" y1="22.2267" x2="25.8703" y2="22.2267" gradientUnits="userSpaceOnUse">
<stop stop-color="#59A1EA"/>
<stop offset="1" stop-color="#59A1EA" stop-opacity="0"/>
</linearGradient>
<linearGradient id="paint36_linear_152_3607" x1="23.1064" y1="27.8314" x2="23.2981" y2="27.8314" gradientUnits="userSpaceOnUse">
<stop stop-color="#92909B"/>
<stop offset="1" stop-color="#92909B" stop-opacity="0"/>
</linearGradient>
<linearGradient id="paint37_linear_152_3607" x1="24.6841" y1="29.4091" x2="24.6841" y2="29.1814" gradientUnits="userSpaceOnUse">
<stop stop-color="#92909B"/>
<stop offset="1" stop-color="#92909B" stop-opacity="0"/>
</linearGradient>
<linearGradient id="paint38_linear_152_3607" x1="24.6841" y1="26.2538" x2="24.6841" y2="26.4366" gradientUnits="userSpaceOnUse">
<stop stop-color="#A7A5AE"/>
<stop offset="1" stop-color="#A7A5AE" stop-opacity="0"/>
</linearGradient>
<linearGradient id="paint39_linear_152_3607" x1="26.2617" y1="28.0608" x2="26.0555" y2="28.0608" gradientUnits="userSpaceOnUse">
<stop stop-color="#A7A5AE"/>
<stop offset="1" stop-color="#A7A5AE" stop-opacity="0"/>
</linearGradient>
<linearGradient id="paint40_linear_152_3607" x1="16.3696" y1="27.6899" x2="16.5612" y2="27.6899" gradientUnits="userSpaceOnUse">
<stop stop-color="#92909B"/>
<stop offset="1" stop-color="#92909B" stop-opacity="0"/>
</linearGradient>
<linearGradient id="paint41_linear_152_3607" x1="17.9473" y1="29.2676" x2="17.9473" y2="29.0399" gradientUnits="userSpaceOnUse">
<stop stop-color="#92909B"/>
<stop offset="1" stop-color="#92909B" stop-opacity="0"/>
</linearGradient>
<linearGradient id="paint42_linear_152_3607" x1="17.9473" y1="26.1123" x2="17.9473" y2="26.2951" gradientUnits="userSpaceOnUse">
<stop stop-color="#A7A5AE"/>
<stop offset="1" stop-color="#A7A5AE" stop-opacity="0"/>
</linearGradient>
<linearGradient id="paint43_linear_152_3607" x1="19.5249" y1="27.9193" x2="19.3187" y2="27.9193" gradientUnits="userSpaceOnUse">
<stop stop-color="#A7A5AE"/>
<stop offset="1" stop-color="#A7A5AE" stop-opacity="0"/>
</linearGradient>
<linearGradient id="paint44_linear_152_3607" x1="16.3696" y1="22.0652" x2="16.5612" y2="22.0652" gradientUnits="userSpaceOnUse">
<stop stop-color="#92909B"/>
<stop offset="1" stop-color="#92909B" stop-opacity="0"/>
</linearGradient>
<linearGradient id="paint45_linear_152_3607" x1="17.9473" y1="23.6428" x2="17.9473" y2="23.4152" gradientUnits="userSpaceOnUse">
<stop stop-color="#92909B"/>
<stop offset="1" stop-color="#92909B" stop-opacity="0"/>
</linearGradient>
<linearGradient id="paint46_linear_152_3607" x1="17.9473" y1="20.4875" x2="17.9473" y2="20.6703" gradientUnits="userSpaceOnUse">
<stop stop-color="#A7A5AE"/>
<stop offset="1" stop-color="#A7A5AE" stop-opacity="0"/>
</linearGradient>
<linearGradient id="paint47_linear_152_3607" x1="19.5249" y1="22.2946" x2="19.3187" y2="22.2946" gradientUnits="userSpaceOnUse">
<stop stop-color="#A7A5AE"/>
<stop offset="1" stop-color="#A7A5AE" stop-opacity="0"/>
</linearGradient>
<linearGradient id="paint48_linear_152_3607" x1="9.63281" y1="27.6899" x2="9.82442" y2="27.6899" gradientUnits="userSpaceOnUse">
<stop stop-color="#92909B"/>
<stop offset="1" stop-color="#92909B" stop-opacity="0"/>
</linearGradient>
<linearGradient id="paint49_linear_152_3607" x1="11.2104" y1="29.2676" x2="11.2104" y2="29.0399" gradientUnits="userSpaceOnUse">
<stop stop-color="#92909B"/>
<stop offset="1" stop-color="#92909B" stop-opacity="0"/>
</linearGradient>
<linearGradient id="paint50_linear_152_3607" x1="11.2104" y1="26.1123" x2="11.2104" y2="26.2951" gradientUnits="userSpaceOnUse">
<stop stop-color="#A7A5AE"/>
<stop offset="1" stop-color="#A7A5AE" stop-opacity="0"/>
</linearGradient>
<linearGradient id="paint51_linear_152_3607" x1="12.7881" y1="27.9193" x2="12.5819" y2="27.9193" gradientUnits="userSpaceOnUse">
<stop stop-color="#A7A5AE"/>
<stop offset="1" stop-color="#A7A5AE" stop-opacity="0"/>
</linearGradient>
<linearGradient id="paint52_linear_152_3607" x1="9.63281" y1="22.0652" x2="9.82442" y2="22.0652" gradientUnits="userSpaceOnUse">
<stop stop-color="#92909B"/>
<stop offset="1" stop-color="#92909B" stop-opacity="0"/>
</linearGradient>
<linearGradient id="paint53_linear_152_3607" x1="11.2104" y1="23.6428" x2="11.2104" y2="23.4152" gradientUnits="userSpaceOnUse">
<stop stop-color="#92909B"/>
<stop offset="1" stop-color="#92909B" stop-opacity="0"/>
</linearGradient>
<linearGradient id="paint54_linear_152_3607" x1="11.2104" y1="20.4875" x2="11.2104" y2="20.6703" gradientUnits="userSpaceOnUse">
<stop stop-color="#A7A5AE"/>
<stop offset="1" stop-color="#A7A5AE" stop-opacity="0"/>
</linearGradient>
<linearGradient id="paint55_linear_152_3607" x1="12.7881" y1="22.2946" x2="12.5819" y2="22.2946" gradientUnits="userSpaceOnUse">
<stop stop-color="#A7A5AE"/>
<stop offset="1" stop-color="#A7A5AE" stop-opacity="0"/>
</linearGradient>
<linearGradient id="paint56_linear_152_3607" x1="9.63281" y1="16.4402" x2="9.82442" y2="16.4402" gradientUnits="userSpaceOnUse">
<stop stop-color="#92909B"/>
<stop offset="1" stop-color="#92909B" stop-opacity="0"/>
</linearGradient>
<linearGradient id="paint57_linear_152_3607" x1="11.2104" y1="18.0178" x2="11.2104" y2="17.7902" gradientUnits="userSpaceOnUse">
<stop stop-color="#92909B"/>
<stop offset="1" stop-color="#92909B" stop-opacity="0"/>
</linearGradient>
<linearGradient id="paint58_linear_152_3607" x1="11.2104" y1="14.8625" x2="11.2104" y2="15.0453" gradientUnits="userSpaceOnUse">
<stop stop-color="#A7A5AE"/>
<stop offset="1" stop-color="#A7A5AE" stop-opacity="0"/>
</linearGradient>
<linearGradient id="paint59_linear_152_3607" x1="12.7881" y1="16.6696" x2="12.5819" y2="16.6696" gradientUnits="userSpaceOnUse">
<stop stop-color="#A7A5AE"/>
<stop offset="1" stop-color="#A7A5AE" stop-opacity="0"/>
</linearGradient>
<linearGradient id="paint60_linear_152_3607" x1="16.3696" y1="16.4402" x2="16.5612" y2="16.4402" gradientUnits="userSpaceOnUse">
<stop stop-color="#92909B"/>
<stop offset="1" stop-color="#92909B" stop-opacity="0"/>
</linearGradient>
<linearGradient id="paint61_linear_152_3607" x1="17.9473" y1="18.0178" x2="17.9473" y2="17.7902" gradientUnits="userSpaceOnUse">
<stop stop-color="#92909B"/>
<stop offset="1" stop-color="#92909B" stop-opacity="0"/>
</linearGradient>
<linearGradient id="paint62_linear_152_3607" x1="17.9473" y1="14.8625" x2="17.9473" y2="15.0453" gradientUnits="userSpaceOnUse">
<stop stop-color="#A7A5AE"/>
<stop offset="1" stop-color="#A7A5AE" stop-opacity="0"/>
</linearGradient>
<linearGradient id="paint63_linear_152_3607" x1="19.5249" y1="16.6696" x2="19.3187" y2="16.6696" gradientUnits="userSpaceOnUse">
<stop stop-color="#A7A5AE"/>
<stop offset="1" stop-color="#A7A5AE" stop-opacity="0"/>
</linearGradient>
<radialGradient id="paint64_radial_152_3607" cx="0" cy="0" r="1" gradientUnits="userSpaceOnUse" gradientTransform="translate(25.8928 25.0579) rotate(45.6992) scale(3.82557 9.27089)">
<stop offset="0.188388" stop-color="#E4DDED"/>
<stop offset="1" stop-color="#D5CFDC"/>
</radialGradient>
<linearGradient id="paint65_linear_152_3607" x1="28.2486" y1="28.4459" x2="27.9587" y2="28.156" gradientUnits="userSpaceOnUse">
<stop offset="0.461334" stop-color="#BFB8CA"/>
<stop offset="1" stop-color="#D9D3E0" stop-opacity="0"/>
</linearGradient>
<radialGradient id="paint66_radial_152_3607" cx="0" cy="0" r="1" gradientUnits="userSpaceOnUse" gradientTransform="translate(28.7913 28.487) rotate(-135.735) scale(4.93107 7.7011)">
<stop stop-color="#CDCEDE" stop-opacity="0"/>
<stop offset="0.86023" stop-color="#CDCEDE" stop-opacity="0"/>
<stop offset="0.912513" stop-color="#CDCEDE" stop-opacity="0.180902"/>
<stop offset="1" stop-color="#CDCEDE"/>
</radialGradient>
<linearGradient id="paint67_linear_152_3607" x1="11.9883" y1="5.963" x2="9.17578" y2="5.963" gradientUnits="userSpaceOnUse">
<stop stop-color="#C0C0C1"/>
<stop offset="0.931802" stop-color="#A6A6A8"/>
</linearGradient>
<radialGradient id="paint68_radial_152_3607" cx="0" cy="0" r="1" gradientUnits="userSpaceOnUse" gradientTransform="translate(10.582 9.00903) rotate(-90) scale(4.33175 4.01032)">
<stop stop-color="#8C88AD"/>
<stop offset="1" stop-color="#9D9AA2" stop-opacity="0"/>
</radialGradient>
<radialGradient id="paint69_radial_152_3607" cx="0" cy="0" r="1" gradientUnits="userSpaceOnUse" gradientTransform="translate(11.4584 4.2755) rotate(90) scale(3.21429 1.73469)">
<stop stop-color="#D9D8DD"/>
<stop offset="0.345336" stop-color="#D2D1D5" stop-opacity="0.73815"/>
<stop offset="0.99631" stop-color="#BEBEC0" stop-opacity="0"/>
</radialGradient>
<linearGradient id="paint70_linear_152_3607" x1="26.666" y1="5.963" x2="23.8535" y2="5.963" gradientUnits="userSpaceOnUse">
<stop stop-color="#C0C0C1"/>
<stop offset="0.931802" stop-color="#A6A6A8"/>
</linearGradient>
<radialGradient id="paint71_radial_152_3607" cx="0" cy="0" r="1" gradientUnits="userSpaceOnUse" gradientTransform="translate(25.2598 9.00903) rotate(-90) scale(4.33175 4.01032)">
<stop stop-color="#8C88AD"/>
<stop offset="1" stop-color="#9D9AA2" stop-opacity="0"/>
</radialGradient>
<radialGradient id="paint72_radial_152_3607" cx="0" cy="0" r="1" gradientUnits="userSpaceOnUse" gradientTransform="translate(26.1362 4.2755) rotate(90) scale(3.21429 1.73469)">
<stop stop-color="#D9D8DD"/>
<stop offset="0.418005" stop-color="#D1D0D5" stop-opacity="0.710557"/>
<stop offset="0.853264" stop-color="#C1C1C3" stop-opacity="0.105989"/>
<stop offset="0.99631" stop-color="#BEBEC0" stop-opacity="0"/>
</radialGradient>
</defs>
</svg>
