<svg width="70" height="61" viewBox="0 0 70 61" fill="none" xmlns="http://www.w3.org/2000/svg">
<path d="M23.597 12.8519C23.597 14.1604 22.5065 15.2509 21.198 15.2509H10.6208C9.31227 15.2509 8.22184 14.1604 8.22184 12.8519V9.90774C8.22184 8.59922 9.31227 7.50879 10.6208 7.50879H21.198C22.5065 7.50879 23.597 8.59922 23.597 9.90774V12.8519ZM66.233 12.6338C66.233 13.2881 65.6877 13.9424 64.9244 13.9424H59.2542C58.5999 13.9424 57.9457 13.3971 57.9457 12.6338V11.1072C57.9457 10.453 58.4909 9.7987 59.2542 9.7987H64.9244C65.5787 9.7987 66.233 10.3439 66.233 11.1072V12.6338ZM69.8314 50.1448C69.8314 53.4161 67.2143 56.0331 63.943 56.0331H5.93193C2.66062 56.0331 0.0435791 53.4161 0.0435791 50.1448V48.4001H69.8314V50.1448Z" fill="#212528"/>
<path d="M0.0435791 17.2137C0.0435791 13.9424 2.66062 11.3253 5.93193 11.3253H63.834C67.1053 11.3253 69.7223 13.9424 69.7223 17.2137V18.9584H0.0435791V17.2137Z" fill="#51575B"/>
<path d="M0.0435791 18.7402H69.8314V49.5995H0.0435791V18.7402Z" fill="#3E4347"/>
<path d="M59.6903 14.9237H24.6874L28.1768 3.14704C28.5039 2.49278 29.9215 1.40235 30.7938 1.18426C36.1369 -0.342345 48.1317 -0.342345 53.4748 1.18426C54.3472 1.40235 55.7648 2.49278 56.0919 3.14704L59.6903 14.9237Z" fill="#51575B"/>
<path d="M57.9456 27.5728H26.323L29.4853 11.6525C29.7033 10.7801 31.1209 9.36257 31.8842 9.03544C36.6821 7.07266 47.5865 7.07266 52.3844 9.03544C53.1477 9.36257 54.4562 10.7801 54.7833 11.6525L57.9456 27.5728Z" fill="#3E4347"/>
<path d="M66.1239 36.2962C66.1239 49.5995 55.3286 60.2858 42.1343 60.2858C28.9401 60.2858 18.1448 49.5995 18.1448 36.2962C18.1448 23.1019 28.9401 12.3066 42.1343 12.3066C55.4376 12.3066 66.1239 23.1019 66.1239 36.2962Z" fill="#788287"/>
<path d="M63.5069 36.2962C63.5069 48.0729 53.911 57.6687 42.1344 57.6687C30.3577 57.6687 20.7618 48.0729 20.7618 36.2962C20.7618 24.5195 30.3577 14.9237 42.1344 14.9237C53.911 15.0327 63.5069 24.5195 63.5069 36.2962Z" fill="#212528"/>
<path d="M42.1343 53.6342C51.7098 53.6342 59.4722 45.8717 59.4722 36.2963C59.4722 26.7208 51.7098 18.9584 42.1343 18.9584C32.5588 18.9584 24.7964 26.7208 24.7964 36.2963C24.7964 45.8717 32.5588 53.6342 42.1343 53.6342Z" fill="#3E4347"/>
<path d="M42.1343 45.6741C47.3135 45.6741 51.5121 41.4755 51.5121 36.2963C51.5121 31.1171 47.3135 26.9186 42.1343 26.9186C36.9551 26.9186 32.7566 31.1171 32.7566 36.2963C32.7566 41.4755 36.9551 45.6741 42.1343 45.6741Z" fill="#212528"/>
<path opacity="0.5" d="M54.8924 28.9904C54.8924 31.9345 52.4935 34.3335 49.5493 34.3335C46.6051 34.3335 44.2062 31.9345 44.2062 28.9904C44.2062 26.0462 46.6051 23.6472 49.5493 23.6472C52.4935 23.5382 54.8924 26.0462 54.8924 28.9904Z" fill="#F5F5F5"/>
<path opacity="0.5" d="M38.863 43.057C40.7299 43.057 42.2434 41.5435 42.2434 39.6766C42.2434 37.8097 40.7299 36.2963 38.863 36.2963C36.9961 36.2963 35.4827 37.8097 35.4827 39.6766C35.4827 41.5435 36.9961 43.057 38.863 43.057Z" fill="#F5F5F5"/>
<path opacity="0.5" d="M32.8656 47.7458C34.0099 47.7458 34.9375 46.8182 34.9375 45.674C34.9375 44.5298 34.0099 43.6022 32.8656 43.6022C31.7214 43.6022 30.7938 44.5298 30.7938 45.674C30.7938 46.8182 31.7214 47.7458 32.8656 47.7458Z" fill="#F5F5F5"/>
<path d="M16.4001 44.6925C16.4001 46.0011 15.3097 47.0915 14.0011 47.0915H3.96915C2.66062 47.0915 1.57019 46.0011 1.57019 44.6925V23.5381C1.57019 22.2296 2.66062 21.1392 3.96915 21.1392H14.0011C15.3097 21.1392 16.4001 22.2296 16.4001 23.5381V44.6925Z" fill="#636C72"/>
<path d="M11.057 19.0674C12.9842 19.0674 14.5464 17.5052 14.5464 15.578C14.5464 13.6509 12.9842 12.0886 11.057 12.0886C9.12988 12.0886 7.56763 13.6509 7.56763 15.578C7.56763 17.5052 9.12988 19.0674 11.057 19.0674Z" fill="#212528"/>
</svg>
