<svg width="32" height="32" viewBox="0 0 32 32" fill="none" xmlns="http://www.w3.org/2000/svg">
<g clip-path="url(#clip0_210_2551)">
<path d="M4.69121 31.7742L21.2019 26.8884C22.4961 26.5055 23.5552 25.777 24.3412 24.8474C26.4266 22.3812 26.5902 18.5002 24.125 15.9062L18.856 10.3621C15.4616 6.79031 9.47404 8.18522 7.83695 12.8254L2.11752 29.0661C1.54571 30.685 3.04534 32.2629 4.69121 31.7742Z" fill="#FF8C4C"/>
<path d="M4.69121 31.7742L21.2019 26.8884C22.4961 26.5055 23.5552 25.777 24.3412 24.8474C26.4266 22.3812 26.5902 18.5002 24.125 15.9062L18.856 10.3621C15.4616 6.79031 9.47404 8.18522 7.83695 12.8254L2.11752 29.0661C1.54571 30.685 3.04534 32.2629 4.69121 31.7742Z" fill="url(#paint0_linear_210_2551)"/>
<path d="M4.69121 31.7742L21.2019 26.8884C22.4961 26.5055 23.5552 25.777 24.3412 24.8474C26.4266 22.3812 26.5902 18.5002 24.125 15.9062L18.856 10.3621C15.4616 6.79031 9.47404 8.18522 7.83695 12.8254L2.11752 29.0661C1.54571 30.685 3.04534 32.2629 4.69121 31.7742Z" fill="url(#paint1_linear_210_2551)"/>
<path d="M4.69121 31.7742L21.2019 26.8884C22.4961 26.5055 23.5552 25.777 24.3412 24.8474C26.4266 22.3812 26.5902 18.5002 24.125 15.9062L18.856 10.3621C15.4616 6.79031 9.47404 8.18522 7.83695 12.8254L2.11752 29.0661C1.54571 30.685 3.04534 32.2629 4.69121 31.7742Z" fill="url(#paint2_radial_210_2551)"/>
<path d="M4.69121 31.7742L21.2019 26.8884C22.4961 26.5055 23.5552 25.777 24.3412 24.8474C26.4266 22.3812 26.5902 18.5002 24.125 15.9062L18.856 10.3621C15.4616 6.79031 9.47404 8.18522 7.83695 12.8254L2.11752 29.0661C1.54571 30.685 3.04534 32.2629 4.69121 31.7742Z" fill="url(#paint3_radial_210_2551)"/>
<path opacity="0.5" d="M13.0056 21.0824C13.528 20.5859 13.5489 19.7645 13.0527 19.2317L7.60134 13.4956L6.62585 16.259L11.1551 21.0249C11.6514 21.5577 12.4832 21.5789 13.0056 21.0824Z" fill="url(#paint4_linear_210_2551)"/>
<path opacity="0.5" d="M8.95514 25.7132C8.4327 26.2097 8.4118 27.0311 8.90803 27.564L11.1068 29.8776L13.9163 29.0439L10.7955 25.7601C10.299 25.2376 9.47757 25.2167 8.95514 25.7132Z" fill="url(#paint5_linear_210_2551)"/>
<path opacity="0.5" d="M17.0981 18.8874C16.5757 19.3839 16.5548 20.2052 17.051 20.7381L22.4314 26.3996C23.233 25.9726 23.9132 25.4073 24.4506 24.7343L18.9486 18.9449C18.4419 18.4118 17.6205 18.3909 17.0981 18.8874Z" fill="url(#paint6_linear_210_2551)"/>
<path d="M18.1324 5.01913C16.3405 6.48761 16.8309 8.53644 17.5163 9.30267C19.0604 10.8677 21.2656 13.0469 21.2656 13.0469C21.6473 13.3063 21.9207 13.2553 22.1527 13.2083C22.3254 13.1733 22.4804 13.0405 22.607 12.8282C22.7128 12.6509 22.6129 9.81794 22.8474 7.23934C23.0223 5.31628 20.172 3.3476 18.1324 5.01913Z" fill="#AAD248"/>
<path d="M18.1324 5.01913C16.3405 6.48761 16.8309 8.53644 17.5163 9.30267C19.0604 10.8677 21.2656 13.0469 21.2656 13.0469C21.6473 13.3063 21.9207 13.2553 22.1527 13.2083C22.3254 13.1733 22.4804 13.0405 22.607 12.8282C22.7128 12.6509 22.6129 9.81794 22.8474 7.23934C23.0223 5.31628 20.172 3.3476 18.1324 5.01913Z" fill="url(#paint7_radial_210_2551)"/>
<path d="M18.1324 5.01913C16.3405 6.48761 16.8309 8.53644 17.5163 9.30267C19.0604 10.8677 21.2656 13.0469 21.2656 13.0469C21.6473 13.3063 21.9207 13.2553 22.1527 13.2083C22.3254 13.1733 22.4804 13.0405 22.607 12.8282C22.7128 12.6509 22.6129 9.81794 22.8474 7.23934C23.0223 5.31628 20.172 3.3476 18.1324 5.01913Z" fill="url(#paint8_radial_210_2551)"/>
<path d="M29.3124 16.4374C27.8024 18.1944 25.7656 17.6562 25.0156 16.9531C23.4871 15.3729 21.6875 13.5312 21.6875 13.5312C21.4371 13.1436 21.4944 12.8714 21.5469 12.6406C21.5859 12.4688 21.7223 12.3169 21.9375 12.1953C22.1172 12.0938 24.6196 11.8459 27.203 11.6717C29.1296 11.5418 31.0311 14.4374 29.3124 16.4374Z" fill="#AAD248"/>
<path d="M29.3124 16.4374C27.8024 18.1944 25.7656 17.6562 25.0156 16.9531C23.4871 15.3729 21.6875 13.5312 21.6875 13.5312C21.4371 13.1436 21.4944 12.8714 21.5469 12.6406C21.5859 12.4688 21.7223 12.3169 21.9375 12.1953C22.1172 12.0938 24.6196 11.8459 27.203 11.6717C29.1296 11.5418 31.0311 14.4374 29.3124 16.4374Z" fill="url(#paint9_radial_210_2551)"/>
<path d="M29.3124 16.4374C27.8024 18.1944 25.7656 17.6562 25.0156 16.9531C23.4871 15.3729 21.6875 13.5312 21.6875 13.5312C21.4371 13.1436 21.4944 12.8714 21.5469 12.6406C21.5859 12.4688 21.7223 12.3169 21.9375 12.1953C22.1172 12.0938 24.6196 11.8459 27.203 11.6717C29.1296 11.5418 31.0311 14.4374 29.3124 16.4374Z" fill="url(#paint10_radial_210_2551)"/>
<path d="M29.3124 16.4374C27.8024 18.1944 25.7656 17.6562 25.0156 16.9531C23.4871 15.3729 21.6875 13.5312 21.6875 13.5312C21.4371 13.1436 21.4944 12.8714 21.5469 12.6406C21.5859 12.4688 21.7223 12.3169 21.9375 12.1953C22.1172 12.0938 24.6196 11.8459 27.203 11.6717C29.1296 11.5418 31.0311 14.4374 29.3124 16.4374Z" fill="url(#paint11_linear_210_2551)"/>
<path d="M28.0936 5.7656C30.6271 7.62189 29.3124 11.2655 27.203 11.6718C25.6982 11.9616 22.1328 12.1094 22.1328 12.1094C22.1328 12.1094 22.4214 8.52569 22.828 7.3124C23.8124 4.37489 26.5155 4.60929 28.0936 5.7656Z" fill="#AAD248"/>
<path d="M28.0936 5.7656C30.6271 7.62189 29.3124 11.2655 27.203 11.6718C25.6982 11.9616 22.1328 12.1094 22.1328 12.1094C22.1328 12.1094 22.4214 8.52569 22.828 7.3124C23.8124 4.37489 26.5155 4.60929 28.0936 5.7656Z" fill="url(#paint12_radial_210_2551)"/>
<path d="M28.0936 5.7656C30.6271 7.62189 29.3124 11.2655 27.203 11.6718C25.6982 11.9616 22.1328 12.1094 22.1328 12.1094C22.1328 12.1094 22.4214 8.52569 22.828 7.3124C23.8124 4.37489 26.5155 4.60929 28.0936 5.7656Z" fill="url(#paint13_radial_210_2551)"/>
</g>
<defs>
<linearGradient id="paint0_linear_210_2551" x1="-2.5" y1="14.5" x2="11.5625" y2="22.3125" gradientUnits="userSpaceOnUse">
<stop offset="0.541095" stop-color="#B3734C"/>
<stop offset="0.769434" stop-color="#EA842A"/>
<stop offset="1" stop-color="#FD9434"/>
</linearGradient>
<linearGradient id="paint1_linear_210_2551" x1="20.5" y1="34.375" x2="15.0625" y2="20.5625" gradientUnits="userSpaceOnUse">
<stop offset="0.403558" stop-color="#FF7CB4"/>
<stop offset="1" stop-color="#FF717B" stop-opacity="0"/>
</linearGradient>
<radialGradient id="paint2_radial_210_2551" cx="0" cy="0" r="1" gradientUnits="userSpaceOnUse" gradientTransform="translate(21.625 16.875) rotate(131.009) scale(7.61988 15.3206)">
<stop stop-color="#FFD769"/>
<stop offset="0.530115" stop-color="#FFA427"/>
<stop offset="1" stop-color="#FCA328" stop-opacity="0"/>
</radialGradient>
<radialGradient id="paint3_radial_210_2551" cx="0" cy="0" r="1" gradientUnits="userSpaceOnUse" gradientTransform="translate(8.5625 26) rotate(139.81) scale(22.663 22.6004)">
<stop offset="0.0529174" stop-color="#FF9243" stop-opacity="0"/>
<stop offset="0.772514" stop-color="#F28B3A" stop-opacity="0"/>
<stop offset="0.848764" stop-color="#CB751F"/>
</radialGradient>
<linearGradient id="paint4_linear_210_2551" x1="7.1875" y1="15.6875" x2="12.9375" y2="21.125" gradientUnits="userSpaceOnUse">
<stop offset="0.0997318" stop-color="#6E482A"/>
<stop offset="1" stop-color="#AC5E3B"/>
</linearGradient>
<linearGradient id="paint5_linear_210_2551" x1="8.94705" y1="26.0124" x2="11.5852" y2="30.7975" gradientUnits="userSpaceOnUse">
<stop offset="0.0997318" stop-color="#9E5044"/>
<stop offset="1" stop-color="#C95D82"/>
</linearGradient>
<linearGradient id="paint6_linear_210_2551" x1="17.25" y1="19.6875" x2="22.2781" y2="26.414" gradientUnits="userSpaceOnUse">
<stop offset="0.0997318" stop-color="#AA6147"/>
<stop offset="1" stop-color="#CB747C"/>
</linearGradient>
<radialGradient id="paint7_radial_210_2551" cx="0" cy="0" r="1" gradientUnits="userSpaceOnUse" gradientTransform="translate(21.3125 6.625) rotate(152.103) scale(2.40442 2.25704)">
<stop stop-color="#C1F26B"/>
<stop offset="1" stop-color="#BCEF62" stop-opacity="0"/>
</radialGradient>
<radialGradient id="paint8_radial_210_2551" cx="0" cy="0" r="1" gradientUnits="userSpaceOnUse" gradientTransform="translate(21.6875 8.25) rotate(170.615) scale(4.98271 7.03763)">
<stop stop-color="#AFDC52" stop-opacity="0"/>
<stop offset="0.712833" stop-color="#8BC028"/>
<stop offset="1" stop-color="#81AA56"/>
</radialGradient>
<radialGradient id="paint9_radial_210_2551" cx="0" cy="0" r="1" gradientUnits="userSpaceOnUse" gradientTransform="translate(28.4375 13.75) rotate(139.268) scale(2.96924 2.78724)">
<stop stop-color="#C1F26B"/>
<stop offset="1" stop-color="#BCEF62" stop-opacity="0"/>
</radialGradient>
<radialGradient id="paint10_radial_210_2551" cx="0" cy="0" r="1" gradientUnits="userSpaceOnUse" gradientTransform="translate(25.7816 13.5625) rotate(77.0973) scale(4.61657 12.0851)">
<stop stop-color="#A7D029" stop-opacity="0"/>
<stop offset="1" stop-color="#B3BA74"/>
</radialGradient>
<linearGradient id="paint11_linear_210_2551" x1="27.7188" y1="11.125" x2="27.625" y2="12.6875" gradientUnits="userSpaceOnUse">
<stop offset="0.276206" stop-color="#8ACE17"/>
<stop offset="1" stop-color="#91D212" stop-opacity="0"/>
</linearGradient>
<radialGradient id="paint12_radial_210_2551" cx="0" cy="0" r="1" gradientUnits="userSpaceOnUse" gradientTransform="translate(27.5446 6.85697) rotate(111.999) scale(2.75927 2.11078)">
<stop stop-color="#C1F26B"/>
<stop offset="1" stop-color="#BCEF62" stop-opacity="0"/>
</radialGradient>
<radialGradient id="paint13_radial_210_2551" cx="0" cy="0" r="1" gradientUnits="userSpaceOnUse" gradientTransform="translate(27.125 7.9375) rotate(135) scale(11.1369 5.35009)">
<stop stop-color="#AFDC52" stop-opacity="0"/>
<stop offset="0.847117" stop-color="#6FB909"/>
</radialGradient>
<clipPath id="clip0_210_2551">
<rect width="32" height="32" fill="white"/>
</clipPath>
</defs>
</svg>
