<svg width="100%" height="100%" viewBox="0 0 32 32" fill="none" xmlns="http://www.w3.org/2000/svg">
<path d="M12.26 17.6442C14.4912 17.6442 16.3 15.8354 16.3 13.6042C16.3 11.373 14.4912 9.56421 12.26 9.56421C10.0287 9.56421 8.21997 11.373 8.21997 13.6042C8.21997 15.8354 10.0287 17.6442 12.26 17.6442Z" fill="url(#paint0_radial_211_3349)"/>
<path d="M12.26 17.6442C14.4912 17.6442 16.3 15.8354 16.3 13.6042C16.3 11.373 14.4912 9.56421 12.26 9.56421C10.0287 9.56421 8.21997 11.373 8.21997 13.6042C8.21997 15.8354 10.0287 17.6442 12.26 17.6442Z" fill="url(#paint1_radial_211_3349)"/>
<path d="M27.2902 9.55941C23.7332 6.09254 18.0419 6.15266 14.575 9.70971C13.6492 10.6538 12.9834 11.7488 12.5545 12.918C12.4956 13.0784 12.2986 13.1412 12.156 13.0469C11.8443 12.8406 11.5121 12.6605 11.1682 12.5153C10.3466 12.1345 9.43477 11.9241 8.47286 11.9241C4.89575 11.9241 2 14.8198 2 18.3969C2 19.9199 2.53105 21.3227 3.4128 22.4349C4.60517 23.998 6.4789 25 8.5931 25C11.1382 25 18.4527 25 21.3084 25C24.134 25 26.6289 23.6072 28.152 21.473C30.8774 17.9059 30.5868 12.7758 27.2902 9.55941Z" fill="#D5D4DA"/>
<path d="M27.2902 9.55941C23.7332 6.09254 18.0419 6.15266 14.575 9.70971C13.6492 10.6538 12.9834 11.7488 12.5545 12.918C12.4956 13.0784 12.2986 13.1412 12.156 13.0469C11.8443 12.8406 11.5121 12.6605 11.1682 12.5153C10.3466 12.1345 9.43477 11.9241 8.47286 11.9241C4.89575 11.9241 2 14.8198 2 18.3969C2 19.9199 2.53105 21.3227 3.4128 22.4349C4.60517 23.998 6.4789 25 8.5931 25C11.1382 25 18.4527 25 21.3084 25C24.134 25 26.6289 23.6072 28.152 21.473C30.8774 17.9059 30.5868 12.7758 27.2902 9.55941Z" fill="url(#paint2_linear_211_3349)"/>
<path d="M27.2902 9.55941C23.7332 6.09254 18.0419 6.15266 14.575 9.70971C13.6492 10.6538 12.9834 11.7488 12.5545 12.918C12.4956 13.0784 12.2986 13.1412 12.156 13.0469C11.8443 12.8406 11.5121 12.6605 11.1682 12.5153C10.3466 12.1345 9.43477 11.9241 8.47286 11.9241C4.89575 11.9241 2 14.8198 2 18.3969C2 19.9199 2.53105 21.3227 3.4128 22.4349C4.60517 23.998 6.4789 25 8.5931 25C11.1382 25 18.4527 25 21.3084 25C24.134 25 26.6289 23.6072 28.152 21.473C30.8774 17.9059 30.5868 12.7758 27.2902 9.55941Z" fill="url(#paint3_radial_211_3349)" fill-opacity="0.8"/>
<path d="M27.2902 9.55941C23.7332 6.09254 18.0419 6.15266 14.575 9.70971C13.6492 10.6538 12.9834 11.7488 12.5545 12.918C12.4956 13.0784 12.2986 13.1412 12.156 13.0469C11.8443 12.8406 11.5121 12.6605 11.1682 12.5153C10.3466 12.1345 9.43477 11.9241 8.47286 11.9241C4.89575 11.9241 2 14.8198 2 18.3969C2 19.9199 2.53105 21.3227 3.4128 22.4349C4.60517 23.998 6.4789 25 8.5931 25C11.1382 25 18.4527 25 21.3084 25C24.134 25 26.6289 23.6072 28.152 21.473C30.8774 17.9059 30.5868 12.7758 27.2902 9.55941Z" fill="url(#paint4_radial_211_3349)"/>
<path d="M27.2902 9.55941C23.7332 6.09254 18.0419 6.15266 14.575 9.70971C13.6492 10.6538 12.9834 11.7488 12.5545 12.918C12.4956 13.0784 12.2986 13.1412 12.156 13.0469C11.8443 12.8406 11.5121 12.6605 11.1682 12.5153C10.3466 12.1345 9.43477 11.9241 8.47286 11.9241C4.89575 11.9241 2 14.8198 2 18.3969C2 19.9199 2.53105 21.3227 3.4128 22.4349C4.60517 23.998 6.4789 25 8.5931 25C11.1382 25 18.4527 25 21.3084 25C24.134 25 26.6289 23.6072 28.152 21.473C30.8774 17.9059 30.5868 12.7758 27.2902 9.55941Z" fill="url(#paint5_radial_211_3349)"/>
<path d="M27.2902 9.55941C23.7332 6.09254 18.0419 6.15266 14.575 9.70971C13.6492 10.6538 12.9834 11.7488 12.5545 12.918C12.4956 13.0784 12.2986 13.1412 12.156 13.0469C11.8443 12.8406 11.5121 12.6605 11.1682 12.5153C10.3466 12.1345 9.43477 11.9241 8.47286 11.9241C4.89575 11.9241 2 14.8198 2 18.3969C2 19.9199 2.53105 21.3227 3.4128 22.4349C4.60517 23.998 6.4789 25 8.5931 25C11.1382 25 18.4527 25 21.3084 25C24.134 25 26.6289 23.6072 28.152 21.473C30.8774 17.9059 30.5868 12.7758 27.2902 9.55941Z" fill="url(#paint6_radial_211_3349)"/>
<path d="M27.2902 9.55941C23.7332 6.09254 18.0419 6.15266 14.575 9.70971C13.6492 10.6538 12.9834 11.7488 12.5545 12.918C12.4956 13.0784 12.2986 13.1412 12.156 13.0469C11.8443 12.8406 11.5121 12.6605 11.1682 12.5153C10.3466 12.1345 9.43477 11.9241 8.47286 11.9241C4.89575 11.9241 2 14.8198 2 18.3969C2 19.9199 2.53105 21.3227 3.4128 22.4349C4.60517 23.998 6.4789 25 8.5931 25C11.1382 25 18.4527 25 21.3084 25C24.134 25 26.6289 23.6072 28.152 21.473C30.8774 17.9059 30.5868 12.7758 27.2902 9.55941Z" fill="url(#paint7_radial_211_3349)"/>
<path d="M27.2902 9.55941C23.7332 6.09254 18.0419 6.15266 14.575 9.70971C13.6492 10.6538 12.9834 11.7488 12.5545 12.918C12.4956 13.0784 12.2986 13.1412 12.156 13.0469C11.8443 12.8406 11.5121 12.6605 11.1682 12.5153C10.3466 12.1345 9.43477 11.9241 8.47286 11.9241C4.89575 11.9241 2 14.8198 2 18.3969C2 19.9199 2.53105 21.3227 3.4128 22.4349C4.60517 23.998 6.4789 25 8.5931 25C11.1382 25 18.4527 25 21.3084 25C24.134 25 26.6289 23.6072 28.152 21.473C30.8774 17.9059 30.5868 12.7758 27.2902 9.55941Z" fill="url(#paint8_radial_211_3349)"/>
<path d="M27.2902 9.55941C23.7332 6.09254 18.0419 6.15266 14.575 9.70971C13.6492 10.6538 12.9834 11.7488 12.5545 12.918C12.4956 13.0784 12.2986 13.1412 12.156 13.0469C11.8443 12.8406 11.5121 12.6605 11.1682 12.5153C10.3466 12.1345 9.43477 11.9241 8.47286 11.9241C4.89575 11.9241 2 14.8198 2 18.3969C2 19.9199 2.53105 21.3227 3.4128 22.4349C4.60517 23.998 6.4789 25 8.5931 25C11.1382 25 18.4527 25 21.3084 25C24.134 25 26.6289 23.6072 28.152 21.473C30.8774 17.9059 30.5868 12.7758 27.2902 9.55941Z" fill="url(#paint9_radial_211_3349)" fill-opacity="0.5"/>
<path d="M27.2902 9.55941C23.7332 6.09254 18.0419 6.15266 14.575 9.70971C13.6492 10.6538 12.9834 11.7488 12.5545 12.918C12.4956 13.0784 12.2986 13.1412 12.156 13.0469C11.8443 12.8406 11.5121 12.6605 11.1682 12.5153C10.3466 12.1345 9.43477 11.9241 8.47286 11.9241C4.89575 11.9241 2 14.8198 2 18.3969C2 19.9199 2.53105 21.3227 3.4128 22.4349C4.60517 23.998 6.4789 25 8.5931 25C11.1382 25 18.4527 25 21.3084 25C24.134 25 26.6289 23.6072 28.152 21.473C30.8774 17.9059 30.5868 12.7758 27.2902 9.55941Z" fill="url(#paint10_linear_211_3349)"/>
<path d="M27.2902 9.55941C23.7332 6.09254 18.0419 6.15266 14.575 9.70971C13.6492 10.6538 12.9834 11.7488 12.5545 12.918C12.4956 13.0784 12.2986 13.1412 12.156 13.0469C11.8443 12.8406 11.5121 12.6605 11.1682 12.5153C10.3466 12.1345 9.43477 11.9241 8.47286 11.9241C4.89575 11.9241 2 14.8198 2 18.3969C2 19.9199 2.53105 21.3227 3.4128 22.4349C4.60517 23.998 6.4789 25 8.5931 25C11.1382 25 18.4527 25 21.3084 25C24.134 25 26.6289 23.6072 28.152 21.473C30.8774 17.9059 30.5868 12.7758 27.2902 9.55941Z" fill="url(#paint11_radial_211_3349)"/>
<path d="M27.2902 9.55941C23.7332 6.09254 18.0419 6.15266 14.575 9.70971C13.6492 10.6538 12.9834 11.7488 12.5545 12.918C12.4956 13.0784 12.2986 13.1412 12.156 13.0469C11.8443 12.8406 11.5121 12.6605 11.1682 12.5153C10.3466 12.1345 9.43477 11.9241 8.47286 11.9241C4.89575 11.9241 2 14.8198 2 18.3969C2 19.9199 2.53105 21.3227 3.4128 22.4349C4.60517 23.998 6.4789 25 8.5931 25C11.1382 25 18.4527 25 21.3084 25C24.134 25 26.6289 23.6072 28.152 21.473C30.8774 17.9059 30.5868 12.7758 27.2902 9.55941Z" fill="url(#paint12_radial_211_3349)"/>
<defs>
<radialGradient id="paint0_radial_211_3349" cx="0" cy="0" r="1" gradientUnits="userSpaceOnUse" gradientTransform="translate(13.7165 12.1053) rotate(-172.463) scale(5.54446)">
<stop offset="0.308752" stop-color="#E8E8E9"/>
<stop offset="1" stop-color="#D2D2D2"/>
</radialGradient>
<radialGradient id="paint1_radial_211_3349" cx="0" cy="0" r="1" gradientUnits="userSpaceOnUse" gradientTransform="translate(12.6917 13.2623) rotate(-141.242) scale(3.0099 2.75776)">
<stop stop-color="#CDCDCE"/>
<stop offset="1" stop-color="#CDCDCE" stop-opacity="0"/>
</radialGradient>
<linearGradient id="paint2_linear_211_3349" x1="18.8604" y1="24.0321" x2="18.8604" y2="16.5192" gradientUnits="userSpaceOnUse">
<stop stop-color="#DED7FA"/>
<stop offset="1" stop-color="#DED7FA" stop-opacity="0"/>
</linearGradient>
<radialGradient id="paint3_radial_211_3349" cx="0" cy="0" r="1" gradientUnits="userSpaceOnUse" gradientTransform="translate(27.6971 21.3198) rotate(-105.484) scale(15.4172 17.833)">
<stop stop-color="#D0C9EE"/>
<stop offset="0.658942" stop-color="#D0C9EE"/>
<stop offset="1" stop-color="#D0C9EE" stop-opacity="0"/>
</radialGradient>
<radialGradient id="paint4_radial_211_3349" cx="0" cy="0" r="1" gradientUnits="userSpaceOnUse" gradientTransform="translate(26.3733 13.0518) rotate(136.5) scale(11.1541 11.965)">
<stop offset="0.178875" stop-color="#FCFBFE"/>
<stop offset="0.472102" stop-color="#FCFBFE" stop-opacity="0.61999"/>
<stop offset="1" stop-color="#FCFBFE" stop-opacity="0"/>
</radialGradient>
<radialGradient id="paint5_radial_211_3349" cx="0" cy="0" r="1" gradientUnits="userSpaceOnUse" gradientTransform="translate(9.12616 17.3881) rotate(153.435) scale(5.70833 5.98147)">
<stop stop-color="#FCFBFE"/>
<stop offset="0.388394" stop-color="#FCFBFE" stop-opacity="0.85"/>
<stop offset="0.772504" stop-color="#FCFBFE" stop-opacity="0.326419"/>
<stop offset="1" stop-color="#FCFBFE" stop-opacity="0"/>
</radialGradient>
<radialGradient id="paint6_radial_211_3349" cx="0" cy="0" r="1" gradientUnits="userSpaceOnUse" gradientTransform="translate(11.0101 15.9302) rotate(163.113) scale(3.34415 7.85548)">
<stop stop-color="#FCFBFE"/>
<stop offset="0.303296" stop-color="#FCFBFE" stop-opacity="0.74"/>
<stop offset="0.671369" stop-color="#FCFBFE" stop-opacity="0.316221"/>
<stop offset="0.867495" stop-color="#FCFBFE" stop-opacity="0.112283"/>
<stop offset="1" stop-color="#FCFBFE" stop-opacity="0"/>
</radialGradient>
<radialGradient id="paint7_radial_211_3349" cx="0" cy="0" r="1" gradientUnits="userSpaceOnUse" gradientTransform="translate(25.2134 15.4665) rotate(166.654) scale(23.8577 18.7887)">
<stop offset="0.815422" stop-color="#CECCD7" stop-opacity="0"/>
<stop offset="1" stop-color="#CECCD7"/>
</radialGradient>
<radialGradient id="paint8_radial_211_3349" cx="0" cy="0" r="1" gradientUnits="userSpaceOnUse" gradientTransform="translate(5.64434 26.0182) rotate(-46.7899) scale(6.46347 8.91976)">
<stop stop-color="#D0C9EE"/>
<stop offset="1" stop-color="#D0C9EE" stop-opacity="0"/>
</radialGradient>
<radialGradient id="paint9_radial_211_3349" cx="0" cy="0" r="1" gradientUnits="userSpaceOnUse" gradientTransform="translate(5.6258 19.3793) rotate(-29.5115) scale(6.53417 18.9487)">
<stop stop-color="#D0C9EE"/>
<stop offset="1" stop-color="#D0C9EE" stop-opacity="0"/>
</radialGradient>
<linearGradient id="paint10_linear_211_3349" x1="16" y1="18.3764" x2="16" y2="25" gradientUnits="userSpaceOnUse">
<stop stop-color="#D0C8F4" stop-opacity="0"/>
<stop offset="0.335771" stop-color="#D0C8F4" stop-opacity="0.0319533"/>
<stop offset="0.601889" stop-color="#D0C8F4" stop-opacity="0.151303"/>
<stop offset="1" stop-color="#D0C8F4"/>
</linearGradient>
<radialGradient id="paint11_radial_211_3349" cx="0" cy="0" r="1" gradientUnits="userSpaceOnUse" gradientTransform="translate(11.3778 5.98418) rotate(44.5778) scale(24.8241 18.527)">
<stop stop-color="#D0C8F4" stop-opacity="0"/>
<stop offset="0.797031" stop-color="#D0C8F4" stop-opacity="0"/>
<stop offset="0.815429" stop-color="#D0C8F4" stop-opacity="0.0341227"/>
<stop offset="0.85129" stop-color="#D0C8F4" stop-opacity="0.15447"/>
<stop offset="1" stop-color="#D0C8F4"/>
</radialGradient>
<radialGradient id="paint12_radial_211_3349" cx="0" cy="0" r="1" gradientUnits="userSpaceOnUse" gradientTransform="translate(13.4936 15.3079) rotate(161.202) scale(1.83548 7.52585)">
<stop stop-color="#D2D2D2" stop-opacity="0.85"/>
<stop offset="0.380548" stop-color="#D2D2D2" stop-opacity="0.51597"/>
<stop offset="0.765588" stop-color="#D2D2D2" stop-opacity="0.109165"/>
<stop offset="1" stop-color="#D2D2D2" stop-opacity="0"/>
</radialGradient>
</defs>
</svg>
