<svg width="100%" height="100%" viewBox="0 0 36 36" fill="none" xmlns="http://www.w3.org/2000/svg">
<circle cx="18" cy="18.4658" r="12.514" fill="url(#paint0_linear_152_3687)"/>
<circle cx="18" cy="18.4658" r="12.514" fill="url(#paint1_radial_152_3687)"/>
<circle cx="18" cy="18.4658" r="12.514" fill="url(#paint2_radial_152_3687)"/>
<path fill-rule="evenodd" clip-rule="evenodd" d="M18 34.1807C26.6791 34.1807 33.7148 27.1449 33.7148 18.4658C33.7148 9.78676 26.6791 2.75098 18 2.75098C9.32094 2.75098 2.28516 9.78676 2.28516 18.4658C2.28516 27.1449 9.32094 34.1807 18 34.1807ZM18 30.7002C24.7569 30.7002 30.2344 25.2227 30.2344 18.4658C30.2344 11.709 24.7569 6.23145 18 6.23145C11.2431 6.23145 5.76562 11.709 5.76562 18.4658C5.76562 25.2227 11.2431 30.7002 18 30.7002Z" fill="url(#paint3_linear_152_3687)"/>
<path fill-rule="evenodd" clip-rule="evenodd" d="M18 34.1807C26.6791 34.1807 33.7148 27.1449 33.7148 18.4658C33.7148 9.78676 26.6791 2.75098 18 2.75098C9.32094 2.75098 2.28516 9.78676 2.28516 18.4658C2.28516 27.1449 9.32094 34.1807 18 34.1807ZM18 30.7002C24.7569 30.7002 30.2344 25.2227 30.2344 18.4658C30.2344 11.709 24.7569 6.23145 18 6.23145C11.2431 6.23145 5.76562 11.709 5.76562 18.4658C5.76562 25.2227 11.2431 30.7002 18 30.7002Z" fill="url(#paint4_radial_152_3687)" fill-opacity="0.49"/>
<path fill-rule="evenodd" clip-rule="evenodd" d="M18 34.1807C26.6791 34.1807 33.7148 27.1449 33.7148 18.4658C33.7148 9.78676 26.6791 2.75098 18 2.75098C9.32094 2.75098 2.28516 9.78676 2.28516 18.4658C2.28516 27.1449 9.32094 34.1807 18 34.1807ZM18 30.7002C24.7569 30.7002 30.2344 25.2227 30.2344 18.4658C30.2344 11.709 24.7569 6.23145 18 6.23145C11.2431 6.23145 5.76562 11.709 5.76562 18.4658C5.76562 25.2227 11.2431 30.7002 18 30.7002Z" fill="url(#paint5_radial_152_3687)"/>
<path fill-rule="evenodd" clip-rule="evenodd" d="M18 34.1807C26.6791 34.1807 33.7148 27.1449 33.7148 18.4658C33.7148 9.78676 26.6791 2.75098 18 2.75098C9.32094 2.75098 2.28516 9.78676 2.28516 18.4658C2.28516 27.1449 9.32094 34.1807 18 34.1807ZM18 30.7002C24.7569 30.7002 30.2344 25.2227 30.2344 18.4658C30.2344 11.709 24.7569 6.23145 18 6.23145C11.2431 6.23145 5.76562 11.709 5.76562 18.4658C5.76562 25.2227 11.2431 30.7002 18 30.7002Z" fill="url(#paint6_radial_152_3687)"/>
<path fill-rule="evenodd" clip-rule="evenodd" d="M18 34.1807C26.6791 34.1807 33.7148 27.1449 33.7148 18.4658C33.7148 9.78676 26.6791 2.75098 18 2.75098C9.32094 2.75098 2.28516 9.78676 2.28516 18.4658C2.28516 27.1449 9.32094 34.1807 18 34.1807ZM18 30.7002C24.7569 30.7002 30.2344 25.2227 30.2344 18.4658C30.2344 11.709 24.7569 6.23145 18 6.23145C11.2431 6.23145 5.76562 11.709 5.76562 18.4658C5.76562 25.2227 11.2431 30.7002 18 30.7002Z" fill="url(#paint7_radial_152_3687)"/>
<path fill-rule="evenodd" clip-rule="evenodd" d="M11.1523 12.7299C10.9577 12.8538 10.8398 13.0685 10.8398 13.2993V13.6143C10.8398 13.9012 11.0545 14.1379 11.332 14.1725V22.7198H11.2108C10.8525 22.7198 10.5393 22.9618 10.4488 23.3085L10.1007 24.6433C10.0077 24.9996 10.2766 25.3477 10.6449 25.3477H24.6521C25.0139 25.3477 25.2816 25.0112 25.2003 24.6588L24.8937 23.3302C24.8112 22.9729 24.493 22.7198 24.1264 22.7198H24.0058V14.17C24.2747 14.1278 24.4804 13.8951 24.4804 13.6143V13.2993C24.4804 13.0685 24.3625 12.8538 24.1679 12.7299L18.1132 8.87546C17.8368 8.69947 17.4834 8.69947 17.207 8.87546L11.1523 12.7299ZM22.1952 22.7198V14.1768H20.3847V22.7198H22.1952ZM18.5741 22.7198V14.1768H16.7636V22.7198H18.5741ZM14.9531 22.7198V14.1768H13.1425V22.7198H14.9531Z" fill="#DC7B3C"/>
<path d="M11.1912 12.9829C11.1912 12.7521 11.3091 12.5374 11.5037 12.4135L17.5584 8.55905C17.8349 8.38307 18.1882 8.38307 18.4646 8.55905L24.5193 12.4135C24.714 12.5374 24.8318 12.7521 24.8318 12.9829V13.2979C24.8318 13.6086 24.58 13.8604 24.2693 13.8604H11.7537C11.4431 13.8604 11.1912 13.6086 11.1912 13.2979V12.9829Z" fill="#FFC546"/>
<path d="M11.1912 12.9829C11.1912 12.7521 11.3091 12.5374 11.5037 12.4135L17.5584 8.55905C17.8349 8.38307 18.1882 8.38307 18.4646 8.55905L24.5193 12.4135C24.714 12.5374 24.8318 12.7521 24.8318 12.9829V13.2979C24.8318 13.6086 24.58 13.8604 24.2693 13.8604H11.7537C11.4431 13.8604 11.1912 13.6086 11.1912 13.2979V12.9829Z" fill="url(#paint8_linear_152_3687)"/>
<path d="M11.1912 12.9829C11.1912 12.7521 11.3091 12.5374 11.5037 12.4135L17.5584 8.55905C17.8349 8.38307 18.1882 8.38307 18.4646 8.55905L24.5193 12.4135C24.714 12.5374 24.8318 12.7521 24.8318 12.9829V13.2979C24.8318 13.6086 24.58 13.8604 24.2693 13.8604H11.7537C11.4431 13.8604 11.1912 13.6086 11.1912 13.2979V12.9829Z" fill="url(#paint9_linear_152_3687)"/>
<path d="M11.1912 12.9829C11.1912 12.7521 11.3091 12.5374 11.5037 12.4135L17.5584 8.55905C17.8349 8.38307 18.1882 8.38307 18.4646 8.55905L24.5193 12.4135C24.714 12.5374 24.8318 12.7521 24.8318 12.9829V13.2979C24.8318 13.6086 24.58 13.8604 24.2693 13.8604H11.7537C11.4431 13.8604 11.1912 13.6086 11.1912 13.2979V12.9829Z" fill="url(#paint10_linear_152_3687)"/>
<path d="M11.1912 12.9829C11.1912 12.7521 11.3091 12.5374 11.5037 12.4135L17.5584 8.55905C17.8349 8.38307 18.1882 8.38307 18.4646 8.55905L24.5193 12.4135C24.714 12.5374 24.8318 12.7521 24.8318 12.9829V13.2979C24.8318 13.6086 24.58 13.8604 24.2693 13.8604H11.7537C11.4431 13.8604 11.1912 13.6086 11.1912 13.2979V12.9829Z" fill="url(#paint11_linear_152_3687)"/>
<path d="M11.6834 13.6006C11.6834 13.4625 11.7953 13.3506 11.9334 13.3506H13.244C13.382 13.3506 13.494 13.4625 13.494 13.6006V22.6494H11.6834V13.6006Z" fill="url(#paint12_linear_152_3687)"/>
<path d="M11.6834 13.6006C11.6834 13.4625 11.7953 13.3506 11.9334 13.3506H13.244C13.382 13.3506 13.494 13.4625 13.494 13.6006V22.6494H11.6834V13.6006Z" fill="url(#paint13_linear_152_3687)"/>
<rect x="15.3045" y="13.3506" width="1.81055" height="9.29883" fill="url(#paint14_linear_152_3687)"/>
<rect x="15.3045" y="13.3506" width="1.81055" height="9.29883" fill="url(#paint15_linear_152_3687)"/>
<rect x="18.9256" y="13.3506" width="1.81055" height="9.29883" fill="url(#paint16_linear_152_3687)"/>
<rect x="18.9256" y="13.3506" width="1.81055" height="9.29883" fill="url(#paint17_linear_152_3687)"/>
<rect x="22.5467" y="13.3506" width="1.81055" height="9.29883" fill="url(#paint18_linear_152_3687)"/>
<rect x="22.5467" y="13.3506" width="1.81055" height="9.29883" fill="url(#paint19_linear_152_3687)"/>
<path d="M10.8004 22.992C10.8909 22.6453 11.2041 22.4033 11.5624 22.4033H24.4779C24.8446 22.4033 25.1628 22.6564 25.2453 23.0137L25.5518 24.3423C25.6332 24.6947 25.3655 25.0312 25.0037 25.0312H10.9965C10.6282 25.0312 10.3593 24.6832 10.4522 24.3268L10.8004 22.992Z" fill="#FFC248"/>
<path d="M10.8004 22.992C10.8909 22.6453 11.2041 22.4033 11.5624 22.4033H24.4779C24.8446 22.4033 25.1628 22.6564 25.2453 23.0137L25.5518 24.3423C25.6332 24.6947 25.3655 25.0312 25.0037 25.0312H10.9965C10.6282 25.0312 10.3593 24.6832 10.4522 24.3268L10.8004 22.992Z" fill="url(#paint20_linear_152_3687)"/>
<path d="M10.8004 22.992C10.8909 22.6453 11.2041 22.4033 11.5624 22.4033H24.4779C24.8446 22.4033 25.1628 22.6564 25.2453 23.0137L25.5518 24.3423C25.6332 24.6947 25.3655 25.0312 25.0037 25.0312H10.9965C10.6282 25.0312 10.3593 24.6832 10.4522 24.3268L10.8004 22.992Z" fill="url(#paint21_linear_152_3687)"/>
<path d="M10.8004 22.992C10.8909 22.6453 11.2041 22.4033 11.5624 22.4033H24.4779C24.8446 22.4033 25.1628 22.6564 25.2453 23.0137L25.5518 24.3423C25.6332 24.6947 25.3655 25.0312 25.0037 25.0312H10.9965C10.6282 25.0312 10.3593 24.6832 10.4522 24.3268L10.8004 22.992Z" fill="url(#paint22_linear_152_3687)"/>
<defs>
<linearGradient id="paint0_linear_152_3687" x1="12.8937" y1="24.7228" x2="26.4146" y2="7.67791" gradientUnits="userSpaceOnUse">
<stop stop-color="#F09C49"/>
<stop offset="1" stop-color="#E39443"/>
</linearGradient>
<radialGradient id="paint1_radial_152_3687" cx="0" cy="0" r="1" gradientUnits="userSpaceOnUse" gradientTransform="translate(17.4246 19.1401) rotate(-36.3843) scale(13.5789)">
<stop offset="0.80746" stop-color="#DB7F38" stop-opacity="0"/>
<stop offset="1" stop-color="#D6793C"/>
</radialGradient>
<radialGradient id="paint2_radial_152_3687" cx="0" cy="0" r="1" gradientUnits="userSpaceOnUse" gradientTransform="translate(17.6808 18.4658) rotate(56.2868) scale(12.8482)">
<stop offset="0.947646" stop-color="#DD871B" stop-opacity="0"/>
<stop offset="0.970843" stop-color="#DD871B"/>
</radialGradient>
<linearGradient id="paint3_linear_152_3687" x1="18" y1="2.75098" x2="18" y2="34.1807" gradientUnits="userSpaceOnUse">
<stop stop-color="#FFC444"/>
<stop offset="1" stop-color="#FFC24B"/>
</linearGradient>
<radialGradient id="paint4_radial_152_3687" cx="0" cy="0" r="1" gradientUnits="userSpaceOnUse" gradientTransform="translate(17.4375 19.125) rotate(87.8603) scale(15.0662)">
<stop offset="0.778712" stop-color="#FEDB54"/>
<stop offset="0.798389" stop-color="#FFC34A"/>
<stop offset="1" stop-color="#F3AF62"/>
</radialGradient>
<radialGradient id="paint5_radial_152_3687" cx="0" cy="0" r="1" gradientUnits="userSpaceOnUse" gradientTransform="translate(18 18.4658) rotate(106.133) scale(15.6732)">
<stop offset="0.101115" stop-color="#FFD64D" stop-opacity="0.19"/>
<stop offset="0.818528" stop-color="#FFD64D" stop-opacity="0.44"/>
<stop offset="0.940581" stop-color="#F79852" stop-opacity="0"/>
<stop offset="1" stop-color="#FE9959"/>
</radialGradient>
<radialGradient id="paint6_radial_152_3687" cx="0" cy="0" r="1" gradientUnits="userSpaceOnUse" gradientTransform="translate(16.8369 20.0667) rotate(-14.7057) scale(17.4495)">
<stop offset="0.899413" stop-color="#FFD950" stop-opacity="0"/>
<stop offset="1" stop-color="#FFD950"/>
</radialGradient>
<radialGradient id="paint7_radial_152_3687" cx="0" cy="0" r="1" gradientUnits="userSpaceOnUse" gradientTransform="translate(24.444 13.655) rotate(62.4801) scale(11.0614 6.70478)">
<stop offset="0.505549" stop-color="#F8A332"/>
<stop offset="0.73947" stop-color="#F8A332" stop-opacity="0"/>
</radialGradient>
<linearGradient id="paint8_linear_152_3687" x1="14.6671" y1="10.3512" x2="15.5609" y2="11.722" gradientUnits="userSpaceOnUse">
<stop stop-color="#F9A630"/>
<stop offset="0.310973" stop-color="#F9A630" stop-opacity="0"/>
</linearGradient>
<linearGradient id="paint9_linear_152_3687" x1="15.5609" y1="14.1316" x2="15.5609" y2="12.0241" gradientUnits="userSpaceOnUse">
<stop stop-color="#F9A630"/>
<stop offset="0.310973" stop-color="#F9A630" stop-opacity="0"/>
</linearGradient>
<linearGradient id="paint10_linear_152_3687" x1="20.0917" y1="9.59725" x2="19.0542" y2="11.2124" gradientUnits="userSpaceOnUse">
<stop stop-color="#FFC93F"/>
<stop offset="0.310973" stop-color="#FFCC46" stop-opacity="0"/>
</linearGradient>
<linearGradient id="paint11_linear_152_3687" x1="21.7266" y1="10.4503" x2="21.2695" y2="11.1437" gradientUnits="userSpaceOnUse">
<stop offset="0.458872" stop-color="#FFCA3F"/>
<stop offset="1" stop-color="#FFCA3F" stop-opacity="0"/>
</linearGradient>
<linearGradient id="paint12_linear_152_3687" x1="11.3608" y1="16.9409" x2="13.494" y2="16.9409" gradientUnits="userSpaceOnUse">
<stop offset="0.166667" stop-color="#F6A412"/>
<stop offset="0.429874" stop-color="#FBB832"/>
<stop offset="0.816953" stop-color="#FFC74C"/>
<stop offset="1" stop-color="#FFC047"/>
</linearGradient>
<linearGradient id="paint13_linear_152_3687" x1="12.5887" y1="13.3506" x2="12.5887" y2="14.8525" gradientUnits="userSpaceOnUse">
<stop stop-color="#FFC546"/>
<stop offset="0.260181" stop-color="#FEBE41"/>
<stop offset="1" stop-color="#FDB93E" stop-opacity="0"/>
</linearGradient>
<linearGradient id="paint14_linear_152_3687" x1="14.9819" y1="16.9409" x2="17.1151" y2="16.9409" gradientUnits="userSpaceOnUse">
<stop offset="0.166667" stop-color="#F6A412"/>
<stop offset="0.429874" stop-color="#FBB832"/>
<stop offset="0.816953" stop-color="#FFC74C"/>
<stop offset="1" stop-color="#FFC047"/>
</linearGradient>
<linearGradient id="paint15_linear_152_3687" x1="16.2098" y1="13.3506" x2="16.2098" y2="14.8525" gradientUnits="userSpaceOnUse">
<stop stop-color="#FFC546"/>
<stop offset="0.260181" stop-color="#FEBE41"/>
<stop offset="1" stop-color="#FDB93E" stop-opacity="0"/>
</linearGradient>
<linearGradient id="paint16_linear_152_3687" x1="18.603" y1="16.9409" x2="20.7361" y2="16.9409" gradientUnits="userSpaceOnUse">
<stop offset="0.166667" stop-color="#F6A412"/>
<stop offset="0.429874" stop-color="#FBB832"/>
<stop offset="0.816953" stop-color="#FFC74C"/>
<stop offset="1" stop-color="#FFC047"/>
</linearGradient>
<linearGradient id="paint17_linear_152_3687" x1="19.8309" y1="13.3506" x2="19.8309" y2="14.8525" gradientUnits="userSpaceOnUse">
<stop stop-color="#FFC546"/>
<stop offset="0.260181" stop-color="#FEBE41"/>
<stop offset="1" stop-color="#FDB93E" stop-opacity="0"/>
</linearGradient>
<linearGradient id="paint18_linear_152_3687" x1="22.2241" y1="16.9409" x2="24.3572" y2="16.9409" gradientUnits="userSpaceOnUse">
<stop offset="0.166667" stop-color="#F6A412"/>
<stop offset="0.429874" stop-color="#FBB832"/>
<stop offset="0.816953" stop-color="#FFC74C"/>
<stop offset="1" stop-color="#FFC047"/>
</linearGradient>
<linearGradient id="paint19_linear_152_3687" x1="23.452" y1="13.3506" x2="23.452" y2="14.8525" gradientUnits="userSpaceOnUse">
<stop stop-color="#FFC546"/>
<stop offset="0.260181" stop-color="#FEBE41"/>
<stop offset="1" stop-color="#FDB93E" stop-opacity="0"/>
</linearGradient>
<linearGradient id="paint20_linear_152_3687" x1="25.2769" y1="23.7173" x2="24.2723" y2="23.8552" gradientUnits="userSpaceOnUse">
<stop stop-color="#FFC22F"/>
<stop offset="0.398683" stop-color="#FFCB4E"/>
<stop offset="1" stop-color="#FFCB4E" stop-opacity="0"/>
</linearGradient>
<linearGradient id="paint21_linear_152_3687" x1="10.5277" y1="23.7655" x2="11.3295" y2="23.9426" gradientUnits="userSpaceOnUse">
<stop stop-color="#FCA912"/>
<stop offset="1" stop-color="#FCA912" stop-opacity="0"/>
</linearGradient>
<linearGradient id="paint22_linear_152_3687" x1="11.3295" y1="25.3968" x2="11.3295" y2="24.3458" gradientUnits="userSpaceOnUse">
<stop stop-color="#FCA912"/>
<stop offset="1" stop-color="#FCA912" stop-opacity="0"/>
</linearGradient>
</defs>
</svg>
