<svg width="100%" height="100%" viewBox="0 0 20 20" fill="none" xmlns="http://www.w3.org/2000/svg">
<path fill-rule="evenodd" clip-rule="evenodd" d="M9.1167 1.66666H10.8835C12.0559 1.66665 12.9751 1.66665 13.7138 1.72398C14.4661 1.78236 15.0875 1.9032 15.65 2.17543C16.5748 2.62295 17.3266 3.33705 17.7978 4.21537C18.0844 4.74965 18.2116 5.33992 18.2731 6.05443C18.3334 6.75611 18.3334 7.62916 18.3334 8.74272V10.9807C18.3334 11.1889 18.3334 11.3157 18.3279 11.4261C18.2081 13.8306 16.1828 15.7543 13.6513 15.8681C13.535 15.8733 13.388 15.8733 13.1444 15.8733H13.12L13.0557 15.8734C12.3145 15.8779 11.5925 16.0977 10.9866 16.5032L10.9446 16.5316L8.71325 18.0454C7.42735 18.9178 5.73759 17.658 6.32448 16.2644C6.40336 16.0771 6.25812 15.8733 6.04573 15.8733H5.53141C3.39702 15.8733 1.66675 14.2299 1.66675 12.2026L1.66675 8.74274C1.66674 7.62916 1.66674 6.75612 1.7271 6.05443C1.78856 5.33992 1.91579 4.74965 2.2024 4.21537C2.67357 3.33705 3.4254 2.62295 4.35013 2.17543C4.91263 1.9032 5.53409 1.78236 6.28635 1.72398C7.02511 1.66665 7.94429 1.66665 9.1167 1.66666ZM6.39075 2.93765C5.71778 2.98987 5.28382 3.09024 4.93217 3.26042C4.24867 3.5912 3.69297 4.11901 3.34472 4.7682C3.16554 5.10221 3.05988 5.51439 3.00489 6.15359C2.9493 6.7999 2.9488 7.6233 2.9488 8.76998V12.2026C2.9488 13.5573 4.10507 14.6556 5.53141 14.6556H6.04573C7.16513 14.6556 7.93057 15.7294 7.51483 16.7166C7.40348 16.981 7.72409 17.2201 7.96807 17.0545L10.1995 15.5407L10.2481 15.5078C11.0679 14.9591 12.0447 14.6618 13.0475 14.6557L13.12 14.6556C13.395 14.6556 13.5088 14.6554 13.5907 14.6517C15.4618 14.5676 16.9587 13.1458 17.0473 11.3686C17.0512 11.2907 17.0514 11.1949 17.0514 10.9609V8.76998C17.0514 7.6233 17.0509 6.7999 16.9953 6.15359C16.9403 5.51439 16.8346 5.10221 16.6554 4.7682C16.3072 4.11901 15.7515 3.5912 15.068 3.26042C14.7163 3.09024 14.2824 2.98987 13.6094 2.93765C12.929 2.88484 12.0621 2.88437 10.8548 2.88437H9.14538C7.93811 2.88437 7.07121 2.88484 6.39075 2.93765Z" fill="#98A2B3"/>
<path d="M7.43598 8.76998C7.43598 9.21833 7.05332 9.58179 6.58128 9.58179C6.10924 9.58179 5.72658 9.21833 5.72658 8.76998C5.72658 8.32163 6.10924 7.95817 6.58128 7.95817C7.05332 7.95817 7.43598 8.32163 7.43598 8.76998Z" fill="#98A2B3"/>
<path d="M10.8548 8.76998C10.8548 9.21833 10.4721 9.58179 10.0001 9.58179C9.52804 9.58179 9.14538 9.21833 9.14538 8.76998C9.14538 8.32163 9.52804 7.95817 10.0001 7.95817C10.4721 7.95817 10.8548 8.32163 10.8548 8.76998Z" fill="#98A2B3"/>
<path d="M14.2736 8.76998C14.2736 9.21833 13.8909 9.58179 13.4189 9.58179C12.9468 9.58179 12.5642 9.21833 12.5642 8.76998C12.5642 8.32163 12.9468 7.95817 13.4189 7.95817C13.8909 7.95817 14.2736 8.32163 14.2736 8.76998Z" fill="#98A2B3"/>
</svg>
