<svg width="100%" height="100%" viewBox="0 0 12 12" fill="none" xmlns="http://www.w3.org/2000/svg">
<path d="M8.25 1.4126C7.38 1.4126 6.545 1.8176 6 2.4576C5.455 1.8176 4.62 1.4126 3.75 1.4126C2.21 1.4126 1 2.6226 1 4.1626C1 6.0526 2.7 7.5926 5.275 9.9326L6 10.5876L6.725 9.9276C9.3 7.5926 11 6.0526 11 4.1626C11 2.6226 9.79 1.4126 8.25 1.4126ZM6.05 9.1876L6 9.2376L5.95 9.1876C3.57 7.0326 2 5.6076 2 4.1626C2 3.1626 2.75 2.4126 3.75 2.4126C4.52 2.4126 5.27 2.9076 5.535 3.5926H6.47C6.73 2.9076 7.48 2.4126 8.25 2.4126C9.25 2.4126 10 3.1626 10 4.1626C10 5.6076 8.43 7.0326 6.05 9.1876Z" fill="#98A2B3"/>
</svg>
