<svg width="32" height="32" viewBox="0 0 32 32" fill="none" xmlns="http://www.w3.org/2000/svg">
<path d="M16.1688 7.50525V4.42188H13.1224C12.5422 4.42188 12.0781 4.89484 12.0781 5.48605V6.85038C12.0781 9.16064 11.3402 11.3436 9.59078 12.8079L5.81534 15.9823C1.23662 19.8388 3.91423 27.4062 9.84961 27.4062H15.2762C15.2762 27.4062 16.1688 13.3636 16.1688 7.50525Z" fill="#B8897D"/>
<path d="M16.1688 7.50525V4.42188H13.1224C12.5422 4.42188 12.0781 4.89484 12.0781 5.48605V6.85038C12.0781 9.16064 11.3402 11.3436 9.59078 12.8079L5.81534 15.9823C1.23662 19.8388 3.91423 27.4062 9.84961 27.4062H15.2762C15.2762 27.4062 16.1688 13.3636 16.1688 7.50525Z" fill="url(#paint0_linear_210_2396)"/>
<path d="M16.1688 7.50525V4.42188H13.1224C12.5422 4.42188 12.0781 4.89484 12.0781 5.48605V6.85038C12.0781 9.16064 11.3402 11.3436 9.59078 12.8079L5.81534 15.9823C1.23662 19.8388 3.91423 27.4062 9.84961 27.4062H15.2762C15.2762 27.4062 16.1688 13.3636 16.1688 7.50525Z" fill="url(#paint1_radial_210_2396)"/>
<path d="M16.1688 7.50525V4.42188H13.1224C12.5422 4.42188 12.0781 4.89484 12.0781 5.48605V6.85038C12.0781 9.16064 11.3402 11.3436 9.59078 12.8079L5.81534 15.9823C1.23662 19.8388 3.91423 27.4062 9.84961 27.4062H15.2762C15.2762 27.4062 16.1688 13.3636 16.1688 7.50525Z" fill="url(#paint2_radial_210_2396)"/>
<path d="M16.1688 7.50525V4.42188H13.1224C12.5422 4.42188 12.0781 4.89484 12.0781 5.48605V6.85038C12.0781 9.16064 11.3402 11.3436 9.59078 12.8079L5.81534 15.9823C1.23662 19.8388 3.91423 27.4062 9.84961 27.4062H15.2762C15.2762 27.4062 16.1688 13.3636 16.1688 7.50525Z" fill="url(#paint3_linear_210_2396)"/>
<path d="M16.1688 7.50525V4.42188H13.1224C12.5422 4.42188 12.0781 4.89484 12.0781 5.48605V6.85038C12.0781 9.16064 11.3402 11.3436 9.59078 12.8079L5.81534 15.9823C1.23662 19.8388 3.91423 27.4062 9.84961 27.4062H15.2762C15.2762 27.4062 16.1688 13.3636 16.1688 7.50525Z" fill="url(#paint4_radial_210_2396)"/>
<path d="M16.1688 7.50525V4.42188H13.1224C12.5422 4.42188 12.0781 4.89484 12.0781 5.48605V6.85038C12.0781 9.16064 11.3402 11.3436 9.59078 12.8079L5.81534 15.9823C1.23662 19.8388 3.91423 27.4062 9.84961 27.4062H15.2762C15.2762 27.4062 16.1688 13.3636 16.1688 7.50525Z" fill="url(#paint5_radial_210_2396)"/>
<path d="M16.1688 7.50525V4.42188H13.1224C12.5422 4.42188 12.0781 4.89484 12.0781 5.48605V6.85038C12.0781 9.16064 11.3402 11.3436 9.59078 12.8079L5.81534 15.9823C1.23662 19.8388 3.91423 27.4062 9.84961 27.4062H15.2762C15.2762 27.4062 16.1688 13.3636 16.1688 7.50525Z" fill="url(#paint6_radial_210_2396)"/>
<path d="M15.8027 4.42188H18.8618C19.4419 4.42188 19.906 4.89484 19.906 5.48605V6.85038C19.906 9.16064 20.6314 11.3436 22.3807 12.8079L26.1562 15.9823C30.7349 19.8388 28.0573 27.4062 22.1219 27.4062H16.6953C16.6953 27.4062 15.8027 12.1623 15.8027 4.42188Z" fill="#FFC6AD"/>
<path d="M15.8027 4.42188H18.8618C19.4419 4.42188 19.906 4.89484 19.906 5.48605V6.85038C19.906 9.16064 20.6314 11.3436 22.3807 12.8079L26.1562 15.9823C30.7349 19.8388 28.0573 27.4062 22.1219 27.4062H16.6953C16.6953 27.4062 15.8027 12.1623 15.8027 4.42188Z" fill="url(#paint7_radial_210_2396)"/>
<path d="M15.8027 4.42188H18.8618C19.4419 4.42188 19.906 4.89484 19.906 5.48605V6.85038C19.906 9.16064 20.6314 11.3436 22.3807 12.8079L26.1562 15.9823C30.7349 19.8388 28.0573 27.4062 22.1219 27.4062H16.6953C16.6953 27.4062 15.8027 12.1623 15.8027 4.42188Z" fill="url(#paint8_radial_210_2396)"/>
<path d="M15.8027 4.42188H18.8618C19.4419 4.42188 19.906 4.89484 19.906 5.48605V6.85038C19.906 9.16064 20.6314 11.3436 22.3807 12.8079L26.1562 15.9823C30.7349 19.8388 28.0573 27.4062 22.1219 27.4062H16.6953C16.6953 27.4062 15.8027 12.1623 15.8027 4.42188Z" fill="url(#paint9_radial_210_2396)"/>
<path d="M15.8027 4.42188H18.8618C19.4419 4.42188 19.906 4.89484 19.906 5.48605V6.85038C19.906 9.16064 20.6314 11.3436 22.3807 12.8079L26.1562 15.9823C30.7349 19.8388 28.0573 27.4062 22.1219 27.4062H16.6953C16.6953 27.4062 15.8027 12.1623 15.8027 4.42188Z" fill="url(#paint10_linear_210_2396)"/>
<path d="M15.8027 4.42188H18.8618C19.4419 4.42188 19.906 4.89484 19.906 5.48605V6.85038C19.906 9.16064 20.6314 11.3436 22.3807 12.8079L26.1562 15.9823C30.7349 19.8388 28.0573 27.4062 22.1219 27.4062H16.6953C16.6953 27.4062 15.8027 12.1623 15.8027 4.42188Z" fill="url(#paint11_radial_210_2396)"/>
<path d="M15.8027 4.42188H18.8618C19.4419 4.42188 19.906 4.89484 19.906 5.48605V6.85038C19.906 9.16064 20.6314 11.3436 22.3807 12.8079L26.1562 15.9823C30.7349 19.8388 28.0573 27.4062 22.1219 27.4062H16.6953C16.6953 27.4062 15.8027 12.1623 15.8027 4.42188Z" fill="url(#paint12_radial_210_2396)"/>
<path d="M15.8027 4.42188H18.8618C19.4419 4.42188 19.906 4.89484 19.906 5.48605V6.85038C19.906 9.16064 20.6314 11.3436 22.3807 12.8079L26.1562 15.9823C30.7349 19.8388 28.0573 27.4062 22.1219 27.4062H16.6953C16.6953 27.4062 15.8027 12.1623 15.8027 4.42188Z" fill="url(#paint13_radial_210_2396)"/>
<path d="M15.8027 4.42188H18.8618C19.4419 4.42188 19.906 4.89484 19.906 5.48605V6.85038C19.906 9.16064 20.6314 11.3436 22.3807 12.8079L26.1562 15.9823C30.7349 19.8388 28.0573 27.4062 22.1219 27.4062H16.6953C16.6953 27.4062 15.8027 12.1623 15.8027 4.42188Z" fill="url(#paint14_radial_210_2396)"/>
<path d="M17.6248 7.57168L17.6707 4.93055C17.6755 4.65106 17.4503 4.42188 17.1708 4.42188H14.787C14.4996 4.42188 14.2714 4.66348 14.2878 4.95035L14.4373 7.57168C14.463 8.29282 14.3756 10.3561 13.7029 11.6875C12.5582 13.953 11.2896 14.8257 9.87475 17.1875C7.84357 20.5781 9.34348 27.4062 13.5779 27.4062H18.3123C22.0623 27.4062 24.6873 22.2969 22.2029 17.1875C21.2158 15.1575 19.6652 14.0871 18.3435 11.6875C17.6248 10.3826 17.5861 8.51009 17.6248 7.57168Z" fill="url(#paint15_radial_210_2396)"/>
<path d="M17.6248 7.57168L17.6707 4.93055C17.6755 4.65106 17.4503 4.42188 17.1708 4.42188H14.787C14.4996 4.42188 14.2714 4.66348 14.2878 4.95035L14.4373 7.57168C14.463 8.29282 14.3756 10.3561 13.7029 11.6875C12.5582 13.953 11.2896 14.8257 9.87475 17.1875C7.84357 20.5781 9.34348 27.4062 13.5779 27.4062H18.3123C22.0623 27.4062 24.6873 22.2969 22.2029 17.1875C21.2158 15.1575 19.6652 14.0871 18.3435 11.6875C17.6248 10.3826 17.5861 8.51009 17.6248 7.57168Z" fill="url(#paint16_radial_210_2396)"/>
<path d="M17.6248 7.57168L17.6707 4.93055C17.6755 4.65106 17.4503 4.42188 17.1708 4.42188H14.787C14.4996 4.42188 14.2714 4.66348 14.2878 4.95035L14.4373 7.57168C14.463 8.29282 14.3756 10.3561 13.7029 11.6875C12.5582 13.953 11.2896 14.8257 9.87475 17.1875C7.84357 20.5781 9.34348 27.4062 13.5779 27.4062H18.3123C22.0623 27.4062 24.6873 22.2969 22.2029 17.1875C21.2158 15.1575 19.6652 14.0871 18.3435 11.6875C17.6248 10.3826 17.5861 8.51009 17.6248 7.57168Z" fill="url(#paint17_radial_210_2396)"/>
<path d="M17.6248 7.57168L17.6707 4.93055C17.6755 4.65106 17.4503 4.42188 17.1708 4.42188H14.787C14.4996 4.42188 14.2714 4.66348 14.2878 4.95035L14.4373 7.57168C14.463 8.29282 14.3756 10.3561 13.7029 11.6875C12.5582 13.953 11.2896 14.8257 9.87475 17.1875C7.84357 20.5781 9.34348 27.4062 13.5779 27.4062H18.3123C22.0623 27.4062 24.6873 22.2969 22.2029 17.1875C21.2158 15.1575 19.6652 14.0871 18.3435 11.6875C17.6248 10.3826 17.5861 8.51009 17.6248 7.57168Z" fill="url(#paint18_radial_210_2396)"/>
<path d="M17.6248 7.57168L17.6707 4.93055C17.6755 4.65106 17.4503 4.42188 17.1708 4.42188H14.787C14.4996 4.42188 14.2714 4.66348 14.2878 4.95035L14.4373 7.57168C14.463 8.29282 14.3756 10.3561 13.7029 11.6875C12.5582 13.953 11.2896 14.8257 9.87475 17.1875C7.84357 20.5781 9.34348 27.4062 13.5779 27.4062H18.3123C22.0623 27.4062 24.6873 22.2969 22.2029 17.1875C21.2158 15.1575 19.6652 14.0871 18.3435 11.6875C17.6248 10.3826 17.5861 8.51009 17.6248 7.57168Z" fill="url(#paint19_radial_210_2396)"/>
<path d="M17.6248 7.57168L17.6707 4.93055C17.6755 4.65106 17.4503 4.42188 17.1708 4.42188H14.787C14.4996 4.42188 14.2714 4.66348 14.2878 4.95035L14.4373 7.57168C14.463 8.29282 14.3756 10.3561 13.7029 11.6875C12.5582 13.953 11.2896 14.8257 9.87475 17.1875C7.84357 20.5781 9.34348 27.4062 13.5779 27.4062H18.3123C22.0623 27.4062 24.6873 22.2969 22.2029 17.1875C21.2158 15.1575 19.6652 14.0871 18.3435 11.6875C17.6248 10.3826 17.5861 8.51009 17.6248 7.57168Z" fill="url(#paint20_radial_210_2396)"/>
<path d="M17.6248 7.57168L17.6707 4.93055C17.6755 4.65106 17.4503 4.42188 17.1708 4.42188H14.787C14.4996 4.42188 14.2714 4.66348 14.2878 4.95035L14.4373 7.57168C14.463 8.29282 14.3756 10.3561 13.7029 11.6875C12.5582 13.953 11.2896 14.8257 9.87475 17.1875C7.84357 20.5781 9.34348 27.4062 13.5779 27.4062H18.3123C22.0623 27.4062 24.6873 22.2969 22.2029 17.1875C21.2158 15.1575 19.6652 14.0871 18.3435 11.6875C17.6248 10.3826 17.5861 8.51009 17.6248 7.57168Z" fill="url(#paint21_radial_210_2396)"/>
<path d="M17.6248 7.57168L17.6707 4.93055C17.6755 4.65106 17.4503 4.42188 17.1708 4.42188H14.787C14.4996 4.42188 14.2714 4.66348 14.2878 4.95035L14.4373 7.57168C14.463 8.29282 14.3756 10.3561 13.7029 11.6875C12.5582 13.953 11.2896 14.8257 9.87475 17.1875C7.84357 20.5781 9.34348 27.4062 13.5779 27.4062H18.3123C22.0623 27.4062 24.6873 22.2969 22.2029 17.1875C21.2158 15.1575 19.6652 14.0871 18.3435 11.6875C17.6248 10.3826 17.5861 8.51009 17.6248 7.57168Z" fill="url(#paint22_radial_210_2396)"/>
<path d="M17.6248 7.57168L17.6707 4.93055C17.6755 4.65106 17.4503 4.42188 17.1708 4.42188H14.787C14.4996 4.42188 14.2714 4.66348 14.2878 4.95035L14.4373 7.57168C14.463 8.29282 14.3756 10.3561 13.7029 11.6875C12.5582 13.953 11.2896 14.8257 9.87475 17.1875C7.84357 20.5781 9.34348 27.4062 13.5779 27.4062H18.3123C22.0623 27.4062 24.6873 22.2969 22.2029 17.1875C21.2158 15.1575 19.6652 14.0871 18.3435 11.6875C17.6248 10.3826 17.5861 8.51009 17.6248 7.57168Z" fill="url(#paint23_radial_210_2396)"/>
<path d="M17.6248 7.57168L17.6707 4.93055C17.6755 4.65106 17.4503 4.42188 17.1708 4.42188H14.787C14.4996 4.42188 14.2714 4.66348 14.2878 4.95035L14.4373 7.57168C14.463 8.29282 14.3756 10.3561 13.7029 11.6875C12.5582 13.953 11.2896 14.8257 9.87475 17.1875C7.84357 20.5781 9.34348 27.4062 13.5779 27.4062H18.3123C22.0623 27.4062 24.6873 22.2969 22.2029 17.1875C21.2158 15.1575 19.6652 14.0871 18.3435 11.6875C17.6248 10.3826 17.5861 8.51009 17.6248 7.57168Z" fill="url(#paint24_radial_210_2396)"/>
<defs>
<linearGradient id="paint0_linear_210_2396" x1="9.83586" y1="4.42187" x2="9.83586" y2="27.4062" gradientUnits="userSpaceOnUse">
<stop stop-color="#B38780"/>
<stop offset="0.433039" stop-color="#B98C7D"/>
<stop offset="0.770225" stop-color="#C2888B"/>
<stop offset="1" stop-color="#B14C8B"/>
</linearGradient>
<radialGradient id="paint1_radial_210_2396" cx="0" cy="0" r="1" gradientUnits="userSpaceOnUse" gradientTransform="translate(5.625 11.9375) rotate(124.992) scale(9.15492 5.80631)">
<stop stop-color="#977666"/>
<stop offset="0.649329" stop-color="#765A4D" stop-opacity="0.262304"/>
<stop offset="1" stop-color="#6B5045" stop-opacity="0"/>
</radialGradient>
<radialGradient id="paint2_radial_210_2396" cx="0" cy="0" r="1" gradientUnits="userSpaceOnUse" gradientTransform="translate(9.125 21.9375) rotate(77.3914) scale(4.86738 4.52485)">
<stop stop-color="#B35889"/>
<stop offset="0.902666" stop-color="#B16B84" stop-opacity="0"/>
</radialGradient>
<linearGradient id="paint3_linear_210_2396" x1="11.1875" y1="5.3125" x2="12.0937" y2="6.96875" gradientUnits="userSpaceOnUse">
<stop stop-color="#967666"/>
<stop offset="0.386861" stop-color="#957665" stop-opacity="0"/>
</linearGradient>
<radialGradient id="paint4_radial_210_2396" cx="0" cy="0" r="1" gradientUnits="userSpaceOnUse" gradientTransform="translate(12.5625 22.9375) rotate(90) scale(6.25 5.73529)">
<stop offset="0.411765" stop-color="#A85284"/>
<stop offset="1" stop-color="#A85284" stop-opacity="0"/>
</radialGradient>
<radialGradient id="paint5_radial_210_2396" cx="0" cy="0" r="1" gradientUnits="userSpaceOnUse" gradientTransform="translate(12.625 22.0625) rotate(90.5026) scale(7.12527 4.63143)">
<stop offset="0.73" stop-color="#973F72"/>
<stop offset="1" stop-color="#A85284" stop-opacity="0"/>
</radialGradient>
<radialGradient id="paint6_radial_210_2396" cx="0" cy="0" r="1" gradientUnits="userSpaceOnUse" gradientTransform="translate(16.1689 7.6875) rotate(90) scale(8.22656 2.79394)">
<stop offset="0.472222" stop-color="#94676F"/>
<stop offset="1" stop-color="#94676F" stop-opacity="0"/>
</radialGradient>
<radialGradient id="paint7_radial_210_2396" cx="0" cy="0" r="1" gradientUnits="userSpaceOnUse" gradientTransform="translate(26.4999 19.0625) rotate(90) scale(8.34374 5.8125)">
<stop stop-color="#FFEAD4"/>
<stop offset="0.594182" stop-color="#FFCAB0"/>
<stop offset="1" stop-color="#FFC7AE"/>
</radialGradient>
<radialGradient id="paint8_radial_210_2396" cx="0" cy="0" r="1" gradientUnits="userSpaceOnUse" gradientTransform="translate(21.9374 26.3125) rotate(72.4165) scale(9.30998 9.02504)">
<stop stop-color="#AF478A"/>
<stop offset="0.265312" stop-color="#BA558B"/>
<stop offset="0.95059" stop-color="#D17295" stop-opacity="0"/>
</radialGradient>
<radialGradient id="paint9_radial_210_2396" cx="0" cy="0" r="1" gradientUnits="userSpaceOnUse" gradientTransform="translate(22.7499 6.8125) rotate(84.4588) scale(8.41432 6.30529)">
<stop offset="0.511834" stop-color="#FFEED5"/>
<stop offset="0.692855" stop-color="#FFEBD4" stop-opacity="0"/>
</radialGradient>
<linearGradient id="paint10_linear_210_2396" x1="22.1357" y1="4.42187" x2="22.1357" y2="27.4062" gradientUnits="userSpaceOnUse">
<stop stop-color="#D1A690"/>
<stop offset="0.0197145" stop-color="#CFA58F" stop-opacity="0"/>
</linearGradient>
<radialGradient id="paint11_radial_210_2396" cx="0" cy="0" r="1" gradientUnits="userSpaceOnUse" gradientTransform="translate(19.875 22.3125) rotate(90) scale(5.09375)">
<stop offset="0.257669" stop-color="#B9538A"/>
<stop offset="1" stop-color="#B9538A" stop-opacity="0"/>
</radialGradient>
<radialGradient id="paint12_radial_210_2396" cx="0" cy="0" r="1" gradientUnits="userSpaceOnUse" gradientTransform="translate(17.375 17.0625) rotate(44.3097) scale(7.33677 5.1598)">
<stop offset="0.605097" stop-color="#DF999F"/>
<stop offset="1" stop-color="#DF999F" stop-opacity="0"/>
</radialGradient>
<radialGradient id="paint13_radial_210_2396" cx="0" cy="0" r="1" gradientUnits="userSpaceOnUse" gradientTransform="translate(15.8027 7.1875) rotate(90) scale(6.1875 3.04913)">
<stop offset="0.545455" stop-color="#DCA996"/>
<stop offset="1" stop-color="#DCA996" stop-opacity="0"/>
</radialGradient>
<radialGradient id="paint14_radial_210_2396" cx="0" cy="0" r="1" gradientUnits="userSpaceOnUse" gradientTransform="translate(16.3125 11.3125) rotate(60.4463) scale(6.96924 3.43436)">
<stop offset="0.516809" stop-color="#DCA996"/>
<stop offset="0.967267" stop-color="#DCA996" stop-opacity="0"/>
</radialGradient>
<radialGradient id="paint15_radial_210_2396" cx="0" cy="0" r="1" gradientUnits="userSpaceOnUse" gradientTransform="translate(22.5623 18.875) rotate(167.546) scale(13.9111 18.2687)">
<stop stop-color="#FFFEDC"/>
<stop offset="0.389541" stop-color="#EDC3B2"/>
<stop offset="0.792261" stop-color="#B6A18C"/>
<stop offset="1" stop-color="#B08886"/>
</radialGradient>
<radialGradient id="paint16_radial_210_2396" cx="0" cy="0" r="1" gradientUnits="userSpaceOnUse" gradientTransform="translate(14.1873 26.75) rotate(71.7541) scale(11.9772 10.3916)">
<stop offset="0.0754526" stop-color="#B46490"/>
<stop offset="0.500514" stop-color="#B46391" stop-opacity="0.342099"/>
<stop offset="0.829648" stop-color="#B46292" stop-opacity="0"/>
</radialGradient>
<radialGradient id="paint17_radial_210_2396" cx="0" cy="0" r="1" gradientUnits="userSpaceOnUse" gradientTransform="translate(17.8123 6.90625) rotate(88.1609) scale(6.81601 2.04923)">
<stop offset="0.309079" stop-color="#FFF8DE"/>
<stop offset="0.692308" stop-color="#DEC1B8"/>
<stop offset="1" stop-color="#D6BAB1" stop-opacity="0"/>
</radialGradient>
<radialGradient id="paint18_radial_210_2396" cx="0" cy="0" r="1" gradientUnits="userSpaceOnUse" gradientTransform="translate(10.8123 10.25) rotate(110.556) scale(8.01 4.94789)">
<stop stop-color="#A08E79"/>
<stop offset="1" stop-color="#9F8C79" stop-opacity="0"/>
</radialGradient>
<radialGradient id="paint19_radial_210_2396" cx="0" cy="0" r="1" gradientUnits="userSpaceOnUse" gradientTransform="translate(21.9998 19.1875) rotate(65.2249) scale(3.57946 3.27826)">
<stop stop-color="#FFFFDD"/>
<stop offset="1" stop-color="#FFDDC5" stop-opacity="0"/>
</radialGradient>
<radialGradient id="paint20_radial_210_2396" cx="0" cy="0" r="1" gradientUnits="userSpaceOnUse" gradientTransform="translate(7.31226 20.6875) rotate(86.4012) scale(9.95714 6.012)">
<stop stop-color="#C39492"/>
<stop offset="1" stop-color="#B28683" stop-opacity="0"/>
</radialGradient>
<radialGradient id="paint21_radial_210_2396" cx="0" cy="0" r="1" gradientUnits="userSpaceOnUse" gradientTransform="translate(16.0774 4.42188) rotate(90) scale(5.01562 0.952392)">
<stop offset="0.538941" stop-color="#CDB0AB" stop-opacity="0.7"/>
<stop offset="1" stop-color="#CDB0AB" stop-opacity="0"/>
</radialGradient>
<radialGradient id="paint22_radial_210_2396" cx="0" cy="0" r="1" gradientUnits="userSpaceOnUse" gradientTransform="translate(16.0774 3.84375) rotate(90) scale(1.5 2.0599)">
<stop stop-color="#C1B197"/>
<stop offset="1" stop-color="#DAC9AD" stop-opacity="0"/>
</radialGradient>
<radialGradient id="paint23_radial_210_2396" cx="0" cy="0" r="1" gradientUnits="userSpaceOnUse" gradientTransform="translate(21.9373 12.0625) rotate(59.5564) scale(8.26443 5.10505)">
<stop offset="0.410981" stop-color="#FCE4C1"/>
<stop offset="1" stop-color="#FFE6C3" stop-opacity="0"/>
</radialGradient>
<radialGradient id="paint24_radial_210_2396" cx="0" cy="0" r="1" gradientUnits="userSpaceOnUse" gradientTransform="translate(13.1562 7.1875) rotate(90.4063) scale(4.40636 2.07941)">
<stop offset="0.410981" stop-color="#FFF6E9" stop-opacity="0.4"/>
<stop offset="1" stop-color="#FFF6E9" stop-opacity="0"/>
</radialGradient>
</defs>
</svg>
