<svg width="100%" height="100%" viewBox="0 0 32 32" fill="none" xmlns="http://www.w3.org/2000/svg">
<path d="M2.34066 10.5521C2.21923 10.3041 2.35282 10.0148 2.61157 9.91838L7.65818 8.0372C10.7041 6.9018 14.1969 8.72748 15.2291 11.4965L9.71399 13.5523C6.83986 14.6237 3.56779 13.0585 2.34066 10.5521Z" fill="#92C22D"/>
<path d="M2.34066 10.5521C2.21923 10.3041 2.35282 10.0148 2.61157 9.91838L7.65818 8.0372C10.7041 6.9018 14.1969 8.72748 15.2291 11.4965L9.71399 13.5523C6.83986 14.6237 3.56779 13.0585 2.34066 10.5521Z" fill="url(#paint0_radial_210_2695)"/>
<path d="M2.34066 10.5521C2.21923 10.3041 2.35282 10.0148 2.61157 9.91838L7.65818 8.0372C10.7041 6.9018 14.1969 8.72748 15.2291 11.4965L9.71399 13.5523C6.83986 14.6237 3.56779 13.0585 2.34066 10.5521Z" fill="url(#paint1_radial_210_2695)"/>
<path d="M2.34066 10.5521C2.21923 10.3041 2.35282 10.0148 2.61157 9.91838L7.65818 8.0372C10.7041 6.9018 14.1969 8.72748 15.2291 11.4965L9.71399 13.5523C6.83986 14.6237 3.56779 13.0585 2.34066 10.5521Z" fill="url(#paint2_radial_210_2695)"/>
<path d="M2.34066 10.5521C2.21923 10.3041 2.35282 10.0148 2.61157 9.91838L7.65818 8.0372C10.7041 6.9018 14.1969 8.72748 15.2291 11.4965L9.71399 13.5523C6.83986 14.6237 3.56779 13.0585 2.34066 10.5521Z" fill="url(#paint3_radial_210_2695)"/>
<path d="M2.34066 10.5521C2.21923 10.3041 2.35282 10.0148 2.61157 9.91838L7.65818 8.0372C10.7041 6.9018 14.1969 8.72748 15.2291 11.4965L9.71399 13.5523C6.83986 14.6237 3.56779 13.0585 2.34066 10.5521Z" fill="url(#paint4_radial_210_2695)"/>
<path d="M2.34066 10.5521C2.21923 10.3041 2.35282 10.0148 2.61157 9.91838L7.65818 8.0372C10.7041 6.9018 14.1969 8.72748 15.2291 11.4965L9.71399 13.5523C6.83986 14.6237 3.56779 13.0585 2.34066 10.5521Z" fill="url(#paint5_radial_210_2695)"/>
<path fill-rule="evenodd" clip-rule="evenodd" d="M16.4953 2.18237C17.0058 2.3931 17.2488 2.97778 17.0381 3.48828C16.3651 5.11847 15.5502 9.52601 17.8723 13.5839C18.1466 14.0633 17.9804 14.6742 17.501 14.9485C17.0217 15.2228 16.4107 15.0566 16.1364 14.5773C13.4201 9.8305 14.3567 4.74226 15.1894 2.72514C15.4001 2.21464 15.9848 1.97163 16.4953 2.18237Z" fill="url(#paint6_radial_210_2695)"/>
<path fill-rule="evenodd" clip-rule="evenodd" d="M16.4953 2.18237C17.0058 2.3931 17.2488 2.97778 17.0381 3.48828C16.3651 5.11847 15.5502 9.52601 17.8723 13.5839C18.1466 14.0633 17.9804 14.6742 17.501 14.9485C17.0217 15.2228 16.4107 15.0566 16.1364 14.5773C13.4201 9.8305 14.3567 4.74226 15.1894 2.72514C15.4001 2.21464 15.9848 1.97163 16.4953 2.18237Z" fill="url(#paint7_radial_210_2695)"/>
<path fill-rule="evenodd" clip-rule="evenodd" d="M16.4953 2.18237C17.0058 2.3931 17.2488 2.97778 17.0381 3.48828C16.3651 5.11847 15.5502 9.52601 17.8723 13.5839C18.1466 14.0633 17.9804 14.6742 17.501 14.9485C17.0217 15.2228 16.4107 15.0566 16.1364 14.5773C13.4201 9.8305 14.3567 4.74226 15.1894 2.72514C15.4001 2.21464 15.9848 1.97163 16.4953 2.18237Z" fill="url(#paint8_radial_210_2695)"/>
<circle cx="21.9566" cy="25.8282" r="4.09867" fill="url(#paint9_radial_210_2695)"/>
<circle cx="21.9566" cy="25.8282" r="4.09867" fill="url(#paint10_radial_210_2695)"/>
<circle cx="21.9566" cy="25.8282" r="4.09867" fill="url(#paint11_radial_210_2695)"/>
<circle cx="21.9566" cy="25.8282" r="4.09867" fill="url(#paint12_radial_210_2695)"/>
<circle cx="21.9566" cy="25.8282" r="4.09867" fill="url(#paint13_radial_210_2695)"/>
<circle cx="23.0987" cy="19.5032" r="4.09867" fill="url(#paint14_radial_210_2695)"/>
<circle cx="23.0987" cy="19.5032" r="4.09867" fill="url(#paint15_radial_210_2695)"/>
<circle cx="23.0987" cy="19.5032" r="4.09867" fill="url(#paint16_radial_210_2695)"/>
<circle cx="23.0987" cy="19.5032" r="4.09867" fill="url(#paint17_radial_210_2695)"/>
<circle cx="23.0987" cy="19.5032" r="4.09867" fill="url(#paint18_radial_210_2695)"/>
<circle cx="16.9341" cy="22.4914" r="4.09867" fill="url(#paint19_radial_210_2695)"/>
<circle cx="16.9341" cy="22.4914" r="4.09867" fill="url(#paint20_radial_210_2695)"/>
<circle cx="16.9341" cy="22.4914" r="4.09867" fill="url(#paint21_radial_210_2695)"/>
<circle cx="16.9341" cy="22.4914" r="4.09867" fill="url(#paint22_radial_210_2695)"/>
<circle cx="16.9341" cy="22.4914" r="4.09867" fill="url(#paint23_radial_210_2695)"/>
<circle cx="11.7461" cy="18.3733" r="4.09867" fill="url(#paint24_radial_210_2695)"/>
<circle cx="11.7461" cy="18.3733" r="4.09867" fill="url(#paint25_radial_210_2695)"/>
<circle cx="11.7461" cy="18.3733" r="4.09867" fill="url(#paint26_radial_210_2695)"/>
<circle cx="11.7461" cy="18.3733" r="4.09867" fill="url(#paint27_radial_210_2695)"/>
<circle cx="23.0987" cy="13.1878" r="4.09867" fill="url(#paint28_radial_210_2695)"/>
<circle cx="23.0987" cy="13.1878" r="4.09867" fill="url(#paint29_radial_210_2695)"/>
<circle cx="23.0987" cy="13.1878" r="4.09867" fill="url(#paint30_radial_210_2695)"/>
<circle cx="23.0987" cy="13.1878" r="4.09867" fill="url(#paint31_radial_210_2695)"/>
<circle cx="17.3399" cy="15.4046" r="4.09867" fill="url(#paint32_radial_210_2695)"/>
<circle cx="17.3399" cy="15.4046" r="4.09867" fill="url(#paint33_radial_210_2695)"/>
<defs>
<radialGradient id="paint0_radial_210_2695" cx="0" cy="0" r="1" gradientUnits="userSpaceOnUse" gradientTransform="translate(14.5333 6.25961) rotate(124.741) scale(10.4848 11.3414)">
<stop stop-color="#8EC118" stop-opacity="0"/>
<stop offset="0.425406" stop-color="#8EC118" stop-opacity="0"/>
<stop offset="1" stop-color="#8FC118"/>
</radialGradient>
<radialGradient id="paint1_radial_210_2695" cx="0" cy="0" r="1" gradientUnits="userSpaceOnUse" gradientTransform="translate(14.5333 6.25961) rotate(124.741) scale(10.4848 11.3414)">
<stop stop-color="#8EC118" stop-opacity="0"/>
<stop offset="0.425406" stop-color="#8EC118" stop-opacity="0"/>
<stop offset="1" stop-color="#75A407"/>
</radialGradient>
<radialGradient id="paint2_radial_210_2695" cx="0" cy="0" r="1" gradientUnits="userSpaceOnUse" gradientTransform="translate(12.0794 8.10225) rotate(-174.577) scale(9.81172 3.51554)">
<stop stop-color="#F9FFD8" stop-opacity="0.5"/>
<stop offset="0.480996" stop-color="#BADE2E" stop-opacity="0"/>
</radialGradient>
<radialGradient id="paint3_radial_210_2695" cx="0" cy="0" r="1" gradientUnits="userSpaceOnUse" gradientTransform="translate(11.5279 8.30783) rotate(-158.17) scale(3.97722 1.0505)">
<stop stop-color="#BFE130"/>
<stop offset="0.780648" stop-color="#BADE2E" stop-opacity="0"/>
</radialGradient>
<radialGradient id="paint4_radial_210_2695" cx="0" cy="0" r="1" gradientUnits="userSpaceOnUse" gradientTransform="translate(4.55434 13.1915) rotate(-140.512) scale(11.7473 5.28374)">
<stop offset="0.0898314" stop-color="#F4FFAD" stop-opacity="0.6"/>
<stop offset="0.482848" stop-color="#95C61B" stop-opacity="0"/>
</radialGradient>
<radialGradient id="paint5_radial_210_2695" cx="0" cy="0" r="1" gradientUnits="userSpaceOnUse" gradientTransform="translate(4.55434 13.1915) rotate(-142.191) scale(10.0675 1.60117)">
<stop offset="0.100447" stop-color="#95C51C"/>
<stop offset="0.554062" stop-color="#95C61B" stop-opacity="0"/>
</radialGradient>
<radialGradient id="paint6_radial_210_2695" cx="0" cy="0" r="1" gradientUnits="userSpaceOnUse" gradientTransform="translate(23.5 7.9375) rotate(175.907) scale(9.19142 11.5465)">
<stop offset="0.786295" stop-color="#7FB920"/>
<stop offset="0.886576" stop-color="#9FDE3A"/>
<stop offset="1" stop-color="#79AF1A"/>
</radialGradient>
<radialGradient id="paint7_radial_210_2695" cx="0" cy="0" r="1" gradientUnits="userSpaceOnUse" gradientTransform="translate(15.4298 7.60065) rotate(-4.98) scale(3.57424 3.19344)">
<stop stop-color="#86BE2A"/>
<stop offset="1" stop-color="#86BE2A" stop-opacity="0"/>
</radialGradient>
<radialGradient id="paint8_radial_210_2695" cx="0" cy="0" r="1" gradientUnits="userSpaceOnUse" gradientTransform="translate(16.25 2.84375) rotate(90) scale(0.828125)">
<stop stop-color="#9FDE3A"/>
<stop offset="1" stop-color="#9FDE3A" stop-opacity="0"/>
</radialGradient>
<radialGradient id="paint9_radial_210_2695" cx="0" cy="0" r="1" gradientUnits="userSpaceOnUse" gradientTransform="translate(22.8909 24.4853) rotate(142.712) scale(5.4775)">
<stop stop-color="#764FBE"/>
<stop offset="0.473958" stop-color="#7542B7"/>
<stop offset="1" stop-color="#57198E"/>
</radialGradient>
<radialGradient id="paint10_radial_210_2695" cx="0" cy="0" r="1" gradientUnits="userSpaceOnUse" gradientTransform="translate(22.6211 24.4985) rotate(49.5049) scale(3.13336)">
<stop stop-color="#997ED0" stop-opacity="0.6"/>
<stop offset="1" stop-color="#997ED0" stop-opacity="0"/>
</radialGradient>
<radialGradient id="paint11_radial_210_2695" cx="0" cy="0" r="1" gradientUnits="userSpaceOnUse" gradientTransform="translate(16.4252 25.5618) rotate(-2.42634) scale(6.25215)">
<stop stop-opacity="0.5"/>
<stop offset="1" stop-opacity="0"/>
</radialGradient>
<radialGradient id="paint12_radial_210_2695" cx="0" cy="0" r="1" gradientUnits="userSpaceOnUse" gradientTransform="translate(23.125 19.4062) rotate(90) scale(5.6875)">
<stop offset="0.467033" stop-opacity="0.5"/>
<stop offset="1" stop-opacity="0"/>
</radialGradient>
<radialGradient id="paint13_radial_210_2695" cx="0" cy="0" r="1" gradientUnits="userSpaceOnUse" gradientTransform="translate(16.75 22.2812) rotate(45) scale(6.20928)">
<stop offset="0.488462" stop-opacity="0.5"/>
<stop offset="1" stop-opacity="0"/>
</radialGradient>
<radialGradient id="paint14_radial_210_2695" cx="0" cy="0" r="1" gradientUnits="userSpaceOnUse" gradientTransform="translate(24.033 18.1604) rotate(142.712) scale(5.4775)">
<stop stop-color="#764FBE"/>
<stop offset="0.473958" stop-color="#7542B7"/>
<stop offset="1" stop-color="#57198E"/>
</radialGradient>
<radialGradient id="paint15_radial_210_2695" cx="0" cy="0" r="1" gradientUnits="userSpaceOnUse" gradientTransform="translate(23.7632 18.1735) rotate(49.5049) scale(3.13336)">
<stop stop-color="#997ED0" stop-opacity="0.6"/>
<stop offset="1" stop-color="#997ED0" stop-opacity="0"/>
</radialGradient>
<radialGradient id="paint16_radial_210_2695" cx="0" cy="0" r="1" gradientUnits="userSpaceOnUse" gradientTransform="translate(17.5673 19.2369) rotate(-2.42634) scale(6.25215)">
<stop stop-opacity="0.5"/>
<stop offset="1" stop-opacity="0"/>
</radialGradient>
<radialGradient id="paint17_radial_210_2695" cx="0" cy="0" r="1" gradientUnits="userSpaceOnUse" gradientTransform="translate(24.2671 13.0813) rotate(90) scale(5.6875)">
<stop offset="0.467033" stop-opacity="0.5"/>
<stop offset="1" stop-opacity="0"/>
</radialGradient>
<radialGradient id="paint18_radial_210_2695" cx="0" cy="0" r="1" gradientUnits="userSpaceOnUse" gradientTransform="translate(17.8921 15.9563) rotate(45) scale(6.20928)">
<stop offset="0.488462" stop-opacity="0.5"/>
<stop offset="1" stop-opacity="0"/>
</radialGradient>
<radialGradient id="paint19_radial_210_2695" cx="0" cy="0" r="1" gradientUnits="userSpaceOnUse" gradientTransform="translate(17.8685 21.1486) rotate(142.712) scale(5.4775)">
<stop stop-color="#764FBE"/>
<stop offset="0.473958" stop-color="#7542B7"/>
<stop offset="1" stop-color="#57198E"/>
</radialGradient>
<radialGradient id="paint20_radial_210_2695" cx="0" cy="0" r="1" gradientUnits="userSpaceOnUse" gradientTransform="translate(17.5986 21.1617) rotate(49.5049) scale(3.13336)">
<stop stop-color="#997ED0" stop-opacity="0.6"/>
<stop offset="1" stop-color="#997ED0" stop-opacity="0"/>
</radialGradient>
<radialGradient id="paint21_radial_210_2695" cx="0" cy="0" r="1" gradientUnits="userSpaceOnUse" gradientTransform="translate(11.4028 22.225) rotate(-2.42634) scale(6.25215)">
<stop stop-opacity="0.5"/>
<stop offset="1" stop-opacity="0"/>
</radialGradient>
<radialGradient id="paint22_radial_210_2695" cx="0" cy="0" r="1" gradientUnits="userSpaceOnUse" gradientTransform="translate(18.1025 16.0695) rotate(90) scale(5.6875)">
<stop offset="0.467033" stop-opacity="0.5"/>
<stop offset="1" stop-opacity="0"/>
</radialGradient>
<radialGradient id="paint23_radial_210_2695" cx="0" cy="0" r="1" gradientUnits="userSpaceOnUse" gradientTransform="translate(11.7275 18.9445) rotate(45) scale(6.20928)">
<stop offset="0.488462" stop-opacity="0.5"/>
<stop offset="1" stop-opacity="0"/>
</radialGradient>
<radialGradient id="paint24_radial_210_2695" cx="0" cy="0" r="1" gradientUnits="userSpaceOnUse" gradientTransform="translate(12.6805 17.0305) rotate(142.712) scale(5.4775)">
<stop stop-color="#764FBE"/>
<stop offset="0.473958" stop-color="#7542B7"/>
<stop offset="1" stop-color="#57198E"/>
</radialGradient>
<radialGradient id="paint25_radial_210_2695" cx="0" cy="0" r="1" gradientUnits="userSpaceOnUse" gradientTransform="translate(12.4106 17.0436) rotate(49.5049) scale(3.13336)">
<stop stop-color="#997ED0" stop-opacity="0.2"/>
<stop offset="1" stop-color="#997ED0" stop-opacity="0"/>
</radialGradient>
<radialGradient id="paint26_radial_210_2695" cx="0" cy="0" r="1" gradientUnits="userSpaceOnUse" gradientTransform="translate(6.21479 18.107) rotate(-2.42634) scale(6.25215)">
<stop stop-opacity="0.5"/>
<stop offset="1" stop-opacity="0"/>
</radialGradient>
<radialGradient id="paint27_radial_210_2695" cx="0" cy="0" r="1" gradientUnits="userSpaceOnUse" gradientTransform="translate(17.5 15.625) rotate(157.046) scale(5.76933)">
<stop offset="0.58526" stop-opacity="0.5"/>
<stop offset="1" stop-opacity="0"/>
</radialGradient>
<radialGradient id="paint28_radial_210_2695" cx="0" cy="0" r="1" gradientUnits="userSpaceOnUse" gradientTransform="translate(24.033 11.845) rotate(142.712) scale(5.4775)">
<stop stop-color="#764FBE"/>
<stop offset="0.473958" stop-color="#7542B7"/>
<stop offset="1" stop-color="#57198E"/>
</radialGradient>
<radialGradient id="paint29_radial_210_2695" cx="0" cy="0" r="1" gradientUnits="userSpaceOnUse" gradientTransform="translate(23.7632 11.8581) rotate(49.5049) scale(3.13336)">
<stop stop-color="#997ED0" stop-opacity="0.6"/>
<stop offset="1" stop-color="#997ED0" stop-opacity="0"/>
</radialGradient>
<radialGradient id="paint30_radial_210_2695" cx="0" cy="0" r="1" gradientUnits="userSpaceOnUse" gradientTransform="translate(17.5673 12.9214) rotate(-2.42634) scale(6.25215)">
<stop stop-opacity="0.5"/>
<stop offset="1" stop-opacity="0"/>
</radialGradient>
<radialGradient id="paint31_radial_210_2695" cx="0" cy="0" r="1" gradientUnits="userSpaceOnUse" gradientTransform="translate(17.125 15.5) scale(5.5)">
<stop offset="0.467033" stop-opacity="0.5"/>
<stop offset="1" stop-opacity="0"/>
</radialGradient>
<radialGradient id="paint32_radial_210_2695" cx="0" cy="0" r="1" gradientUnits="userSpaceOnUse" gradientTransform="translate(18.2742 14.0618) rotate(142.712) scale(5.4775)">
<stop stop-color="#764FBE"/>
<stop offset="0.473958" stop-color="#7542B7"/>
<stop offset="1" stop-color="#57198E"/>
</radialGradient>
<radialGradient id="paint33_radial_210_2695" cx="0" cy="0" r="1" gradientUnits="userSpaceOnUse" gradientTransform="translate(18.0044 14.0749) rotate(49.5049) scale(3.13336)">
<stop stop-color="#997ED0"/>
<stop offset="1" stop-color="#997ED0" stop-opacity="0"/>
</radialGradient>
</defs>
</svg>
