<svg width="100%" height="100%" viewBox="0 0 24 24" fill="none" xmlns="http://www.w3.org/2000/svg">
<path d="M3.19803 15.4643L3.8944 15.2429L3.19803 15.4643ZM2.13937 9.45481L2.84326 9.65099L2.13937 9.45481ZM6.56008 4.8893L6.12446 4.30263H6.12446L6.56008 4.8893ZM2.24737 9.11512L2.93531 9.36146L2.24737 9.11512ZM6.08054 21.172L5.66688 21.7743H5.66688L6.08054 21.172ZM5.7978 20.962L5.34085 21.5322L5.7978 20.962ZM20.802 15.4643L20.1056 15.2429L20.802 15.4643ZM18.2022 20.962L18.6592 21.5322L18.2022 20.962ZM17.9195 21.172L18.3331 21.7743L17.9195 21.172ZM17.4399 4.8893L17.8755 4.30263L17.4399 4.8893ZM21.7526 9.11512L21.0647 9.36146L21.7526 9.11512ZM21.8606 9.45481L21.1567 9.65099L21.8606 9.45481ZM12.1747 2.00327L12.1474 2.73348L12.1747 2.00327ZM11.8253 2.00327L11.8526 2.73348L11.8253 2.00327ZM10.0934 16.6822C9.68981 16.6822 9.36266 17.0093 9.36266 17.4129C9.36266 17.8164 9.68981 18.1436 10.0934 18.1436V16.6822ZM13.9066 18.1436C14.3102 18.1436 14.6373 17.8164 14.6373 17.4129C14.6373 17.0093 14.3102 16.6822 13.9066 16.6822V18.1436ZM3.8944 15.2429C3.40415 13.7009 3.05461 12.5983 2.87116 11.7029C2.69105 10.8239 2.68681 10.2123 2.84326 9.65099L1.43548 9.25863C1.19397 10.1252 1.23352 10.9911 1.43947 11.9963C1.64207 12.9851 2.02083 14.1733 2.50166 15.6857L3.8944 15.2429ZM6.12446 4.30263C4.86607 5.23703 3.87495 5.97171 3.14116 6.65108C2.39432 7.34252 1.86286 8.02142 1.55943 8.86878L2.93531 9.36146C3.13113 8.8146 3.48487 8.32446 4.134 7.72347C4.79618 7.11042 5.71179 6.42931 6.9957 5.47597L6.12446 4.30263ZM2.84326 9.65099C2.87047 9.55334 2.90118 9.45677 2.93531 9.36146L1.55943 8.86878C1.51346 8.99716 1.47212 9.1272 1.43548 9.25863L2.84326 9.65099ZM12 21.2693C10.4125 21.2693 9.28126 21.2683 8.39429 21.1702C7.52525 21.0741 6.96201 20.8909 6.4942 20.5696L5.66688 21.7743C6.40483 22.2811 7.23009 22.5118 8.23372 22.6228C9.21943 22.7317 10.445 22.7307 12 22.7307V21.2693ZM2.50166 15.6857C2.98245 17.198 3.35945 18.3869 3.76435 19.3089C4.17577 20.2456 4.64295 20.973 5.34085 21.5322L6.25475 20.3918C5.80948 20.035 5.46232 19.5407 5.10241 18.7212C4.73599 17.8869 4.38468 16.785 3.8944 15.2429L2.50166 15.6857ZM6.4942 20.5696C6.41231 20.5134 6.33244 20.4541 6.25475 20.3918L5.34085 21.5322C5.44656 21.6169 5.55531 21.6977 5.66688 21.7743L6.4942 20.5696ZM20.1056 15.2429C19.6153 16.785 19.264 17.8869 18.8976 18.7212C18.5377 19.5407 18.1905 20.035 17.7452 20.3918L18.6592 21.5322C19.357 20.973 19.8242 20.2456 20.2357 19.3089C20.6406 18.3869 21.0175 17.198 21.4983 15.6857L20.1056 15.2429ZM12 22.7307C13.555 22.7307 14.7806 22.7317 15.7663 22.6228C16.7699 22.5118 17.5952 22.2811 18.3331 21.7743L17.5058 20.5696C17.038 20.8909 16.4748 21.0741 15.6057 21.1702C14.7187 21.2683 13.5875 21.2693 12 21.2693V22.7307ZM17.7452 20.3918C17.6676 20.4541 17.5877 20.5134 17.5058 20.5696L18.3331 21.7743C18.4447 21.6977 18.5534 21.6169 18.6592 21.5322L17.7452 20.3918ZM17.0043 5.47597C18.2882 6.42931 19.2038 7.11042 19.866 7.72347C20.5151 8.32446 20.8689 8.8146 21.0647 9.36146L22.4406 8.86878C22.1371 8.02142 21.6057 7.34252 20.8588 6.65108C20.125 5.97171 19.1339 5.23703 17.8755 4.30263L17.0043 5.47597ZM21.4983 15.6857C21.9792 14.1733 22.3579 12.9851 22.5605 11.9963C22.7665 10.9911 22.806 10.1252 22.5645 9.25863L21.1567 9.65099C21.3132 10.2123 21.3089 10.8239 21.1288 11.7029C20.9454 12.5983 20.5959 13.7009 20.1056 15.2429L21.4983 15.6857ZM21.0647 9.36146C21.0988 9.45676 21.1295 9.55334 21.1567 9.65099L22.5645 9.25863C22.5279 9.1272 22.4865 8.99716 22.4406 8.86878L21.0647 9.36146ZM17.8755 4.30263C16.6173 3.36835 15.6271 2.63187 14.7678 2.12834C13.8937 1.6162 13.0932 1.30648 12.2021 1.27307L12.1474 2.73348C12.708 2.7545 13.2689 2.94392 14.0289 3.38926C14.8037 3.8432 15.7202 4.52252 17.0043 5.47597L17.8755 4.30263ZM6.9957 5.47597C8.27976 4.52252 9.19633 3.8432 9.97105 3.38926C10.7311 2.94392 11.292 2.7545 11.8526 2.73348L11.7979 1.27307C10.9068 1.30648 10.1063 1.6162 9.23223 2.12834C8.37287 2.63187 7.38271 3.36835 6.12446 4.30263L6.9957 5.47597ZM12.2021 1.27307C12.0674 1.26802 11.9326 1.26802 11.7979 1.27307L11.8526 2.73348C11.9508 2.72979 12.0492 2.72979 12.1474 2.73348L12.2021 1.27307ZM10.0934 18.1436H13.9066V16.6822H10.0934V18.1436Z" fill="#5E5F60"/>
</svg>
