<svg width="100%" height="100%" viewBox="0 0 24 24" fill="none" xmlns="http://www.w3.org/2000/svg">
<path fill-rule="evenodd" clip-rule="evenodd" d="M6.56008 4.8893C4.01778 6.77703 2.74662 7.7209 2.24737 9.11512C2.20732 9.22696 2.1713 9.34027 2.13937 9.45481C1.74142 10.8827 2.22695 12.4099 3.19803 15.4643C4.1691 18.5187 4.65464 20.0459 5.7978 20.962C5.8895 21.0355 5.98381 21.1055 6.08054 21.172C7.28631 22 8.85754 22 12 22C15.1425 22 16.7137 22 17.9195 21.172C18.0162 21.1055 18.1105 21.0355 18.2022 20.962C19.3454 20.0459 19.8309 18.5187 20.802 15.4643C21.773 12.4099 22.2586 10.8827 21.8606 9.45481C21.8287 9.34027 21.7927 9.22696 21.7526 9.11512C21.2534 7.7209 19.9822 6.77704 17.4399 4.88931C14.8976 3.00158 13.6265 2.0577 12.1747 2.00327C12.0583 1.99891 11.9417 1.99891 11.8253 2.00327C10.3735 2.0577 9.10238 3.00157 6.56008 4.8893ZM10.0934 16.6821C9.6985 16.6821 9.37839 17.0093 9.37839 17.4129C9.37839 17.8164 9.6985 18.1436 10.0934 18.1436H13.9066C14.3015 18.1436 14.6216 17.8164 14.6216 17.4129C14.6216 17.0093 14.3015 16.6821 13.9066 16.6821H10.0934Z" fill="#00AA5B"/>
</svg>
