<svg width="100%" height="100%" viewBox="0 0 24 24" fill="none" xmlns="http://www.w3.org/2000/svg">
<path fill-rule="evenodd" clip-rule="evenodd" d="M15.6156 10.545C16.1822 9.14528 14.8063 7.74555 13.4303 8.32191L10.8696 9.39452C10.221 9.66623 9.70586 10.1902 9.43877 10.8501L8.38437 13.455C7.81781 14.8547 9.19375 16.2544 10.5697 15.6781L13.1304 14.6055C13.779 14.3338 14.2941 13.8098 14.5612 13.1499L15.6156 10.545ZM13.9766 9.67164C14.1732 9.5893 14.3698 9.78926 14.2888 9.98922L13.2344 12.5941C13.113 12.8941 12.8789 13.1323 12.584 13.2558L10.0234 14.3284C9.82681 14.4107 9.63024 14.2107 9.71118 14.0108L10.7656 11.4059C10.887 11.1059 11.1211 10.8677 11.416 10.7442L13.9766 9.67164Z" fill="#5E5F60"/>
<path fill-rule="evenodd" clip-rule="evenodd" d="M14.9336 2.06995C14.164 1.99999 13.2235 1.99999 12.0337 2H11.9663C10.7765 1.99999 9.83602 1.99999 9.06637 2.06995C8.27579 2.14181 7.61455 2.29074 6.98959 2.61687C6.82771 2.70136 6.67004 2.79396 6.51717 2.89434C5.92705 3.28184 5.46964 3.78993 5.01318 4.45049C4.5688 5.09356 4.09856 5.9221 3.50366 6.97032L3.46997 7.02968C2.87506 8.07789 2.40482 8.90643 2.07955 9.61946C1.74544 10.3519 1.5416 11.0089 1.50677 11.7225C1.49774 11.9074 1.49774 12.0926 1.50677 12.2775C1.5416 12.9911 1.74544 13.6481 2.07955 14.3805C2.40481 15.0936 2.87505 15.9221 3.46995 16.9703L3.50364 17.0297C4.09855 18.0779 4.56879 18.9064 5.01318 19.5495C5.46964 20.2101 5.92705 20.7182 6.51717 21.1057C6.67004 21.206 6.8277 21.2986 6.98959 21.3831C7.61454 21.7093 8.27579 21.8582 9.06637 21.9301C9.83601 22 10.7765 22 11.9663 22H12.0337C13.2235 22 14.164 22 14.9336 21.9301C15.7242 21.8582 16.3855 21.7093 17.0104 21.3831C17.1723 21.2986 17.33 21.206 17.4828 21.1057C18.0729 20.7182 18.5304 20.2101 18.9868 19.5495C19.4312 18.9065 19.9014 18.0779 20.4963 17.0297L20.53 16.9703C21.1249 15.9221 21.5952 15.0936 21.9205 14.3805C22.2546 13.6481 22.4584 12.9911 22.4932 12.2775C22.5023 12.0926 22.5023 11.9074 22.4932 11.7225C22.4584 11.0089 22.2546 10.3519 21.9205 9.61946C21.5952 8.90643 21.1249 8.07788 20.53 7.02966L20.4963 6.97026C19.9014 5.92207 19.4312 5.09355 18.9868 4.45049C18.5304 3.78993 18.0729 3.28184 17.4828 2.89434C17.33 2.79396 17.1723 2.70136 17.0104 2.61687C16.3855 2.29074 15.7242 2.14181 14.9336 2.06995ZM7.64453 3.91562C8.04746 3.70535 8.50934 3.58607 9.19408 3.52383C9.8925 3.46034 10.7691 3.45967 12 3.45967C13.2309 3.45967 14.1075 3.46034 14.8059 3.52383C15.4907 3.58607 15.9525 3.70535 16.3555 3.91562C16.4751 3.97807 16.5917 4.04651 16.7046 4.1207C17.0851 4.37054 17.4176 4.71781 17.813 5.28993C18.2162 5.8735 18.6551 6.64541 19.2705 7.72984C19.886 8.81427 20.3237 9.58685 20.6189 10.2339C20.9083 10.8683 21.0377 11.3348 21.0601 11.7949C21.0668 11.9316 21.0668 12.0684 21.0601 12.2051C21.0377 12.6652 20.9083 13.1317 20.6189 13.7661C20.3237 14.4132 19.886 15.1857 19.2705 16.2702C18.6551 17.3546 18.2162 18.1265 17.813 18.7101C17.4176 19.2822 17.0851 19.6295 16.7046 19.8793C16.5917 19.9535 16.4751 20.0219 16.3555 20.0844C15.9525 20.2947 15.4907 20.4139 14.8059 20.4762C14.1075 20.5397 13.2309 20.5403 12 20.5403C10.7691 20.5403 9.8925 20.5397 9.19408 20.4762C8.50933 20.4139 8.04746 20.2947 7.64453 20.0844C7.52488 20.0219 7.40834 19.9535 7.29535 19.8793C6.91488 19.6295 6.5824 19.2822 6.18704 18.7101C5.78378 18.1265 5.34492 17.3546 4.72946 16.2702C4.114 15.1857 3.67628 14.4132 3.38112 13.7661C3.09173 13.1317 2.96234 12.6652 2.93989 12.2051C2.93322 12.0684 2.93322 11.9316 2.93989 11.7949C2.96234 11.3348 3.09173 10.8683 3.38112 10.2339C3.67628 9.58685 4.114 8.81427 4.72946 7.72984C5.34492 6.64541 5.78378 5.87349 6.18704 5.28993C6.5824 4.71781 6.91488 4.37054 7.29535 4.1207C7.40834 4.04651 7.52488 3.97807 7.64453 3.91562Z" fill="#5E5F60"/>
</svg>
