<svg width="100%" height="100%" viewBox="0 0 24 24" fill="none" xmlns="http://www.w3.org/2000/svg">
<path d="M13.9767 9.67164C14.1733 9.5893 14.3698 9.78926 14.2889 9.98922L13.2345 12.5941C13.1131 12.8941 12.8789 13.1323 12.5841 13.2558L10.0234 14.3284C9.82686 14.4107 9.63029 14.2107 9.71123 14.0108L10.7656 11.4059C10.887 11.1059 11.1212 10.8678 11.416 10.7442L13.9767 9.67164Z" fill="#00AA5B"/>
<path fill-rule="evenodd" clip-rule="evenodd" d="M14.9336 2.06995C14.164 1.99999 13.2235 1.99999 12.0337 2H11.9663C10.7765 1.99999 9.83602 1.99999 9.06637 2.06995C8.27579 2.14181 7.61455 2.29074 6.98959 2.61687C6.82771 2.70136 6.67004 2.79396 6.51717 2.89434C5.92705 3.28184 5.46964 3.78993 5.01318 4.45049C4.5688 5.09356 4.09856 5.9221 3.50366 6.97032L3.46997 7.02968C2.87506 8.07789 2.40482 8.90643 2.07955 9.61946C1.74544 10.3519 1.5416 11.0089 1.50677 11.7225C1.49774 11.9074 1.49774 12.0926 1.50677 12.2775C1.5416 12.9911 1.74544 13.6481 2.07955 14.3805C2.40481 15.0935 2.87503 15.9221 3.46992 16.9702L3.50364 17.0297C4.09855 18.0779 4.56879 18.9064 5.01318 19.5495C5.46964 20.2101 5.92705 20.7182 6.51717 21.1057C6.67004 21.206 6.8277 21.2986 6.98959 21.3831C7.61454 21.7093 8.27579 21.8582 9.06637 21.9301C9.83601 22 10.7765 22 11.9663 22H12.0337C13.2235 22 14.164 22 14.9336 21.9301C15.7242 21.8582 16.3855 21.7093 17.0104 21.3831C17.1723 21.2986 17.33 21.206 17.4828 21.1057C18.0729 20.7182 18.5304 20.2101 18.9868 19.5495C19.4312 18.9065 19.9014 18.0779 20.4963 17.0297L20.53 16.9703C21.1249 15.9221 21.5952 15.0936 21.9205 14.3805C22.2546 13.6481 22.4584 12.9911 22.4932 12.2775C22.5023 12.0926 22.5023 11.9074 22.4932 11.7225C22.4584 11.0089 22.2546 10.3519 21.9205 9.61946C21.5952 8.90643 21.1249 8.07788 20.53 7.02966L20.4963 6.97026C19.9014 5.92207 19.4312 5.09355 18.9868 4.45049C18.5304 3.78993 18.0729 3.28184 17.4828 2.89434C17.33 2.79396 17.1723 2.70136 17.0104 2.61687C16.3855 2.29074 15.7242 2.14181 14.9336 2.06995ZM15.6157 10.545C16.1822 9.14528 14.8063 7.74556 13.4304 8.32191L10.8697 9.39452C10.221 9.66623 9.70591 10.1902 9.43882 10.8501L8.38442 13.455C7.81786 14.8547 9.1938 16.2545 10.5697 15.6781L13.1304 14.6055C13.7791 14.3338 14.2942 13.8098 14.5613 13.1499L15.6157 10.545Z" fill="#00AA5B"/>
</svg>
