<svg width="100%" height="100%" viewBox="0 0 40 40" fill="none" xmlns="http://www.w3.org/2000/svg">
<path d="M30.578 33.9107C33.5599 32.2515 34.7863 28.6646 33.5974 25.569C33.4543 25.1964 33.6442 24.7631 34.0127 24.6095C34.3617 24.464 34.7035 24.282 35.028 24.0607C37.3405 22.4857 38.1655 19.4232 36.9655 16.8982C35.528 13.8732 31.878 12.7482 29.003 14.3482C28.578 14.5857 28.203 14.8607 27.8655 15.1857C26.003 12.0482 21.9655 10.9357 18.753 12.7357C16.728 13.8607 15.5155 15.8857 15.3155 18.0232C14.178 17.8982 12.978 18.1107 11.903 18.7107C10.2155 19.6482 9.19046 21.3232 9.00296 23.1107C8.75296 25.4232 7.45296 27.4982 5.41546 28.6357C3.12796 29.9107 2.31546 32.7982 3.59046 35.0857C4.86546 37.3732 7.75296 38.1857 10.0405 36.9107C12.0655 35.7732 14.5155 35.7607 16.6155 36.7607C18.2405 37.5357 20.203 37.5482 21.8905 36.5982C22.7654 36.1099 23.4665 35.4228 23.96 34.6179C24.1447 34.3164 24.5263 34.1836 24.8558 34.3119C26.6599 35.0143 28.7556 34.9231 30.578 33.9107Z" fill="url(#paint0_linear_220_3391)"/>
<path d="M30.578 33.9107C33.5599 32.2515 34.7863 28.6646 33.5974 25.569C33.4543 25.1964 33.6442 24.7631 34.0127 24.6095C34.3617 24.464 34.7035 24.282 35.028 24.0607C37.3405 22.4857 38.1655 19.4232 36.9655 16.8982C35.528 13.8732 31.878 12.7482 29.003 14.3482C28.578 14.5857 28.203 14.8607 27.8655 15.1857C26.003 12.0482 21.9655 10.9357 18.753 12.7357C16.728 13.8607 15.5155 15.8857 15.3155 18.0232C14.178 17.8982 12.978 18.1107 11.903 18.7107C10.2155 19.6482 9.19046 21.3232 9.00296 23.1107C8.75296 25.4232 7.45296 27.4982 5.41546 28.6357C3.12796 29.9107 2.31546 32.7982 3.59046 35.0857C4.86546 37.3732 7.75296 38.1857 10.0405 36.9107C12.0655 35.7732 14.5155 35.7607 16.6155 36.7607C18.2405 37.5357 20.203 37.5482 21.8905 36.5982C22.7654 36.1099 23.4665 35.4228 23.96 34.6179C24.1447 34.3164 24.5263 34.1836 24.8558 34.3119C26.6599 35.0143 28.7556 34.9231 30.578 33.9107Z" fill="url(#paint1_radial_220_3391)"/>
<path d="M30.578 33.9107C33.5599 32.2515 34.7863 28.6646 33.5974 25.569C33.4543 25.1964 33.6442 24.7631 34.0127 24.6095C34.3617 24.464 34.7035 24.282 35.028 24.0607C37.3405 22.4857 38.1655 19.4232 36.9655 16.8982C35.528 13.8732 31.878 12.7482 29.003 14.3482C28.578 14.5857 28.203 14.8607 27.8655 15.1857C26.003 12.0482 21.9655 10.9357 18.753 12.7357C16.728 13.8607 15.5155 15.8857 15.3155 18.0232C14.178 17.8982 12.978 18.1107 11.903 18.7107C10.2155 19.6482 9.19046 21.3232 9.00296 23.1107C8.75296 25.4232 7.45296 27.4982 5.41546 28.6357C3.12796 29.9107 2.31546 32.7982 3.59046 35.0857C4.86546 37.3732 7.75296 38.1857 10.0405 36.9107C12.0655 35.7732 14.5155 35.7607 16.6155 36.7607C18.2405 37.5357 20.203 37.5482 21.8905 36.5982C22.7654 36.1099 23.4665 35.4228 23.96 34.6179C24.1447 34.3164 24.5263 34.1836 24.8558 34.3119C26.6599 35.0143 28.7556 34.9231 30.578 33.9107Z" fill="url(#paint2_radial_220_3391)"/>
<path d="M30.578 33.9107C33.5599 32.2515 34.7863 28.6646 33.5974 25.569C33.4543 25.1964 33.6442 24.7631 34.0127 24.6095C34.3617 24.464 34.7035 24.282 35.028 24.0607C37.3405 22.4857 38.1655 19.4232 36.9655 16.8982C35.528 13.8732 31.878 12.7482 29.003 14.3482C28.578 14.5857 28.203 14.8607 27.8655 15.1857C26.003 12.0482 21.9655 10.9357 18.753 12.7357C16.728 13.8607 15.5155 15.8857 15.3155 18.0232C14.178 17.8982 12.978 18.1107 11.903 18.7107C10.2155 19.6482 9.19046 21.3232 9.00296 23.1107C8.75296 25.4232 7.45296 27.4982 5.41546 28.6357C3.12796 29.9107 2.31546 32.7982 3.59046 35.0857C4.86546 37.3732 7.75296 38.1857 10.0405 36.9107C12.0655 35.7732 14.5155 35.7607 16.6155 36.7607C18.2405 37.5357 20.203 37.5482 21.8905 36.5982C22.7654 36.1099 23.4665 35.4228 23.96 34.6179C24.1447 34.3164 24.5263 34.1836 24.8558 34.3119C26.6599 35.0143 28.7556 34.9231 30.578 33.9107Z" fill="url(#paint3_radial_220_3391)"/>
<path d="M30.578 33.9107C33.5599 32.2515 34.7863 28.6646 33.5974 25.569C33.4543 25.1964 33.6442 24.7631 34.0127 24.6095C34.3617 24.464 34.7035 24.282 35.028 24.0607C37.3405 22.4857 38.1655 19.4232 36.9655 16.8982C35.528 13.8732 31.878 12.7482 29.003 14.3482C28.578 14.5857 28.203 14.8607 27.8655 15.1857C26.003 12.0482 21.9655 10.9357 18.753 12.7357C16.728 13.8607 15.5155 15.8857 15.3155 18.0232C14.178 17.8982 12.978 18.1107 11.903 18.7107C10.2155 19.6482 9.19046 21.3232 9.00296 23.1107C8.75296 25.4232 7.45296 27.4982 5.41546 28.6357C3.12796 29.9107 2.31546 32.7982 3.59046 35.0857C4.86546 37.3732 7.75296 38.1857 10.0405 36.9107C12.0655 35.7732 14.5155 35.7607 16.6155 36.7607C18.2405 37.5357 20.203 37.5482 21.8905 36.5982C22.7654 36.1099 23.4665 35.4228 23.96 34.6179C24.1447 34.3164 24.5263 34.1836 24.8558 34.3119C26.6599 35.0143 28.7556 34.9231 30.578 33.9107Z" fill="url(#paint4_radial_220_3391)"/>
<path d="M30.578 33.9107C33.5599 32.2515 34.7863 28.6646 33.5974 25.569C33.4543 25.1964 33.6442 24.7631 34.0127 24.6095C34.3617 24.464 34.7035 24.282 35.028 24.0607C37.3405 22.4857 38.1655 19.4232 36.9655 16.8982C35.528 13.8732 31.878 12.7482 29.003 14.3482C28.578 14.5857 28.203 14.8607 27.8655 15.1857C26.003 12.0482 21.9655 10.9357 18.753 12.7357C16.728 13.8607 15.5155 15.8857 15.3155 18.0232C14.178 17.8982 12.978 18.1107 11.903 18.7107C10.2155 19.6482 9.19046 21.3232 9.00296 23.1107C8.75296 25.4232 7.45296 27.4982 5.41546 28.6357C3.12796 29.9107 2.31546 32.7982 3.59046 35.0857C4.86546 37.3732 7.75296 38.1857 10.0405 36.9107C12.0655 35.7732 14.5155 35.7607 16.6155 36.7607C18.2405 37.5357 20.203 37.5482 21.8905 36.5982C22.7654 36.1099 23.4665 35.4228 23.96 34.6179C24.1447 34.3164 24.5263 34.1836 24.8558 34.3119C26.6599 35.0143 28.7556 34.9231 30.578 33.9107Z" fill="url(#paint5_radial_220_3391)"/>
<path d="M30.578 33.9107C33.5599 32.2515 34.7863 28.6646 33.5974 25.569C33.4543 25.1964 33.6442 24.7631 34.0127 24.6095C34.3617 24.464 34.7035 24.282 35.028 24.0607C37.3405 22.4857 38.1655 19.4232 36.9655 16.8982C35.528 13.8732 31.878 12.7482 29.003 14.3482C28.578 14.5857 28.203 14.8607 27.8655 15.1857C26.003 12.0482 21.9655 10.9357 18.753 12.7357C16.728 13.8607 15.5155 15.8857 15.3155 18.0232C14.178 17.8982 12.978 18.1107 11.903 18.7107C10.2155 19.6482 9.19046 21.3232 9.00296 23.1107C8.75296 25.4232 7.45296 27.4982 5.41546 28.6357C3.12796 29.9107 2.31546 32.7982 3.59046 35.0857C4.86546 37.3732 7.75296 38.1857 10.0405 36.9107C12.0655 35.7732 14.5155 35.7607 16.6155 36.7607C18.2405 37.5357 20.203 37.5482 21.8905 36.5982C22.7654 36.1099 23.4665 35.4228 23.96 34.6179C24.1447 34.3164 24.5263 34.1836 24.8558 34.3119C26.6599 35.0143 28.7556 34.9231 30.578 33.9107Z" fill="url(#paint6_radial_220_3391)"/>
<path d="M30.578 33.9107C33.5599 32.2515 34.7863 28.6646 33.5974 25.569C33.4543 25.1964 33.6442 24.7631 34.0127 24.6095C34.3617 24.464 34.7035 24.282 35.028 24.0607C37.3405 22.4857 38.1655 19.4232 36.9655 16.8982C35.528 13.8732 31.878 12.7482 29.003 14.3482C28.578 14.5857 28.203 14.8607 27.8655 15.1857C26.003 12.0482 21.9655 10.9357 18.753 12.7357C16.728 13.8607 15.5155 15.8857 15.3155 18.0232C14.178 17.8982 12.978 18.1107 11.903 18.7107C10.2155 19.6482 9.19046 21.3232 9.00296 23.1107C8.75296 25.4232 7.45296 27.4982 5.41546 28.6357C3.12796 29.9107 2.31546 32.7982 3.59046 35.0857C4.86546 37.3732 7.75296 38.1857 10.0405 36.9107C12.0655 35.7732 14.5155 35.7607 16.6155 36.7607C18.2405 37.5357 20.203 37.5482 21.8905 36.5982C22.7654 36.1099 23.4665 35.4228 23.96 34.6179C24.1447 34.3164 24.5263 34.1836 24.8558 34.3119C26.6599 35.0143 28.7556 34.9231 30.578 33.9107Z" fill="url(#paint7_radial_220_3391)"/>
<path d="M30.578 33.9107C33.5599 32.2515 34.7863 28.6646 33.5974 25.569C33.4543 25.1964 33.6442 24.7631 34.0127 24.6095C34.3617 24.464 34.7035 24.282 35.028 24.0607C37.3405 22.4857 38.1655 19.4232 36.9655 16.8982C35.528 13.8732 31.878 12.7482 29.003 14.3482C28.578 14.5857 28.203 14.8607 27.8655 15.1857C26.003 12.0482 21.9655 10.9357 18.753 12.7357C16.728 13.8607 15.5155 15.8857 15.3155 18.0232C14.178 17.8982 12.978 18.1107 11.903 18.7107C10.2155 19.6482 9.19046 21.3232 9.00296 23.1107C8.75296 25.4232 7.45296 27.4982 5.41546 28.6357C3.12796 29.9107 2.31546 32.7982 3.59046 35.0857C4.86546 37.3732 7.75296 38.1857 10.0405 36.9107C12.0655 35.7732 14.5155 35.7607 16.6155 36.7607C18.2405 37.5357 20.203 37.5482 21.8905 36.5982C22.7654 36.1099 23.4665 35.4228 23.96 34.6179C24.1447 34.3164 24.5263 34.1836 24.8558 34.3119C26.6599 35.0143 28.7556 34.9231 30.578 33.9107Z" fill="url(#paint8_radial_220_3391)"/>
<path d="M30.578 33.9107C33.5599 32.2515 34.7863 28.6646 33.5974 25.569C33.4543 25.1964 33.6442 24.7631 34.0127 24.6095C34.3617 24.464 34.7035 24.282 35.028 24.0607C37.3405 22.4857 38.1655 19.4232 36.9655 16.8982C35.528 13.8732 31.878 12.7482 29.003 14.3482C28.578 14.5857 28.203 14.8607 27.8655 15.1857C26.003 12.0482 21.9655 10.9357 18.753 12.7357C16.728 13.8607 15.5155 15.8857 15.3155 18.0232C14.178 17.8982 12.978 18.1107 11.903 18.7107C10.2155 19.6482 9.19046 21.3232 9.00296 23.1107C8.75296 25.4232 7.45296 27.4982 5.41546 28.6357C3.12796 29.9107 2.31546 32.7982 3.59046 35.0857C4.86546 37.3732 7.75296 38.1857 10.0405 36.9107C12.0655 35.7732 14.5155 35.7607 16.6155 36.7607C18.2405 37.5357 20.203 37.5482 21.8905 36.5982C22.7654 36.1099 23.4665 35.4228 23.96 34.6179C24.1447 34.3164 24.5263 34.1836 24.8558 34.3119C26.6599 35.0143 28.7556 34.9231 30.578 33.9107Z" fill="url(#paint9_radial_220_3391)"/>
<path d="M30.578 33.9107C33.5599 32.2515 34.7863 28.6646 33.5974 25.569C33.4543 25.1964 33.6442 24.7631 34.0127 24.6095C34.3617 24.464 34.7035 24.282 35.028 24.0607C37.3405 22.4857 38.1655 19.4232 36.9655 16.8982C35.528 13.8732 31.878 12.7482 29.003 14.3482C28.578 14.5857 28.203 14.8607 27.8655 15.1857C26.003 12.0482 21.9655 10.9357 18.753 12.7357C16.728 13.8607 15.5155 15.8857 15.3155 18.0232C14.178 17.8982 12.978 18.1107 11.903 18.7107C10.2155 19.6482 9.19046 21.3232 9.00296 23.1107C8.75296 25.4232 7.45296 27.4982 5.41546 28.6357C3.12796 29.9107 2.31546 32.7982 3.59046 35.0857C4.86546 37.3732 7.75296 38.1857 10.0405 36.9107C12.0655 35.7732 14.5155 35.7607 16.6155 36.7607C18.2405 37.5357 20.203 37.5482 21.8905 36.5982C22.7654 36.1099 23.4665 35.4228 23.96 34.6179C24.1447 34.3164 24.5263 34.1836 24.8558 34.3119C26.6599 35.0143 28.7556 34.9231 30.578 33.9107Z" fill="url(#paint10_radial_220_3391)"/>
<path d="M6.10279 9.43571C7.76198 6.45381 11.349 5.2274 14.4445 6.41626C14.8172 6.55936 15.2504 6.36945 15.404 6.00102C15.5495 5.65203 15.7316 5.31017 15.9528 4.98571C17.5278 2.67321 20.5903 1.84821 23.1153 3.04821C26.1403 4.48571 27.2653 8.13571 25.6653 11.0107C25.4278 11.4357 25.1528 11.8107 24.8278 12.1482C27.9653 14.0107 29.0778 18.0482 27.2778 21.2607C26.1528 23.2857 24.1278 24.4982 21.9903 24.6982C22.1153 25.8357 21.9028 27.0357 21.3028 28.1107C20.3653 29.7982 18.6903 30.8232 16.9028 31.0107C14.5903 31.2607 12.5153 32.5607 11.3778 34.5982C10.1028 36.8857 7.21529 37.6982 4.92779 36.4232C2.64029 35.1482 1.82779 32.2607 3.10279 29.9732C4.24029 27.9482 4.25279 25.4982 3.25279 23.3982C2.47779 21.7732 2.46529 19.8107 3.41529 18.1232C3.90165 17.2518 4.48986 16.549 5.25447 16.0543C5.55132 15.8623 5.68462 15.4813 5.56013 15.1504C4.8819 13.3476 5.09069 11.2575 6.10279 9.43571Z" fill="#457420"/>
<path d="M6.10279 9.43571C7.76198 6.45381 11.349 5.2274 14.4445 6.41626C14.8172 6.55936 15.2504 6.36945 15.404 6.00102C15.5495 5.65203 15.7316 5.31017 15.9528 4.98571C17.5278 2.67321 20.5903 1.84821 23.1153 3.04821C26.1403 4.48571 27.2653 8.13571 25.6653 11.0107C25.4278 11.4357 25.1528 11.8107 24.8278 12.1482C27.9653 14.0107 29.0778 18.0482 27.2778 21.2607C26.1528 23.2857 24.1278 24.4982 21.9903 24.6982C22.1153 25.8357 21.9028 27.0357 21.3028 28.1107C20.3653 29.7982 18.6903 30.8232 16.9028 31.0107C14.5903 31.2607 12.5153 32.5607 11.3778 34.5982C10.1028 36.8857 7.21529 37.6982 4.92779 36.4232C2.64029 35.1482 1.82779 32.2607 3.10279 29.9732C4.24029 27.9482 4.25279 25.4982 3.25279 23.3982C2.47779 21.7732 2.46529 19.8107 3.41529 18.1232C3.90165 17.2518 4.48986 16.549 5.25447 16.0543C5.55132 15.8623 5.68462 15.4813 5.56013 15.1504C4.8819 13.3476 5.09069 11.2575 6.10279 9.43571Z" fill="url(#paint11_radial_220_3391)"/>
<path d="M6.10279 9.43571C7.76198 6.45381 11.349 5.2274 14.4445 6.41626C14.8172 6.55936 15.2504 6.36945 15.404 6.00102C15.5495 5.65203 15.7316 5.31017 15.9528 4.98571C17.5278 2.67321 20.5903 1.84821 23.1153 3.04821C26.1403 4.48571 27.2653 8.13571 25.6653 11.0107C25.4278 11.4357 25.1528 11.8107 24.8278 12.1482C27.9653 14.0107 29.0778 18.0482 27.2778 21.2607C26.1528 23.2857 24.1278 24.4982 21.9903 24.6982C22.1153 25.8357 21.9028 27.0357 21.3028 28.1107C20.3653 29.7982 18.6903 30.8232 16.9028 31.0107C14.5903 31.2607 12.5153 32.5607 11.3778 34.5982C10.1028 36.8857 7.21529 37.6982 4.92779 36.4232C2.64029 35.1482 1.82779 32.2607 3.10279 29.9732C4.24029 27.9482 4.25279 25.4982 3.25279 23.3982C2.47779 21.7732 2.46529 19.8107 3.41529 18.1232C3.90165 17.2518 4.48986 16.549 5.25447 16.0543C5.55132 15.8623 5.68462 15.4813 5.56013 15.1504C4.8819 13.3476 5.09069 11.2575 6.10279 9.43571Z" fill="url(#paint12_radial_220_3391)"/>
<path d="M6.10279 9.43571C7.76198 6.45381 11.349 5.2274 14.4445 6.41626C14.8172 6.55936 15.2504 6.36945 15.404 6.00102C15.5495 5.65203 15.7316 5.31017 15.9528 4.98571C17.5278 2.67321 20.5903 1.84821 23.1153 3.04821C26.1403 4.48571 27.2653 8.13571 25.6653 11.0107C25.4278 11.4357 25.1528 11.8107 24.8278 12.1482C27.9653 14.0107 29.0778 18.0482 27.2778 21.2607C26.1528 23.2857 24.1278 24.4982 21.9903 24.6982C22.1153 25.8357 21.9028 27.0357 21.3028 28.1107C20.3653 29.7982 18.6903 30.8232 16.9028 31.0107C14.5903 31.2607 12.5153 32.5607 11.3778 34.5982C10.1028 36.8857 7.21529 37.6982 4.92779 36.4232C2.64029 35.1482 1.82779 32.2607 3.10279 29.9732C4.24029 27.9482 4.25279 25.4982 3.25279 23.3982C2.47779 21.7732 2.46529 19.8107 3.41529 18.1232C3.90165 17.2518 4.48986 16.549 5.25447 16.0543C5.55132 15.8623 5.68462 15.4813 5.56013 15.1504C4.8819 13.3476 5.09069 11.2575 6.10279 9.43571Z" fill="url(#paint13_radial_220_3391)"/>
<path d="M6.10279 9.43571C7.76198 6.45381 11.349 5.2274 14.4445 6.41626C14.8172 6.55936 15.2504 6.36945 15.404 6.00102C15.5495 5.65203 15.7316 5.31017 15.9528 4.98571C17.5278 2.67321 20.5903 1.84821 23.1153 3.04821C26.1403 4.48571 27.2653 8.13571 25.6653 11.0107C25.4278 11.4357 25.1528 11.8107 24.8278 12.1482C27.9653 14.0107 29.0778 18.0482 27.2778 21.2607C26.1528 23.2857 24.1278 24.4982 21.9903 24.6982C22.1153 25.8357 21.9028 27.0357 21.3028 28.1107C20.3653 29.7982 18.6903 30.8232 16.9028 31.0107C14.5903 31.2607 12.5153 32.5607 11.3778 34.5982C10.1028 36.8857 7.21529 37.6982 4.92779 36.4232C2.64029 35.1482 1.82779 32.2607 3.10279 29.9732C4.24029 27.9482 4.25279 25.4982 3.25279 23.3982C2.47779 21.7732 2.46529 19.8107 3.41529 18.1232C3.90165 17.2518 4.48986 16.549 5.25447 16.0543C5.55132 15.8623 5.68462 15.4813 5.56013 15.1504C4.8819 13.3476 5.09069 11.2575 6.10279 9.43571Z" fill="url(#paint14_radial_220_3391)"/>
<path d="M6.10279 9.43571C7.76198 6.45381 11.349 5.2274 14.4445 6.41626C14.8172 6.55936 15.2504 6.36945 15.404 6.00102C15.5495 5.65203 15.7316 5.31017 15.9528 4.98571C17.5278 2.67321 20.5903 1.84821 23.1153 3.04821C26.1403 4.48571 27.2653 8.13571 25.6653 11.0107C25.4278 11.4357 25.1528 11.8107 24.8278 12.1482C27.9653 14.0107 29.0778 18.0482 27.2778 21.2607C26.1528 23.2857 24.1278 24.4982 21.9903 24.6982C22.1153 25.8357 21.9028 27.0357 21.3028 28.1107C20.3653 29.7982 18.6903 30.8232 16.9028 31.0107C14.5903 31.2607 12.5153 32.5607 11.3778 34.5982C10.1028 36.8857 7.21529 37.6982 4.92779 36.4232C2.64029 35.1482 1.82779 32.2607 3.10279 29.9732C4.24029 27.9482 4.25279 25.4982 3.25279 23.3982C2.47779 21.7732 2.46529 19.8107 3.41529 18.1232C3.90165 17.2518 4.48986 16.549 5.25447 16.0543C5.55132 15.8623 5.68462 15.4813 5.56013 15.1504C4.8819 13.3476 5.09069 11.2575 6.10279 9.43571Z" fill="url(#paint15_radial_220_3391)"/>
<path d="M6.10279 9.43571C7.76198 6.45381 11.349 5.2274 14.4445 6.41626C14.8172 6.55936 15.2504 6.36945 15.404 6.00102C15.5495 5.65203 15.7316 5.31017 15.9528 4.98571C17.5278 2.67321 20.5903 1.84821 23.1153 3.04821C26.1403 4.48571 27.2653 8.13571 25.6653 11.0107C25.4278 11.4357 25.1528 11.8107 24.8278 12.1482C27.9653 14.0107 29.0778 18.0482 27.2778 21.2607C26.1528 23.2857 24.1278 24.4982 21.9903 24.6982C22.1153 25.8357 21.9028 27.0357 21.3028 28.1107C20.3653 29.7982 18.6903 30.8232 16.9028 31.0107C14.5903 31.2607 12.5153 32.5607 11.3778 34.5982C10.1028 36.8857 7.21529 37.6982 4.92779 36.4232C2.64029 35.1482 1.82779 32.2607 3.10279 29.9732C4.24029 27.9482 4.25279 25.4982 3.25279 23.3982C2.47779 21.7732 2.46529 19.8107 3.41529 18.1232C3.90165 17.2518 4.48986 16.549 5.25447 16.0543C5.55132 15.8623 5.68462 15.4813 5.56013 15.1504C4.8819 13.3476 5.09069 11.2575 6.10279 9.43571Z" fill="url(#paint16_radial_220_3391)"/>
<path d="M6.10279 9.43571C7.76198 6.45381 11.349 5.2274 14.4445 6.41626C14.8172 6.55936 15.2504 6.36945 15.404 6.00102C15.5495 5.65203 15.7316 5.31017 15.9528 4.98571C17.5278 2.67321 20.5903 1.84821 23.1153 3.04821C26.1403 4.48571 27.2653 8.13571 25.6653 11.0107C25.4278 11.4357 25.1528 11.8107 24.8278 12.1482C27.9653 14.0107 29.0778 18.0482 27.2778 21.2607C26.1528 23.2857 24.1278 24.4982 21.9903 24.6982C22.1153 25.8357 21.9028 27.0357 21.3028 28.1107C20.3653 29.7982 18.6903 30.8232 16.9028 31.0107C14.5903 31.2607 12.5153 32.5607 11.3778 34.5982C10.1028 36.8857 7.21529 37.6982 4.92779 36.4232C2.64029 35.1482 1.82779 32.2607 3.10279 29.9732C4.24029 27.9482 4.25279 25.4982 3.25279 23.3982C2.47779 21.7732 2.46529 19.8107 3.41529 18.1232C3.90165 17.2518 4.48986 16.549 5.25447 16.0543C5.55132 15.8623 5.68462 15.4813 5.56013 15.1504C4.8819 13.3476 5.09069 11.2575 6.10279 9.43571Z" fill="url(#paint17_radial_220_3391)"/>
<path d="M6.10279 9.43571C7.76198 6.45381 11.349 5.2274 14.4445 6.41626C14.8172 6.55936 15.2504 6.36945 15.404 6.00102C15.5495 5.65203 15.7316 5.31017 15.9528 4.98571C17.5278 2.67321 20.5903 1.84821 23.1153 3.04821C26.1403 4.48571 27.2653 8.13571 25.6653 11.0107C25.4278 11.4357 25.1528 11.8107 24.8278 12.1482C27.9653 14.0107 29.0778 18.0482 27.2778 21.2607C26.1528 23.2857 24.1278 24.4982 21.9903 24.6982C22.1153 25.8357 21.9028 27.0357 21.3028 28.1107C20.3653 29.7982 18.6903 30.8232 16.9028 31.0107C14.5903 31.2607 12.5153 32.5607 11.3778 34.5982C10.1028 36.8857 7.21529 37.6982 4.92779 36.4232C2.64029 35.1482 1.82779 32.2607 3.10279 29.9732C4.24029 27.9482 4.25279 25.4982 3.25279 23.3982C2.47779 21.7732 2.46529 19.8107 3.41529 18.1232C3.90165 17.2518 4.48986 16.549 5.25447 16.0543C5.55132 15.8623 5.68462 15.4813 5.56013 15.1504C4.8819 13.3476 5.09069 11.2575 6.10279 9.43571Z" fill="url(#paint18_radial_220_3391)"/>
<path d="M6.10279 9.43571C7.76198 6.45381 11.349 5.2274 14.4445 6.41626C14.8172 6.55936 15.2504 6.36945 15.404 6.00102C15.5495 5.65203 15.7316 5.31017 15.9528 4.98571C17.5278 2.67321 20.5903 1.84821 23.1153 3.04821C26.1403 4.48571 27.2653 8.13571 25.6653 11.0107C25.4278 11.4357 25.1528 11.8107 24.8278 12.1482C27.9653 14.0107 29.0778 18.0482 27.2778 21.2607C26.1528 23.2857 24.1278 24.4982 21.9903 24.6982C22.1153 25.8357 21.9028 27.0357 21.3028 28.1107C20.3653 29.7982 18.6903 30.8232 16.9028 31.0107C14.5903 31.2607 12.5153 32.5607 11.3778 34.5982C10.1028 36.8857 7.21529 37.6982 4.92779 36.4232C2.64029 35.1482 1.82779 32.2607 3.10279 29.9732C4.24029 27.9482 4.25279 25.4982 3.25279 23.3982C2.47779 21.7732 2.46529 19.8107 3.41529 18.1232C3.90165 17.2518 4.48986 16.549 5.25447 16.0543C5.55132 15.8623 5.68462 15.4813 5.56013 15.1504C4.8819 13.3476 5.09069 11.2575 6.10279 9.43571Z" fill="url(#paint19_radial_220_3391)"/>
<path d="M6.10279 9.43571C7.76198 6.45381 11.349 5.2274 14.4445 6.41626C14.8172 6.55936 15.2504 6.36945 15.404 6.00102C15.5495 5.65203 15.7316 5.31017 15.9528 4.98571C17.5278 2.67321 20.5903 1.84821 23.1153 3.04821C26.1403 4.48571 27.2653 8.13571 25.6653 11.0107C25.4278 11.4357 25.1528 11.8107 24.8278 12.1482C27.9653 14.0107 29.0778 18.0482 27.2778 21.2607C26.1528 23.2857 24.1278 24.4982 21.9903 24.6982C22.1153 25.8357 21.9028 27.0357 21.3028 28.1107C20.3653 29.7982 18.6903 30.8232 16.9028 31.0107C14.5903 31.2607 12.5153 32.5607 11.3778 34.5982C10.1028 36.8857 7.21529 37.6982 4.92779 36.4232C2.64029 35.1482 1.82779 32.2607 3.10279 29.9732C4.24029 27.9482 4.25279 25.4982 3.25279 23.3982C2.47779 21.7732 2.46529 19.8107 3.41529 18.1232C3.90165 17.2518 4.48986 16.549 5.25447 16.0543C5.55132 15.8623 5.68462 15.4813 5.56013 15.1504C4.8819 13.3476 5.09069 11.2575 6.10279 9.43571Z" fill="url(#paint20_radial_220_3391)"/>
<path d="M6.10279 9.43571C7.76198 6.45381 11.349 5.2274 14.4445 6.41626C14.8172 6.55936 15.2504 6.36945 15.404 6.00102C15.5495 5.65203 15.7316 5.31017 15.9528 4.98571C17.5278 2.67321 20.5903 1.84821 23.1153 3.04821C26.1403 4.48571 27.2653 8.13571 25.6653 11.0107C25.4278 11.4357 25.1528 11.8107 24.8278 12.1482C27.9653 14.0107 29.0778 18.0482 27.2778 21.2607C26.1528 23.2857 24.1278 24.4982 21.9903 24.6982C22.1153 25.8357 21.9028 27.0357 21.3028 28.1107C20.3653 29.7982 18.6903 30.8232 16.9028 31.0107C14.5903 31.2607 12.5153 32.5607 11.3778 34.5982C10.1028 36.8857 7.21529 37.6982 4.92779 36.4232C2.64029 35.1482 1.82779 32.2607 3.10279 29.9732C4.24029 27.9482 4.25279 25.4982 3.25279 23.3982C2.47779 21.7732 2.46529 19.8107 3.41529 18.1232C3.90165 17.2518 4.48986 16.549 5.25447 16.0543C5.55132 15.8623 5.68462 15.4813 5.56013 15.1504C4.8819 13.3476 5.09069 11.2575 6.10279 9.43571Z" fill="url(#paint21_radial_220_3391)"/>
<path d="M6.10279 9.43571C7.76198 6.45381 11.349 5.2274 14.4445 6.41626C14.8172 6.55936 15.2504 6.36945 15.404 6.00102C15.5495 5.65203 15.7316 5.31017 15.9528 4.98571C17.5278 2.67321 20.5903 1.84821 23.1153 3.04821C26.1403 4.48571 27.2653 8.13571 25.6653 11.0107C25.4278 11.4357 25.1528 11.8107 24.8278 12.1482C27.9653 14.0107 29.0778 18.0482 27.2778 21.2607C26.1528 23.2857 24.1278 24.4982 21.9903 24.6982C22.1153 25.8357 21.9028 27.0357 21.3028 28.1107C20.3653 29.7982 18.6903 30.8232 16.9028 31.0107C14.5903 31.2607 12.5153 32.5607 11.3778 34.5982C10.1028 36.8857 7.21529 37.6982 4.92779 36.4232C2.64029 35.1482 1.82779 32.2607 3.10279 29.9732C4.24029 27.9482 4.25279 25.4982 3.25279 23.3982C2.47779 21.7732 2.46529 19.8107 3.41529 18.1232C3.90165 17.2518 4.48986 16.549 5.25447 16.0543C5.55132 15.8623 5.68462 15.4813 5.56013 15.1504C4.8819 13.3476 5.09069 11.2575 6.10279 9.43571Z" fill="url(#paint22_radial_220_3391)"/>
<path d="M29.8045 27.4609C32.0317 25.2338 32.2008 21.7299 30.6243 19.1052C30.2136 18.4213 30.3958 17.5873 31.0519 17.1335C31.2038 17.0285 31.3412 16.9117 31.4527 16.7773C33.2402 14.6398 33.0678 11.4945 31.2303 9.39451C29.0303 6.88201 25.5084 6.60078 23.1834 8.92578C23.1575 8.95171 23.1314 8.97947 23.1051 9.0088C22.5708 9.60668 21.6831 9.77899 20.9956 9.36635C18.3647 7.78751 14.8417 7.93148 12.617 10.1562C11.3201 11.4531 10.6505 13.2787 10.6267 15.0315C10.6168 15.7642 10.1015 16.4509 9.44143 16.769C8.64302 17.1538 7.94158 17.7613 7.36308 18.3398C5.98808 19.7023 5.70293 21.382 6.01543 23.1445C6.41543 25.432 5.83659 27.7055 4.19909 29.3555C2.34909 31.2055 2.15108 33.884 4.32767 36.0606C6.17767 37.9106 9.06782 37.7289 10.9178 35.8789C12.5678 34.2289 15.0241 33.5453 17.3241 33.9453C18.6874 34.1824 20.61 33.8234 21.9725 32.4609C22.5377 31.8958 23.0716 31.2397 23.4327 30.5393C23.7507 29.9226 24.4063 29.4702 25.1002 29.4646C26.8063 29.4509 28.4892 28.7763 29.8045 27.4609Z" fill="url(#paint23_linear_220_3391)"/>
<path d="M29.8045 27.4609C32.0317 25.2338 32.2008 21.7299 30.6243 19.1052C30.2136 18.4213 30.3958 17.5873 31.0519 17.1335C31.2038 17.0285 31.3412 16.9117 31.4527 16.7773C33.2402 14.6398 33.0678 11.4945 31.2303 9.39451C29.0303 6.88201 25.5084 6.60078 23.1834 8.92578C23.1575 8.95171 23.1314 8.97947 23.1051 9.0088C22.5708 9.60668 21.6831 9.77899 20.9956 9.36635C18.3647 7.78751 14.8417 7.93148 12.617 10.1562C11.3201 11.4531 10.6505 13.2787 10.6267 15.0315C10.6168 15.7642 10.1015 16.4509 9.44143 16.769C8.64302 17.1538 7.94158 17.7613 7.36308 18.3398C5.98808 19.7023 5.70293 21.382 6.01543 23.1445C6.41543 25.432 5.83659 27.7055 4.19909 29.3555C2.34909 31.2055 2.15108 33.884 4.32767 36.0606C6.17767 37.9106 9.06782 37.7289 10.9178 35.8789C12.5678 34.2289 15.0241 33.5453 17.3241 33.9453C18.6874 34.1824 20.61 33.8234 21.9725 32.4609C22.5377 31.8958 23.0716 31.2397 23.4327 30.5393C23.7507 29.9226 24.4063 29.4702 25.1002 29.4646C26.8063 29.4509 28.4892 28.7763 29.8045 27.4609Z" fill="url(#paint24_radial_220_3391)"/>
<path d="M29.8045 27.4609C32.0317 25.2338 32.2008 21.7299 30.6243 19.1052C30.2136 18.4213 30.3958 17.5873 31.0519 17.1335C31.2038 17.0285 31.3412 16.9117 31.4527 16.7773C33.2402 14.6398 33.0678 11.4945 31.2303 9.39451C29.0303 6.88201 25.5084 6.60078 23.1834 8.92578C23.1575 8.95171 23.1314 8.97947 23.1051 9.0088C22.5708 9.60668 21.6831 9.77899 20.9956 9.36635C18.3647 7.78751 14.8417 7.93148 12.617 10.1562C11.3201 11.4531 10.6505 13.2787 10.6267 15.0315C10.6168 15.7642 10.1015 16.4509 9.44143 16.769C8.64302 17.1538 7.94158 17.7613 7.36308 18.3398C5.98808 19.7023 5.70293 21.382 6.01543 23.1445C6.41543 25.432 5.83659 27.7055 4.19909 29.3555C2.34909 31.2055 2.15108 33.884 4.32767 36.0606C6.17767 37.9106 9.06782 37.7289 10.9178 35.8789C12.5678 34.2289 15.0241 33.5453 17.3241 33.9453C18.6874 34.1824 20.61 33.8234 21.9725 32.4609C22.5377 31.8958 23.0716 31.2397 23.4327 30.5393C23.7507 29.9226 24.4063 29.4702 25.1002 29.4646C26.8063 29.4509 28.4892 28.7763 29.8045 27.4609Z" fill="url(#paint25_radial_220_3391)"/>
<path d="M29.8045 27.4609C32.0317 25.2338 32.2008 21.7299 30.6243 19.1052C30.2136 18.4213 30.3958 17.5873 31.0519 17.1335C31.2038 17.0285 31.3412 16.9117 31.4527 16.7773C33.2402 14.6398 33.0678 11.4945 31.2303 9.39451C29.0303 6.88201 25.5084 6.60078 23.1834 8.92578C23.1575 8.95171 23.1314 8.97947 23.1051 9.0088C22.5708 9.60668 21.6831 9.77899 20.9956 9.36635C18.3647 7.78751 14.8417 7.93148 12.617 10.1562C11.3201 11.4531 10.6505 13.2787 10.6267 15.0315C10.6168 15.7642 10.1015 16.4509 9.44143 16.769C8.64302 17.1538 7.94158 17.7613 7.36308 18.3398C5.98808 19.7023 5.70293 21.382 6.01543 23.1445C6.41543 25.432 5.83659 27.7055 4.19909 29.3555C2.34909 31.2055 2.15108 33.884 4.32767 36.0606C6.17767 37.9106 9.06782 37.7289 10.9178 35.8789C12.5678 34.2289 15.0241 33.5453 17.3241 33.9453C18.6874 34.1824 20.61 33.8234 21.9725 32.4609C22.5377 31.8958 23.0716 31.2397 23.4327 30.5393C23.7507 29.9226 24.4063 29.4702 25.1002 29.4646C26.8063 29.4509 28.4892 28.7763 29.8045 27.4609Z" fill="url(#paint26_radial_220_3391)"/>
<path d="M29.8045 27.4609C32.0317 25.2338 32.2008 21.7299 30.6243 19.1052C30.2136 18.4213 30.3958 17.5873 31.0519 17.1335C31.2038 17.0285 31.3412 16.9117 31.4527 16.7773C33.2402 14.6398 33.0678 11.4945 31.2303 9.39451C29.0303 6.88201 25.5084 6.60078 23.1834 8.92578C23.1575 8.95171 23.1314 8.97947 23.1051 9.0088C22.5708 9.60668 21.6831 9.77899 20.9956 9.36635C18.3647 7.78751 14.8417 7.93148 12.617 10.1562C11.3201 11.4531 10.6505 13.2787 10.6267 15.0315C10.6168 15.7642 10.1015 16.4509 9.44143 16.769C8.64302 17.1538 7.94158 17.7613 7.36308 18.3398C5.98808 19.7023 5.70293 21.382 6.01543 23.1445C6.41543 25.432 5.83659 27.7055 4.19909 29.3555C2.34909 31.2055 2.15108 33.884 4.32767 36.0606C6.17767 37.9106 9.06782 37.7289 10.9178 35.8789C12.5678 34.2289 15.0241 33.5453 17.3241 33.9453C18.6874 34.1824 20.61 33.8234 21.9725 32.4609C22.5377 31.8958 23.0716 31.2397 23.4327 30.5393C23.7507 29.9226 24.4063 29.4702 25.1002 29.4646C26.8063 29.4509 28.4892 28.7763 29.8045 27.4609Z" fill="url(#paint27_radial_220_3391)"/>
<path d="M29.8045 27.4609C32.0317 25.2338 32.2008 21.7299 30.6243 19.1052C30.2136 18.4213 30.3958 17.5873 31.0519 17.1335C31.2038 17.0285 31.3412 16.9117 31.4527 16.7773C33.2402 14.6398 33.0678 11.4945 31.2303 9.39451C29.0303 6.88201 25.5084 6.60078 23.1834 8.92578C23.1575 8.95171 23.1314 8.97947 23.1051 9.0088C22.5708 9.60668 21.6831 9.77899 20.9956 9.36635C18.3647 7.78751 14.8417 7.93148 12.617 10.1562C11.3201 11.4531 10.6505 13.2787 10.6267 15.0315C10.6168 15.7642 10.1015 16.4509 9.44143 16.769C8.64302 17.1538 7.94158 17.7613 7.36308 18.3398C5.98808 19.7023 5.70293 21.382 6.01543 23.1445C6.41543 25.432 5.83659 27.7055 4.19909 29.3555C2.34909 31.2055 2.15108 33.884 4.32767 36.0606C6.17767 37.9106 9.06782 37.7289 10.9178 35.8789C12.5678 34.2289 15.0241 33.5453 17.3241 33.9453C18.6874 34.1824 20.61 33.8234 21.9725 32.4609C22.5377 31.8958 23.0716 31.2397 23.4327 30.5393C23.7507 29.9226 24.4063 29.4702 25.1002 29.4646C26.8063 29.4509 28.4892 28.7763 29.8045 27.4609Z" fill="url(#paint28_radial_220_3391)"/>
<path d="M29.8045 27.4609C32.0317 25.2338 32.2008 21.7299 30.6243 19.1052C30.2136 18.4213 30.3958 17.5873 31.0519 17.1335C31.2038 17.0285 31.3412 16.9117 31.4527 16.7773C33.2402 14.6398 33.0678 11.4945 31.2303 9.39451C29.0303 6.88201 25.5084 6.60078 23.1834 8.92578C23.1575 8.95171 23.1314 8.97947 23.1051 9.0088C22.5708 9.60668 21.6831 9.77899 20.9956 9.36635C18.3647 7.78751 14.8417 7.93148 12.617 10.1562C11.3201 11.4531 10.6505 13.2787 10.6267 15.0315C10.6168 15.7642 10.1015 16.4509 9.44143 16.769C8.64302 17.1538 7.94158 17.7613 7.36308 18.3398C5.98808 19.7023 5.70293 21.382 6.01543 23.1445C6.41543 25.432 5.83659 27.7055 4.19909 29.3555C2.34909 31.2055 2.15108 33.884 4.32767 36.0606C6.17767 37.9106 9.06782 37.7289 10.9178 35.8789C12.5678 34.2289 15.0241 33.5453 17.3241 33.9453C18.6874 34.1824 20.61 33.8234 21.9725 32.4609C22.5377 31.8958 23.0716 31.2397 23.4327 30.5393C23.7507 29.9226 24.4063 29.4702 25.1002 29.4646C26.8063 29.4509 28.4892 28.7763 29.8045 27.4609Z" fill="url(#paint29_radial_220_3391)"/>
<path d="M29.8045 27.4609C32.0317 25.2338 32.2008 21.7299 30.6243 19.1052C30.2136 18.4213 30.3958 17.5873 31.0519 17.1335C31.2038 17.0285 31.3412 16.9117 31.4527 16.7773C33.2402 14.6398 33.0678 11.4945 31.2303 9.39451C29.0303 6.88201 25.5084 6.60078 23.1834 8.92578C23.1575 8.95171 23.1314 8.97947 23.1051 9.0088C22.5708 9.60668 21.6831 9.77899 20.9956 9.36635C18.3647 7.78751 14.8417 7.93148 12.617 10.1562C11.3201 11.4531 10.6505 13.2787 10.6267 15.0315C10.6168 15.7642 10.1015 16.4509 9.44143 16.769C8.64302 17.1538 7.94158 17.7613 7.36308 18.3398C5.98808 19.7023 5.70293 21.382 6.01543 23.1445C6.41543 25.432 5.83659 27.7055 4.19909 29.3555C2.34909 31.2055 2.15108 33.884 4.32767 36.0606C6.17767 37.9106 9.06782 37.7289 10.9178 35.8789C12.5678 34.2289 15.0241 33.5453 17.3241 33.9453C18.6874 34.1824 20.61 33.8234 21.9725 32.4609C22.5377 31.8958 23.0716 31.2397 23.4327 30.5393C23.7507 29.9226 24.4063 29.4702 25.1002 29.4646C26.8063 29.4509 28.4892 28.7763 29.8045 27.4609Z" fill="url(#paint30_radial_220_3391)"/>
<path d="M29.8045 27.4609C32.0317 25.2338 32.2008 21.7299 30.6243 19.1052C30.2136 18.4213 30.3958 17.5873 31.0519 17.1335C31.2038 17.0285 31.3412 16.9117 31.4527 16.7773C33.2402 14.6398 33.0678 11.4945 31.2303 9.39451C29.0303 6.88201 25.5084 6.60078 23.1834 8.92578C23.1575 8.95171 23.1314 8.97947 23.1051 9.0088C22.5708 9.60668 21.6831 9.77899 20.9956 9.36635C18.3647 7.78751 14.8417 7.93148 12.617 10.1562C11.3201 11.4531 10.6505 13.2787 10.6267 15.0315C10.6168 15.7642 10.1015 16.4509 9.44143 16.769C8.64302 17.1538 7.94158 17.7613 7.36308 18.3398C5.98808 19.7023 5.70293 21.382 6.01543 23.1445C6.41543 25.432 5.83659 27.7055 4.19909 29.3555C2.34909 31.2055 2.15108 33.884 4.32767 36.0606C6.17767 37.9106 9.06782 37.7289 10.9178 35.8789C12.5678 34.2289 15.0241 33.5453 17.3241 33.9453C18.6874 34.1824 20.61 33.8234 21.9725 32.4609C22.5377 31.8958 23.0716 31.2397 23.4327 30.5393C23.7507 29.9226 24.4063 29.4702 25.1002 29.4646C26.8063 29.4509 28.4892 28.7763 29.8045 27.4609Z" fill="url(#paint31_radial_220_3391)"/>
<path d="M29.8045 27.4609C32.0317 25.2338 32.2008 21.7299 30.6243 19.1052C30.2136 18.4213 30.3958 17.5873 31.0519 17.1335C31.2038 17.0285 31.3412 16.9117 31.4527 16.7773C33.2402 14.6398 33.0678 11.4945 31.2303 9.39451C29.0303 6.88201 25.5084 6.60078 23.1834 8.92578C23.1575 8.95171 23.1314 8.97947 23.1051 9.0088C22.5708 9.60668 21.6831 9.77899 20.9956 9.36635C18.3647 7.78751 14.8417 7.93148 12.617 10.1562C11.3201 11.4531 10.6505 13.2787 10.6267 15.0315C10.6168 15.7642 10.1015 16.4509 9.44143 16.769C8.64302 17.1538 7.94158 17.7613 7.36308 18.3398C5.98808 19.7023 5.70293 21.382 6.01543 23.1445C6.41543 25.432 5.83659 27.7055 4.19909 29.3555C2.34909 31.2055 2.15108 33.884 4.32767 36.0606C6.17767 37.9106 9.06782 37.7289 10.9178 35.8789C12.5678 34.2289 15.0241 33.5453 17.3241 33.9453C18.6874 34.1824 20.61 33.8234 21.9725 32.4609C22.5377 31.8958 23.0716 31.2397 23.4327 30.5393C23.7507 29.9226 24.4063 29.4702 25.1002 29.4646C26.8063 29.4509 28.4892 28.7763 29.8045 27.4609Z" fill="url(#paint32_radial_220_3391)"/>
<path d="M29.8045 27.4609C32.0317 25.2338 32.2008 21.7299 30.6243 19.1052C30.2136 18.4213 30.3958 17.5873 31.0519 17.1335C31.2038 17.0285 31.3412 16.9117 31.4527 16.7773C33.2402 14.6398 33.0678 11.4945 31.2303 9.39451C29.0303 6.88201 25.5084 6.60078 23.1834 8.92578C23.1575 8.95171 23.1314 8.97947 23.1051 9.0088C22.5708 9.60668 21.6831 9.77899 20.9956 9.36635C18.3647 7.78751 14.8417 7.93148 12.617 10.1562C11.3201 11.4531 10.6505 13.2787 10.6267 15.0315C10.6168 15.7642 10.1015 16.4509 9.44143 16.769C8.64302 17.1538 7.94158 17.7613 7.36308 18.3398C5.98808 19.7023 5.70293 21.382 6.01543 23.1445C6.41543 25.432 5.83659 27.7055 4.19909 29.3555C2.34909 31.2055 2.15108 33.884 4.32767 36.0606C6.17767 37.9106 9.06782 37.7289 10.9178 35.8789C12.5678 34.2289 15.0241 33.5453 17.3241 33.9453C18.6874 34.1824 20.61 33.8234 21.9725 32.4609C22.5377 31.8958 23.0716 31.2397 23.4327 30.5393C23.7507 29.9226 24.4063 29.4702 25.1002 29.4646C26.8063 29.4509 28.4892 28.7763 29.8045 27.4609Z" fill="url(#paint33_radial_220_3391)"/>
<path d="M29.8045 27.4609C32.0317 25.2338 32.2008 21.7299 30.6243 19.1052C30.2136 18.4213 30.3958 17.5873 31.0519 17.1335C31.2038 17.0285 31.3412 16.9117 31.4527 16.7773C33.2402 14.6398 33.0678 11.4945 31.2303 9.39451C29.0303 6.88201 25.5084 6.60078 23.1834 8.92578C23.1575 8.95171 23.1314 8.97947 23.1051 9.0088C22.5708 9.60668 21.6831 9.77899 20.9956 9.36635C18.3647 7.78751 14.8417 7.93148 12.617 10.1562C11.3201 11.4531 10.6505 13.2787 10.6267 15.0315C10.6168 15.7642 10.1015 16.4509 9.44143 16.769C8.64302 17.1538 7.94158 17.7613 7.36308 18.3398C5.98808 19.7023 5.70293 21.382 6.01543 23.1445C6.41543 25.432 5.83659 27.7055 4.19909 29.3555C2.34909 31.2055 2.15108 33.884 4.32767 36.0606C6.17767 37.9106 9.06782 37.7289 10.9178 35.8789C12.5678 34.2289 15.0241 33.5453 17.3241 33.9453C18.6874 34.1824 20.61 33.8234 21.9725 32.4609C22.5377 31.8958 23.0716 31.2397 23.4327 30.5393C23.7507 29.9226 24.4063 29.4702 25.1002 29.4646C26.8063 29.4509 28.4892 28.7763 29.8045 27.4609Z" fill="url(#paint34_radial_220_3391)"/>
<path d="M29.8045 27.4609C32.0317 25.2338 32.2008 21.7299 30.6243 19.1052C30.2136 18.4213 30.3958 17.5873 31.0519 17.1335C31.2038 17.0285 31.3412 16.9117 31.4527 16.7773C33.2402 14.6398 33.0678 11.4945 31.2303 9.39451C29.0303 6.88201 25.5084 6.60078 23.1834 8.92578C23.1575 8.95171 23.1314 8.97947 23.1051 9.0088C22.5708 9.60668 21.6831 9.77899 20.9956 9.36635C18.3647 7.78751 14.8417 7.93148 12.617 10.1562C11.3201 11.4531 10.6505 13.2787 10.6267 15.0315C10.6168 15.7642 10.1015 16.4509 9.44143 16.769C8.64302 17.1538 7.94158 17.7613 7.36308 18.3398C5.98808 19.7023 5.70293 21.382 6.01543 23.1445C6.41543 25.432 5.83659 27.7055 4.19909 29.3555C2.34909 31.2055 2.15108 33.884 4.32767 36.0606C6.17767 37.9106 9.06782 37.7289 10.9178 35.8789C12.5678 34.2289 15.0241 33.5453 17.3241 33.9453C18.6874 34.1824 20.61 33.8234 21.9725 32.4609C22.5377 31.8958 23.0716 31.2397 23.4327 30.5393C23.7507 29.9226 24.4063 29.4702 25.1002 29.4646C26.8063 29.4509 28.4892 28.7763 29.8045 27.4609Z" fill="url(#paint35_radial_220_3391)"/>
<path d="M29.8045 27.4609C32.0317 25.2338 32.2008 21.7299 30.6243 19.1052C30.2136 18.4213 30.3958 17.5873 31.0519 17.1335C31.2038 17.0285 31.3412 16.9117 31.4527 16.7773C33.2402 14.6398 33.0678 11.4945 31.2303 9.39451C29.0303 6.88201 25.5084 6.60078 23.1834 8.92578C23.1575 8.95171 23.1314 8.97947 23.1051 9.0088C22.5708 9.60668 21.6831 9.77899 20.9956 9.36635C18.3647 7.78751 14.8417 7.93148 12.617 10.1562C11.3201 11.4531 10.6505 13.2787 10.6267 15.0315C10.6168 15.7642 10.1015 16.4509 9.44143 16.769C8.64302 17.1538 7.94158 17.7613 7.36308 18.3398C5.98808 19.7023 5.70293 21.382 6.01543 23.1445C6.41543 25.432 5.83659 27.7055 4.19909 29.3555C2.34909 31.2055 2.15108 33.884 4.32767 36.0606C6.17767 37.9106 9.06782 37.7289 10.9178 35.8789C12.5678 34.2289 15.0241 33.5453 17.3241 33.9453C18.6874 34.1824 20.61 33.8234 21.9725 32.4609C22.5377 31.8958 23.0716 31.2397 23.4327 30.5393C23.7507 29.9226 24.4063 29.4702 25.1002 29.4646C26.8063 29.4509 28.4892 28.7763 29.8045 27.4609Z" fill="url(#paint36_radial_220_3391)"/>
<path d="M29.8045 27.4609C32.0317 25.2338 32.2008 21.7299 30.6243 19.1052C30.2136 18.4213 30.3958 17.5873 31.0519 17.1335C31.2038 17.0285 31.3412 16.9117 31.4527 16.7773C33.2402 14.6398 33.0678 11.4945 31.2303 9.39451C29.0303 6.88201 25.5084 6.60078 23.1834 8.92578C23.1575 8.95171 23.1314 8.97947 23.1051 9.0088C22.5708 9.60668 21.6831 9.77899 20.9956 9.36635C18.3647 7.78751 14.8417 7.93148 12.617 10.1562C11.3201 11.4531 10.6505 13.2787 10.6267 15.0315C10.6168 15.7642 10.1015 16.4509 9.44143 16.769C8.64302 17.1538 7.94158 17.7613 7.36308 18.3398C5.98808 19.7023 5.70293 21.382 6.01543 23.1445C6.41543 25.432 5.83659 27.7055 4.19909 29.3555C2.34909 31.2055 2.15108 33.884 4.32767 36.0606C6.17767 37.9106 9.06782 37.7289 10.9178 35.8789C12.5678 34.2289 15.0241 33.5453 17.3241 33.9453C18.6874 34.1824 20.61 33.8234 21.9725 32.4609C22.5377 31.8958 23.0716 31.2397 23.4327 30.5393C23.7507 29.9226 24.4063 29.4702 25.1002 29.4646C26.8063 29.4509 28.4892 28.7763 29.8045 27.4609Z" fill="url(#paint37_radial_220_3391)"/>
<path d="M29.8045 27.4609C32.0317 25.2338 32.2008 21.7299 30.6243 19.1052C30.2136 18.4213 30.3958 17.5873 31.0519 17.1335C31.2038 17.0285 31.3412 16.9117 31.4527 16.7773C33.2402 14.6398 33.0678 11.4945 31.2303 9.39451C29.0303 6.88201 25.5084 6.60078 23.1834 8.92578C23.1575 8.95171 23.1314 8.97947 23.1051 9.0088C22.5708 9.60668 21.6831 9.77899 20.9956 9.36635C18.3647 7.78751 14.8417 7.93148 12.617 10.1562C11.3201 11.4531 10.6505 13.2787 10.6267 15.0315C10.6168 15.7642 10.1015 16.4509 9.44143 16.769C8.64302 17.1538 7.94158 17.7613 7.36308 18.3398C5.98808 19.7023 5.70293 21.382 6.01543 23.1445C6.41543 25.432 5.83659 27.7055 4.19909 29.3555C2.34909 31.2055 2.15108 33.884 4.32767 36.0606C6.17767 37.9106 9.06782 37.7289 10.9178 35.8789C12.5678 34.2289 15.0241 33.5453 17.3241 33.9453C18.6874 34.1824 20.61 33.8234 21.9725 32.4609C22.5377 31.8958 23.0716 31.2397 23.4327 30.5393C23.7507 29.9226 24.4063 29.4702 25.1002 29.4646C26.8063 29.4509 28.4892 28.7763 29.8045 27.4609Z" fill="url(#paint38_radial_220_3391)"/>
<path d="M29.8045 27.4609C32.0317 25.2338 32.2008 21.7299 30.6243 19.1052C30.2136 18.4213 30.3958 17.5873 31.0519 17.1335C31.2038 17.0285 31.3412 16.9117 31.4527 16.7773C33.2402 14.6398 33.0678 11.4945 31.2303 9.39451C29.0303 6.88201 25.5084 6.60078 23.1834 8.92578C23.1575 8.95171 23.1314 8.97947 23.1051 9.0088C22.5708 9.60668 21.6831 9.77899 20.9956 9.36635C18.3647 7.78751 14.8417 7.93148 12.617 10.1562C11.3201 11.4531 10.6505 13.2787 10.6267 15.0315C10.6168 15.7642 10.1015 16.4509 9.44143 16.769C8.64302 17.1538 7.94158 17.7613 7.36308 18.3398C5.98808 19.7023 5.70293 21.382 6.01543 23.1445C6.41543 25.432 5.83659 27.7055 4.19909 29.3555C2.34909 31.2055 2.15108 33.884 4.32767 36.0606C6.17767 37.9106 9.06782 37.7289 10.9178 35.8789C12.5678 34.2289 15.0241 33.5453 17.3241 33.9453C18.6874 34.1824 20.61 33.8234 21.9725 32.4609C22.5377 31.8958 23.0716 31.2397 23.4327 30.5393C23.7507 29.9226 24.4063 29.4702 25.1002 29.4646C26.8063 29.4509 28.4892 28.7763 29.8045 27.4609Z" fill="url(#paint39_radial_220_3391)"/>
<path d="M29.8045 27.4609C32.0317 25.2338 32.2008 21.7299 30.6243 19.1052C30.2136 18.4213 30.3958 17.5873 31.0519 17.1335C31.2038 17.0285 31.3412 16.9117 31.4527 16.7773C33.2402 14.6398 33.0678 11.4945 31.2303 9.39451C29.0303 6.88201 25.5084 6.60078 23.1834 8.92578C23.1575 8.95171 23.1314 8.97947 23.1051 9.0088C22.5708 9.60668 21.6831 9.77899 20.9956 9.36635C18.3647 7.78751 14.8417 7.93148 12.617 10.1562C11.3201 11.4531 10.6505 13.2787 10.6267 15.0315C10.6168 15.7642 10.1015 16.4509 9.44143 16.769C8.64302 17.1538 7.94158 17.7613 7.36308 18.3398C5.98808 19.7023 5.70293 21.382 6.01543 23.1445C6.41543 25.432 5.83659 27.7055 4.19909 29.3555C2.34909 31.2055 2.15108 33.884 4.32767 36.0606C6.17767 37.9106 9.06782 37.7289 10.9178 35.8789C12.5678 34.2289 15.0241 33.5453 17.3241 33.9453C18.6874 34.1824 20.61 33.8234 21.9725 32.4609C22.5377 31.8958 23.0716 31.2397 23.4327 30.5393C23.7507 29.9226 24.4063 29.4702 25.1002 29.4646C26.8063 29.4509 28.4892 28.7763 29.8045 27.4609Z" fill="url(#paint40_radial_220_3391)"/>
<path d="M29.8045 27.4609C32.0317 25.2338 32.2008 21.7299 30.6243 19.1052C30.2136 18.4213 30.3958 17.5873 31.0519 17.1335C31.2038 17.0285 31.3412 16.9117 31.4527 16.7773C33.2402 14.6398 33.0678 11.4945 31.2303 9.39451C29.0303 6.88201 25.5084 6.60078 23.1834 8.92578C23.1575 8.95171 23.1314 8.97947 23.1051 9.0088C22.5708 9.60668 21.6831 9.77899 20.9956 9.36635C18.3647 7.78751 14.8417 7.93148 12.617 10.1562C11.3201 11.4531 10.6505 13.2787 10.6267 15.0315C10.6168 15.7642 10.1015 16.4509 9.44143 16.769C8.64302 17.1538 7.94158 17.7613 7.36308 18.3398C5.98808 19.7023 5.70293 21.382 6.01543 23.1445C6.41543 25.432 5.83659 27.7055 4.19909 29.3555C2.34909 31.2055 2.15108 33.884 4.32767 36.0606C6.17767 37.9106 9.06782 37.7289 10.9178 35.8789C12.5678 34.2289 15.0241 33.5453 17.3241 33.9453C18.6874 34.1824 20.61 33.8234 21.9725 32.4609C22.5377 31.8958 23.0716 31.2397 23.4327 30.5393C23.7507 29.9226 24.4063 29.4702 25.1002 29.4646C26.8063 29.4509 28.4892 28.7763 29.8045 27.4609Z" fill="url(#paint41_radial_220_3391)"/>
<path fill-rule="evenodd" clip-rule="evenodd" d="M17.2838 14.2022C17.6958 14.0743 18.1336 14.3046 18.2616 14.7166L19.7529 19.5186L24.8756 14.3959C25.1807 14.0908 25.6753 14.0908 25.9804 14.3959C26.2855 14.701 26.2855 15.1957 25.9804 15.5008L20.8583 20.6229L25.6717 22.1146C26.0839 22.2423 26.3144 22.68 26.1867 23.0921C26.059 23.5043 25.6213 23.7348 25.2092 23.6071L19.6096 21.8717L14.7829 26.6983L18.0971 27.7272C18.5092 27.8551 18.7395 28.2929 18.6116 28.705C18.4837 29.117 18.0459 29.3474 17.6339 29.2195L13.5344 27.9468L10.8179 30.6633C10.5128 30.9684 10.0182 30.9684 9.71308 30.6633C9.40798 30.3582 9.40798 29.8635 9.71308 29.5584L12.4295 26.842L11.1569 22.7424C11.0289 22.3304 11.2593 21.8926 11.6714 21.7647C12.0834 21.6368 12.5212 21.8671 12.6491 22.2792L13.678 25.5935L18.5045 20.767L16.7694 15.18C16.6414 14.768 16.8717 14.3302 17.2838 14.2022Z" fill="url(#paint42_linear_220_3391)"/>
<path fill-rule="evenodd" clip-rule="evenodd" d="M17.2838 14.2022C17.6958 14.0743 18.1336 14.3046 18.2616 14.7166L19.7529 19.5186L24.8756 14.3959C25.1807 14.0908 25.6753 14.0908 25.9804 14.3959C26.2855 14.701 26.2855 15.1957 25.9804 15.5008L20.8583 20.6229L25.6717 22.1146C26.0839 22.2423 26.3144 22.68 26.1867 23.0921C26.059 23.5043 25.6213 23.7348 25.2092 23.6071L19.6096 21.8717L14.7829 26.6983L18.0971 27.7272C18.5092 27.8551 18.7395 28.2929 18.6116 28.705C18.4837 29.117 18.0459 29.3474 17.6339 29.2195L13.5344 27.9468L10.8179 30.6633C10.5128 30.9684 10.0182 30.9684 9.71308 30.6633C9.40798 30.3582 9.40798 29.8635 9.71308 29.5584L12.4295 26.842L11.1569 22.7424C11.0289 22.3304 11.2593 21.8926 11.6714 21.7647C12.0834 21.6368 12.5212 21.8671 12.6491 22.2792L13.678 25.5935L18.5045 20.767L16.7694 15.18C16.6414 14.768 16.8717 14.3302 17.2838 14.2022Z" fill="url(#paint43_radial_220_3391)"/>
<path fill-rule="evenodd" clip-rule="evenodd" d="M17.2838 14.2022C17.6958 14.0743 18.1336 14.3046 18.2616 14.7166L19.7529 19.5186L24.8756 14.3959C25.1807 14.0908 25.6753 14.0908 25.9804 14.3959C26.2855 14.701 26.2855 15.1957 25.9804 15.5008L20.8583 20.6229L25.6717 22.1146C26.0839 22.2423 26.3144 22.68 26.1867 23.0921C26.059 23.5043 25.6213 23.7348 25.2092 23.6071L19.6096 21.8717L14.7829 26.6983L18.0971 27.7272C18.5092 27.8551 18.7395 28.2929 18.6116 28.705C18.4837 29.117 18.0459 29.3474 17.6339 29.2195L13.5344 27.9468L10.8179 30.6633C10.5128 30.9684 10.0182 30.9684 9.71308 30.6633C9.40798 30.3582 9.40798 29.8635 9.71308 29.5584L12.4295 26.842L11.1569 22.7424C11.0289 22.3304 11.2593 21.8926 11.6714 21.7647C12.0834 21.6368 12.5212 21.8671 12.6491 22.2792L13.678 25.5935L18.5045 20.767L16.7694 15.18C16.6414 14.768 16.8717 14.3302 17.2838 14.2022Z" fill="url(#paint44_radial_220_3391)"/>
<path fill-rule="evenodd" clip-rule="evenodd" d="M17.2838 14.2022C17.6958 14.0743 18.1336 14.3046 18.2616 14.7166L19.7529 19.5186L24.8756 14.3959C25.1807 14.0908 25.6753 14.0908 25.9804 14.3959C26.2855 14.701 26.2855 15.1957 25.9804 15.5008L20.8583 20.6229L25.6717 22.1146C26.0839 22.2423 26.3144 22.68 26.1867 23.0921C26.059 23.5043 25.6213 23.7348 25.2092 23.6071L19.6096 21.8717L14.7829 26.6983L18.0971 27.7272C18.5092 27.8551 18.7395 28.2929 18.6116 28.705C18.4837 29.117 18.0459 29.3474 17.6339 29.2195L13.5344 27.9468L10.8179 30.6633C10.5128 30.9684 10.0182 30.9684 9.71308 30.6633C9.40798 30.3582 9.40798 29.8635 9.71308 29.5584L12.4295 26.842L11.1569 22.7424C11.0289 22.3304 11.2593 21.8926 11.6714 21.7647C12.0834 21.6368 12.5212 21.8671 12.6491 22.2792L13.678 25.5935L18.5045 20.767L16.7694 15.18C16.6414 14.768 16.8717 14.3302 17.2838 14.2022Z" fill="url(#paint45_radial_220_3391)"/>
<path fill-rule="evenodd" clip-rule="evenodd" d="M17.2838 14.2022C17.6958 14.0743 18.1336 14.3046 18.2616 14.7166L19.7529 19.5186L24.8756 14.3959C25.1807 14.0908 25.6753 14.0908 25.9804 14.3959C26.2855 14.701 26.2855 15.1957 25.9804 15.5008L20.8583 20.6229L25.6717 22.1146C26.0839 22.2423 26.3144 22.68 26.1867 23.0921C26.059 23.5043 25.6213 23.7348 25.2092 23.6071L19.6096 21.8717L14.7829 26.6983L18.0971 27.7272C18.5092 27.8551 18.7395 28.2929 18.6116 28.705C18.4837 29.117 18.0459 29.3474 17.6339 29.2195L13.5344 27.9468L10.8179 30.6633C10.5128 30.9684 10.0182 30.9684 9.71308 30.6633C9.40798 30.3582 9.40798 29.8635 9.71308 29.5584L12.4295 26.842L11.1569 22.7424C11.0289 22.3304 11.2593 21.8926 11.6714 21.7647C12.0834 21.6368 12.5212 21.8671 12.6491 22.2792L13.678 25.5935L18.5045 20.767L16.7694 15.18C16.6414 14.768 16.8717 14.3302 17.2838 14.2022Z" fill="url(#paint46_radial_220_3391)"/>
<defs>
<linearGradient id="paint0_linear_220_3391" x1="35.3127" y1="17.7344" x2="13.5939" y2="36.2501" gradientUnits="userSpaceOnUse">
<stop stop-color="#4B7916"/>
<stop offset="0.16529" stop-color="#4C4954"/>
<stop offset="0.242505" stop-color="#4C771D"/>
<stop offset="0.464246" stop-color="#524C55"/>
<stop offset="0.575367" stop-color="#605A62"/>
<stop offset="1" stop-color="#574D55"/>
</linearGradient>
<radialGradient id="paint1_radial_220_3391" cx="0" cy="0" r="1" gradientUnits="userSpaceOnUse" gradientTransform="translate(32.3047 19.0234) rotate(-7.68786) scale(5.25598)">
<stop offset="0.668303" stop-color="#77A458" stop-opacity="0.9"/>
<stop offset="0.949489" stop-color="#77A458" stop-opacity="0"/>
</radialGradient>
<radialGradient id="paint2_radial_220_3391" cx="0" cy="0" r="1" gradientUnits="userSpaceOnUse" gradientTransform="translate(27.6172 26.1719) rotate(11.5203) scale(6.25891 6.25891)">
<stop offset="0.837385" stop-color="#77A458" stop-opacity="0.7"/>
<stop offset="0.949489" stop-color="#77A458" stop-opacity="0"/>
</radialGradient>
<radialGradient id="paint3_radial_220_3391" cx="0" cy="0" r="1" gradientUnits="userSpaceOnUse" gradientTransform="translate(26.8103 27.6293) rotate(43.7914) scale(7.22507 6.86741)">
<stop offset="0.817708" stop-color="#5A853F"/>
<stop offset="0.949489" stop-color="#5A853F" stop-opacity="0"/>
</radialGradient>
<radialGradient id="paint4_radial_220_3391" cx="0" cy="0" r="1" gradientUnits="userSpaceOnUse" gradientTransform="translate(31.7241 19.5259) rotate(-26.565) scale(5.49379)">
<stop offset="0.796875" stop-color="#5A853F"/>
<stop offset="0.949489" stop-color="#5A853F" stop-opacity="0"/>
</radialGradient>
<radialGradient id="paint5_radial_220_3391" cx="0" cy="0" r="1" gradientUnits="userSpaceOnUse" gradientTransform="translate(18.944 31.3578) rotate(75.7597) scale(5.87003)">
<stop offset="0.807292" stop-color="#5A853F"/>
<stop offset="0.949489" stop-color="#5A853F" stop-opacity="0"/>
</radialGradient>
<radialGradient id="paint6_radial_220_3391" cx="0" cy="0" r="1" gradientUnits="userSpaceOnUse" gradientTransform="translate(13.3984 31.3672) rotate(94.844) scale(4.6259 8.15672)">
<stop offset="0.758857" stop-color="#5A853F"/>
<stop offset="0.949489" stop-color="#5A853F" stop-opacity="0"/>
</radialGradient>
<radialGradient id="paint7_radial_220_3391" cx="0" cy="0" r="1" gradientUnits="userSpaceOnUse" gradientTransform="translate(14.4528 30.8971) rotate(41.001) scale(10.9111)">
<stop stop-opacity="0.7"/>
<stop offset="0.949489" stop-opacity="0"/>
</radialGradient>
<radialGradient id="paint8_radial_220_3391" cx="0" cy="0" r="1" gradientUnits="userSpaceOnUse" gradientTransform="translate(18.0086 28.2302) rotate(63.7497) scale(7.61644)">
<stop/>
<stop offset="0.949489" stop-opacity="0"/>
</radialGradient>
<radialGradient id="paint9_radial_220_3391" cx="0" cy="0" r="1" gradientUnits="userSpaceOnUse" gradientTransform="translate(24.8864 23.1304) rotate(27.3874) scale(8.74712)">
<stop/>
<stop offset="0.949489" stop-opacity="0"/>
</radialGradient>
<radialGradient id="paint10_radial_220_3391" cx="0" cy="0" r="1" gradientUnits="userSpaceOnUse" gradientTransform="translate(26.945 15.7848) rotate(-10.9391) scale(5.67074)">
<stop/>
<stop offset="0.949489" stop-opacity="0"/>
</radialGradient>
<radialGradient id="paint11_radial_220_3391" cx="0" cy="0" r="1" gradientUnits="userSpaceOnUse" gradientTransform="translate(11.4062 12.0508) rotate(-133.713) scale(4.91784 6.97667)">
<stop offset="0.837385" stop-color="#77A458" stop-opacity="0.9"/>
<stop offset="0.949489" stop-color="#77A458" stop-opacity="0"/>
</radialGradient>
<radialGradient id="paint12_radial_220_3391" cx="0" cy="0" r="1" gradientUnits="userSpaceOnUse" gradientTransform="translate(7.8125 22.3047) rotate(-141.411) scale(4.94754 4.21902)">
<stop offset="0.837385" stop-color="#77A458" stop-opacity="0.7"/>
<stop offset="0.949489" stop-color="#77A458" stop-opacity="0"/>
</radialGradient>
<radialGradient id="paint13_radial_220_3391" cx="0" cy="0" r="1" gradientUnits="userSpaceOnUse" gradientTransform="translate(8.71094 26.3672) rotate(-180) scale(4.84375 3.29621)">
<stop offset="0.837385" stop-color="#77A458" stop-opacity="0.7"/>
<stop offset="0.949489" stop-color="#77A458" stop-opacity="0"/>
</radialGradient>
<radialGradient id="paint14_radial_220_3391" cx="0" cy="0" r="1" gradientUnits="userSpaceOnUse" gradientTransform="translate(21.1328 8.28125) rotate(-82.2164) scale(5.48018)">
<stop offset="0.75" stop-color="#77A458" stop-opacity="0.9"/>
<stop offset="0.949489" stop-color="#77A458" stop-opacity="0"/>
</radialGradient>
<radialGradient id="paint15_radial_220_3391" cx="0" cy="0" r="1" gradientUnits="userSpaceOnUse" gradientTransform="translate(12.4023 13.457) rotate(-129.651) scale(7.40716 6.90699)">
<stop offset="0.828125" stop-color="#5A853F"/>
<stop offset="0.916667" stop-color="#5A853F" stop-opacity="0"/>
</radialGradient>
<radialGradient id="paint16_radial_220_3391" cx="0" cy="0" r="1" gradientUnits="userSpaceOnUse" gradientTransform="translate(20.3125 8.90625) rotate(-83.1857) scale(6.25513 5.91368)">
<stop offset="0.755208" stop-color="#5A853F"/>
<stop offset="0.9375" stop-color="#5A853F" stop-opacity="0"/>
</radialGradient>
<radialGradient id="paint17_radial_220_3391" cx="0" cy="0" r="1" gradientUnits="userSpaceOnUse" gradientTransform="translate(9.57031 21.25) rotate(-166.777) scale(6.50048 6.50048)">
<stop offset="0.837385" stop-color="#5A853F"/>
<stop offset="0.949489" stop-color="#5A853F" stop-opacity="0"/>
</radialGradient>
<radialGradient id="paint18_radial_220_3391" cx="0" cy="0" r="1" gradientUnits="userSpaceOnUse" gradientTransform="translate(8.94531 26.5234) rotate(159.286) scale(4.9697)">
<stop offset="0.758857" stop-color="#5A853F"/>
<stop offset="0.949489" stop-color="#5A853F" stop-opacity="0"/>
</radialGradient>
<radialGradient id="paint19_radial_220_3391" cx="0" cy="0" r="1" gradientUnits="userSpaceOnUse" gradientTransform="translate(22.4219 12.5781) rotate(-65.0952) scale(4.82355)">
<stop/>
<stop offset="0.949489" stop-opacity="0"/>
</radialGradient>
<radialGradient id="paint20_radial_220_3391" cx="0" cy="0" r="1" gradientUnits="userSpaceOnUse" gradientTransform="translate(9.21875 28.9063) rotate(168.906) scale(8.12049 11.0022)">
<stop stop-opacity="0.7"/>
<stop offset="0.949489" stop-opacity="0"/>
</radialGradient>
<radialGradient id="paint21_radial_220_3391" cx="0" cy="0" r="1" gradientUnits="userSpaceOnUse" gradientTransform="translate(16.25 13.75) rotate(61.9559) scale(6.81297 7.98035)">
<stop offset="0.0670599"/>
<stop offset="0.949489" stop-opacity="0"/>
</radialGradient>
<radialGradient id="paint22_radial_220_3391" cx="0" cy="0" r="1" gradientUnits="userSpaceOnUse" gradientTransform="translate(10.7812 21.25) rotate(-138.945) scale(6.42338)">
<stop/>
<stop offset="0.949489" stop-opacity="0"/>
</radialGradient>
<linearGradient id="paint23_linear_220_3391" x1="5.07797" y1="32.9688" x2="28.7498" y2="9.29687" gradientUnits="userSpaceOnUse">
<stop stop-color="#88AD37"/>
<stop offset="0.419142" stop-color="#70A124"/>
<stop offset="0.536304" stop-color="#71A520" stop-opacity="0.9983"/>
<stop offset="0.778878" stop-color="#89BF21"/>
<stop offset="1" stop-color="#89C031"/>
</linearGradient>
<radialGradient id="paint24_radial_220_3391" cx="0" cy="0" r="1" gradientUnits="userSpaceOnUse" gradientTransform="translate(26.875 13.0469) rotate(134.438) scale(5.63503 5.33256)">
<stop offset="0.869053" stop-color="#D4FF9C"/>
<stop offset="1" stop-color="#D4FF9C" stop-opacity="0"/>
</radialGradient>
<radialGradient id="paint25_radial_220_3391" cx="0" cy="0" r="1" gradientUnits="userSpaceOnUse" gradientTransform="translate(17.7292 14.9609) rotate(20.8865) scale(6.02618 6.17944)">
<stop offset="0.880229" stop-color="#D4FF9C"/>
<stop offset="1" stop-color="#D4FF9C" stop-opacity="0"/>
</radialGradient>
<radialGradient id="paint26_radial_220_3391" cx="0" cy="0" r="1" gradientUnits="userSpaceOnUse" gradientTransform="translate(24.4531 20.9766) rotate(-6.30161) scale(6.40589 6.56882)">
<stop offset="0.916447" stop-color="#D4FF9C"/>
<stop offset="1" stop-color="#D4FF9C" stop-opacity="0"/>
</radialGradient>
<radialGradient id="paint27_radial_220_3391" cx="0" cy="0" r="1" gradientUnits="userSpaceOnUse" gradientTransform="translate(24.7266 24.6094) rotate(54.2933) scale(4.61814 4.73559)">
<stop offset="0.888739" stop-color="#96AA61"/>
<stop offset="1" stop-color="#96AA61" stop-opacity="0"/>
</radialGradient>
<radialGradient id="paint28_radial_220_3391" cx="0" cy="0" r="1" gradientUnits="userSpaceOnUse" gradientTransform="translate(26.875 13.0469) rotate(133.135) scale(5.94174 5.64143)">
<stop offset="0.687686" stop-color="#8CBC3D"/>
<stop offset="0.839496" stop-color="#8CBC3D" stop-opacity="0.585581"/>
<stop offset="1" stop-color="#8CBC3D" stop-opacity="0"/>
</radialGradient>
<radialGradient id="paint29_radial_220_3391" cx="0" cy="0" r="1" gradientUnits="userSpaceOnUse" gradientTransform="translate(26.875 13.0469) rotate(132.414) scale(4.28567 7.28853)">
<stop offset="0.687686" stop-color="#8CBC3D"/>
<stop offset="0.839496" stop-color="#8CBC3D" stop-opacity="0.585581"/>
<stop offset="1" stop-color="#8CBC3D" stop-opacity="0"/>
</radialGradient>
<radialGradient id="paint30_radial_220_3391" cx="0" cy="0" r="1" gradientUnits="userSpaceOnUse" gradientTransform="translate(17.0313 14.375) rotate(58.183) scale(6.29791 6.28243)">
<stop offset="0.724463" stop-color="#8CBC3D"/>
<stop offset="0.839056" stop-color="#8CBC3D" stop-opacity="0.597187"/>
<stop offset="1" stop-color="#8CBC3D" stop-opacity="0"/>
</radialGradient>
<radialGradient id="paint31_radial_220_3391" cx="0" cy="0" r="1" gradientUnits="userSpaceOnUse" gradientTransform="translate(24.7266 22.5781) rotate(-168.69) scale(7.36968 7.35155)">
<stop offset="0.724463" stop-color="#8CBC3D"/>
<stop offset="0.839056" stop-color="#8CBC3D" stop-opacity="0.597187"/>
<stop offset="1" stop-color="#8CBC3D" stop-opacity="0"/>
</radialGradient>
<radialGradient id="paint32_radial_220_3391" cx="0" cy="0" r="1" gradientUnits="userSpaceOnUse" gradientTransform="translate(17.7292 27.6953) rotate(-92.0002) scale(6.5665 6.55035)">
<stop offset="0.724463" stop-color="#8CBC3D"/>
<stop offset="0.839056" stop-color="#8CBC3D" stop-opacity="0.597187"/>
<stop offset="1" stop-color="#8CBC3D" stop-opacity="0"/>
</radialGradient>
<radialGradient id="paint33_radial_220_3391" cx="0" cy="0" r="1" gradientUnits="userSpaceOnUse" gradientTransform="translate(11.6406 22.1094) rotate(-9.46232) scale(5.9402 5.92559)">
<stop offset="0.724463" stop-color="#8CBC3D"/>
<stop offset="0.839056" stop-color="#8CBC3D" stop-opacity="0.597187"/>
<stop offset="1" stop-color="#8CBC3D" stop-opacity="0"/>
</radialGradient>
<radialGradient id="paint34_radial_220_3391" cx="0" cy="0" r="1" gradientUnits="userSpaceOnUse" gradientTransform="translate(7.5 32.6172) rotate(-45) scale(4.75087 4.73919)">
<stop offset="0.724463" stop-color="#8CBC3D"/>
<stop offset="0.839056" stop-color="#8CBC3D" stop-opacity="0.597187"/>
<stop offset="1" stop-color="#8CBC3D" stop-opacity="0"/>
</radialGradient>
<radialGradient id="paint35_radial_220_3391" cx="0" cy="0" r="1" gradientUnits="userSpaceOnUse" gradientTransform="translate(9.02344 29.4141) rotate(5.82636) scale(3.848 6.15818)">
<stop offset="0.683594" stop-color="#8CBC3D"/>
<stop offset="1" stop-color="#8CBC3D" stop-opacity="0"/>
</radialGradient>
<radialGradient id="paint36_radial_220_3391" cx="0" cy="0" r="1" gradientUnits="userSpaceOnUse" gradientTransform="translate(10 24.8047) rotate(5.19443) scale(3.88313 6.2144)">
<stop offset="0.683594" stop-color="#8CBC3D"/>
<stop offset="1" stop-color="#8CBC3D" stop-opacity="0"/>
</radialGradient>
<radialGradient id="paint37_radial_220_3391" cx="0" cy="0" r="1" gradientUnits="userSpaceOnUse" gradientTransform="translate(11.5234 31.875) rotate(-122.005) scale(2.57961 4.12829)">
<stop offset="0.683594" stop-color="#8CBC3D"/>
<stop offset="1" stop-color="#8CBC3D" stop-opacity="0"/>
</radialGradient>
<radialGradient id="paint38_radial_220_3391" cx="0" cy="0" r="1" gradientUnits="userSpaceOnUse" gradientTransform="translate(14.375 30.5469) rotate(-95.3145) scale(3.37388 5.39941)">
<stop offset="0.683594" stop-color="#8CBC3D"/>
<stop offset="1" stop-color="#8CBC3D" stop-opacity="0"/>
</radialGradient>
<radialGradient id="paint39_radial_220_3391" cx="0" cy="0" r="1" gradientUnits="userSpaceOnUse" gradientTransform="translate(20.0781 19.8047) rotate(135.554) scale(11.4358 8.95104)">
<stop offset="0.683594" stop-color="#8CBC3D"/>
<stop offset="1" stop-color="#8CBC3D" stop-opacity="0"/>
</radialGradient>
<radialGradient id="paint40_radial_220_3391" cx="0" cy="0" r="1" gradientUnits="userSpaceOnUse" gradientTransform="translate(14.375 18.125) rotate(-155.136) scale(3.53035 4.89099)">
<stop offset="0.676751" stop-color="#8CBC3D"/>
<stop offset="1" stop-color="#8CBC3D" stop-opacity="0"/>
</radialGradient>
<radialGradient id="paint41_radial_220_3391" cx="0" cy="0" r="1" gradientUnits="userSpaceOnUse" gradientTransform="translate(20.9766 13.0078) rotate(-87.6467) scale(2.85397 4.74717)">
<stop offset="0.676751" stop-color="#8CBC3D"/>
<stop offset="1" stop-color="#8CBC3D" stop-opacity="0"/>
</radialGradient>
<linearGradient id="paint42_linear_220_3391" x1="13.672" y1="17.1486" x2="20.4298" y2="26.7189" gradientUnits="userSpaceOnUse">
<stop stop-color="#457328"/>
<stop offset="1" stop-color="#46772A"/>
</linearGradient>
<radialGradient id="paint43_radial_220_3391" cx="0" cy="0" r="1" gradientUnits="userSpaceOnUse" gradientTransform="translate(23.9527 16.4609) rotate(134.39) scale(6.09662 0.89652)">
<stop stop-color="#5C8141"/>
<stop offset="1" stop-color="#5C8141" stop-opacity="0"/>
</radialGradient>
<radialGradient id="paint44_radial_220_3391" cx="0" cy="0" r="1" gradientUnits="userSpaceOnUse" gradientTransform="translate(13.4053 27.0084) rotate(-45.3312) scale(5.60996 0.824957)">
<stop stop-color="#5C8141"/>
<stop offset="1" stop-color="#5C8141" stop-opacity="0"/>
</radialGradient>
<radialGradient id="paint45_radial_220_3391" cx="0" cy="0" r="1" gradientUnits="userSpaceOnUse" gradientTransform="translate(13.4053 27.0084) rotate(-107.496) scale(4.42364 0.650505)">
<stop stop-color="#5C8141"/>
<stop offset="1" stop-color="#5C8141" stop-opacity="0"/>
</radialGradient>
<radialGradient id="paint46_radial_220_3391" cx="0" cy="0" r="1" gradientUnits="userSpaceOnUse" gradientTransform="translate(13.4053 27.0084) rotate(18.2459) scale(4.39407 0.646157)">
<stop stop-color="#5C8141"/>
<stop offset="1" stop-color="#5C8141" stop-opacity="0"/>
</radialGradient>
</defs>
</svg>
