<svg width="32" height="32" viewBox="0 0 32 32" fill="none" xmlns="http://www.w3.org/2000/svg">
<path d="M24.4624 27.1286C26.8479 25.8012 27.829 22.9316 26.8779 20.4552C26.7635 20.1571 26.9154 19.8105 27.2101 19.6876C27.4893 19.5712 27.7628 19.4256 28.0224 19.2486C29.8724 17.9886 30.5324 15.5386 29.5724 13.5186C28.4224 11.0986 25.5024 10.1986 23.2024 11.4786C22.8624 11.6686 22.5624 11.8886 22.2924 12.1486C20.8024 9.63859 17.5724 8.74859 15.0024 10.1886C13.3824 11.0886 12.4124 12.7086 12.2524 14.4186C11.3424 14.3186 10.3824 14.4886 9.52237 14.9686C8.17237 15.7186 7.35237 17.0586 7.20237 18.4886C7.00237 20.3386 5.96237 21.9986 4.33237 22.9086C2.50237 23.9286 1.85237 26.2386 2.87237 28.0686C3.89237 29.8986 6.20237 30.5486 8.03237 29.5286C9.65237 28.6186 11.6124 28.6086 13.2924 29.4086C14.5924 30.0286 16.1624 30.0386 17.5124 29.2786C18.2123 28.8879 18.7732 28.3382 19.168 27.6943C19.3158 27.4532 19.6211 27.3469 19.8846 27.4495C21.328 28.0115 23.0045 27.9385 24.4624 27.1286Z" fill="url(#paint0_linear_210_2462)"/>
<path d="M24.4624 27.1286C26.8479 25.8012 27.829 22.9316 26.8779 20.4552C26.7635 20.1571 26.9154 19.8105 27.2101 19.6876C27.4893 19.5712 27.7628 19.4256 28.0224 19.2486C29.8724 17.9886 30.5324 15.5386 29.5724 13.5186C28.4224 11.0986 25.5024 10.1986 23.2024 11.4786C22.8624 11.6686 22.5624 11.8886 22.2924 12.1486C20.8024 9.63859 17.5724 8.74859 15.0024 10.1886C13.3824 11.0886 12.4124 12.7086 12.2524 14.4186C11.3424 14.3186 10.3824 14.4886 9.52237 14.9686C8.17237 15.7186 7.35237 17.0586 7.20237 18.4886C7.00237 20.3386 5.96237 21.9986 4.33237 22.9086C2.50237 23.9286 1.85237 26.2386 2.87237 28.0686C3.89237 29.8986 6.20237 30.5486 8.03237 29.5286C9.65237 28.6186 11.6124 28.6086 13.2924 29.4086C14.5924 30.0286 16.1624 30.0386 17.5124 29.2786C18.2123 28.8879 18.7732 28.3382 19.168 27.6943C19.3158 27.4532 19.6211 27.3469 19.8846 27.4495C21.328 28.0115 23.0045 27.9385 24.4624 27.1286Z" fill="url(#paint1_radial_210_2462)"/>
<path d="M24.4624 27.1286C26.8479 25.8012 27.829 22.9316 26.8779 20.4552C26.7635 20.1571 26.9154 19.8105 27.2101 19.6876C27.4893 19.5712 27.7628 19.4256 28.0224 19.2486C29.8724 17.9886 30.5324 15.5386 29.5724 13.5186C28.4224 11.0986 25.5024 10.1986 23.2024 11.4786C22.8624 11.6686 22.5624 11.8886 22.2924 12.1486C20.8024 9.63859 17.5724 8.74859 15.0024 10.1886C13.3824 11.0886 12.4124 12.7086 12.2524 14.4186C11.3424 14.3186 10.3824 14.4886 9.52237 14.9686C8.17237 15.7186 7.35237 17.0586 7.20237 18.4886C7.00237 20.3386 5.96237 21.9986 4.33237 22.9086C2.50237 23.9286 1.85237 26.2386 2.87237 28.0686C3.89237 29.8986 6.20237 30.5486 8.03237 29.5286C9.65237 28.6186 11.6124 28.6086 13.2924 29.4086C14.5924 30.0286 16.1624 30.0386 17.5124 29.2786C18.2123 28.8879 18.7732 28.3382 19.168 27.6943C19.3158 27.4532 19.6211 27.3469 19.8846 27.4495C21.328 28.0115 23.0045 27.9385 24.4624 27.1286Z" fill="url(#paint2_radial_210_2462)"/>
<path d="M24.4624 27.1286C26.8479 25.8012 27.829 22.9316 26.8779 20.4552C26.7635 20.1571 26.9154 19.8105 27.2101 19.6876C27.4893 19.5712 27.7628 19.4256 28.0224 19.2486C29.8724 17.9886 30.5324 15.5386 29.5724 13.5186C28.4224 11.0986 25.5024 10.1986 23.2024 11.4786C22.8624 11.6686 22.5624 11.8886 22.2924 12.1486C20.8024 9.63859 17.5724 8.74859 15.0024 10.1886C13.3824 11.0886 12.4124 12.7086 12.2524 14.4186C11.3424 14.3186 10.3824 14.4886 9.52237 14.9686C8.17237 15.7186 7.35237 17.0586 7.20237 18.4886C7.00237 20.3386 5.96237 21.9986 4.33237 22.9086C2.50237 23.9286 1.85237 26.2386 2.87237 28.0686C3.89237 29.8986 6.20237 30.5486 8.03237 29.5286C9.65237 28.6186 11.6124 28.6086 13.2924 29.4086C14.5924 30.0286 16.1624 30.0386 17.5124 29.2786C18.2123 28.8879 18.7732 28.3382 19.168 27.6943C19.3158 27.4532 19.6211 27.3469 19.8846 27.4495C21.328 28.0115 23.0045 27.9385 24.4624 27.1286Z" fill="url(#paint3_radial_210_2462)"/>
<path d="M24.4624 27.1286C26.8479 25.8012 27.829 22.9316 26.8779 20.4552C26.7635 20.1571 26.9154 19.8105 27.2101 19.6876C27.4893 19.5712 27.7628 19.4256 28.0224 19.2486C29.8724 17.9886 30.5324 15.5386 29.5724 13.5186C28.4224 11.0986 25.5024 10.1986 23.2024 11.4786C22.8624 11.6686 22.5624 11.8886 22.2924 12.1486C20.8024 9.63859 17.5724 8.74859 15.0024 10.1886C13.3824 11.0886 12.4124 12.7086 12.2524 14.4186C11.3424 14.3186 10.3824 14.4886 9.52237 14.9686C8.17237 15.7186 7.35237 17.0586 7.20237 18.4886C7.00237 20.3386 5.96237 21.9986 4.33237 22.9086C2.50237 23.9286 1.85237 26.2386 2.87237 28.0686C3.89237 29.8986 6.20237 30.5486 8.03237 29.5286C9.65237 28.6186 11.6124 28.6086 13.2924 29.4086C14.5924 30.0286 16.1624 30.0386 17.5124 29.2786C18.2123 28.8879 18.7732 28.3382 19.168 27.6943C19.3158 27.4532 19.6211 27.3469 19.8846 27.4495C21.328 28.0115 23.0045 27.9385 24.4624 27.1286Z" fill="url(#paint4_radial_210_2462)"/>
<path d="M24.4624 27.1286C26.8479 25.8012 27.829 22.9316 26.8779 20.4552C26.7635 20.1571 26.9154 19.8105 27.2101 19.6876C27.4893 19.5712 27.7628 19.4256 28.0224 19.2486C29.8724 17.9886 30.5324 15.5386 29.5724 13.5186C28.4224 11.0986 25.5024 10.1986 23.2024 11.4786C22.8624 11.6686 22.5624 11.8886 22.2924 12.1486C20.8024 9.63859 17.5724 8.74859 15.0024 10.1886C13.3824 11.0886 12.4124 12.7086 12.2524 14.4186C11.3424 14.3186 10.3824 14.4886 9.52237 14.9686C8.17237 15.7186 7.35237 17.0586 7.20237 18.4886C7.00237 20.3386 5.96237 21.9986 4.33237 22.9086C2.50237 23.9286 1.85237 26.2386 2.87237 28.0686C3.89237 29.8986 6.20237 30.5486 8.03237 29.5286C9.65237 28.6186 11.6124 28.6086 13.2924 29.4086C14.5924 30.0286 16.1624 30.0386 17.5124 29.2786C18.2123 28.8879 18.7732 28.3382 19.168 27.6943C19.3158 27.4532 19.6211 27.3469 19.8846 27.4495C21.328 28.0115 23.0045 27.9385 24.4624 27.1286Z" fill="url(#paint5_radial_210_2462)"/>
<path d="M24.4624 27.1286C26.8479 25.8012 27.829 22.9316 26.8779 20.4552C26.7635 20.1571 26.9154 19.8105 27.2101 19.6876C27.4893 19.5712 27.7628 19.4256 28.0224 19.2486C29.8724 17.9886 30.5324 15.5386 29.5724 13.5186C28.4224 11.0986 25.5024 10.1986 23.2024 11.4786C22.8624 11.6686 22.5624 11.8886 22.2924 12.1486C20.8024 9.63859 17.5724 8.74859 15.0024 10.1886C13.3824 11.0886 12.4124 12.7086 12.2524 14.4186C11.3424 14.3186 10.3824 14.4886 9.52237 14.9686C8.17237 15.7186 7.35237 17.0586 7.20237 18.4886C7.00237 20.3386 5.96237 21.9986 4.33237 22.9086C2.50237 23.9286 1.85237 26.2386 2.87237 28.0686C3.89237 29.8986 6.20237 30.5486 8.03237 29.5286C9.65237 28.6186 11.6124 28.6086 13.2924 29.4086C14.5924 30.0286 16.1624 30.0386 17.5124 29.2786C18.2123 28.8879 18.7732 28.3382 19.168 27.6943C19.3158 27.4532 19.6211 27.3469 19.8846 27.4495C21.328 28.0115 23.0045 27.9385 24.4624 27.1286Z" fill="url(#paint6_radial_210_2462)"/>
<path d="M24.4624 27.1286C26.8479 25.8012 27.829 22.9316 26.8779 20.4552C26.7635 20.1571 26.9154 19.8105 27.2101 19.6876C27.4893 19.5712 27.7628 19.4256 28.0224 19.2486C29.8724 17.9886 30.5324 15.5386 29.5724 13.5186C28.4224 11.0986 25.5024 10.1986 23.2024 11.4786C22.8624 11.6686 22.5624 11.8886 22.2924 12.1486C20.8024 9.63859 17.5724 8.74859 15.0024 10.1886C13.3824 11.0886 12.4124 12.7086 12.2524 14.4186C11.3424 14.3186 10.3824 14.4886 9.52237 14.9686C8.17237 15.7186 7.35237 17.0586 7.20237 18.4886C7.00237 20.3386 5.96237 21.9986 4.33237 22.9086C2.50237 23.9286 1.85237 26.2386 2.87237 28.0686C3.89237 29.8986 6.20237 30.5486 8.03237 29.5286C9.65237 28.6186 11.6124 28.6086 13.2924 29.4086C14.5924 30.0286 16.1624 30.0386 17.5124 29.2786C18.2123 28.8879 18.7732 28.3382 19.168 27.6943C19.3158 27.4532 19.6211 27.3469 19.8846 27.4495C21.328 28.0115 23.0045 27.9385 24.4624 27.1286Z" fill="url(#paint7_radial_210_2462)"/>
<path d="M24.4624 27.1286C26.8479 25.8012 27.829 22.9316 26.8779 20.4552C26.7635 20.1571 26.9154 19.8105 27.2101 19.6876C27.4893 19.5712 27.7628 19.4256 28.0224 19.2486C29.8724 17.9886 30.5324 15.5386 29.5724 13.5186C28.4224 11.0986 25.5024 10.1986 23.2024 11.4786C22.8624 11.6686 22.5624 11.8886 22.2924 12.1486C20.8024 9.63859 17.5724 8.74859 15.0024 10.1886C13.3824 11.0886 12.4124 12.7086 12.2524 14.4186C11.3424 14.3186 10.3824 14.4886 9.52237 14.9686C8.17237 15.7186 7.35237 17.0586 7.20237 18.4886C7.00237 20.3386 5.96237 21.9986 4.33237 22.9086C2.50237 23.9286 1.85237 26.2386 2.87237 28.0686C3.89237 29.8986 6.20237 30.5486 8.03237 29.5286C9.65237 28.6186 11.6124 28.6086 13.2924 29.4086C14.5924 30.0286 16.1624 30.0386 17.5124 29.2786C18.2123 28.8879 18.7732 28.3382 19.168 27.6943C19.3158 27.4532 19.6211 27.3469 19.8846 27.4495C21.328 28.0115 23.0045 27.9385 24.4624 27.1286Z" fill="url(#paint8_radial_210_2462)"/>
<path d="M24.4624 27.1286C26.8479 25.8012 27.829 22.9316 26.8779 20.4552C26.7635 20.1571 26.9154 19.8105 27.2101 19.6876C27.4893 19.5712 27.7628 19.4256 28.0224 19.2486C29.8724 17.9886 30.5324 15.5386 29.5724 13.5186C28.4224 11.0986 25.5024 10.1986 23.2024 11.4786C22.8624 11.6686 22.5624 11.8886 22.2924 12.1486C20.8024 9.63859 17.5724 8.74859 15.0024 10.1886C13.3824 11.0886 12.4124 12.7086 12.2524 14.4186C11.3424 14.3186 10.3824 14.4886 9.52237 14.9686C8.17237 15.7186 7.35237 17.0586 7.20237 18.4886C7.00237 20.3386 5.96237 21.9986 4.33237 22.9086C2.50237 23.9286 1.85237 26.2386 2.87237 28.0686C3.89237 29.8986 6.20237 30.5486 8.03237 29.5286C9.65237 28.6186 11.6124 28.6086 13.2924 29.4086C14.5924 30.0286 16.1624 30.0386 17.5124 29.2786C18.2123 28.8879 18.7732 28.3382 19.168 27.6943C19.3158 27.4532 19.6211 27.3469 19.8846 27.4495C21.328 28.0115 23.0045 27.9385 24.4624 27.1286Z" fill="url(#paint9_radial_210_2462)"/>
<path d="M24.4624 27.1286C26.8479 25.8012 27.829 22.9316 26.8779 20.4552C26.7635 20.1571 26.9154 19.8105 27.2101 19.6876C27.4893 19.5712 27.7628 19.4256 28.0224 19.2486C29.8724 17.9886 30.5324 15.5386 29.5724 13.5186C28.4224 11.0986 25.5024 10.1986 23.2024 11.4786C22.8624 11.6686 22.5624 11.8886 22.2924 12.1486C20.8024 9.63859 17.5724 8.74859 15.0024 10.1886C13.3824 11.0886 12.4124 12.7086 12.2524 14.4186C11.3424 14.3186 10.3824 14.4886 9.52237 14.9686C8.17237 15.7186 7.35237 17.0586 7.20237 18.4886C7.00237 20.3386 5.96237 21.9986 4.33237 22.9086C2.50237 23.9286 1.85237 26.2386 2.87237 28.0686C3.89237 29.8986 6.20237 30.5486 8.03237 29.5286C9.65237 28.6186 11.6124 28.6086 13.2924 29.4086C14.5924 30.0286 16.1624 30.0386 17.5124 29.2786C18.2123 28.8879 18.7732 28.3382 19.168 27.6943C19.3158 27.4532 19.6211 27.3469 19.8846 27.4495C21.328 28.0115 23.0045 27.9385 24.4624 27.1286Z" fill="url(#paint10_radial_210_2462)"/>
<path d="M4.88223 7.54857C6.20958 5.16305 9.07918 4.18192 11.5556 5.133C11.8537 5.24749 12.2003 5.09556 12.3232 4.80082C12.4396 4.52162 12.5853 4.24813 12.7622 3.98857C14.0222 2.13857 16.4722 1.47857 18.4922 2.43857C20.9122 3.58857 21.8122 6.50857 20.5322 8.80857C20.3422 9.14857 20.1222 9.44857 19.8622 9.71857C22.3722 11.2086 23.2622 14.4386 21.8222 17.0086C20.9222 18.6286 19.3022 19.5986 17.5922 19.7586C17.6922 20.6686 17.5222 21.6286 17.0422 22.4886C16.2922 23.8386 14.9522 24.6586 13.5222 24.8086C11.6722 25.0086 10.0122 26.0486 9.10223 27.6786C8.08223 29.5086 5.77223 30.1586 3.94223 29.1386C2.11223 28.1186 1.46223 25.8086 2.48223 23.9786C3.39223 22.3586 3.40223 20.3986 2.60223 18.7186C1.98223 17.4186 1.97223 15.8486 2.73223 14.4986C3.12132 13.8015 3.59189 13.2392 4.20358 12.8435C4.44105 12.6898 4.54769 12.385 4.4481 12.1203C3.90552 10.6781 4.07255 9.006 4.88223 7.54857Z" fill="#457420"/>
<path d="M4.88223 7.54857C6.20958 5.16305 9.07918 4.18192 11.5556 5.133C11.8537 5.24749 12.2003 5.09556 12.3232 4.80082C12.4396 4.52162 12.5853 4.24813 12.7622 3.98857C14.0222 2.13857 16.4722 1.47857 18.4922 2.43857C20.9122 3.58857 21.8122 6.50857 20.5322 8.80857C20.3422 9.14857 20.1222 9.44857 19.8622 9.71857C22.3722 11.2086 23.2622 14.4386 21.8222 17.0086C20.9222 18.6286 19.3022 19.5986 17.5922 19.7586C17.6922 20.6686 17.5222 21.6286 17.0422 22.4886C16.2922 23.8386 14.9522 24.6586 13.5222 24.8086C11.6722 25.0086 10.0122 26.0486 9.10223 27.6786C8.08223 29.5086 5.77223 30.1586 3.94223 29.1386C2.11223 28.1186 1.46223 25.8086 2.48223 23.9786C3.39223 22.3586 3.40223 20.3986 2.60223 18.7186C1.98223 17.4186 1.97223 15.8486 2.73223 14.4986C3.12132 13.8015 3.59189 13.2392 4.20358 12.8435C4.44105 12.6898 4.54769 12.385 4.4481 12.1203C3.90552 10.6781 4.07255 9.006 4.88223 7.54857Z" fill="url(#paint11_radial_210_2462)"/>
<path d="M4.88223 7.54857C6.20958 5.16305 9.07918 4.18192 11.5556 5.133C11.8537 5.24749 12.2003 5.09556 12.3232 4.80082C12.4396 4.52162 12.5853 4.24813 12.7622 3.98857C14.0222 2.13857 16.4722 1.47857 18.4922 2.43857C20.9122 3.58857 21.8122 6.50857 20.5322 8.80857C20.3422 9.14857 20.1222 9.44857 19.8622 9.71857C22.3722 11.2086 23.2622 14.4386 21.8222 17.0086C20.9222 18.6286 19.3022 19.5986 17.5922 19.7586C17.6922 20.6686 17.5222 21.6286 17.0422 22.4886C16.2922 23.8386 14.9522 24.6586 13.5222 24.8086C11.6722 25.0086 10.0122 26.0486 9.10223 27.6786C8.08223 29.5086 5.77223 30.1586 3.94223 29.1386C2.11223 28.1186 1.46223 25.8086 2.48223 23.9786C3.39223 22.3586 3.40223 20.3986 2.60223 18.7186C1.98223 17.4186 1.97223 15.8486 2.73223 14.4986C3.12132 13.8015 3.59189 13.2392 4.20358 12.8435C4.44105 12.6898 4.54769 12.385 4.4481 12.1203C3.90552 10.6781 4.07255 9.006 4.88223 7.54857Z" fill="url(#paint12_radial_210_2462)"/>
<path d="M4.88223 7.54857C6.20958 5.16305 9.07918 4.18192 11.5556 5.133C11.8537 5.24749 12.2003 5.09556 12.3232 4.80082C12.4396 4.52162 12.5853 4.24813 12.7622 3.98857C14.0222 2.13857 16.4722 1.47857 18.4922 2.43857C20.9122 3.58857 21.8122 6.50857 20.5322 8.80857C20.3422 9.14857 20.1222 9.44857 19.8622 9.71857C22.3722 11.2086 23.2622 14.4386 21.8222 17.0086C20.9222 18.6286 19.3022 19.5986 17.5922 19.7586C17.6922 20.6686 17.5222 21.6286 17.0422 22.4886C16.2922 23.8386 14.9522 24.6586 13.5222 24.8086C11.6722 25.0086 10.0122 26.0486 9.10223 27.6786C8.08223 29.5086 5.77223 30.1586 3.94223 29.1386C2.11223 28.1186 1.46223 25.8086 2.48223 23.9786C3.39223 22.3586 3.40223 20.3986 2.60223 18.7186C1.98223 17.4186 1.97223 15.8486 2.73223 14.4986C3.12132 13.8015 3.59189 13.2392 4.20358 12.8435C4.44105 12.6898 4.54769 12.385 4.4481 12.1203C3.90552 10.6781 4.07255 9.006 4.88223 7.54857Z" fill="url(#paint13_radial_210_2462)"/>
<path d="M4.88223 7.54857C6.20958 5.16305 9.07918 4.18192 11.5556 5.133C11.8537 5.24749 12.2003 5.09556 12.3232 4.80082C12.4396 4.52162 12.5853 4.24813 12.7622 3.98857C14.0222 2.13857 16.4722 1.47857 18.4922 2.43857C20.9122 3.58857 21.8122 6.50857 20.5322 8.80857C20.3422 9.14857 20.1222 9.44857 19.8622 9.71857C22.3722 11.2086 23.2622 14.4386 21.8222 17.0086C20.9222 18.6286 19.3022 19.5986 17.5922 19.7586C17.6922 20.6686 17.5222 21.6286 17.0422 22.4886C16.2922 23.8386 14.9522 24.6586 13.5222 24.8086C11.6722 25.0086 10.0122 26.0486 9.10223 27.6786C8.08223 29.5086 5.77223 30.1586 3.94223 29.1386C2.11223 28.1186 1.46223 25.8086 2.48223 23.9786C3.39223 22.3586 3.40223 20.3986 2.60223 18.7186C1.98223 17.4186 1.97223 15.8486 2.73223 14.4986C3.12132 13.8015 3.59189 13.2392 4.20358 12.8435C4.44105 12.6898 4.54769 12.385 4.4481 12.1203C3.90552 10.6781 4.07255 9.006 4.88223 7.54857Z" fill="url(#paint14_radial_210_2462)"/>
<path d="M4.88223 7.54857C6.20958 5.16305 9.07918 4.18192 11.5556 5.133C11.8537 5.24749 12.2003 5.09556 12.3232 4.80082C12.4396 4.52162 12.5853 4.24813 12.7622 3.98857C14.0222 2.13857 16.4722 1.47857 18.4922 2.43857C20.9122 3.58857 21.8122 6.50857 20.5322 8.80857C20.3422 9.14857 20.1222 9.44857 19.8622 9.71857C22.3722 11.2086 23.2622 14.4386 21.8222 17.0086C20.9222 18.6286 19.3022 19.5986 17.5922 19.7586C17.6922 20.6686 17.5222 21.6286 17.0422 22.4886C16.2922 23.8386 14.9522 24.6586 13.5222 24.8086C11.6722 25.0086 10.0122 26.0486 9.10223 27.6786C8.08223 29.5086 5.77223 30.1586 3.94223 29.1386C2.11223 28.1186 1.46223 25.8086 2.48223 23.9786C3.39223 22.3586 3.40223 20.3986 2.60223 18.7186C1.98223 17.4186 1.97223 15.8486 2.73223 14.4986C3.12132 13.8015 3.59189 13.2392 4.20358 12.8435C4.44105 12.6898 4.54769 12.385 4.4481 12.1203C3.90552 10.6781 4.07255 9.006 4.88223 7.54857Z" fill="url(#paint15_radial_210_2462)"/>
<path d="M4.88223 7.54857C6.20958 5.16305 9.07918 4.18192 11.5556 5.133C11.8537 5.24749 12.2003 5.09556 12.3232 4.80082C12.4396 4.52162 12.5853 4.24813 12.7622 3.98857C14.0222 2.13857 16.4722 1.47857 18.4922 2.43857C20.9122 3.58857 21.8122 6.50857 20.5322 8.80857C20.3422 9.14857 20.1222 9.44857 19.8622 9.71857C22.3722 11.2086 23.2622 14.4386 21.8222 17.0086C20.9222 18.6286 19.3022 19.5986 17.5922 19.7586C17.6922 20.6686 17.5222 21.6286 17.0422 22.4886C16.2922 23.8386 14.9522 24.6586 13.5222 24.8086C11.6722 25.0086 10.0122 26.0486 9.10223 27.6786C8.08223 29.5086 5.77223 30.1586 3.94223 29.1386C2.11223 28.1186 1.46223 25.8086 2.48223 23.9786C3.39223 22.3586 3.40223 20.3986 2.60223 18.7186C1.98223 17.4186 1.97223 15.8486 2.73223 14.4986C3.12132 13.8015 3.59189 13.2392 4.20358 12.8435C4.44105 12.6898 4.54769 12.385 4.4481 12.1203C3.90552 10.6781 4.07255 9.006 4.88223 7.54857Z" fill="url(#paint16_radial_210_2462)"/>
<path d="M4.88223 7.54857C6.20958 5.16305 9.07918 4.18192 11.5556 5.133C11.8537 5.24749 12.2003 5.09556 12.3232 4.80082C12.4396 4.52162 12.5853 4.24813 12.7622 3.98857C14.0222 2.13857 16.4722 1.47857 18.4922 2.43857C20.9122 3.58857 21.8122 6.50857 20.5322 8.80857C20.3422 9.14857 20.1222 9.44857 19.8622 9.71857C22.3722 11.2086 23.2622 14.4386 21.8222 17.0086C20.9222 18.6286 19.3022 19.5986 17.5922 19.7586C17.6922 20.6686 17.5222 21.6286 17.0422 22.4886C16.2922 23.8386 14.9522 24.6586 13.5222 24.8086C11.6722 25.0086 10.0122 26.0486 9.10223 27.6786C8.08223 29.5086 5.77223 30.1586 3.94223 29.1386C2.11223 28.1186 1.46223 25.8086 2.48223 23.9786C3.39223 22.3586 3.40223 20.3986 2.60223 18.7186C1.98223 17.4186 1.97223 15.8486 2.73223 14.4986C3.12132 13.8015 3.59189 13.2392 4.20358 12.8435C4.44105 12.6898 4.54769 12.385 4.4481 12.1203C3.90552 10.6781 4.07255 9.006 4.88223 7.54857Z" fill="url(#paint17_radial_210_2462)"/>
<path d="M4.88223 7.54857C6.20958 5.16305 9.07918 4.18192 11.5556 5.133C11.8537 5.24749 12.2003 5.09556 12.3232 4.80082C12.4396 4.52162 12.5853 4.24813 12.7622 3.98857C14.0222 2.13857 16.4722 1.47857 18.4922 2.43857C20.9122 3.58857 21.8122 6.50857 20.5322 8.80857C20.3422 9.14857 20.1222 9.44857 19.8622 9.71857C22.3722 11.2086 23.2622 14.4386 21.8222 17.0086C20.9222 18.6286 19.3022 19.5986 17.5922 19.7586C17.6922 20.6686 17.5222 21.6286 17.0422 22.4886C16.2922 23.8386 14.9522 24.6586 13.5222 24.8086C11.6722 25.0086 10.0122 26.0486 9.10223 27.6786C8.08223 29.5086 5.77223 30.1586 3.94223 29.1386C2.11223 28.1186 1.46223 25.8086 2.48223 23.9786C3.39223 22.3586 3.40223 20.3986 2.60223 18.7186C1.98223 17.4186 1.97223 15.8486 2.73223 14.4986C3.12132 13.8015 3.59189 13.2392 4.20358 12.8435C4.44105 12.6898 4.54769 12.385 4.4481 12.1203C3.90552 10.6781 4.07255 9.006 4.88223 7.54857Z" fill="url(#paint18_radial_210_2462)"/>
<path d="M4.88223 7.54857C6.20958 5.16305 9.07918 4.18192 11.5556 5.133C11.8537 5.24749 12.2003 5.09556 12.3232 4.80082C12.4396 4.52162 12.5853 4.24813 12.7622 3.98857C14.0222 2.13857 16.4722 1.47857 18.4922 2.43857C20.9122 3.58857 21.8122 6.50857 20.5322 8.80857C20.3422 9.14857 20.1222 9.44857 19.8622 9.71857C22.3722 11.2086 23.2622 14.4386 21.8222 17.0086C20.9222 18.6286 19.3022 19.5986 17.5922 19.7586C17.6922 20.6686 17.5222 21.6286 17.0422 22.4886C16.2922 23.8386 14.9522 24.6586 13.5222 24.8086C11.6722 25.0086 10.0122 26.0486 9.10223 27.6786C8.08223 29.5086 5.77223 30.1586 3.94223 29.1386C2.11223 28.1186 1.46223 25.8086 2.48223 23.9786C3.39223 22.3586 3.40223 20.3986 2.60223 18.7186C1.98223 17.4186 1.97223 15.8486 2.73223 14.4986C3.12132 13.8015 3.59189 13.2392 4.20358 12.8435C4.44105 12.6898 4.54769 12.385 4.4481 12.1203C3.90552 10.6781 4.07255 9.006 4.88223 7.54857Z" fill="url(#paint19_radial_210_2462)"/>
<path d="M4.88223 7.54857C6.20958 5.16305 9.07918 4.18192 11.5556 5.133C11.8537 5.24749 12.2003 5.09556 12.3232 4.80082C12.4396 4.52162 12.5853 4.24813 12.7622 3.98857C14.0222 2.13857 16.4722 1.47857 18.4922 2.43857C20.9122 3.58857 21.8122 6.50857 20.5322 8.80857C20.3422 9.14857 20.1222 9.44857 19.8622 9.71857C22.3722 11.2086 23.2622 14.4386 21.8222 17.0086C20.9222 18.6286 19.3022 19.5986 17.5922 19.7586C17.6922 20.6686 17.5222 21.6286 17.0422 22.4886C16.2922 23.8386 14.9522 24.6586 13.5222 24.8086C11.6722 25.0086 10.0122 26.0486 9.10223 27.6786C8.08223 29.5086 5.77223 30.1586 3.94223 29.1386C2.11223 28.1186 1.46223 25.8086 2.48223 23.9786C3.39223 22.3586 3.40223 20.3986 2.60223 18.7186C1.98223 17.4186 1.97223 15.8486 2.73223 14.4986C3.12132 13.8015 3.59189 13.2392 4.20358 12.8435C4.44105 12.6898 4.54769 12.385 4.4481 12.1203C3.90552 10.6781 4.07255 9.006 4.88223 7.54857Z" fill="url(#paint20_radial_210_2462)"/>
<path d="M4.88223 7.54857C6.20958 5.16305 9.07918 4.18192 11.5556 5.133C11.8537 5.24749 12.2003 5.09556 12.3232 4.80082C12.4396 4.52162 12.5853 4.24813 12.7622 3.98857C14.0222 2.13857 16.4722 1.47857 18.4922 2.43857C20.9122 3.58857 21.8122 6.50857 20.5322 8.80857C20.3422 9.14857 20.1222 9.44857 19.8622 9.71857C22.3722 11.2086 23.2622 14.4386 21.8222 17.0086C20.9222 18.6286 19.3022 19.5986 17.5922 19.7586C17.6922 20.6686 17.5222 21.6286 17.0422 22.4886C16.2922 23.8386 14.9522 24.6586 13.5222 24.8086C11.6722 25.0086 10.0122 26.0486 9.10223 27.6786C8.08223 29.5086 5.77223 30.1586 3.94223 29.1386C2.11223 28.1186 1.46223 25.8086 2.48223 23.9786C3.39223 22.3586 3.40223 20.3986 2.60223 18.7186C1.98223 17.4186 1.97223 15.8486 2.73223 14.4986C3.12132 13.8015 3.59189 13.2392 4.20358 12.8435C4.44105 12.6898 4.54769 12.385 4.4481 12.1203C3.90552 10.6781 4.07255 9.006 4.88223 7.54857Z" fill="url(#paint21_radial_210_2462)"/>
<path d="M4.88223 7.54857C6.20958 5.16305 9.07918 4.18192 11.5556 5.133C11.8537 5.24749 12.2003 5.09556 12.3232 4.80082C12.4396 4.52162 12.5853 4.24813 12.7622 3.98857C14.0222 2.13857 16.4722 1.47857 18.4922 2.43857C20.9122 3.58857 21.8122 6.50857 20.5322 8.80857C20.3422 9.14857 20.1222 9.44857 19.8622 9.71857C22.3722 11.2086 23.2622 14.4386 21.8222 17.0086C20.9222 18.6286 19.3022 19.5986 17.5922 19.7586C17.6922 20.6686 17.5222 21.6286 17.0422 22.4886C16.2922 23.8386 14.9522 24.6586 13.5222 24.8086C11.6722 25.0086 10.0122 26.0486 9.10223 27.6786C8.08223 29.5086 5.77223 30.1586 3.94223 29.1386C2.11223 28.1186 1.46223 25.8086 2.48223 23.9786C3.39223 22.3586 3.40223 20.3986 2.60223 18.7186C1.98223 17.4186 1.97223 15.8486 2.73223 14.4986C3.12132 13.8015 3.59189 13.2392 4.20358 12.8435C4.44105 12.6898 4.54769 12.385 4.4481 12.1203C3.90552 10.6781 4.07255 9.006 4.88223 7.54857Z" fill="url(#paint22_radial_210_2462)"/>
<path d="M23.8436 21.9688C25.6254 20.187 25.7607 17.3839 24.4995 15.2842C24.1708 14.737 24.3167 14.0699 24.8416 13.7068C24.963 13.6228 25.073 13.5294 25.1621 13.4219C26.5921 11.7119 26.4542 9.19561 24.9842 7.51561C23.2242 5.50561 20.4067 5.28062 18.5467 7.14062C18.526 7.16137 18.5051 7.18357 18.4841 7.20704C18.0566 7.68534 17.3465 7.82319 16.7964 7.49308C14.6918 6.23001 11.8734 6.34519 10.0936 8.12498C9.0561 9.16246 8.5204 10.6229 8.50137 12.0252C8.49342 12.6113 8.0812 13.1607 7.55314 13.4152C6.91442 13.7231 6.35327 14.2091 5.89047 14.6719C4.79047 15.7619 4.56234 17.1056 4.81234 18.5156C5.13234 20.3456 4.66927 22.1644 3.35927 23.4844C1.87927 24.9644 1.72086 27.1072 3.46214 28.8485C4.94214 30.3285 7.25425 30.1831 8.73425 28.7031C10.0543 27.3831 12.0193 26.8363 13.8593 27.1562C14.9499 27.3459 16.488 27.0588 17.578 25.9688C18.0301 25.5166 18.4572 24.9917 18.7461 24.4315C19.0006 23.938 19.525 23.5762 20.0801 23.5717C21.4451 23.5608 22.7913 23.021 23.8436 21.9688Z" fill="url(#paint23_linear_210_2462)"/>
<path d="M23.8436 21.9688C25.6254 20.187 25.7607 17.3839 24.4995 15.2842C24.1708 14.737 24.3167 14.0699 24.8416 13.7068C24.963 13.6228 25.073 13.5294 25.1621 13.4219C26.5921 11.7119 26.4542 9.19561 24.9842 7.51561C23.2242 5.50561 20.4067 5.28062 18.5467 7.14062C18.526 7.16137 18.5051 7.18357 18.4841 7.20704C18.0566 7.68534 17.3465 7.82319 16.7964 7.49308C14.6918 6.23001 11.8734 6.34519 10.0936 8.12498C9.0561 9.16246 8.5204 10.6229 8.50137 12.0252C8.49342 12.6113 8.0812 13.1607 7.55314 13.4152C6.91442 13.7231 6.35327 14.2091 5.89047 14.6719C4.79047 15.7619 4.56234 17.1056 4.81234 18.5156C5.13234 20.3456 4.66927 22.1644 3.35927 23.4844C1.87927 24.9644 1.72086 27.1072 3.46214 28.8485C4.94214 30.3285 7.25425 30.1831 8.73425 28.7031C10.0543 27.3831 12.0193 26.8363 13.8593 27.1562C14.9499 27.3459 16.488 27.0588 17.578 25.9688C18.0301 25.5166 18.4572 24.9917 18.7461 24.4315C19.0006 23.938 19.525 23.5762 20.0801 23.5717C21.4451 23.5608 22.7913 23.021 23.8436 21.9688Z" fill="url(#paint24_radial_210_2462)"/>
<path d="M23.8436 21.9688C25.6254 20.187 25.7607 17.3839 24.4995 15.2842C24.1708 14.737 24.3167 14.0699 24.8416 13.7068C24.963 13.6228 25.073 13.5294 25.1621 13.4219C26.5921 11.7119 26.4542 9.19561 24.9842 7.51561C23.2242 5.50561 20.4067 5.28062 18.5467 7.14062C18.526 7.16137 18.5051 7.18357 18.4841 7.20704C18.0566 7.68534 17.3465 7.82319 16.7964 7.49308C14.6918 6.23001 11.8734 6.34519 10.0936 8.12498C9.0561 9.16246 8.5204 10.6229 8.50137 12.0252C8.49342 12.6113 8.0812 13.1607 7.55314 13.4152C6.91442 13.7231 6.35327 14.2091 5.89047 14.6719C4.79047 15.7619 4.56234 17.1056 4.81234 18.5156C5.13234 20.3456 4.66927 22.1644 3.35927 23.4844C1.87927 24.9644 1.72086 27.1072 3.46214 28.8485C4.94214 30.3285 7.25425 30.1831 8.73425 28.7031C10.0543 27.3831 12.0193 26.8363 13.8593 27.1562C14.9499 27.3459 16.488 27.0588 17.578 25.9688C18.0301 25.5166 18.4572 24.9917 18.7461 24.4315C19.0006 23.938 19.525 23.5762 20.0801 23.5717C21.4451 23.5608 22.7913 23.021 23.8436 21.9688Z" fill="url(#paint25_radial_210_2462)"/>
<path d="M23.8436 21.9688C25.6254 20.187 25.7607 17.3839 24.4995 15.2842C24.1708 14.737 24.3167 14.0699 24.8416 13.7068C24.963 13.6228 25.073 13.5294 25.1621 13.4219C26.5921 11.7119 26.4542 9.19561 24.9842 7.51561C23.2242 5.50561 20.4067 5.28062 18.5467 7.14062C18.526 7.16137 18.5051 7.18357 18.4841 7.20704C18.0566 7.68534 17.3465 7.82319 16.7964 7.49308C14.6918 6.23001 11.8734 6.34519 10.0936 8.12498C9.0561 9.16246 8.5204 10.6229 8.50137 12.0252C8.49342 12.6113 8.0812 13.1607 7.55314 13.4152C6.91442 13.7231 6.35327 14.2091 5.89047 14.6719C4.79047 15.7619 4.56234 17.1056 4.81234 18.5156C5.13234 20.3456 4.66927 22.1644 3.35927 23.4844C1.87927 24.9644 1.72086 27.1072 3.46214 28.8485C4.94214 30.3285 7.25425 30.1831 8.73425 28.7031C10.0543 27.3831 12.0193 26.8363 13.8593 27.1562C14.9499 27.3459 16.488 27.0588 17.578 25.9688C18.0301 25.5166 18.4572 24.9917 18.7461 24.4315C19.0006 23.938 19.525 23.5762 20.0801 23.5717C21.4451 23.5608 22.7913 23.021 23.8436 21.9688Z" fill="url(#paint26_radial_210_2462)"/>
<path d="M23.8436 21.9688C25.6254 20.187 25.7607 17.3839 24.4995 15.2842C24.1708 14.737 24.3167 14.0699 24.8416 13.7068C24.963 13.6228 25.073 13.5294 25.1621 13.4219C26.5921 11.7119 26.4542 9.19561 24.9842 7.51561C23.2242 5.50561 20.4067 5.28062 18.5467 7.14062C18.526 7.16137 18.5051 7.18357 18.4841 7.20704C18.0566 7.68534 17.3465 7.82319 16.7964 7.49308C14.6918 6.23001 11.8734 6.34519 10.0936 8.12498C9.0561 9.16246 8.5204 10.6229 8.50137 12.0252C8.49342 12.6113 8.0812 13.1607 7.55314 13.4152C6.91442 13.7231 6.35327 14.2091 5.89047 14.6719C4.79047 15.7619 4.56234 17.1056 4.81234 18.5156C5.13234 20.3456 4.66927 22.1644 3.35927 23.4844C1.87927 24.9644 1.72086 27.1072 3.46214 28.8485C4.94214 30.3285 7.25425 30.1831 8.73425 28.7031C10.0543 27.3831 12.0193 26.8363 13.8593 27.1562C14.9499 27.3459 16.488 27.0588 17.578 25.9688C18.0301 25.5166 18.4572 24.9917 18.7461 24.4315C19.0006 23.938 19.525 23.5762 20.0801 23.5717C21.4451 23.5608 22.7913 23.021 23.8436 21.9688Z" fill="url(#paint27_radial_210_2462)"/>
<path d="M23.8436 21.9688C25.6254 20.187 25.7607 17.3839 24.4995 15.2842C24.1708 14.737 24.3167 14.0699 24.8416 13.7068C24.963 13.6228 25.073 13.5294 25.1621 13.4219C26.5921 11.7119 26.4542 9.19561 24.9842 7.51561C23.2242 5.50561 20.4067 5.28062 18.5467 7.14062C18.526 7.16137 18.5051 7.18357 18.4841 7.20704C18.0566 7.68534 17.3465 7.82319 16.7964 7.49308C14.6918 6.23001 11.8734 6.34519 10.0936 8.12498C9.0561 9.16246 8.5204 10.6229 8.50137 12.0252C8.49342 12.6113 8.0812 13.1607 7.55314 13.4152C6.91442 13.7231 6.35327 14.2091 5.89047 14.6719C4.79047 15.7619 4.56234 17.1056 4.81234 18.5156C5.13234 20.3456 4.66927 22.1644 3.35927 23.4844C1.87927 24.9644 1.72086 27.1072 3.46214 28.8485C4.94214 30.3285 7.25425 30.1831 8.73425 28.7031C10.0543 27.3831 12.0193 26.8363 13.8593 27.1562C14.9499 27.3459 16.488 27.0588 17.578 25.9688C18.0301 25.5166 18.4572 24.9917 18.7461 24.4315C19.0006 23.938 19.525 23.5762 20.0801 23.5717C21.4451 23.5608 22.7913 23.021 23.8436 21.9688Z" fill="url(#paint28_radial_210_2462)"/>
<path d="M23.8436 21.9688C25.6254 20.187 25.7607 17.3839 24.4995 15.2842C24.1708 14.737 24.3167 14.0699 24.8416 13.7068C24.963 13.6228 25.073 13.5294 25.1621 13.4219C26.5921 11.7119 26.4542 9.19561 24.9842 7.51561C23.2242 5.50561 20.4067 5.28062 18.5467 7.14062C18.526 7.16137 18.5051 7.18357 18.4841 7.20704C18.0566 7.68534 17.3465 7.82319 16.7964 7.49308C14.6918 6.23001 11.8734 6.34519 10.0936 8.12498C9.0561 9.16246 8.5204 10.6229 8.50137 12.0252C8.49342 12.6113 8.0812 13.1607 7.55314 13.4152C6.91442 13.7231 6.35327 14.2091 5.89047 14.6719C4.79047 15.7619 4.56234 17.1056 4.81234 18.5156C5.13234 20.3456 4.66927 22.1644 3.35927 23.4844C1.87927 24.9644 1.72086 27.1072 3.46214 28.8485C4.94214 30.3285 7.25425 30.1831 8.73425 28.7031C10.0543 27.3831 12.0193 26.8363 13.8593 27.1562C14.9499 27.3459 16.488 27.0588 17.578 25.9688C18.0301 25.5166 18.4572 24.9917 18.7461 24.4315C19.0006 23.938 19.525 23.5762 20.0801 23.5717C21.4451 23.5608 22.7913 23.021 23.8436 21.9688Z" fill="url(#paint29_radial_210_2462)"/>
<path d="M23.8436 21.9688C25.6254 20.187 25.7607 17.3839 24.4995 15.2842C24.1708 14.737 24.3167 14.0699 24.8416 13.7068C24.963 13.6228 25.073 13.5294 25.1621 13.4219C26.5921 11.7119 26.4542 9.19561 24.9842 7.51561C23.2242 5.50561 20.4067 5.28062 18.5467 7.14062C18.526 7.16137 18.5051 7.18357 18.4841 7.20704C18.0566 7.68534 17.3465 7.82319 16.7964 7.49308C14.6918 6.23001 11.8734 6.34519 10.0936 8.12498C9.0561 9.16246 8.5204 10.6229 8.50137 12.0252C8.49342 12.6113 8.0812 13.1607 7.55314 13.4152C6.91442 13.7231 6.35327 14.2091 5.89047 14.6719C4.79047 15.7619 4.56234 17.1056 4.81234 18.5156C5.13234 20.3456 4.66927 22.1644 3.35927 23.4844C1.87927 24.9644 1.72086 27.1072 3.46214 28.8485C4.94214 30.3285 7.25425 30.1831 8.73425 28.7031C10.0543 27.3831 12.0193 26.8363 13.8593 27.1562C14.9499 27.3459 16.488 27.0588 17.578 25.9688C18.0301 25.5166 18.4572 24.9917 18.7461 24.4315C19.0006 23.938 19.525 23.5762 20.0801 23.5717C21.4451 23.5608 22.7913 23.021 23.8436 21.9688Z" fill="url(#paint30_radial_210_2462)"/>
<path d="M23.8436 21.9688C25.6254 20.187 25.7607 17.3839 24.4995 15.2842C24.1708 14.737 24.3167 14.0699 24.8416 13.7068C24.963 13.6228 25.073 13.5294 25.1621 13.4219C26.5921 11.7119 26.4542 9.19561 24.9842 7.51561C23.2242 5.50561 20.4067 5.28062 18.5467 7.14062C18.526 7.16137 18.5051 7.18357 18.4841 7.20704C18.0566 7.68534 17.3465 7.82319 16.7964 7.49308C14.6918 6.23001 11.8734 6.34519 10.0936 8.12498C9.0561 9.16246 8.5204 10.6229 8.50137 12.0252C8.49342 12.6113 8.0812 13.1607 7.55314 13.4152C6.91442 13.7231 6.35327 14.2091 5.89047 14.6719C4.79047 15.7619 4.56234 17.1056 4.81234 18.5156C5.13234 20.3456 4.66927 22.1644 3.35927 23.4844C1.87927 24.9644 1.72086 27.1072 3.46214 28.8485C4.94214 30.3285 7.25425 30.1831 8.73425 28.7031C10.0543 27.3831 12.0193 26.8363 13.8593 27.1562C14.9499 27.3459 16.488 27.0588 17.578 25.9688C18.0301 25.5166 18.4572 24.9917 18.7461 24.4315C19.0006 23.938 19.525 23.5762 20.0801 23.5717C21.4451 23.5608 22.7913 23.021 23.8436 21.9688Z" fill="url(#paint31_radial_210_2462)"/>
<path d="M23.8436 21.9688C25.6254 20.187 25.7607 17.3839 24.4995 15.2842C24.1708 14.737 24.3167 14.0699 24.8416 13.7068C24.963 13.6228 25.073 13.5294 25.1621 13.4219C26.5921 11.7119 26.4542 9.19561 24.9842 7.51561C23.2242 5.50561 20.4067 5.28062 18.5467 7.14062C18.526 7.16137 18.5051 7.18357 18.4841 7.20704C18.0566 7.68534 17.3465 7.82319 16.7964 7.49308C14.6918 6.23001 11.8734 6.34519 10.0936 8.12498C9.0561 9.16246 8.5204 10.6229 8.50137 12.0252C8.49342 12.6113 8.0812 13.1607 7.55314 13.4152C6.91442 13.7231 6.35327 14.2091 5.89047 14.6719C4.79047 15.7619 4.56234 17.1056 4.81234 18.5156C5.13234 20.3456 4.66927 22.1644 3.35927 23.4844C1.87927 24.9644 1.72086 27.1072 3.46214 28.8485C4.94214 30.3285 7.25425 30.1831 8.73425 28.7031C10.0543 27.3831 12.0193 26.8363 13.8593 27.1562C14.9499 27.3459 16.488 27.0588 17.578 25.9688C18.0301 25.5166 18.4572 24.9917 18.7461 24.4315C19.0006 23.938 19.525 23.5762 20.0801 23.5717C21.4451 23.5608 22.7913 23.021 23.8436 21.9688Z" fill="url(#paint32_radial_210_2462)"/>
<path d="M23.8436 21.9688C25.6254 20.187 25.7607 17.3839 24.4995 15.2842C24.1708 14.737 24.3167 14.0699 24.8416 13.7068C24.963 13.6228 25.073 13.5294 25.1621 13.4219C26.5921 11.7119 26.4542 9.19561 24.9842 7.51561C23.2242 5.50561 20.4067 5.28062 18.5467 7.14062C18.526 7.16137 18.5051 7.18357 18.4841 7.20704C18.0566 7.68534 17.3465 7.82319 16.7964 7.49308C14.6918 6.23001 11.8734 6.34519 10.0936 8.12498C9.0561 9.16246 8.5204 10.6229 8.50137 12.0252C8.49342 12.6113 8.0812 13.1607 7.55314 13.4152C6.91442 13.7231 6.35327 14.2091 5.89047 14.6719C4.79047 15.7619 4.56234 17.1056 4.81234 18.5156C5.13234 20.3456 4.66927 22.1644 3.35927 23.4844C1.87927 24.9644 1.72086 27.1072 3.46214 28.8485C4.94214 30.3285 7.25425 30.1831 8.73425 28.7031C10.0543 27.3831 12.0193 26.8363 13.8593 27.1562C14.9499 27.3459 16.488 27.0588 17.578 25.9688C18.0301 25.5166 18.4572 24.9917 18.7461 24.4315C19.0006 23.938 19.525 23.5762 20.0801 23.5717C21.4451 23.5608 22.7913 23.021 23.8436 21.9688Z" fill="url(#paint33_radial_210_2462)"/>
<path d="M23.8436 21.9688C25.6254 20.187 25.7607 17.3839 24.4995 15.2842C24.1708 14.737 24.3167 14.0699 24.8416 13.7068C24.963 13.6228 25.073 13.5294 25.1621 13.4219C26.5921 11.7119 26.4542 9.19561 24.9842 7.51561C23.2242 5.50561 20.4067 5.28062 18.5467 7.14062C18.526 7.16137 18.5051 7.18357 18.4841 7.20704C18.0566 7.68534 17.3465 7.82319 16.7964 7.49308C14.6918 6.23001 11.8734 6.34519 10.0936 8.12498C9.0561 9.16246 8.5204 10.6229 8.50137 12.0252C8.49342 12.6113 8.0812 13.1607 7.55314 13.4152C6.91442 13.7231 6.35327 14.2091 5.89047 14.6719C4.79047 15.7619 4.56234 17.1056 4.81234 18.5156C5.13234 20.3456 4.66927 22.1644 3.35927 23.4844C1.87927 24.9644 1.72086 27.1072 3.46214 28.8485C4.94214 30.3285 7.25425 30.1831 8.73425 28.7031C10.0543 27.3831 12.0193 26.8363 13.8593 27.1562C14.9499 27.3459 16.488 27.0588 17.578 25.9688C18.0301 25.5166 18.4572 24.9917 18.7461 24.4315C19.0006 23.938 19.525 23.5762 20.0801 23.5717C21.4451 23.5608 22.7913 23.021 23.8436 21.9688Z" fill="url(#paint34_radial_210_2462)"/>
<path d="M23.8436 21.9688C25.6254 20.187 25.7607 17.3839 24.4995 15.2842C24.1708 14.737 24.3167 14.0699 24.8416 13.7068C24.963 13.6228 25.073 13.5294 25.1621 13.4219C26.5921 11.7119 26.4542 9.19561 24.9842 7.51561C23.2242 5.50561 20.4067 5.28062 18.5467 7.14062C18.526 7.16137 18.5051 7.18357 18.4841 7.20704C18.0566 7.68534 17.3465 7.82319 16.7964 7.49308C14.6918 6.23001 11.8734 6.34519 10.0936 8.12498C9.0561 9.16246 8.5204 10.6229 8.50137 12.0252C8.49342 12.6113 8.0812 13.1607 7.55314 13.4152C6.91442 13.7231 6.35327 14.2091 5.89047 14.6719C4.79047 15.7619 4.56234 17.1056 4.81234 18.5156C5.13234 20.3456 4.66927 22.1644 3.35927 23.4844C1.87927 24.9644 1.72086 27.1072 3.46214 28.8485C4.94214 30.3285 7.25425 30.1831 8.73425 28.7031C10.0543 27.3831 12.0193 26.8363 13.8593 27.1562C14.9499 27.3459 16.488 27.0588 17.578 25.9688C18.0301 25.5166 18.4572 24.9917 18.7461 24.4315C19.0006 23.938 19.525 23.5762 20.0801 23.5717C21.4451 23.5608 22.7913 23.021 23.8436 21.9688Z" fill="url(#paint35_radial_210_2462)"/>
<path d="M23.8436 21.9688C25.6254 20.187 25.7607 17.3839 24.4995 15.2842C24.1708 14.737 24.3167 14.0699 24.8416 13.7068C24.963 13.6228 25.073 13.5294 25.1621 13.4219C26.5921 11.7119 26.4542 9.19561 24.9842 7.51561C23.2242 5.50561 20.4067 5.28062 18.5467 7.14062C18.526 7.16137 18.5051 7.18357 18.4841 7.20704C18.0566 7.68534 17.3465 7.82319 16.7964 7.49308C14.6918 6.23001 11.8734 6.34519 10.0936 8.12498C9.0561 9.16246 8.5204 10.6229 8.50137 12.0252C8.49342 12.6113 8.0812 13.1607 7.55314 13.4152C6.91442 13.7231 6.35327 14.2091 5.89047 14.6719C4.79047 15.7619 4.56234 17.1056 4.81234 18.5156C5.13234 20.3456 4.66927 22.1644 3.35927 23.4844C1.87927 24.9644 1.72086 27.1072 3.46214 28.8485C4.94214 30.3285 7.25425 30.1831 8.73425 28.7031C10.0543 27.3831 12.0193 26.8363 13.8593 27.1562C14.9499 27.3459 16.488 27.0588 17.578 25.9688C18.0301 25.5166 18.4572 24.9917 18.7461 24.4315C19.0006 23.938 19.525 23.5762 20.0801 23.5717C21.4451 23.5608 22.7913 23.021 23.8436 21.9688Z" fill="url(#paint36_radial_210_2462)"/>
<path d="M23.8436 21.9688C25.6254 20.187 25.7607 17.3839 24.4995 15.2842C24.1708 14.737 24.3167 14.0699 24.8416 13.7068C24.963 13.6228 25.073 13.5294 25.1621 13.4219C26.5921 11.7119 26.4542 9.19561 24.9842 7.51561C23.2242 5.50561 20.4067 5.28062 18.5467 7.14062C18.526 7.16137 18.5051 7.18357 18.4841 7.20704C18.0566 7.68534 17.3465 7.82319 16.7964 7.49308C14.6918 6.23001 11.8734 6.34519 10.0936 8.12498C9.0561 9.16246 8.5204 10.6229 8.50137 12.0252C8.49342 12.6113 8.0812 13.1607 7.55314 13.4152C6.91442 13.7231 6.35327 14.2091 5.89047 14.6719C4.79047 15.7619 4.56234 17.1056 4.81234 18.5156C5.13234 20.3456 4.66927 22.1644 3.35927 23.4844C1.87927 24.9644 1.72086 27.1072 3.46214 28.8485C4.94214 30.3285 7.25425 30.1831 8.73425 28.7031C10.0543 27.3831 12.0193 26.8363 13.8593 27.1562C14.9499 27.3459 16.488 27.0588 17.578 25.9688C18.0301 25.5166 18.4572 24.9917 18.7461 24.4315C19.0006 23.938 19.525 23.5762 20.0801 23.5717C21.4451 23.5608 22.7913 23.021 23.8436 21.9688Z" fill="url(#paint37_radial_210_2462)"/>
<path d="M23.8436 21.9688C25.6254 20.187 25.7607 17.3839 24.4995 15.2842C24.1708 14.737 24.3167 14.0699 24.8416 13.7068C24.963 13.6228 25.073 13.5294 25.1621 13.4219C26.5921 11.7119 26.4542 9.19561 24.9842 7.51561C23.2242 5.50561 20.4067 5.28062 18.5467 7.14062C18.526 7.16137 18.5051 7.18357 18.4841 7.20704C18.0566 7.68534 17.3465 7.82319 16.7964 7.49308C14.6918 6.23001 11.8734 6.34519 10.0936 8.12498C9.0561 9.16246 8.5204 10.6229 8.50137 12.0252C8.49342 12.6113 8.0812 13.1607 7.55314 13.4152C6.91442 13.7231 6.35327 14.2091 5.89047 14.6719C4.79047 15.7619 4.56234 17.1056 4.81234 18.5156C5.13234 20.3456 4.66927 22.1644 3.35927 23.4844C1.87927 24.9644 1.72086 27.1072 3.46214 28.8485C4.94214 30.3285 7.25425 30.1831 8.73425 28.7031C10.0543 27.3831 12.0193 26.8363 13.8593 27.1562C14.9499 27.3459 16.488 27.0588 17.578 25.9688C18.0301 25.5166 18.4572 24.9917 18.7461 24.4315C19.0006 23.938 19.525 23.5762 20.0801 23.5717C21.4451 23.5608 22.7913 23.021 23.8436 21.9688Z" fill="url(#paint38_radial_210_2462)"/>
<path d="M23.8436 21.9688C25.6254 20.187 25.7607 17.3839 24.4995 15.2842C24.1708 14.737 24.3167 14.0699 24.8416 13.7068C24.963 13.6228 25.073 13.5294 25.1621 13.4219C26.5921 11.7119 26.4542 9.19561 24.9842 7.51561C23.2242 5.50561 20.4067 5.28062 18.5467 7.14062C18.526 7.16137 18.5051 7.18357 18.4841 7.20704C18.0566 7.68534 17.3465 7.82319 16.7964 7.49308C14.6918 6.23001 11.8734 6.34519 10.0936 8.12498C9.0561 9.16246 8.5204 10.6229 8.50137 12.0252C8.49342 12.6113 8.0812 13.1607 7.55314 13.4152C6.91442 13.7231 6.35327 14.2091 5.89047 14.6719C4.79047 15.7619 4.56234 17.1056 4.81234 18.5156C5.13234 20.3456 4.66927 22.1644 3.35927 23.4844C1.87927 24.9644 1.72086 27.1072 3.46214 28.8485C4.94214 30.3285 7.25425 30.1831 8.73425 28.7031C10.0543 27.3831 12.0193 26.8363 13.8593 27.1562C14.9499 27.3459 16.488 27.0588 17.578 25.9688C18.0301 25.5166 18.4572 24.9917 18.7461 24.4315C19.0006 23.938 19.525 23.5762 20.0801 23.5717C21.4451 23.5608 22.7913 23.021 23.8436 21.9688Z" fill="url(#paint39_radial_210_2462)"/>
<path d="M23.8436 21.9688C25.6254 20.187 25.7607 17.3839 24.4995 15.2842C24.1708 14.737 24.3167 14.0699 24.8416 13.7068C24.963 13.6228 25.073 13.5294 25.1621 13.4219C26.5921 11.7119 26.4542 9.19561 24.9842 7.51561C23.2242 5.50561 20.4067 5.28062 18.5467 7.14062C18.526 7.16137 18.5051 7.18357 18.4841 7.20704C18.0566 7.68534 17.3465 7.82319 16.7964 7.49308C14.6918 6.23001 11.8734 6.34519 10.0936 8.12498C9.0561 9.16246 8.5204 10.6229 8.50137 12.0252C8.49342 12.6113 8.0812 13.1607 7.55314 13.4152C6.91442 13.7231 6.35327 14.2091 5.89047 14.6719C4.79047 15.7619 4.56234 17.1056 4.81234 18.5156C5.13234 20.3456 4.66927 22.1644 3.35927 23.4844C1.87927 24.9644 1.72086 27.1072 3.46214 28.8485C4.94214 30.3285 7.25425 30.1831 8.73425 28.7031C10.0543 27.3831 12.0193 26.8363 13.8593 27.1562C14.9499 27.3459 16.488 27.0588 17.578 25.9688C18.0301 25.5166 18.4572 24.9917 18.7461 24.4315C19.0006 23.938 19.525 23.5762 20.0801 23.5717C21.4451 23.5608 22.7913 23.021 23.8436 21.9688Z" fill="url(#paint40_radial_210_2462)"/>
<path d="M23.8436 21.9688C25.6254 20.187 25.7607 17.3839 24.4995 15.2842C24.1708 14.737 24.3167 14.0699 24.8416 13.7068C24.963 13.6228 25.073 13.5294 25.1621 13.4219C26.5921 11.7119 26.4542 9.19561 24.9842 7.51561C23.2242 5.50561 20.4067 5.28062 18.5467 7.14062C18.526 7.16137 18.5051 7.18357 18.4841 7.20704C18.0566 7.68534 17.3465 7.82319 16.7964 7.49308C14.6918 6.23001 11.8734 6.34519 10.0936 8.12498C9.0561 9.16246 8.5204 10.6229 8.50137 12.0252C8.49342 12.6113 8.0812 13.1607 7.55314 13.4152C6.91442 13.7231 6.35327 14.2091 5.89047 14.6719C4.79047 15.7619 4.56234 17.1056 4.81234 18.5156C5.13234 20.3456 4.66927 22.1644 3.35927 23.4844C1.87927 24.9644 1.72086 27.1072 3.46214 28.8485C4.94214 30.3285 7.25425 30.1831 8.73425 28.7031C10.0543 27.3831 12.0193 26.8363 13.8593 27.1562C14.9499 27.3459 16.488 27.0588 17.578 25.9688C18.0301 25.5166 18.4572 24.9917 18.7461 24.4315C19.0006 23.938 19.525 23.5762 20.0801 23.5717C21.4451 23.5608 22.7913 23.021 23.8436 21.9688Z" fill="url(#paint41_radial_210_2462)"/>
<path fill-rule="evenodd" clip-rule="evenodd" d="M13.827 11.3618C14.1567 11.2594 14.5069 11.4436 14.6093 11.7733L15.8023 15.6149L19.9005 11.5167C20.1445 11.2727 20.5403 11.2727 20.7843 11.5167C21.0284 11.7608 21.0284 12.1565 20.7843 12.4006L16.6867 16.4983L20.5374 17.6917C20.8671 17.7939 21.0515 18.144 20.9494 18.4737C20.8472 18.8034 20.4971 18.9879 20.1674 18.8857L15.6876 17.4973L11.8263 21.3587L14.4777 22.1818C14.8073 22.2841 14.9916 22.6343 14.8893 22.964C14.7869 23.2936 14.4367 23.4779 14.1071 23.3756L10.8275 22.3575L8.65434 24.5306C8.41027 24.7747 8.01454 24.7747 7.77046 24.5306C7.52638 24.2865 7.52638 23.8908 7.77046 23.6467L9.94361 21.4736L8.92548 18.194C8.82315 17.8643 9.00742 17.5141 9.33708 17.4118C9.66674 17.3094 10.0169 17.4937 10.1193 17.8233L10.9424 20.4748L14.8036 16.6136L13.4155 12.144C13.3131 11.8144 13.4974 11.4642 13.827 11.3618Z" fill="url(#paint42_linear_210_2462)"/>
<path fill-rule="evenodd" clip-rule="evenodd" d="M13.827 11.3618C14.1567 11.2594 14.5069 11.4436 14.6093 11.7733L15.8023 15.6149L19.9005 11.5167C20.1445 11.2727 20.5403 11.2727 20.7843 11.5167C21.0284 11.7608 21.0284 12.1565 20.7843 12.4006L16.6867 16.4983L20.5374 17.6917C20.8671 17.7939 21.0515 18.144 20.9494 18.4737C20.8472 18.8034 20.4971 18.9879 20.1674 18.8857L15.6876 17.4973L11.8263 21.3587L14.4777 22.1818C14.8073 22.2841 14.9916 22.6343 14.8893 22.964C14.7869 23.2936 14.4367 23.4779 14.1071 23.3756L10.8275 22.3575L8.65434 24.5306C8.41027 24.7747 8.01454 24.7747 7.77046 24.5306C7.52638 24.2865 7.52638 23.8908 7.77046 23.6467L9.94361 21.4736L8.92548 18.194C8.82315 17.8643 9.00742 17.5141 9.33708 17.4118C9.66674 17.3094 10.0169 17.4937 10.1193 17.8233L10.9424 20.4748L14.8036 16.6136L13.4155 12.144C13.3131 11.8144 13.4974 11.4642 13.827 11.3618Z" fill="url(#paint43_radial_210_2462)"/>
<path fill-rule="evenodd" clip-rule="evenodd" d="M13.827 11.3618C14.1567 11.2594 14.5069 11.4436 14.6093 11.7733L15.8023 15.6149L19.9005 11.5167C20.1445 11.2727 20.5403 11.2727 20.7843 11.5167C21.0284 11.7608 21.0284 12.1565 20.7843 12.4006L16.6867 16.4983L20.5374 17.6917C20.8671 17.7939 21.0515 18.144 20.9494 18.4737C20.8472 18.8034 20.4971 18.9879 20.1674 18.8857L15.6876 17.4973L11.8263 21.3587L14.4777 22.1818C14.8073 22.2841 14.9916 22.6343 14.8893 22.964C14.7869 23.2936 14.4367 23.4779 14.1071 23.3756L10.8275 22.3575L8.65434 24.5306C8.41027 24.7747 8.01454 24.7747 7.77046 24.5306C7.52638 24.2865 7.52638 23.8908 7.77046 23.6467L9.94361 21.4736L8.92548 18.194C8.82315 17.8643 9.00742 17.5141 9.33708 17.4118C9.66674 17.3094 10.0169 17.4937 10.1193 17.8233L10.9424 20.4748L14.8036 16.6136L13.4155 12.144C13.3131 11.8144 13.4974 11.4642 13.827 11.3618Z" fill="url(#paint44_radial_210_2462)"/>
<path fill-rule="evenodd" clip-rule="evenodd" d="M13.827 11.3618C14.1567 11.2594 14.5069 11.4436 14.6093 11.7733L15.8023 15.6149L19.9005 11.5167C20.1445 11.2727 20.5403 11.2727 20.7843 11.5167C21.0284 11.7608 21.0284 12.1565 20.7843 12.4006L16.6867 16.4983L20.5374 17.6917C20.8671 17.7939 21.0515 18.144 20.9494 18.4737C20.8472 18.8034 20.4971 18.9879 20.1674 18.8857L15.6876 17.4973L11.8263 21.3587L14.4777 22.1818C14.8073 22.2841 14.9916 22.6343 14.8893 22.964C14.7869 23.2936 14.4367 23.4779 14.1071 23.3756L10.8275 22.3575L8.65434 24.5306C8.41027 24.7747 8.01454 24.7747 7.77046 24.5306C7.52638 24.2865 7.52638 23.8908 7.77046 23.6467L9.94361 21.4736L8.92548 18.194C8.82315 17.8643 9.00742 17.5141 9.33708 17.4118C9.66674 17.3094 10.0169 17.4937 10.1193 17.8233L10.9424 20.4748L14.8036 16.6136L13.4155 12.144C13.3131 11.8144 13.4974 11.4642 13.827 11.3618Z" fill="url(#paint45_radial_210_2462)"/>
<path fill-rule="evenodd" clip-rule="evenodd" d="M13.827 11.3618C14.1567 11.2594 14.5069 11.4436 14.6093 11.7733L15.8023 15.6149L19.9005 11.5167C20.1445 11.2727 20.5403 11.2727 20.7843 11.5167C21.0284 11.7608 21.0284 12.1565 20.7843 12.4006L16.6867 16.4983L20.5374 17.6917C20.8671 17.7939 21.0515 18.144 20.9494 18.4737C20.8472 18.8034 20.4971 18.9879 20.1674 18.8857L15.6876 17.4973L11.8263 21.3587L14.4777 22.1818C14.8073 22.2841 14.9916 22.6343 14.8893 22.964C14.7869 23.2936 14.4367 23.4779 14.1071 23.3756L10.8275 22.3575L8.65434 24.5306C8.41027 24.7747 8.01454 24.7747 7.77046 24.5306C7.52638 24.2865 7.52638 23.8908 7.77046 23.6467L9.94361 21.4736L8.92548 18.194C8.82315 17.8643 9.00742 17.5141 9.33708 17.4118C9.66674 17.3094 10.0169 17.4937 10.1193 17.8233L10.9424 20.4748L14.8036 16.6136L13.4155 12.144C13.3131 11.8144 13.4974 11.4642 13.827 11.3618Z" fill="url(#paint46_radial_210_2462)"/>
<defs>
<linearGradient id="paint0_linear_210_2462" x1="28.2501" y1="14.1876" x2="10.8751" y2="29.0001" gradientUnits="userSpaceOnUse">
<stop stop-color="#4B7916"/>
<stop offset="0.16529" stop-color="#4C4954"/>
<stop offset="0.242505" stop-color="#4C771D"/>
<stop offset="0.464246" stop-color="#524C55"/>
<stop offset="0.575367" stop-color="#605A62"/>
<stop offset="1" stop-color="#574D55"/>
</linearGradient>
<radialGradient id="paint1_radial_210_2462" cx="0" cy="0" r="1" gradientUnits="userSpaceOnUse" gradientTransform="translate(25.8437 15.2188) rotate(-7.68786) scale(4.20479)">
<stop offset="0.668303" stop-color="#77A458" stop-opacity="0.9"/>
<stop offset="0.949489" stop-color="#77A458" stop-opacity="0"/>
</radialGradient>
<radialGradient id="paint2_radial_210_2462" cx="0" cy="0" r="1" gradientUnits="userSpaceOnUse" gradientTransform="translate(22.0937 20.9375) rotate(11.5203) scale(5.00712)">
<stop offset="0.837385" stop-color="#77A458" stop-opacity="0.7"/>
<stop offset="0.949489" stop-color="#77A458" stop-opacity="0"/>
</radialGradient>
<radialGradient id="paint3_radial_210_2462" cx="0" cy="0" r="1" gradientUnits="userSpaceOnUse" gradientTransform="translate(21.4483 22.1034) rotate(43.7914) scale(5.78006 5.49393)">
<stop offset="0.817708" stop-color="#5A853F"/>
<stop offset="0.949489" stop-color="#5A853F" stop-opacity="0"/>
</radialGradient>
<radialGradient id="paint4_radial_210_2462" cx="0" cy="0" r="1" gradientUnits="userSpaceOnUse" gradientTransform="translate(25.3793 15.6207) rotate(-26.565) scale(4.39503)">
<stop offset="0.796875" stop-color="#5A853F"/>
<stop offset="0.949489" stop-color="#5A853F" stop-opacity="0"/>
</radialGradient>
<radialGradient id="paint5_radial_210_2462" cx="0" cy="0" r="1" gradientUnits="userSpaceOnUse" gradientTransform="translate(15.1552 25.0862) rotate(75.7597) scale(4.69602)">
<stop offset="0.807292" stop-color="#5A853F"/>
<stop offset="0.949489" stop-color="#5A853F" stop-opacity="0"/>
</radialGradient>
<radialGradient id="paint6_radial_210_2462" cx="0" cy="0" r="1" gradientUnits="userSpaceOnUse" gradientTransform="translate(10.7187 25.0938) rotate(94.844) scale(3.70072 6.52537)">
<stop offset="0.758857" stop-color="#5A853F"/>
<stop offset="0.949489" stop-color="#5A853F" stop-opacity="0"/>
</radialGradient>
<radialGradient id="paint7_radial_210_2462" cx="0" cy="0" r="1" gradientUnits="userSpaceOnUse" gradientTransform="translate(11.5622 24.7177) rotate(41.001) scale(8.72888)">
<stop stop-opacity="0.7"/>
<stop offset="0.949489" stop-opacity="0"/>
</radialGradient>
<radialGradient id="paint8_radial_210_2462" cx="0" cy="0" r="1" gradientUnits="userSpaceOnUse" gradientTransform="translate(14.4069 22.5842) rotate(63.7497) scale(6.09315)">
<stop/>
<stop offset="0.949489" stop-opacity="0"/>
</radialGradient>
<radialGradient id="paint9_radial_210_2462" cx="0" cy="0" r="1" gradientUnits="userSpaceOnUse" gradientTransform="translate(19.9091 18.5043) rotate(27.3874) scale(6.9977)">
<stop/>
<stop offset="0.949489" stop-opacity="0"/>
</radialGradient>
<radialGradient id="paint10_radial_210_2462" cx="0" cy="0" r="1" gradientUnits="userSpaceOnUse" gradientTransform="translate(21.556 12.6278) rotate(-10.9391) scale(4.5366)">
<stop/>
<stop offset="0.949489" stop-opacity="0"/>
</radialGradient>
<radialGradient id="paint11_radial_210_2462" cx="0" cy="0" r="1" gradientUnits="userSpaceOnUse" gradientTransform="translate(9.125 9.64063) rotate(-133.713) scale(3.93427 5.58133)">
<stop offset="0.837385" stop-color="#77A458" stop-opacity="0.9"/>
<stop offset="0.949489" stop-color="#77A458" stop-opacity="0"/>
</radialGradient>
<radialGradient id="paint12_radial_210_2462" cx="0" cy="0" r="1" gradientUnits="userSpaceOnUse" gradientTransform="translate(6.25 17.8438) rotate(-141.411) scale(3.95803 3.37521)">
<stop offset="0.837385" stop-color="#77A458" stop-opacity="0.7"/>
<stop offset="0.949489" stop-color="#77A458" stop-opacity="0"/>
</radialGradient>
<radialGradient id="paint13_radial_210_2462" cx="0" cy="0" r="1" gradientUnits="userSpaceOnUse" gradientTransform="translate(6.96875 21.0937) rotate(-180) scale(3.875 2.63697)">
<stop offset="0.837385" stop-color="#77A458" stop-opacity="0.7"/>
<stop offset="0.949489" stop-color="#77A458" stop-opacity="0"/>
</radialGradient>
<radialGradient id="paint14_radial_210_2462" cx="0" cy="0" r="1" gradientUnits="userSpaceOnUse" gradientTransform="translate(16.9062 6.625) rotate(-82.2164) scale(4.38414)">
<stop offset="0.75" stop-color="#77A458" stop-opacity="0.9"/>
<stop offset="0.949489" stop-color="#77A458" stop-opacity="0"/>
</radialGradient>
<radialGradient id="paint15_radial_210_2462" cx="0" cy="0" r="1" gradientUnits="userSpaceOnUse" gradientTransform="translate(9.92188 10.7656) rotate(-129.651) scale(5.92573 5.52559)">
<stop offset="0.828125" stop-color="#5A853F"/>
<stop offset="0.916667" stop-color="#5A853F" stop-opacity="0"/>
</radialGradient>
<radialGradient id="paint16_radial_210_2462" cx="0" cy="0" r="1" gradientUnits="userSpaceOnUse" gradientTransform="translate(16.25 7.125) rotate(-83.1857) scale(5.0041 4.73094)">
<stop offset="0.755208" stop-color="#5A853F"/>
<stop offset="0.9375" stop-color="#5A853F" stop-opacity="0"/>
</radialGradient>
<radialGradient id="paint17_radial_210_2462" cx="0" cy="0" r="1" gradientUnits="userSpaceOnUse" gradientTransform="translate(7.65625 17) rotate(-166.777) scale(5.20038)">
<stop offset="0.837385" stop-color="#5A853F"/>
<stop offset="0.949489" stop-color="#5A853F" stop-opacity="0"/>
</radialGradient>
<radialGradient id="paint18_radial_210_2462" cx="0" cy="0" r="1" gradientUnits="userSpaceOnUse" gradientTransform="translate(7.15625 21.2187) rotate(159.286) scale(3.97576)">
<stop offset="0.758857" stop-color="#5A853F"/>
<stop offset="0.949489" stop-color="#5A853F" stop-opacity="0"/>
</radialGradient>
<radialGradient id="paint19_radial_210_2462" cx="0" cy="0" r="1" gradientUnits="userSpaceOnUse" gradientTransform="translate(17.9375 10.0625) rotate(-65.0952) scale(3.85884)">
<stop/>
<stop offset="0.949489" stop-opacity="0"/>
</radialGradient>
<radialGradient id="paint20_radial_210_2462" cx="0" cy="0" r="1" gradientUnits="userSpaceOnUse" gradientTransform="translate(7.375 23.125) rotate(168.906) scale(6.49639 8.80176)">
<stop stop-opacity="0.7"/>
<stop offset="0.949489" stop-opacity="0"/>
</radialGradient>
<radialGradient id="paint21_radial_210_2462" cx="0" cy="0" r="1" gradientUnits="userSpaceOnUse" gradientTransform="translate(13 11) rotate(61.9559) scale(5.45038 6.38428)">
<stop offset="0.0670599"/>
<stop offset="0.949489" stop-opacity="0"/>
</radialGradient>
<radialGradient id="paint22_radial_210_2462" cx="0" cy="0" r="1" gradientUnits="userSpaceOnUse" gradientTransform="translate(8.625 17) rotate(-138.945) scale(5.1387)">
<stop/>
<stop offset="0.949489" stop-opacity="0"/>
</radialGradient>
<linearGradient id="paint23_linear_210_2462" x1="4.06238" y1="26.375" x2="22.9999" y2="7.4375" gradientUnits="userSpaceOnUse">
<stop stop-color="#88AD37"/>
<stop offset="0.419142" stop-color="#70A124"/>
<stop offset="0.536304" stop-color="#71A520" stop-opacity="0.9983"/>
<stop offset="0.778878" stop-color="#89BF21"/>
<stop offset="1" stop-color="#89C031"/>
</linearGradient>
<radialGradient id="paint24_radial_210_2462" cx="0" cy="0" r="1" gradientUnits="userSpaceOnUse" gradientTransform="translate(21.5 10.4375) rotate(134.438) scale(4.50802 4.26605)">
<stop offset="0.869053" stop-color="#D4FF9C"/>
<stop offset="1" stop-color="#D4FF9C" stop-opacity="0"/>
</radialGradient>
<radialGradient id="paint25_radial_210_2462" cx="0" cy="0" r="1" gradientUnits="userSpaceOnUse" gradientTransform="translate(14.1833 11.9687) rotate(20.8865) scale(4.82094 4.94355)">
<stop offset="0.880229" stop-color="#D4FF9C"/>
<stop offset="1" stop-color="#D4FF9C" stop-opacity="0"/>
</radialGradient>
<radialGradient id="paint26_radial_210_2462" cx="0" cy="0" r="1" gradientUnits="userSpaceOnUse" gradientTransform="translate(19.5625 16.7812) rotate(-6.30161) scale(5.12471 5.25505)">
<stop offset="0.916447" stop-color="#D4FF9C"/>
<stop offset="1" stop-color="#D4FF9C" stop-opacity="0"/>
</radialGradient>
<radialGradient id="paint27_radial_210_2462" cx="0" cy="0" r="1" gradientUnits="userSpaceOnUse" gradientTransform="translate(19.7813 19.6875) rotate(54.2933) scale(3.69451 3.78847)">
<stop offset="0.888739" stop-color="#96AA61"/>
<stop offset="1" stop-color="#96AA61" stop-opacity="0"/>
</radialGradient>
<radialGradient id="paint28_radial_210_2462" cx="0" cy="0" r="1" gradientUnits="userSpaceOnUse" gradientTransform="translate(21.5 10.4375) rotate(133.135) scale(4.75339 4.51314)">
<stop offset="0.687686" stop-color="#8CBC3D"/>
<stop offset="0.839496" stop-color="#8CBC3D" stop-opacity="0.585581"/>
<stop offset="1" stop-color="#8CBC3D" stop-opacity="0"/>
</radialGradient>
<radialGradient id="paint29_radial_210_2462" cx="0" cy="0" r="1" gradientUnits="userSpaceOnUse" gradientTransform="translate(21.5 10.4375) rotate(132.414) scale(3.42854 5.83082)">
<stop offset="0.687686" stop-color="#8CBC3D"/>
<stop offset="0.839496" stop-color="#8CBC3D" stop-opacity="0.585581"/>
<stop offset="1" stop-color="#8CBC3D" stop-opacity="0"/>
</radialGradient>
<radialGradient id="paint30_radial_210_2462" cx="0" cy="0" r="1" gradientUnits="userSpaceOnUse" gradientTransform="translate(13.625 11.5) rotate(58.183) scale(5.03833 5.02594)">
<stop offset="0.724463" stop-color="#8CBC3D"/>
<stop offset="0.839056" stop-color="#8CBC3D" stop-opacity="0.597187"/>
<stop offset="1" stop-color="#8CBC3D" stop-opacity="0"/>
</radialGradient>
<radialGradient id="paint31_radial_210_2462" cx="0" cy="0" r="1" gradientUnits="userSpaceOnUse" gradientTransform="translate(19.7813 18.0625) rotate(-168.69) scale(5.89574 5.88124)">
<stop offset="0.724463" stop-color="#8CBC3D"/>
<stop offset="0.839056" stop-color="#8CBC3D" stop-opacity="0.597187"/>
<stop offset="1" stop-color="#8CBC3D" stop-opacity="0"/>
</radialGradient>
<radialGradient id="paint32_radial_210_2462" cx="0" cy="0" r="1" gradientUnits="userSpaceOnUse" gradientTransform="translate(14.1833 22.1563) rotate(-92.0002) scale(5.2532 5.24028)">
<stop offset="0.724463" stop-color="#8CBC3D"/>
<stop offset="0.839056" stop-color="#8CBC3D" stop-opacity="0.597187"/>
<stop offset="1" stop-color="#8CBC3D" stop-opacity="0"/>
</radialGradient>
<radialGradient id="paint33_radial_210_2462" cx="0" cy="0" r="1" gradientUnits="userSpaceOnUse" gradientTransform="translate(9.3125 17.6875) rotate(-9.46232) scale(4.75216 4.74047)">
<stop offset="0.724463" stop-color="#8CBC3D"/>
<stop offset="0.839056" stop-color="#8CBC3D" stop-opacity="0.597187"/>
<stop offset="1" stop-color="#8CBC3D" stop-opacity="0"/>
</radialGradient>
<radialGradient id="paint34_radial_210_2462" cx="0" cy="0" r="1" gradientUnits="userSpaceOnUse" gradientTransform="translate(6 26.0938) rotate(-45) scale(3.8007 3.79135)">
<stop offset="0.724463" stop-color="#8CBC3D"/>
<stop offset="0.839056" stop-color="#8CBC3D" stop-opacity="0.597187"/>
<stop offset="1" stop-color="#8CBC3D" stop-opacity="0"/>
</radialGradient>
<radialGradient id="paint35_radial_210_2462" cx="0" cy="0" r="1" gradientUnits="userSpaceOnUse" gradientTransform="translate(7.21875 23.5312) rotate(5.82636) scale(3.0784 4.92655)">
<stop offset="0.683594" stop-color="#8CBC3D"/>
<stop offset="1" stop-color="#8CBC3D" stop-opacity="0"/>
</radialGradient>
<radialGradient id="paint36_radial_210_2462" cx="0" cy="0" r="1" gradientUnits="userSpaceOnUse" gradientTransform="translate(8 19.8438) rotate(5.19443) scale(3.10651 4.97152)">
<stop offset="0.683594" stop-color="#8CBC3D"/>
<stop offset="1" stop-color="#8CBC3D" stop-opacity="0"/>
</radialGradient>
<radialGradient id="paint37_radial_210_2462" cx="0" cy="0" r="1" gradientUnits="userSpaceOnUse" gradientTransform="translate(9.21875 25.5) rotate(-122.005) scale(2.06368 3.30263)">
<stop offset="0.683594" stop-color="#8CBC3D"/>
<stop offset="1" stop-color="#8CBC3D" stop-opacity="0"/>
</radialGradient>
<radialGradient id="paint38_radial_210_2462" cx="0" cy="0" r="1" gradientUnits="userSpaceOnUse" gradientTransform="translate(11.5 24.4375) rotate(-95.3145) scale(2.6991 4.31953)">
<stop offset="0.683594" stop-color="#8CBC3D"/>
<stop offset="1" stop-color="#8CBC3D" stop-opacity="0"/>
</radialGradient>
<radialGradient id="paint39_radial_210_2462" cx="0" cy="0" r="1" gradientUnits="userSpaceOnUse" gradientTransform="translate(16.0625 15.8437) rotate(135.554) scale(9.14862 7.16083)">
<stop offset="0.683594" stop-color="#8CBC3D"/>
<stop offset="1" stop-color="#8CBC3D" stop-opacity="0"/>
</radialGradient>
<radialGradient id="paint40_radial_210_2462" cx="0" cy="0" r="1" gradientUnits="userSpaceOnUse" gradientTransform="translate(11.5 14.5) rotate(-155.136) scale(2.82428 3.91279)">
<stop offset="0.676751" stop-color="#8CBC3D"/>
<stop offset="1" stop-color="#8CBC3D" stop-opacity="0"/>
</radialGradient>
<radialGradient id="paint41_radial_210_2462" cx="0" cy="0" r="1" gradientUnits="userSpaceOnUse" gradientTransform="translate(16.7813 10.4063) rotate(-87.6467) scale(2.28318 3.79774)">
<stop offset="0.676751" stop-color="#8CBC3D"/>
<stop offset="1" stop-color="#8CBC3D" stop-opacity="0"/>
</radialGradient>
<linearGradient id="paint42_linear_210_2462" x1="10.9376" y1="13.7189" x2="16.3439" y2="21.3751" gradientUnits="userSpaceOnUse">
<stop stop-color="#457328"/>
<stop offset="1" stop-color="#46772A"/>
</linearGradient>
<radialGradient id="paint43_radial_210_2462" cx="0" cy="0" r="1" gradientUnits="userSpaceOnUse" gradientTransform="translate(19.1622 13.1687) rotate(134.39) scale(4.87729 0.717216)">
<stop stop-color="#5C8141"/>
<stop offset="1" stop-color="#5C8141" stop-opacity="0"/>
</radialGradient>
<radialGradient id="paint44_radial_210_2462" cx="0" cy="0" r="1" gradientUnits="userSpaceOnUse" gradientTransform="translate(10.7242 21.6067) rotate(-45.3312) scale(4.48797 0.659965)">
<stop stop-color="#5C8141"/>
<stop offset="1" stop-color="#5C8141" stop-opacity="0"/>
</radialGradient>
<radialGradient id="paint45_radial_210_2462" cx="0" cy="0" r="1" gradientUnits="userSpaceOnUse" gradientTransform="translate(10.7242 21.6067) rotate(-107.496) scale(3.53891 0.520404)">
<stop stop-color="#5C8141"/>
<stop offset="1" stop-color="#5C8141" stop-opacity="0"/>
</radialGradient>
<radialGradient id="paint46_radial_210_2462" cx="0" cy="0" r="1" gradientUnits="userSpaceOnUse" gradientTransform="translate(10.7242 21.6067) rotate(18.2459) scale(3.51525 0.516925)">
<stop stop-color="#5C8141"/>
<stop offset="1" stop-color="#5C8141" stop-opacity="0"/>
</radialGradient>
</defs>
</svg>
