<svg width="45" height="45" viewBox="0 0 45 45" fill="none" xmlns="http://www.w3.org/2000/svg">
<rect width="45" height="45" rx="10" transform="matrix(0.999998 -0.0020256 0.0016127 0.999999 0 0.091156)" fill="#E4E7EC"/>
<path d="M26.375 16.1188C25.07 16.1188 23.8175 16.7263 23 17.6863C22.1825 16.7263 20.93 16.1188 19.625 16.1188C17.315 16.1188 15.5 17.9338 15.5 20.2438C15.5 23.0788 18.05 25.3888 21.9125 28.8988L23 29.8813L24.0875 28.8913C27.95 25.3888 30.5 23.0788 30.5 20.2438C30.5 17.9338 28.685 16.1188 26.375 16.1188ZM23.075 27.7813L23 27.8563L22.925 27.7813C19.355 24.5488 17 22.4113 17 20.2438C17 18.7438 18.125 17.6188 19.625 17.6188C20.78 17.6188 21.905 18.3613 22.3025 19.3888H23.705C24.095 18.3613 25.22 17.6188 26.375 17.6188C27.875 17.6188 29 18.7438 29 20.2438C29 22.4113 26.645 24.5488 23.075 27.7813Z" fill="white"/>
</svg>
