<svg width="100%" height="100%" viewBox="0 0 16 16" fill="none" xmlns="http://www.w3.org/2000/svg">
<path fill-rule="evenodd" clip-rule="evenodd" d="M7.65081 13.6104C7.83776 13.8265 8.16224 13.8265 8.34919 13.6104C9.32338 12.4846 12 9.10847 12 6C12 3.79086 10.2091 2 8 2C5.79086 2 4 3.79086 4 6C4 9.10847 6.67662 12.4846 7.65081 13.6104Z" stroke="#98A2B3"/>
<path fill-rule="evenodd" clip-rule="evenodd" d="M8.00002 7.33317C8.7364 7.33317 9.33335 6.73622 9.33335 5.99984C9.33335 5.26346 8.7364 4.6665 8.00002 4.6665C7.26364 4.6665 6.66669 5.26346 6.66669 5.99984C6.66669 6.73622 7.26364 7.33317 8.00002 7.33317Z" stroke="#98A2B3"/>
</svg>
