<svg width="100%" height="100%" viewBox="0 0 24 24" fill="none" xmlns="http://www.w3.org/2000/svg">
<path fill-rule="evenodd" clip-rule="evenodd" d="M10.9399 2H13.0601C14.467 2 15.57 1.99999 16.4565 2.06879C17.3592 2.13884 18.1049 2.28385 18.7799 2.61052C19.8896 3.14756 20.7918 4.00447 21.3572 5.05846C21.7012 5.69959 21.8538 6.40792 21.9276 7.26533C22 8.10735 22 9.155 22 10.4913V13.1768C22 13.4267 22 13.5788 21.9934 13.7114C21.8496 16.5968 19.4193 18.9051 16.3814 19.0417C16.2418 19.048 16.0655 19.048 15.7732 19.048H15.744L15.6668 19.0481C14.7773 19.0535 13.9109 19.3172 13.1839 19.8038L13.1335 19.8379L10.4558 21.6545C8.91272 22.7014 6.88501 21.1896 7.58927 19.5172C7.68393 19.2925 7.50965 19.048 7.25478 19.048H6.6376C4.07632 19.048 2 17.0759 2 14.6431L2 10.4913C2 9.15501 1.99999 8.10735 2.07242 7.26533C2.14618 6.40792 2.29885 5.69959 2.64278 5.05846C3.20819 4.00447 4.11038 3.14756 5.22006 2.61052C5.89506 2.28385 6.64082 2.13884 7.54352 2.06879C8.43004 1.99999 9.53305 2 10.9399 2ZM7.6688 3.52519C6.86124 3.58786 6.34048 3.70829 5.9185 3.91251C5.09831 4.30945 4.43147 4.94282 4.01356 5.72186C3.79855 6.12266 3.67176 6.61728 3.60577 7.38432C3.53906 8.15989 3.53846 9.14797 3.53846 10.524V14.6431C3.53846 16.2688 4.92599 17.5867 6.6376 17.5867H7.25478C8.59806 17.5867 9.51658 18.8753 9.0177 20.0599C8.88407 20.3772 9.26881 20.6641 9.56159 20.4655L12.2393 18.6488L12.2977 18.6093C13.2814 17.951 14.4536 17.5942 15.6569 17.5868L15.744 17.5867C16.0739 17.5867 16.2105 17.5865 16.3087 17.5821C18.5541 17.4811 20.3504 15.775 20.4567 13.6423C20.4613 13.5488 20.4615 13.4339 20.4615 13.1531V10.524C20.4615 9.14797 20.4609 8.15989 20.3942 7.38432C20.3282 6.61728 20.2014 6.12266 19.9864 5.72186C19.5685 4.94282 18.9017 4.30945 18.0815 3.91251C17.6595 3.70829 17.1388 3.58786 16.3312 3.52519C15.5146 3.46182 14.4744 3.46126 13.0256 3.46126H10.9744C9.52563 3.46126 8.48535 3.46182 7.6688 3.52519Z" fill="#5E5F60"/>
<path d="M8.92308 10.524C8.92308 11.062 8.46388 11.4982 7.89744 11.4982C7.33099 11.4982 6.8718 11.062 6.8718 10.524C6.8718 9.98597 7.33099 9.54982 7.89744 9.54982C8.46388 9.54982 8.92308 9.98597 8.92308 10.524Z" fill="#5E5F60"/>
<path d="M13.0256 10.524C13.0256 11.062 12.5664 11.4982 12 11.4982C11.4336 11.4982 10.9744 11.062 10.9744 10.524C10.9744 9.98597 11.4336 9.54982 12 9.54982C12.5664 9.54982 13.0256 9.98597 13.0256 10.524Z" fill="#5E5F60"/>
<path d="M17.1282 10.524C17.1282 11.062 16.669 11.4982 16.1026 11.4982C15.5361 11.4982 15.0769 11.062 15.0769 10.524C15.0769 9.98597 15.5361 9.54982 16.1026 9.54982C16.669 9.54982 17.1282 9.98597 17.1282 10.524Z" fill="#5E5F60"/>
</svg>
