<svg width="100%" height="100%" viewBox="0 0 24 24" fill="none" xmlns="http://www.w3.org/2000/svg">
<path fill-rule="evenodd" clip-rule="evenodd" d="M21.3945 4.86976C22 5.99405 22 7.46583 22 10.4094V13.2464C22 13.5403 22 13.6873 21.9938 13.8115C21.8583 16.5188 19.5689 18.6848 16.7072 18.8129C16.5759 18.8188 16.4026 18.8188 16.056 18.8188L15.967 18.8189C14.8334 18.8258 13.7292 19.1606 12.8025 19.7783L12.7436 19.818L9.84275 21.7783C8.84833 22.4502 7.54159 21.4798 7.99544 20.4063C8.31694 19.6459 7.72501 18.8188 6.85935 18.8188H6.19073C3.87625 18.8188 2 17.0438 2 14.8541V10.4094C2 7.46583 2 5.99405 2.60552 4.86976C3.13815 3.8808 3.98804 3.07675 5.03339 2.57286C6.22179 2 7.77749 2 10.8889 2H13.1111C16.2225 2 17.7782 2 18.9666 2.57286C20.012 3.07675 20.8619 3.8808 21.3945 4.86976ZM8.66667 10.4094C8.66667 10.9899 8.16921 11.4606 7.55556 11.4606C6.94191 11.4606 6.44444 10.9899 6.44444 10.4094C6.44444 9.82885 6.94191 9.35823 7.55556 9.35823C8.16921 9.35823 8.66667 9.82885 8.66667 10.4094ZM13.1111 10.4094C13.1111 10.9899 12.6136 11.4606 12 11.4606C11.3864 11.4606 10.8889 10.9899 10.8889 10.4094C10.8889 9.82885 11.3864 9.35823 12 9.35823C12.6136 9.35823 13.1111 9.82885 13.1111 10.4094ZM16.4444 11.4606C17.0581 11.4606 17.5556 10.9899 17.5556 10.4094C17.5556 9.82885 17.0581 9.35823 16.4444 9.35823C15.8308 9.35823 15.3333 9.82885 15.3333 10.4094C15.3333 10.9899 15.8308 11.4606 16.4444 11.4606Z" fill="#00AA5B"/>
</svg>
