<svg width="100%" height="100%" viewBox="0 0 24 24" fill="none" xmlns="http://www.w3.org/2000/svg">
<path fill-rule="evenodd" clip-rule="evenodd" d="M2 12C2 6.47715 6.47715 2 12 2C17.5228 2 22 6.47715 22 12C22 14.8358 20.8187 17.3968 18.9233 19.2159C17.1271 20.9396 14.6867 22 12 22C9.31332 22 6.87286 20.9396 5.07675 19.2159C3.18129 17.3968 2 14.8358 2 12ZM17.6587 18.4824C17.2578 17.283 16.1245 16.4186 14.7907 16.4186H9.2093C7.87547 16.4186 6.74224 17.283 6.34127 18.4824C7.85444 19.8045 9.83314 20.6047 12 20.6047C14.1669 20.6047 16.1456 19.8045 17.6587 18.4824ZM12 4.7907C9.55967 4.7907 7.5814 6.76897 7.5814 9.2093C7.5814 11.6496 9.55967 13.6279 12 13.6279C14.4403 13.6279 16.4186 11.6496 16.4186 9.2093C16.4186 6.76897 14.4403 4.7907 12 4.7907Z" fill="#00AA5B"/>
</svg>
