<svg width="100%" height="100%" viewBox="0 0 32 32" fill="none" xmlns="http://www.w3.org/2000/svg">
<path d="M12.3666 12.3031C14.5945 12.3031 16.4006 10.4971 16.4006 8.26919C16.4006 6.04129 14.5945 4.23523 12.3666 4.23523C10.1387 4.23523 8.33264 6.04129 8.33264 8.26919C8.33264 10.4971 10.1387 12.3031 12.3666 12.3031Z" fill="url(#paint0_radial_211_3270)"/>
<path d="M12.3666 12.3031C14.5945 12.3031 16.4006 10.4971 16.4006 8.26919C16.4006 6.04129 14.5945 4.23523 12.3666 4.23523C10.1387 4.23523 8.33264 6.04129 8.33264 8.26919C8.33264 10.4971 10.1387 12.3031 12.3666 12.3031Z" fill="url(#paint1_radial_211_3270)"/>
<path d="M8.78877 22.9943L6.39837 26.2643C5.80853 27.0714 4.68058 27.2473 3.87343 26.6575C3.06628 26.0676 2.89036 24.9397 3.4802 24.1326L5.87061 20.8626C6.46045 20.0554 7.58839 19.8795 8.39554 20.4693C9.20269 21.0488 9.37861 22.1871 8.78877 22.9943Z" fill="#3239FF"/>
<path d="M8.78877 22.9943L6.39837 26.2643C5.80853 27.0714 4.68058 27.2473 3.87343 26.6575C3.06628 26.0676 2.89036 24.9397 3.4802 24.1326L5.87061 20.8626C6.46045 20.0554 7.58839 19.8795 8.39554 20.4693C9.20269 21.0488 9.37861 22.1871 8.78877 22.9943Z" fill="url(#paint2_linear_211_3270)"/>
<path d="M8.78877 22.9943L6.39837 26.2643C5.80853 27.0714 4.68058 27.2473 3.87343 26.6575C3.06628 26.0676 2.89036 24.9397 3.4802 24.1326L5.87061 20.8626C6.46045 20.0554 7.58839 19.8795 8.39554 20.4693C9.20269 21.0488 9.37861 22.1871 8.78877 22.9943Z" fill="url(#paint3_radial_211_3270)" fill-opacity="0.6"/>
<path d="M8.78877 22.9943L6.39837 26.2643C5.80853 27.0714 4.68058 27.2473 3.87343 26.6575C3.06628 26.0676 2.89036 24.9397 3.4802 24.1326L5.87061 20.8626C6.46045 20.0554 7.58839 19.8795 8.39554 20.4693C9.20269 21.0488 9.37861 22.1871 8.78877 22.9943Z" fill="url(#paint4_radial_211_3270)"/>
<path d="M8.78877 22.9943L6.39837 26.2643C5.80853 27.0714 4.68058 27.2473 3.87343 26.6575C3.06628 26.0676 2.89036 24.9397 3.4802 24.1326L5.87061 20.8626C6.46045 20.0554 7.58839 19.8795 8.39554 20.4693C9.20269 21.0488 9.37861 22.1871 8.78877 22.9943Z" fill="url(#paint5_radial_211_3270)"/>
<path d="M8.78877 22.9943L6.39837 26.2643C5.80853 27.0714 4.68058 27.2473 3.87343 26.6575C3.06628 26.0676 2.89036 24.9397 3.4802 24.1326L5.87061 20.8626C6.46045 20.0554 7.58839 19.8795 8.39554 20.4693C9.20269 21.0488 9.37861 22.1871 8.78877 22.9943Z" fill="url(#paint6_radial_211_3270)"/>
<path d="M8.78877 22.9943L6.39837 26.2643C5.80853 27.0714 4.68058 27.2473 3.87343 26.6575C3.06628 26.0676 2.89036 24.9397 3.4802 24.1326L5.87061 20.8626C6.46045 20.0554 7.58839 19.8795 8.39554 20.4693C9.20269 21.0488 9.37861 22.1871 8.78877 22.9943Z" fill="url(#paint7_radial_211_3270)" fill-opacity="0.6"/>
<path d="M15.3352 22.9943L12.9448 26.2643C12.3549 27.0714 11.227 27.2473 10.4198 26.6575C9.61267 26.0676 9.43675 24.9397 10.0266 24.1326L12.417 20.8626C13.0068 20.0554 14.1348 19.8795 14.9419 20.4693C15.7491 21.0488 15.925 22.1871 15.3352 22.9943Z" fill="#3239FF"/>
<path d="M15.3352 22.9943L12.9448 26.2643C12.3549 27.0714 11.227 27.2473 10.4198 26.6575C9.61267 26.0676 9.43675 24.9397 10.0266 24.1326L12.417 20.8626C13.0068 20.0554 14.1348 19.8795 14.9419 20.4693C15.7491 21.0488 15.925 22.1871 15.3352 22.9943Z" fill="url(#paint8_linear_211_3270)"/>
<path d="M15.3352 22.9943L12.9448 26.2643C12.3549 27.0714 11.227 27.2473 10.4198 26.6575C9.61267 26.0676 9.43675 24.9397 10.0266 24.1326L12.417 20.8626C13.0068 20.0554 14.1348 19.8795 14.9419 20.4693C15.7491 21.0488 15.925 22.1871 15.3352 22.9943Z" fill="url(#paint9_radial_211_3270)" fill-opacity="0.6"/>
<path d="M15.3352 22.9943L12.9448 26.2643C12.3549 27.0714 11.227 27.2473 10.4198 26.6575C9.61267 26.0676 9.43675 24.9397 10.0266 24.1326L12.417 20.8626C13.0068 20.0554 14.1348 19.8795 14.9419 20.4693C15.7491 21.0488 15.925 22.1871 15.3352 22.9943Z" fill="url(#paint10_radial_211_3270)"/>
<path d="M15.3352 22.9943L12.9448 26.2643C12.3549 27.0714 11.227 27.2473 10.4198 26.6575C9.61267 26.0676 9.43675 24.9397 10.0266 24.1326L12.417 20.8626C13.0068 20.0554 14.1348 19.8795 14.9419 20.4693C15.7491 21.0488 15.925 22.1871 15.3352 22.9943Z" fill="url(#paint11_radial_211_3270)"/>
<path d="M15.3352 22.9943L12.9448 26.2643C12.3549 27.0714 11.227 27.2473 10.4198 26.6575C9.61267 26.0676 9.43675 24.9397 10.0266 24.1326L12.417 20.8626C13.0068 20.0554 14.1348 19.8795 14.9419 20.4693C15.7491 21.0488 15.925 22.1871 15.3352 22.9943Z" fill="url(#paint12_radial_211_3270)"/>
<path d="M15.3352 22.9943L12.9448 26.2643C12.3549 27.0714 11.227 27.2473 10.4198 26.6575C9.61267 26.0676 9.43675 24.9397 10.0266 24.1326L12.417 20.8626C13.0068 20.0554 14.1348 19.8795 14.9419 20.4693C15.7491 21.0488 15.925 22.1871 15.3352 22.9943Z" fill="url(#paint13_radial_211_3270)" fill-opacity="0.6"/>
<path d="M21.8814 22.9943L19.491 26.2643C18.9012 27.0714 17.7732 27.2473 16.9661 26.6575C16.1589 26.0676 15.983 24.9397 16.5729 24.1326L18.9633 20.8626C19.5531 20.0554 20.681 19.8795 21.4882 20.4693C22.2953 21.0488 22.4713 22.1871 21.8814 22.9943Z" fill="url(#paint14_linear_211_3270)"/>
<path d="M21.8814 22.9943L19.491 26.2643C18.9012 27.0714 17.7732 27.2473 16.9661 26.6575C16.1589 26.0676 15.983 24.9397 16.5729 24.1326L18.9633 20.8626C19.5531 20.0554 20.681 19.8795 21.4882 20.4693C22.2953 21.0488 22.4713 22.1871 21.8814 22.9943Z" fill="url(#paint15_radial_211_3270)"/>
<path d="M21.8814 22.9943L19.491 26.2643C18.9012 27.0714 17.7732 27.2473 16.9661 26.6575C16.1589 26.0676 15.983 24.9397 16.5729 24.1326L18.9633 20.8626C19.5531 20.0554 20.681 19.8795 21.4882 20.4693C22.2953 21.0488 22.4713 22.1871 21.8814 22.9943Z" fill="url(#paint16_linear_211_3270)"/>
<path d="M21.8814 22.9943L19.491 26.2643C18.9012 27.0714 17.7732 27.2473 16.9661 26.6575C16.1589 26.0676 15.983 24.9397 16.5729 24.1326L18.9633 20.8626C19.5531 20.0554 20.681 19.8795 21.4882 20.4693C22.2953 21.0488 22.4713 22.1871 21.8814 22.9943Z" fill="url(#paint17_radial_211_3270)" fill-opacity="0.6"/>
<path d="M21.8814 22.9943L19.491 26.2643C18.9012 27.0714 17.7732 27.2473 16.9661 26.6575C16.1589 26.0676 15.983 24.9397 16.5729 24.1326L18.9633 20.8626C19.5531 20.0554 20.681 19.8795 21.4882 20.4693C22.2953 21.0488 22.4713 22.1871 21.8814 22.9943Z" fill="url(#paint18_radial_211_3270)"/>
<path d="M21.8814 22.9943L19.491 26.2643C18.9012 27.0714 17.7732 27.2473 16.9661 26.6575C16.1589 26.0676 15.983 24.9397 16.5729 24.1326L18.9633 20.8626C19.5531 20.0554 20.681 19.8795 21.4882 20.4693C22.2953 21.0488 22.4713 22.1871 21.8814 22.9943Z" fill="url(#paint19_radial_211_3270)"/>
<path d="M21.8814 22.9943L19.491 26.2643C18.9012 27.0714 17.7732 27.2473 16.9661 26.6575C16.1589 26.0676 15.983 24.9397 16.5729 24.1326L18.9633 20.8626C19.5531 20.0554 20.681 19.8795 21.4882 20.4693C22.2953 21.0488 22.4713 22.1871 21.8814 22.9943Z" fill="url(#paint20_radial_211_3270)"/>
<path d="M21.8814 22.9943L19.491 26.2643C18.9012 27.0714 17.7732 27.2473 16.9661 26.6575C16.1589 26.0676 15.983 24.9397 16.5729 24.1326L18.9633 20.8626C19.5531 20.0554 20.681 19.8795 21.4882 20.4693C22.2953 21.0488 22.4713 22.1871 21.8814 22.9943Z" fill="url(#paint21_radial_211_3270)" fill-opacity="0.6"/>
<path d="M27.2023 4.55052C23.6576 1.09569 17.9861 1.15561 14.5312 4.7003C13.609 5.64078 12.9456 6.73155 12.5182 7.89627C12.4593 8.05674 12.2622 8.1195 12.1197 8.0252C11.8094 7.81995 11.4786 7.64064 11.1363 7.49611C10.3175 7.11668 9.4089 6.90699 8.45034 6.90699C4.88568 6.90699 2 9.79267 2 13.3573C2 14.8751 2.52921 16.273 3.40789 17.3813C4.59611 18.939 6.46332 19.9375 8.57016 19.9375C11.1064 19.9375 18.3954 19.9375 21.2412 19.9375C24.057 19.9375 26.5432 18.5496 28.061 16.4227C30.7769 12.8681 30.4774 7.75572 27.2023 4.55052Z" fill="#E0D3FF"/>
<path d="M27.2023 4.55052C23.6576 1.09569 17.9861 1.15561 14.5312 4.7003C13.609 5.64078 12.9456 6.73155 12.5182 7.89627C12.4593 8.05674 12.2622 8.1195 12.1197 8.0252C11.8094 7.81995 11.4786 7.64064 11.1363 7.49611C10.3175 7.11668 9.4089 6.90699 8.45034 6.90699C4.88568 6.90699 2 9.79267 2 13.3573C2 14.8751 2.52921 16.273 3.40789 17.3813C4.59611 18.939 6.46332 19.9375 8.57016 19.9375C11.1064 19.9375 18.3954 19.9375 21.2412 19.9375C24.057 19.9375 26.5432 18.5496 28.061 16.4227C30.7769 12.8681 30.4774 7.75572 27.2023 4.55052Z" fill="url(#paint22_radial_211_3270)"/>
<path d="M27.2023 4.55052C23.6576 1.09569 17.9861 1.15561 14.5312 4.7003C13.609 5.64078 12.9456 6.73155 12.5182 7.89627C12.4593 8.05674 12.2622 8.1195 12.1197 8.0252C11.8094 7.81995 11.4786 7.64064 11.1363 7.49611C10.3175 7.11668 9.4089 6.90699 8.45034 6.90699C4.88568 6.90699 2 9.79267 2 13.3573C2 14.8751 2.52921 16.273 3.40789 17.3813C4.59611 18.939 6.46332 19.9375 8.57016 19.9375C11.1064 19.9375 18.3954 19.9375 21.2412 19.9375C24.057 19.9375 26.5432 18.5496 28.061 16.4227C30.7769 12.8681 30.4774 7.75572 27.2023 4.55052Z" fill="url(#paint23_radial_211_3270)" fill-opacity="0.7"/>
<path d="M27.2023 4.55052C23.6576 1.09569 17.9861 1.15561 14.5312 4.7003C13.609 5.64078 12.9456 6.73155 12.5182 7.89627C12.4593 8.05674 12.2622 8.1195 12.1197 8.0252C11.8094 7.81995 11.4786 7.64064 11.1363 7.49611C10.3175 7.11668 9.4089 6.90699 8.45034 6.90699C4.88568 6.90699 2 9.79267 2 13.3573C2 14.8751 2.52921 16.273 3.40789 17.3813C4.59611 18.939 6.46332 19.9375 8.57016 19.9375C11.1064 19.9375 18.3954 19.9375 21.2412 19.9375C24.057 19.9375 26.5432 18.5496 28.061 16.4227C30.7769 12.8681 30.4774 7.75572 27.2023 4.55052Z" fill="url(#paint24_radial_211_3270)"/>
<path d="M27.2023 4.55052C23.6576 1.09569 17.9861 1.15561 14.5312 4.7003C13.609 5.64078 12.9456 6.73155 12.5182 7.89627C12.4593 8.05674 12.2622 8.1195 12.1197 8.0252C11.8094 7.81995 11.4786 7.64064 11.1363 7.49611C10.3175 7.11668 9.4089 6.90699 8.45034 6.90699C4.88568 6.90699 2 9.79267 2 13.3573C2 14.8751 2.52921 16.273 3.40789 17.3813C4.59611 18.939 6.46332 19.9375 8.57016 19.9375C11.1064 19.9375 18.3954 19.9375 21.2412 19.9375C24.057 19.9375 26.5432 18.5496 28.061 16.4227C30.7769 12.8681 30.4774 7.75572 27.2023 4.55052Z" fill="url(#paint25_radial_211_3270)"/>
<path d="M27.2023 4.55052C23.6576 1.09569 17.9861 1.15561 14.5312 4.7003C13.609 5.64078 12.9456 6.73155 12.5182 7.89627C12.4593 8.05674 12.2622 8.1195 12.1197 8.0252C11.8094 7.81995 11.4786 7.64064 11.1363 7.49611C10.3175 7.11668 9.4089 6.90699 8.45034 6.90699C4.88568 6.90699 2 9.79267 2 13.3573C2 14.8751 2.52921 16.273 3.40789 17.3813C4.59611 18.939 6.46332 19.9375 8.57016 19.9375C11.1064 19.9375 18.3954 19.9375 21.2412 19.9375C24.057 19.9375 26.5432 18.5496 28.061 16.4227C30.7769 12.8681 30.4774 7.75572 27.2023 4.55052Z" fill="url(#paint26_radial_211_3270)"/>
<path d="M27.2023 4.55052C23.6576 1.09569 17.9861 1.15561 14.5312 4.7003C13.609 5.64078 12.9456 6.73155 12.5182 7.89627C12.4593 8.05674 12.2622 8.1195 12.1197 8.0252C11.8094 7.81995 11.4786 7.64064 11.1363 7.49611C10.3175 7.11668 9.4089 6.90699 8.45034 6.90699C4.88568 6.90699 2 9.79267 2 13.3573C2 14.8751 2.52921 16.273 3.40789 17.3813C4.59611 18.939 6.46332 19.9375 8.57016 19.9375C11.1064 19.9375 18.3954 19.9375 21.2412 19.9375C24.057 19.9375 26.5432 18.5496 28.061 16.4227C30.7769 12.8681 30.4774 7.75572 27.2023 4.55052Z" fill="url(#paint27_radial_211_3270)"/>
<path d="M27.2023 4.55052C23.6576 1.09569 17.9861 1.15561 14.5312 4.7003C13.609 5.64078 12.9456 6.73155 12.5182 7.89627C12.4593 8.05674 12.2622 8.1195 12.1197 8.0252C11.8094 7.81995 11.4786 7.64064 11.1363 7.49611C10.3175 7.11668 9.4089 6.90699 8.45034 6.90699C4.88568 6.90699 2 9.79267 2 13.3573C2 14.8751 2.52921 16.273 3.40789 17.3813C4.59611 18.939 6.46332 19.9375 8.57016 19.9375C11.1064 19.9375 18.3954 19.9375 21.2412 19.9375C24.057 19.9375 26.5432 18.5496 28.061 16.4227C30.7769 12.8681 30.4774 7.75572 27.2023 4.55052Z" fill="url(#paint28_radial_211_3270)" fill-opacity="0.55"/>
<path d="M27.2023 4.55052C23.6576 1.09569 17.9861 1.15561 14.5312 4.7003C13.609 5.64078 12.9456 6.73155 12.5182 7.89627C12.4593 8.05674 12.2622 8.1195 12.1197 8.0252C11.8094 7.81995 11.4786 7.64064 11.1363 7.49611C10.3175 7.11668 9.4089 6.90699 8.45034 6.90699C4.88568 6.90699 2 9.79267 2 13.3573C2 14.8751 2.52921 16.273 3.40789 17.3813C4.59611 18.939 6.46332 19.9375 8.57016 19.9375C11.1064 19.9375 18.3954 19.9375 21.2412 19.9375C24.057 19.9375 26.5432 18.5496 28.061 16.4227C30.7769 12.8681 30.4774 7.75572 27.2023 4.55052Z" fill="url(#paint29_linear_211_3270)" fill-opacity="0.6"/>
<defs>
<radialGradient id="paint0_radial_211_3270" cx="0" cy="0" r="1" gradientUnits="userSpaceOnUse" gradientTransform="translate(12.091 7.58009) rotate(-110.468) scale(3.57025 3.46764)">
<stop offset="0.30655" stop-color="#CECDFF"/>
<stop offset="1" stop-color="#B7B6FA"/>
</radialGradient>
<radialGradient id="paint1_radial_211_3270" cx="0" cy="0" r="1" gradientUnits="userSpaceOnUse" gradientTransform="translate(13.6049 6.68314) rotate(-148.811) scale(1.44749 4.81341)">
<stop offset="0.401187" stop-color="#B8B7FF"/>
<stop offset="1" stop-color="#B8B7FF" stop-opacity="0"/>
</radialGradient>
<linearGradient id="paint2_linear_211_3270" x1="3.13135" y1="21.1963" x2="8.02336" y2="24.8362" gradientUnits="userSpaceOnUse">
<stop offset="0.337466" stop-color="#7A65E9"/>
<stop offset="0.392371" stop-color="#3B3DFC"/>
<stop offset="0.863619" stop-color="#3B3DFC"/>
<stop offset="1" stop-color="#7A65E9"/>
</linearGradient>
<radialGradient id="paint3_radial_211_3270" cx="0" cy="0" r="1" gradientUnits="userSpaceOnUse" gradientTransform="translate(4.94816 25.3098) rotate(122.672) scale(2.63255 2.94111)">
<stop stop-color="#373BFE" stop-opacity="0"/>
<stop offset="0.632004" stop-color="#A35BFF"/>
<stop offset="0.815716" stop-color="#7361EB" stop-opacity="0"/>
</radialGradient>
<radialGradient id="paint4_radial_211_3270" cx="0" cy="0" r="1" gradientUnits="userSpaceOnUse" gradientTransform="translate(7.3523 21.741) rotate(-59.1391) scale(2.34764 2.62281)">
<stop stop-color="#373BFE" stop-opacity="0"/>
<stop offset="0.632004" stop-color="#A35BFF"/>
<stop offset="0.815716" stop-color="#7361EB" stop-opacity="0"/>
</radialGradient>
<radialGradient id="paint5_radial_211_3270" cx="0" cy="0" r="1" gradientUnits="userSpaceOnUse" gradientTransform="translate(7.11827 22.3187) rotate(-55.1822) scale(3.21558 2.45973)">
<stop offset="0.619426" stop-color="#3C3EFD"/>
<stop offset="0.846503" stop-color="#4041FC" stop-opacity="0"/>
</radialGradient>
<radialGradient id="paint6_radial_211_3270" cx="0" cy="0" r="1" gradientUnits="userSpaceOnUse" gradientTransform="translate(5.46703 24.4236) rotate(-55.1421) scale(3.53998 2.38348)">
<stop offset="0.619426" stop-color="#3C3EFD"/>
<stop offset="0.846503" stop-color="#4041FC" stop-opacity="0"/>
</radialGradient>
<radialGradient id="paint7_radial_211_3270" cx="0" cy="0" r="1" gradientUnits="userSpaceOnUse" gradientTransform="translate(8.24081 21.6116) rotate(155.554) scale(2.95056 3.53428)">
<stop offset="0.128661" stop-color="#747EFF" stop-opacity="0.8"/>
<stop offset="0.805004" stop-color="#3D3FFE" stop-opacity="0"/>
</radialGradient>
<linearGradient id="paint8_linear_211_3270" x1="9.67773" y1="21.1963" x2="14.5697" y2="24.8362" gradientUnits="userSpaceOnUse">
<stop offset="0.337466" stop-color="#7A65E9"/>
<stop offset="0.392371" stop-color="#3B3DFC"/>
<stop offset="0.863619" stop-color="#3B3DFC"/>
<stop offset="1" stop-color="#7A65E9"/>
</linearGradient>
<radialGradient id="paint9_radial_211_3270" cx="0" cy="0" r="1" gradientUnits="userSpaceOnUse" gradientTransform="translate(11.4945 25.3098) rotate(122.672) scale(2.63255 2.94111)">
<stop stop-color="#373BFE" stop-opacity="0"/>
<stop offset="0.632004" stop-color="#A35BFF"/>
<stop offset="0.815716" stop-color="#7361EB" stop-opacity="0"/>
</radialGradient>
<radialGradient id="paint10_radial_211_3270" cx="0" cy="0" r="1" gradientUnits="userSpaceOnUse" gradientTransform="translate(13.8987 21.741) rotate(-59.1391) scale(2.34764 2.62281)">
<stop stop-color="#373BFE" stop-opacity="0"/>
<stop offset="0.632004" stop-color="#A35BFF"/>
<stop offset="0.815716" stop-color="#7361EB" stop-opacity="0"/>
</radialGradient>
<radialGradient id="paint11_radial_211_3270" cx="0" cy="0" r="1" gradientUnits="userSpaceOnUse" gradientTransform="translate(13.6647 22.3187) rotate(-55.1822) scale(3.21558 2.45973)">
<stop offset="0.619426" stop-color="#3C3EFD"/>
<stop offset="0.846503" stop-color="#4041FC" stop-opacity="0"/>
</radialGradient>
<radialGradient id="paint12_radial_211_3270" cx="0" cy="0" r="1" gradientUnits="userSpaceOnUse" gradientTransform="translate(12.0134 24.4236) rotate(-55.1421) scale(3.53998 2.38348)">
<stop offset="0.619426" stop-color="#3C3EFD"/>
<stop offset="0.846503" stop-color="#4041FC" stop-opacity="0"/>
</radialGradient>
<radialGradient id="paint13_radial_211_3270" cx="0" cy="0" r="1" gradientUnits="userSpaceOnUse" gradientTransform="translate(14.7872 21.6116) rotate(155.554) scale(2.95056 3.53428)">
<stop offset="0.128661" stop-color="#747EFF" stop-opacity="0.8"/>
<stop offset="0.805004" stop-color="#3D3FFE" stop-opacity="0"/>
</radialGradient>
<linearGradient id="paint14_linear_211_3270" x1="22.2303" y1="20.8729" x2="17.0656" y2="27.7479" gradientUnits="userSpaceOnUse">
<stop stop-color="#3364FE"/>
<stop offset="1" stop-color="#3749FF"/>
</linearGradient>
<radialGradient id="paint15_radial_211_3270" cx="0" cy="0" r="1" gradientUnits="userSpaceOnUse" gradientTransform="translate(22.6481 20.7446) rotate(142.938) scale(3.03715 2.64919)">
<stop stop-color="#627AFE"/>
<stop offset="1" stop-color="#627AFE" stop-opacity="0"/>
</radialGradient>
<linearGradient id="paint16_linear_211_3270" x1="16.224" y1="21.1963" x2="21.116" y2="24.8362" gradientUnits="userSpaceOnUse">
<stop offset="0.337466" stop-color="#7A65E9"/>
<stop offset="0.392371" stop-color="#3551FE"/>
<stop offset="0.863619" stop-color="#3551FE"/>
<stop offset="1" stop-color="#7A65E9"/>
</linearGradient>
<radialGradient id="paint17_radial_211_3270" cx="0" cy="0" r="1" gradientUnits="userSpaceOnUse" gradientTransform="translate(18.0408 25.3098) rotate(122.672) scale(2.63255 2.94111)">
<stop stop-color="#373BFE" stop-opacity="0"/>
<stop offset="0.632004" stop-color="#A35BFF"/>
<stop offset="0.815716" stop-color="#7361EB" stop-opacity="0"/>
</radialGradient>
<radialGradient id="paint18_radial_211_3270" cx="0" cy="0" r="1" gradientUnits="userSpaceOnUse" gradientTransform="translate(20.4449 21.741) rotate(-59.1391) scale(2.34764 2.62281)">
<stop stop-color="#373BFE" stop-opacity="0"/>
<stop offset="0.632004" stop-color="#A35BFF"/>
<stop offset="0.815716" stop-color="#7361EB" stop-opacity="0"/>
</radialGradient>
<radialGradient id="paint19_radial_211_3270" cx="0" cy="0" r="1" gradientUnits="userSpaceOnUse" gradientTransform="translate(20.2109 22.3187) rotate(-55.1822) scale(3.21558 2.45973)">
<stop offset="0.619426" stop-color="#3551FE"/>
<stop offset="0.846503" stop-color="#3551FE" stop-opacity="0"/>
</radialGradient>
<radialGradient id="paint20_radial_211_3270" cx="0" cy="0" r="1" gradientUnits="userSpaceOnUse" gradientTransform="translate(18.5597 24.4236) rotate(-55.1421) scale(3.53998 2.38348)">
<stop offset="0.619426" stop-color="#3551FE"/>
<stop offset="0.846503" stop-color="#4041FC" stop-opacity="0"/>
</radialGradient>
<radialGradient id="paint21_radial_211_3270" cx="0" cy="0" r="1" gradientUnits="userSpaceOnUse" gradientTransform="translate(21.3335 21.6116) rotate(155.554) scale(2.95056 3.53428)">
<stop offset="0.128661" stop-color="#747EFF" stop-opacity="0.8"/>
<stop offset="0.805004" stop-color="#3D3FFE" stop-opacity="0"/>
</radialGradient>
<radialGradient id="paint22_radial_211_3270" cx="0" cy="0" r="1" gradientUnits="userSpaceOnUse" gradientTransform="translate(16.3953 13.2774) rotate(-106.955) scale(12.9726 7.2886)">
<stop stop-color="#D6CCFF"/>
<stop offset="1" stop-color="#D6CCFF" stop-opacity="0"/>
</radialGradient>
<radialGradient id="paint23_radial_211_3270" cx="0" cy="0" r="1" gradientUnits="userSpaceOnUse" gradientTransform="translate(28.2744 7.14872) rotate(147.006) scale(12.0883 13.5028)">
<stop offset="0.352536" stop-color="white" stop-opacity="0.72"/>
<stop offset="1" stop-color="#F2F0FF" stop-opacity="0"/>
</radialGradient>
<radialGradient id="paint24_radial_211_3270" cx="0" cy="0" r="1" gradientUnits="userSpaceOnUse" gradientTransform="translate(11.2503 6.39209) rotate(71.9061) scale(8.03953 2.99718)">
<stop stop-color="#F2F0FF"/>
<stop offset="1" stop-color="#F2F0FF" stop-opacity="0"/>
</radialGradient>
<radialGradient id="paint25_radial_211_3270" cx="0" cy="0" r="1" gradientUnits="userSpaceOnUse" gradientTransform="translate(21.535 10.9687) rotate(-142.843) scale(15.8289 15.9984)">
<stop offset="0.319632" stop-color="#D4C8FF" stop-opacity="0"/>
<stop offset="0.549037" stop-color="#B8B7FF" stop-opacity="0.83"/>
<stop offset="0.620706" stop-color="#B8B7FF"/>
<stop offset="1" stop-color="#B8B7FF" stop-opacity="0"/>
</radialGradient>
<radialGradient id="paint26_radial_211_3270" cx="0" cy="0" r="1" gradientUnits="userSpaceOnUse" gradientTransform="translate(7.80837 13.2689) rotate(-82.0245) scale(12.074 11.0385)">
<stop offset="0.234093" stop-color="#E3DBFF" stop-opacity="0"/>
<stop offset="0.513917" stop-color="#B8B7FF"/>
<stop offset="1" stop-color="#B8B7FF" stop-opacity="0"/>
</radialGradient>
<radialGradient id="paint27_radial_211_3270" cx="0" cy="0" r="1" gradientUnits="userSpaceOnUse" gradientTransform="translate(14.6769 14.905) rotate(-113.829) scale(17.3543 17.1313)">
<stop offset="0.127273" stop-color="#D8CDFF" stop-opacity="0.97"/>
<stop offset="0.531027" stop-color="#D8CDFF" stop-opacity="0"/>
</radialGradient>
<radialGradient id="paint28_radial_211_3270" cx="0" cy="0" r="1" gradientUnits="userSpaceOnUse" gradientTransform="translate(10.1357 12.6363) rotate(110.136) scale(9.07607 8.92305)">
<stop stop-color="white" stop-opacity="0.88"/>
<stop offset="0.280304" stop-color="white" stop-opacity="0.63"/>
<stop offset="0.656385" stop-color="white" stop-opacity="0"/>
</radialGradient>
<linearGradient id="paint29_linear_211_3270" x1="19.4277" y1="21.6588" x2="18.7997" y2="11.4862" gradientUnits="userSpaceOnUse">
<stop offset="0.0758362" stop-color="#B6B0FF"/>
<stop offset="0.478742" stop-color="#C1BCFE" stop-opacity="0"/>
</linearGradient>
</defs>
</svg>
