<svg width="100%" height="100%" viewBox="0 0 32 32" fill="none" xmlns="http://www.w3.org/2000/svg">
<path fill-rule="evenodd" clip-rule="evenodd" d="M16.1082 21.9053C16.6605 21.9053 17.1082 22.353 17.1082 22.9053V26.4453C17.1082 28.3676 15.5605 29.9153 13.6382 29.9153C11.7133 29.9153 10.1682 28.3549 10.1682 26.4453C10.1682 25.893 10.6159 25.4453 11.1682 25.4453C11.7205 25.4453 12.1682 25.893 12.1682 26.4453C12.1682 27.2556 12.8231 27.9153 13.6382 27.9153C14.4559 27.9153 15.1082 27.263 15.1082 26.4453V22.9053C15.1082 22.353 15.5559 21.9053 16.1082 21.9053Z" fill="url(#paint0_linear_211_3096)"/>
<path fill-rule="evenodd" clip-rule="evenodd" d="M16.1082 21.9053C16.6605 21.9053 17.1082 22.353 17.1082 22.9053V26.4453C17.1082 28.3676 15.5605 29.9153 13.6382 29.9153C11.7133 29.9153 10.1682 28.3549 10.1682 26.4453C10.1682 25.893 10.6159 25.4453 11.1682 25.4453C11.7205 25.4453 12.1682 25.893 12.1682 26.4453C12.1682 27.2556 12.8231 27.9153 13.6382 27.9153C14.4559 27.9153 15.1082 27.263 15.1082 26.4453V22.9053C15.1082 22.353 15.5559 21.9053 16.1082 21.9053Z" fill="url(#paint1_radial_211_3096)"/>
<path fill-rule="evenodd" clip-rule="evenodd" d="M16.1082 21.9053C16.6605 21.9053 17.1082 22.353 17.1082 22.9053V26.4453C17.1082 28.3676 15.5605 29.9153 13.6382 29.9153C11.7133 29.9153 10.1682 28.3549 10.1682 26.4453C10.1682 25.893 10.6159 25.4453 11.1682 25.4453C11.7205 25.4453 12.1682 25.893 12.1682 26.4453C12.1682 27.2556 12.8231 27.9153 13.6382 27.9153C14.4559 27.9153 15.1082 27.263 15.1082 26.4453V22.9053C15.1082 22.353 15.5559 21.9053 16.1082 21.9053Z" fill="url(#paint2_radial_211_3096)"/>
<path fill-rule="evenodd" clip-rule="evenodd" d="M16.1082 21.9053C16.6605 21.9053 17.1082 22.353 17.1082 22.9053V26.4453C17.1082 28.3676 15.5605 29.9153 13.6382 29.9153C11.7133 29.9153 10.1682 28.3549 10.1682 26.4453C10.1682 25.893 10.6159 25.4453 11.1682 25.4453C11.7205 25.4453 12.1682 25.893 12.1682 26.4453C12.1682 27.2556 12.8231 27.9153 13.6382 27.9153C14.4559 27.9153 15.1082 27.263 15.1082 26.4453V22.9053C15.1082 22.353 15.5559 21.9053 16.1082 21.9053Z" fill="url(#paint3_radial_211_3096)" fill-opacity="0.8"/>
<path fill-rule="evenodd" clip-rule="evenodd" d="M16.1082 21.9053C16.6605 21.9053 17.1082 22.353 17.1082 22.9053V26.4453C17.1082 28.3676 15.5605 29.9153 13.6382 29.9153C11.7133 29.9153 10.1682 28.3549 10.1682 26.4453C10.1682 25.893 10.6159 25.4453 11.1682 25.4453C11.7205 25.4453 12.1682 25.893 12.1682 26.4453C12.1682 27.2556 12.8231 27.9153 13.6382 27.9153C14.4559 27.9153 15.1082 27.263 15.1082 26.4453V22.9053C15.1082 22.353 15.5559 21.9053 16.1082 21.9053Z" fill="url(#paint4_radial_211_3096)" fill-opacity="0.25"/>
<path fill-rule="evenodd" clip-rule="evenodd" d="M16.1082 21.9053C16.6605 21.9053 17.1082 22.353 17.1082 22.9053V26.4453C17.1082 28.3676 15.5605 29.9153 13.6382 29.9153C11.7133 29.9153 10.1682 28.3549 10.1682 26.4453C10.1682 25.893 10.6159 25.4453 11.1682 25.4453C11.7205 25.4453 12.1682 25.893 12.1682 26.4453C12.1682 27.2556 12.8231 27.9153 13.6382 27.9153C14.4559 27.9153 15.1082 27.263 15.1082 26.4453V22.9053C15.1082 22.353 15.5559 21.9053 16.1082 21.9053Z" fill="url(#paint5_radial_211_3096)"/>
<path fill-rule="evenodd" clip-rule="evenodd" d="M16.1082 21.9053C16.6605 21.9053 17.1082 22.353 17.1082 22.9053V26.4453C17.1082 28.3676 15.5605 29.9153 13.6382 29.9153C11.7133 29.9153 10.1682 28.3549 10.1682 26.4453C10.1682 25.893 10.6159 25.4453 11.1682 25.4453C11.7205 25.4453 12.1682 25.893 12.1682 26.4453C12.1682 27.2556 12.8231 27.9153 13.6382 27.9153C14.4559 27.9153 15.1082 27.263 15.1082 26.4453V22.9053C15.1082 22.353 15.5559 21.9053 16.1082 21.9053Z" fill="url(#paint6_radial_211_3096)" fill-opacity="0.7"/>
<path d="M17.1082 14.9704C17.1082 14.4182 16.6604 13.9704 16.1082 13.9704C15.5559 13.9704 15.1082 14.4182 15.1082 14.9704L15.1082 22.3998C15.1082 22.451 15.1807 22.4718 15.2113 22.4308C15.426 22.1432 15.7557 21.906 16.1255 21.906C16.4781 21.906 16.7944 22.1289 17.0091 22.3948C17.0404 22.4335 17.1082 22.4123 17.1082 22.3625L17.1082 14.9704Z" fill="url(#paint7_radial_211_3096)"/>
<path d="M17.1082 14.9704C17.1082 14.4182 16.6604 13.9704 16.1082 13.9704C15.5559 13.9704 15.1082 14.4182 15.1082 14.9704L15.1082 22.3998C15.1082 22.451 15.1807 22.4718 15.2113 22.4308C15.426 22.1432 15.7557 21.906 16.1255 21.906C16.4781 21.906 16.7944 22.1289 17.0091 22.3948C17.0404 22.4335 17.1082 22.4123 17.1082 22.3625L17.1082 14.9704Z" fill="url(#paint8_radial_211_3096)"/>
<path d="M17.0175 2.81439C17.0375 2.89869 16.9678 2.97248 16.8812 2.97248H15.3055C15.2188 2.97248 15.1491 2.89869 15.1692 2.81439C15.2684 2.39597 15.6445 2.08472 16.0933 2.08472C16.5421 2.08472 16.9182 2.39597 17.0175 2.81439Z" fill="url(#paint9_radial_211_3096)"/>
<path d="M17.0175 2.81439C17.0375 2.89869 16.9678 2.97248 16.8812 2.97248H15.3055C15.2188 2.97248 15.1491 2.89869 15.1692 2.81439C15.2684 2.39597 15.6445 2.08472 16.0933 2.08472C16.5421 2.08472 16.9182 2.39597 17.0175 2.81439Z" fill="url(#paint10_linear_211_3096)"/>
<path d="M5.62817 14.9253C6.90817 14.9253 8.02817 15.6253 8.62817 16.6553C8.72817 16.8153 8.89817 16.9153 9.08817 16.9153H9.14817C9.33817 16.9153 9.50817 16.8153 9.60817 16.6553C10.2182 15.6253 11.3282 14.9253 12.6082 14.9253C13.8882 14.9253 15.0082 15.6253 15.6082 16.6553C15.7082 16.8153 15.8782 16.9153 16.0682 16.9153H16.1282C16.3182 16.9153 16.4882 16.8153 16.5882 16.6553C17.1982 15.6253 18.3082 14.9253 19.5882 14.9253C20.8682 14.9253 21.9882 15.6253 22.5882 16.6553C22.6882 16.8153 22.8582 16.9153 23.0482 16.9153H23.1082C23.2982 16.9153 23.4682 16.8153 23.5682 16.6553C24.1782 15.6253 25.2882 14.9253 26.5682 14.9253C27.9082 14.9253 29.0682 15.6853 29.6482 16.8053C29.6882 16.8753 29.7582 16.9253 29.8382 16.9253C29.9582 16.9253 30.0582 16.8253 30.0582 16.7053C29.9582 9.08531 23.7482 2.94531 16.0982 2.94531C8.44817 2.94531 2.24817 9.08531 2.12817 16.6953C2.12817 16.8153 2.22817 16.9153 2.34817 16.9153C2.42817 16.9153 2.50817 16.8653 2.53817 16.7953C3.12817 15.6853 4.28817 14.9253 5.62817 14.9253Z" fill="url(#paint11_radial_211_3096)"/>
<path d="M5.62817 14.9253C6.90817 14.9253 8.02817 15.6253 8.62817 16.6553C8.72817 16.8153 8.89817 16.9153 9.08817 16.9153H9.14817C9.33817 16.9153 9.50817 16.8153 9.60817 16.6553C10.2182 15.6253 11.3282 14.9253 12.6082 14.9253C13.8882 14.9253 15.0082 15.6253 15.6082 16.6553C15.7082 16.8153 15.8782 16.9153 16.0682 16.9153H16.1282C16.3182 16.9153 16.4882 16.8153 16.5882 16.6553C17.1982 15.6253 18.3082 14.9253 19.5882 14.9253C20.8682 14.9253 21.9882 15.6253 22.5882 16.6553C22.6882 16.8153 22.8582 16.9153 23.0482 16.9153H23.1082C23.2982 16.9153 23.4682 16.8153 23.5682 16.6553C24.1782 15.6253 25.2882 14.9253 26.5682 14.9253C27.9082 14.9253 29.0682 15.6853 29.6482 16.8053C29.6882 16.8753 29.7582 16.9253 29.8382 16.9253C29.9582 16.9253 30.0582 16.8253 30.0582 16.7053C29.9582 9.08531 23.7482 2.94531 16.0982 2.94531C8.44817 2.94531 2.24817 9.08531 2.12817 16.6953C2.12817 16.8153 2.22817 16.9153 2.34817 16.9153C2.42817 16.9153 2.50817 16.8653 2.53817 16.7953C3.12817 15.6853 4.28817 14.9253 5.62817 14.9253Z" fill="url(#paint12_radial_211_3096)"/>
<path d="M5.62817 14.9253C6.90817 14.9253 8.02817 15.6253 8.62817 16.6553C8.72817 16.8153 8.89817 16.9153 9.08817 16.9153H9.14817C9.33817 16.9153 9.50817 16.8153 9.60817 16.6553C10.2182 15.6253 11.3282 14.9253 12.6082 14.9253C13.8882 14.9253 15.0082 15.6253 15.6082 16.6553C15.7082 16.8153 15.8782 16.9153 16.0682 16.9153H16.1282C16.3182 16.9153 16.4882 16.8153 16.5882 16.6553C17.1982 15.6253 18.3082 14.9253 19.5882 14.9253C20.8682 14.9253 21.9882 15.6253 22.5882 16.6553C22.6882 16.8153 22.8582 16.9153 23.0482 16.9153H23.1082C23.2982 16.9153 23.4682 16.8153 23.5682 16.6553C24.1782 15.6253 25.2882 14.9253 26.5682 14.9253C27.9082 14.9253 29.0682 15.6853 29.6482 16.8053C29.6882 16.8753 29.7582 16.9253 29.8382 16.9253C29.9582 16.9253 30.0582 16.8253 30.0582 16.7053C29.9582 9.08531 23.7482 2.94531 16.0982 2.94531C8.44817 2.94531 2.24817 9.08531 2.12817 16.6953C2.12817 16.8153 2.22817 16.9153 2.34817 16.9153C2.42817 16.9153 2.50817 16.8653 2.53817 16.7953C3.12817 15.6853 4.28817 14.9253 5.62817 14.9253Z" fill="url(#paint13_radial_211_3096)"/>
<path d="M5.62817 14.9253C6.90817 14.9253 8.02817 15.6253 8.62817 16.6553C8.72817 16.8153 8.89817 16.9153 9.08817 16.9153H9.14817C9.33817 16.9153 9.50817 16.8153 9.60817 16.6553C10.2182 15.6253 11.3282 14.9253 12.6082 14.9253C13.8882 14.9253 15.0082 15.6253 15.6082 16.6553C15.7082 16.8153 15.8782 16.9153 16.0682 16.9153H16.1282C16.3182 16.9153 16.4882 16.8153 16.5882 16.6553C17.1982 15.6253 18.3082 14.9253 19.5882 14.9253C20.8682 14.9253 21.9882 15.6253 22.5882 16.6553C22.6882 16.8153 22.8582 16.9153 23.0482 16.9153H23.1082C23.2982 16.9153 23.4682 16.8153 23.5682 16.6553C24.1782 15.6253 25.2882 14.9253 26.5682 14.9253C27.9082 14.9253 29.0682 15.6853 29.6482 16.8053C29.6882 16.8753 29.7582 16.9253 29.8382 16.9253C29.9582 16.9253 30.0582 16.8253 30.0582 16.7053C29.9582 9.08531 23.7482 2.94531 16.0982 2.94531C8.44817 2.94531 2.24817 9.08531 2.12817 16.6953C2.12817 16.8153 2.22817 16.9153 2.34817 16.9153C2.42817 16.9153 2.50817 16.8653 2.53817 16.7953C3.12817 15.6853 4.28817 14.9253 5.62817 14.9253Z" fill="url(#paint14_radial_211_3096)"/>
<path d="M5.62817 14.9253C6.90817 14.9253 8.02817 15.6253 8.62817 16.6553C8.72817 16.8153 8.89817 16.9153 9.08817 16.9153H9.14817C9.33817 16.9153 9.50817 16.8153 9.60817 16.6553C10.2182 15.6253 11.3282 14.9253 12.6082 14.9253C13.8882 14.9253 15.0082 15.6253 15.6082 16.6553C15.7082 16.8153 15.8782 16.9153 16.0682 16.9153H16.1282C16.3182 16.9153 16.4882 16.8153 16.5882 16.6553C17.1982 15.6253 18.3082 14.9253 19.5882 14.9253C20.8682 14.9253 21.9882 15.6253 22.5882 16.6553C22.6882 16.8153 22.8582 16.9153 23.0482 16.9153H23.1082C23.2982 16.9153 23.4682 16.8153 23.5682 16.6553C24.1782 15.6253 25.2882 14.9253 26.5682 14.9253C27.9082 14.9253 29.0682 15.6853 29.6482 16.8053C29.6882 16.8753 29.7582 16.9253 29.8382 16.9253C29.9582 16.9253 30.0582 16.8253 30.0582 16.7053C29.9582 9.08531 23.7482 2.94531 16.0982 2.94531C8.44817 2.94531 2.24817 9.08531 2.12817 16.6953C2.12817 16.8153 2.22817 16.9153 2.34817 16.9153C2.42817 16.9153 2.50817 16.8653 2.53817 16.7953C3.12817 15.6853 4.28817 14.9253 5.62817 14.9253Z" fill="url(#paint15_radial_211_3096)"/>
<path d="M5.62817 14.9253C6.90817 14.9253 8.02817 15.6253 8.62817 16.6553C8.72817 16.8153 8.89817 16.9153 9.08817 16.9153H9.14817C9.33817 16.9153 9.50817 16.8153 9.60817 16.6553C10.2182 15.6253 11.3282 14.9253 12.6082 14.9253C13.8882 14.9253 15.0082 15.6253 15.6082 16.6553C15.7082 16.8153 15.8782 16.9153 16.0682 16.9153H16.1282C16.3182 16.9153 16.4882 16.8153 16.5882 16.6553C17.1982 15.6253 18.3082 14.9253 19.5882 14.9253C20.8682 14.9253 21.9882 15.6253 22.5882 16.6553C22.6882 16.8153 22.8582 16.9153 23.0482 16.9153H23.1082C23.2982 16.9153 23.4682 16.8153 23.5682 16.6553C24.1782 15.6253 25.2882 14.9253 26.5682 14.9253C27.9082 14.9253 29.0682 15.6853 29.6482 16.8053C29.6882 16.8753 29.7582 16.9253 29.8382 16.9253C29.9582 16.9253 30.0582 16.8253 30.0582 16.7053C29.9582 9.08531 23.7482 2.94531 16.0982 2.94531C8.44817 2.94531 2.24817 9.08531 2.12817 16.6953C2.12817 16.8153 2.22817 16.9153 2.34817 16.9153C2.42817 16.9153 2.50817 16.8653 2.53817 16.7953C3.12817 15.6853 4.28817 14.9253 5.62817 14.9253Z" fill="url(#paint16_radial_211_3096)"/>
<path d="M5.62817 14.9253C6.90817 14.9253 8.02817 15.6253 8.62817 16.6553C8.72817 16.8153 8.89817 16.9153 9.08817 16.9153H9.14817C9.33817 16.9153 9.50817 16.8153 9.60817 16.6553C10.2182 15.6253 11.3282 14.9253 12.6082 14.9253C13.8882 14.9253 15.0082 15.6253 15.6082 16.6553C15.7082 16.8153 15.8782 16.9153 16.0682 16.9153H16.1282C16.3182 16.9153 16.4882 16.8153 16.5882 16.6553C17.1982 15.6253 18.3082 14.9253 19.5882 14.9253C20.8682 14.9253 21.9882 15.6253 22.5882 16.6553C22.6882 16.8153 22.8582 16.9153 23.0482 16.9153H23.1082C23.2982 16.9153 23.4682 16.8153 23.5682 16.6553C24.1782 15.6253 25.2882 14.9253 26.5682 14.9253C27.9082 14.9253 29.0682 15.6853 29.6482 16.8053C29.6882 16.8753 29.7582 16.9253 29.8382 16.9253C29.9582 16.9253 30.0582 16.8253 30.0582 16.7053C29.9582 9.08531 23.7482 2.94531 16.0982 2.94531C8.44817 2.94531 2.24817 9.08531 2.12817 16.6953C2.12817 16.8153 2.22817 16.9153 2.34817 16.9153C2.42817 16.9153 2.50817 16.8653 2.53817 16.7953C3.12817 15.6853 4.28817 14.9253 5.62817 14.9253Z" fill="url(#paint17_radial_211_3096)"/>
<path d="M5.62817 14.9253C6.90817 14.9253 8.02817 15.6253 8.62817 16.6553C8.72817 16.8153 8.89817 16.9153 9.08817 16.9153H9.14817C9.33817 16.9153 9.50817 16.8153 9.60817 16.6553C10.2182 15.6253 11.3282 14.9253 12.6082 14.9253C13.8882 14.9253 15.0082 15.6253 15.6082 16.6553C15.7082 16.8153 15.8782 16.9153 16.0682 16.9153H16.1282C16.3182 16.9153 16.4882 16.8153 16.5882 16.6553C17.1982 15.6253 18.3082 14.9253 19.5882 14.9253C20.8682 14.9253 21.9882 15.6253 22.5882 16.6553C22.6882 16.8153 22.8582 16.9153 23.0482 16.9153H23.1082C23.2982 16.9153 23.4682 16.8153 23.5682 16.6553C24.1782 15.6253 25.2882 14.9253 26.5682 14.9253C27.9082 14.9253 29.0682 15.6853 29.6482 16.8053C29.6882 16.8753 29.7582 16.9253 29.8382 16.9253C29.9582 16.9253 30.0582 16.8253 30.0582 16.7053C29.9582 9.08531 23.7482 2.94531 16.0982 2.94531C8.44817 2.94531 2.24817 9.08531 2.12817 16.6953C2.12817 16.8153 2.22817 16.9153 2.34817 16.9153C2.42817 16.9153 2.50817 16.8653 2.53817 16.7953C3.12817 15.6853 4.28817 14.9253 5.62817 14.9253Z" fill="url(#paint18_radial_211_3096)"/>
<path d="M5.62817 14.9253C6.90817 14.9253 8.02817 15.6253 8.62817 16.6553C8.72817 16.8153 8.89817 16.9153 9.08817 16.9153H9.14817C9.33817 16.9153 9.50817 16.8153 9.60817 16.6553C10.2182 15.6253 11.3282 14.9253 12.6082 14.9253C13.8882 14.9253 15.0082 15.6253 15.6082 16.6553C15.7082 16.8153 15.8782 16.9153 16.0682 16.9153H16.1282C16.3182 16.9153 16.4882 16.8153 16.5882 16.6553C17.1982 15.6253 18.3082 14.9253 19.5882 14.9253C20.8682 14.9253 21.9882 15.6253 22.5882 16.6553C22.6882 16.8153 22.8582 16.9153 23.0482 16.9153H23.1082C23.2982 16.9153 23.4682 16.8153 23.5682 16.6553C24.1782 15.6253 25.2882 14.9253 26.5682 14.9253C27.9082 14.9253 29.0682 15.6853 29.6482 16.8053C29.6882 16.8753 29.7582 16.9253 29.8382 16.9253C29.9582 16.9253 30.0582 16.8253 30.0582 16.7053C29.9582 9.08531 23.7482 2.94531 16.0982 2.94531C8.44817 2.94531 2.24817 9.08531 2.12817 16.6953C2.12817 16.8153 2.22817 16.9153 2.34817 16.9153C2.42817 16.9153 2.50817 16.8653 2.53817 16.7953C3.12817 15.6853 4.28817 14.9253 5.62817 14.9253Z" fill="url(#paint19_radial_211_3096)" fill-opacity="0.7"/>
<path d="M5.62817 14.9253C6.90817 14.9253 8.02817 15.6253 8.62817 16.6553C8.72817 16.8153 8.89817 16.9153 9.08817 16.9153H9.14817C9.33817 16.9153 9.50817 16.8153 9.60817 16.6553C10.2182 15.6253 11.3282 14.9253 12.6082 14.9253C13.8882 14.9253 15.0082 15.6253 15.6082 16.6553C15.7082 16.8153 15.8782 16.9153 16.0682 16.9153H16.1282C16.3182 16.9153 16.4882 16.8153 16.5882 16.6553C17.1982 15.6253 18.3082 14.9253 19.5882 14.9253C20.8682 14.9253 21.9882 15.6253 22.5882 16.6553C22.6882 16.8153 22.8582 16.9153 23.0482 16.9153H23.1082C23.2982 16.9153 23.4682 16.8153 23.5682 16.6553C24.1782 15.6253 25.2882 14.9253 26.5682 14.9253C27.9082 14.9253 29.0682 15.6853 29.6482 16.8053C29.6882 16.8753 29.7582 16.9253 29.8382 16.9253C29.9582 16.9253 30.0582 16.8253 30.0582 16.7053C29.9582 9.08531 23.7482 2.94531 16.0982 2.94531C8.44817 2.94531 2.24817 9.08531 2.12817 16.6953C2.12817 16.8153 2.22817 16.9153 2.34817 16.9153C2.42817 16.9153 2.50817 16.8653 2.53817 16.7953C3.12817 15.6853 4.28817 14.9253 5.62817 14.9253Z" fill="url(#paint20_radial_211_3096)" fill-opacity="0.7"/>
<path d="M5.62817 14.9253C6.90817 14.9253 8.02817 15.6253 8.62817 16.6553C8.72817 16.8153 8.89817 16.9153 9.08817 16.9153H9.14817C9.33817 16.9153 9.50817 16.8153 9.60817 16.6553C10.2182 15.6253 11.3282 14.9253 12.6082 14.9253C13.8882 14.9253 15.0082 15.6253 15.6082 16.6553C15.7082 16.8153 15.8782 16.9153 16.0682 16.9153H16.1282C16.3182 16.9153 16.4882 16.8153 16.5882 16.6553C17.1982 15.6253 18.3082 14.9253 19.5882 14.9253C20.8682 14.9253 21.9882 15.6253 22.5882 16.6553C22.6882 16.8153 22.8582 16.9153 23.0482 16.9153H23.1082C23.2982 16.9153 23.4682 16.8153 23.5682 16.6553C24.1782 15.6253 25.2882 14.9253 26.5682 14.9253C27.9082 14.9253 29.0682 15.6853 29.6482 16.8053C29.6882 16.8753 29.7582 16.9253 29.8382 16.9253C29.9582 16.9253 30.0582 16.8253 30.0582 16.7053C29.9582 9.08531 23.7482 2.94531 16.0982 2.94531C8.44817 2.94531 2.24817 9.08531 2.12817 16.6953C2.12817 16.8153 2.22817 16.9153 2.34817 16.9153C2.42817 16.9153 2.50817 16.8653 2.53817 16.7953C3.12817 15.6853 4.28817 14.9253 5.62817 14.9253Z" fill="url(#paint21_radial_211_3096)"/>
<path d="M5.62817 14.9253C6.90817 14.9253 8.02817 15.6253 8.62817 16.6553C8.72817 16.8153 8.89817 16.9153 9.08817 16.9153H9.14817C9.33817 16.9153 9.50817 16.8153 9.60817 16.6553C10.2182 15.6253 11.3282 14.9253 12.6082 14.9253C13.8882 14.9253 15.0082 15.6253 15.6082 16.6553C15.7082 16.8153 15.8782 16.9153 16.0682 16.9153H16.1282C16.3182 16.9153 16.4882 16.8153 16.5882 16.6553C17.1982 15.6253 18.3082 14.9253 19.5882 14.9253C20.8682 14.9253 21.9882 15.6253 22.5882 16.6553C22.6882 16.8153 22.8582 16.9153 23.0482 16.9153H23.1082C23.2982 16.9153 23.4682 16.8153 23.5682 16.6553C24.1782 15.6253 25.2882 14.9253 26.5682 14.9253C27.9082 14.9253 29.0682 15.6853 29.6482 16.8053C29.6882 16.8753 29.7582 16.9253 29.8382 16.9253C29.9582 16.9253 30.0582 16.8253 30.0582 16.7053C29.9582 9.08531 23.7482 2.94531 16.0982 2.94531C8.44817 2.94531 2.24817 9.08531 2.12817 16.6953C2.12817 16.8153 2.22817 16.9153 2.34817 16.9153C2.42817 16.9153 2.50817 16.8653 2.53817 16.7953C3.12817 15.6853 4.28817 14.9253 5.62817 14.9253Z" fill="url(#paint22_radial_211_3096)"/>
<path d="M5.62817 14.9253C6.90817 14.9253 8.02817 15.6253 8.62817 16.6553C8.72817 16.8153 8.89817 16.9153 9.08817 16.9153H9.14817C9.33817 16.9153 9.50817 16.8153 9.60817 16.6553C10.2182 15.6253 11.3282 14.9253 12.6082 14.9253C13.8882 14.9253 15.0082 15.6253 15.6082 16.6553C15.7082 16.8153 15.8782 16.9153 16.0682 16.9153H16.1282C16.3182 16.9153 16.4882 16.8153 16.5882 16.6553C17.1982 15.6253 18.3082 14.9253 19.5882 14.9253C20.8682 14.9253 21.9882 15.6253 22.5882 16.6553C22.6882 16.8153 22.8582 16.9153 23.0482 16.9153H23.1082C23.2982 16.9153 23.4682 16.8153 23.5682 16.6553C24.1782 15.6253 25.2882 14.9253 26.5682 14.9253C27.9082 14.9253 29.0682 15.6853 29.6482 16.8053C29.6882 16.8753 29.7582 16.9253 29.8382 16.9253C29.9582 16.9253 30.0582 16.8253 30.0582 16.7053C29.9582 9.08531 23.7482 2.94531 16.0982 2.94531C8.44817 2.94531 2.24817 9.08531 2.12817 16.6953C2.12817 16.8153 2.22817 16.9153 2.34817 16.9153C2.42817 16.9153 2.50817 16.8653 2.53817 16.7953C3.12817 15.6853 4.28817 14.9253 5.62817 14.9253Z" fill="url(#paint23_radial_211_3096)"/>
<path d="M5.62817 14.9253C6.90817 14.9253 8.02817 15.6253 8.62817 16.6553C8.72817 16.8153 8.89817 16.9153 9.08817 16.9153H9.14817C9.33817 16.9153 9.50817 16.8153 9.60817 16.6553C10.2182 15.6253 11.3282 14.9253 12.6082 14.9253C13.8882 14.9253 15.0082 15.6253 15.6082 16.6553C15.7082 16.8153 15.8782 16.9153 16.0682 16.9153H16.1282C16.3182 16.9153 16.4882 16.8153 16.5882 16.6553C17.1982 15.6253 18.3082 14.9253 19.5882 14.9253C20.8682 14.9253 21.9882 15.6253 22.5882 16.6553C22.6882 16.8153 22.8582 16.9153 23.0482 16.9153H23.1082C23.2982 16.9153 23.4682 16.8153 23.5682 16.6553C24.1782 15.6253 25.2882 14.9253 26.5682 14.9253C27.9082 14.9253 29.0682 15.6853 29.6482 16.8053C29.6882 16.8753 29.7582 16.9253 29.8382 16.9253C29.9582 16.9253 30.0582 16.8253 30.0582 16.7053C29.9582 9.08531 23.7482 2.94531 16.0982 2.94531C8.44817 2.94531 2.24817 9.08531 2.12817 16.6953C2.12817 16.8153 2.22817 16.9153 2.34817 16.9153C2.42817 16.9153 2.50817 16.8653 2.53817 16.7953C3.12817 15.6853 4.28817 14.9253 5.62817 14.9253Z" fill="url(#paint24_radial_211_3096)"/>
<path d="M5.62817 14.9253C6.90817 14.9253 8.02817 15.6253 8.62817 16.6553C8.72817 16.8153 8.89817 16.9153 9.08817 16.9153H9.14817C9.33817 16.9153 9.50817 16.8153 9.60817 16.6553C10.2182 15.6253 11.3282 14.9253 12.6082 14.9253C13.8882 14.9253 15.0082 15.6253 15.6082 16.6553C15.7082 16.8153 15.8782 16.9153 16.0682 16.9153H16.1282C16.3182 16.9153 16.4882 16.8153 16.5882 16.6553C17.1982 15.6253 18.3082 14.9253 19.5882 14.9253C20.8682 14.9253 21.9882 15.6253 22.5882 16.6553C22.6882 16.8153 22.8582 16.9153 23.0482 16.9153H23.1082C23.2982 16.9153 23.4682 16.8153 23.5682 16.6553C24.1782 15.6253 25.2882 14.9253 26.5682 14.9253C27.9082 14.9253 29.0682 15.6853 29.6482 16.8053C29.6882 16.8753 29.7582 16.9253 29.8382 16.9253C29.9582 16.9253 30.0582 16.8253 30.0582 16.7053C29.9582 9.08531 23.7482 2.94531 16.0982 2.94531C8.44817 2.94531 2.24817 9.08531 2.12817 16.6953C2.12817 16.8153 2.22817 16.9153 2.34817 16.9153C2.42817 16.9153 2.50817 16.8653 2.53817 16.7953C3.12817 15.6853 4.28817 14.9253 5.62817 14.9253Z" fill="url(#paint25_radial_211_3096)"/>
<path d="M5.62817 14.9253C6.90817 14.9253 8.02817 15.6253 8.62817 16.6553C8.72817 16.8153 8.89817 16.9153 9.08817 16.9153H9.14817C9.33817 16.9153 9.50817 16.8153 9.60817 16.6553C10.2182 15.6253 11.3282 14.9253 12.6082 14.9253C13.8882 14.9253 15.0082 15.6253 15.6082 16.6553C15.7082 16.8153 15.8782 16.9153 16.0682 16.9153H16.1282C16.3182 16.9153 16.4882 16.8153 16.5882 16.6553C17.1982 15.6253 18.3082 14.9253 19.5882 14.9253C20.8682 14.9253 21.9882 15.6253 22.5882 16.6553C22.6882 16.8153 22.8582 16.9153 23.0482 16.9153H23.1082C23.2982 16.9153 23.4682 16.8153 23.5682 16.6553C24.1782 15.6253 25.2882 14.9253 26.5682 14.9253C27.9082 14.9253 29.0682 15.6853 29.6482 16.8053C29.6882 16.8753 29.7582 16.9253 29.8382 16.9253C29.9582 16.9253 30.0582 16.8253 30.0582 16.7053C29.9582 9.08531 23.7482 2.94531 16.0982 2.94531C8.44817 2.94531 2.24817 9.08531 2.12817 16.6953C2.12817 16.8153 2.22817 16.9153 2.34817 16.9153C2.42817 16.9153 2.50817 16.8653 2.53817 16.7953C3.12817 15.6853 4.28817 14.9253 5.62817 14.9253Z" fill="url(#paint26_radial_211_3096)"/>
<path d="M5.62817 14.9253C6.90817 14.9253 8.02817 15.6253 8.62817 16.6553C8.72817 16.8153 8.89817 16.9153 9.08817 16.9153H9.14817C9.33817 16.9153 9.50817 16.8153 9.60817 16.6553C10.2182 15.6253 11.3282 14.9253 12.6082 14.9253C13.8882 14.9253 15.0082 15.6253 15.6082 16.6553C15.7082 16.8153 15.8782 16.9153 16.0682 16.9153H16.1282C16.3182 16.9153 16.4882 16.8153 16.5882 16.6553C17.1982 15.6253 18.3082 14.9253 19.5882 14.9253C20.8682 14.9253 21.9882 15.6253 22.5882 16.6553C22.6882 16.8153 22.8582 16.9153 23.0482 16.9153H23.1082C23.2982 16.9153 23.4682 16.8153 23.5682 16.6553C24.1782 15.6253 25.2882 14.9253 26.5682 14.9253C27.9082 14.9253 29.0682 15.6853 29.6482 16.8053C29.6882 16.8753 29.7582 16.9253 29.8382 16.9253C29.9582 16.9253 30.0582 16.8253 30.0582 16.7053C29.9582 9.08531 23.7482 2.94531 16.0982 2.94531C8.44817 2.94531 2.24817 9.08531 2.12817 16.6953C2.12817 16.8153 2.22817 16.9153 2.34817 16.9153C2.42817 16.9153 2.50817 16.8653 2.53817 16.7953C3.12817 15.6853 4.28817 14.9253 5.62817 14.9253Z" fill="url(#paint27_radial_211_3096)"/>
<path d="M5.62817 14.9253C6.90817 14.9253 8.02817 15.6253 8.62817 16.6553C8.72817 16.8153 8.89817 16.9153 9.08817 16.9153H9.14817C9.33817 16.9153 9.50817 16.8153 9.60817 16.6553C10.2182 15.6253 11.3282 14.9253 12.6082 14.9253C13.8882 14.9253 15.0082 15.6253 15.6082 16.6553C15.7082 16.8153 15.8782 16.9153 16.0682 16.9153H16.1282C16.3182 16.9153 16.4882 16.8153 16.5882 16.6553C17.1982 15.6253 18.3082 14.9253 19.5882 14.9253C20.8682 14.9253 21.9882 15.6253 22.5882 16.6553C22.6882 16.8153 22.8582 16.9153 23.0482 16.9153H23.1082C23.2982 16.9153 23.4682 16.8153 23.5682 16.6553C24.1782 15.6253 25.2882 14.9253 26.5682 14.9253C27.9082 14.9253 29.0682 15.6853 29.6482 16.8053C29.6882 16.8753 29.7582 16.9253 29.8382 16.9253C29.9582 16.9253 30.0582 16.8253 30.0582 16.7053C29.9582 9.08531 23.7482 2.94531 16.0982 2.94531C8.44817 2.94531 2.24817 9.08531 2.12817 16.6953C2.12817 16.8153 2.22817 16.9153 2.34817 16.9153C2.42817 16.9153 2.50817 16.8653 2.53817 16.7953C3.12817 15.6853 4.28817 14.9253 5.62817 14.9253Z" fill="url(#paint28_radial_211_3096)"/>
<path d="M5.62817 14.9253C6.90817 14.9253 8.02817 15.6253 8.62817 16.6553C8.72817 16.8153 8.89817 16.9153 9.08817 16.9153H9.14817C9.33817 16.9153 9.50817 16.8153 9.60817 16.6553C10.2182 15.6253 11.3282 14.9253 12.6082 14.9253C13.8882 14.9253 15.0082 15.6253 15.6082 16.6553C15.7082 16.8153 15.8782 16.9153 16.0682 16.9153H16.1282C16.3182 16.9153 16.4882 16.8153 16.5882 16.6553C17.1982 15.6253 18.3082 14.9253 19.5882 14.9253C20.8682 14.9253 21.9882 15.6253 22.5882 16.6553C22.6882 16.8153 22.8582 16.9153 23.0482 16.9153H23.1082C23.2982 16.9153 23.4682 16.8153 23.5682 16.6553C24.1782 15.6253 25.2882 14.9253 26.5682 14.9253C27.9082 14.9253 29.0682 15.6853 29.6482 16.8053C29.6882 16.8753 29.7582 16.9253 29.8382 16.9253C29.9582 16.9253 30.0582 16.8253 30.0582 16.7053C29.9582 9.08531 23.7482 2.94531 16.0982 2.94531C8.44817 2.94531 2.24817 9.08531 2.12817 16.6953C2.12817 16.8153 2.22817 16.9153 2.34817 16.9153C2.42817 16.9153 2.50817 16.8653 2.53817 16.7953C3.12817 15.6853 4.28817 14.9253 5.62817 14.9253Z" fill="url(#paint29_radial_211_3096)"/>
<rect x="5.33179" y="1.59595" width="2.72868" height="5.36397" rx="1.36434" transform="rotate(34.8457 5.33179 1.59595)" fill="#4C7CFD"/>
<rect x="5.33179" y="1.59595" width="2.72868" height="5.36397" rx="1.36434" transform="rotate(34.8457 5.33179 1.59595)" fill="url(#paint30_linear_211_3096)"/>
<rect x="5.33179" y="1.59595" width="2.72868" height="5.36397" rx="1.36434" transform="rotate(34.8457 5.33179 1.59595)" fill="url(#paint31_linear_211_3096)"/>
<rect x="5.33179" y="1.59595" width="2.72868" height="5.36397" rx="1.36434" transform="rotate(34.8457 5.33179 1.59595)" fill="url(#paint32_linear_211_3096)"/>
<rect x="5.33179" y="1.59595" width="2.72868" height="5.36397" rx="1.36434" transform="rotate(34.8457 5.33179 1.59595)" fill="url(#paint33_radial_211_3096)"/>
<rect x="21.1973" y="1.59595" width="2.72868" height="5.36397" rx="1.36434" transform="rotate(34.8457 21.1973 1.59595)" fill="#5994FD"/>
<rect x="21.1973" y="1.59595" width="2.72868" height="5.36397" rx="1.36434" transform="rotate(34.8457 21.1973 1.59595)" fill="url(#paint34_linear_211_3096)" fill-opacity="0.2"/>
<rect x="21.1973" y="1.59595" width="2.72868" height="5.36397" rx="1.36434" transform="rotate(34.8457 21.1973 1.59595)" fill="url(#paint35_radial_211_3096)" fill-opacity="0.8"/>
<rect x="21.1973" y="1.59595" width="2.72868" height="5.36397" rx="1.36434" transform="rotate(34.8457 21.1973 1.59595)" fill="url(#paint36_linear_211_3096)"/>
<rect x="21.1973" y="1.59595" width="2.72868" height="5.36397" rx="1.36434" transform="rotate(34.8457 21.1973 1.59595)" fill="url(#paint37_linear_211_3096)"/>
<rect x="12.1799" y="5.57837" width="2.72868" height="5.36397" rx="1.36434" transform="rotate(34.8457 12.1799 5.57837)" fill="#4C7AF7"/>
<rect x="12.1799" y="5.57837" width="2.72868" height="5.36397" rx="1.36434" transform="rotate(34.8457 12.1799 5.57837)" fill="url(#paint38_linear_211_3096)" fill-opacity="0.3"/>
<rect x="12.1799" y="5.57837" width="2.72868" height="5.36397" rx="1.36434" transform="rotate(34.8457 12.1799 5.57837)" fill="url(#paint39_radial_211_3096)"/>
<rect x="12.1799" y="5.57837" width="2.72868" height="5.36397" rx="1.36434" transform="rotate(34.8457 12.1799 5.57837)" fill="url(#paint40_linear_211_3096)"/>
<rect x="12.1799" y="5.57837" width="2.72868" height="5.36397" rx="1.36434" transform="rotate(34.8457 12.1799 5.57837)" fill="url(#paint41_linear_211_3096)"/>
<rect x="12.1799" y="5.57837" width="2.72868" height="5.36397" rx="1.36434" transform="rotate(34.8457 12.1799 5.57837)" fill="url(#paint42_linear_211_3096)"/>
<rect x="12.1799" y="5.57837" width="2.72868" height="5.36397" rx="1.36434" transform="rotate(34.8457 12.1799 5.57837)" fill="url(#paint43_linear_211_3096)"/>
<rect x="28.0454" y="5.57837" width="2.72868" height="5.36397" rx="1.36434" transform="rotate(34.8457 28.0454 5.57837)" fill="#5794FC"/>
<rect x="28.0454" y="5.57837" width="2.72868" height="5.36397" rx="1.36434" transform="rotate(34.8457 28.0454 5.57837)" fill="url(#paint44_radial_211_3096)"/>
<rect x="28.0454" y="5.57837" width="2.72868" height="5.36397" rx="1.36434" transform="rotate(34.8457 28.0454 5.57837)" fill="url(#paint45_linear_211_3096)"/>
<rect x="28.0454" y="5.57837" width="2.72868" height="5.36397" rx="1.36434" transform="rotate(34.8457 28.0454 5.57837)" fill="url(#paint46_linear_211_3096)" fill-opacity="0.3"/>
<rect x="28.0454" y="5.57837" width="2.72868" height="5.36397" rx="1.36434" transform="rotate(34.8457 28.0454 5.57837)" fill="url(#paint47_linear_211_3096)"/>
<rect x="28.0454" y="5.57837" width="2.72868" height="5.36397" rx="1.36434" transform="rotate(34.8457 28.0454 5.57837)" fill="url(#paint48_linear_211_3096)" fill-opacity="0.6"/>
<rect x="28.0454" y="5.57837" width="2.72868" height="5.36397" rx="1.36434" transform="rotate(34.8457 28.0454 5.57837)" fill="url(#paint49_linear_211_3096)" fill-opacity="0.6"/>
<defs>
<linearGradient id="paint0_linear_211_3096" x1="13.6382" y1="21.9053" x2="13.6382" y2="29.0749" gradientUnits="userSpaceOnUse">
<stop stop-color="#7B4F49"/>
<stop offset="1" stop-color="#60333E"/>
</linearGradient>
<radialGradient id="paint1_radial_211_3096" cx="0" cy="0" r="1" gradientUnits="userSpaceOnUse" gradientTransform="translate(13.7625 26.38) rotate(88.6005) scale(5.13325 4.8775)">
<stop offset="0.391471" stop-color="#764147" stop-opacity="0"/>
<stop offset="0.437468" stop-color="#8B6E6C" stop-opacity="0.32"/>
<stop offset="0.498067" stop-color="#8B6E6C" stop-opacity="0.46"/>
<stop offset="0.560971" stop-color="#8B6E6C" stop-opacity="0.28"/>
<stop offset="0.655398" stop-color="#764046" stop-opacity="0"/>
</radialGradient>
<radialGradient id="paint2_radial_211_3096" cx="0" cy="0" r="1" gradientUnits="userSpaceOnUse" gradientTransform="translate(11.1703 25.6986) rotate(74.9136) scale(1.18898 1.74819)">
<stop offset="0.12846" stop-color="#663941"/>
<stop offset="0.645042" stop-color="#663941" stop-opacity="0"/>
</radialGradient>
<radialGradient id="paint3_radial_211_3096" cx="0" cy="0" r="1" gradientUnits="userSpaceOnUse" gradientTransform="translate(15.362 24.521) rotate(177.213) scale(0.860549 3.37974)">
<stop offset="0.409324" stop-color="#663941"/>
<stop offset="0.640423" stop-color="#663941" stop-opacity="0.91"/>
<stop offset="0.931035" stop-color="#663941" stop-opacity="0"/>
</radialGradient>
<radialGradient id="paint4_radial_211_3096" cx="0" cy="0" r="1" gradientUnits="userSpaceOnUse" gradientTransform="translate(16.3163 23.5683) rotate(180) scale(0.834067 8.312)">
<stop offset="0.186638" stop-color="#E1DAD6" stop-opacity="0.92"/>
<stop offset="0.307714" stop-color="#E1DAD6" stop-opacity="0.72"/>
<stop offset="0.773983" stop-color="#7C4F52" stop-opacity="0"/>
</radialGradient>
<radialGradient id="paint5_radial_211_3096" cx="0" cy="0" r="1" gradientUnits="userSpaceOnUse" gradientTransform="translate(16.1011 21.9053) rotate(77.048) scale(2.98048 4.38225)">
<stop offset="0.110307" stop-color="#663941"/>
<stop offset="1" stop-color="#663941" stop-opacity="0"/>
</radialGradient>
<radialGradient id="paint6_radial_211_3096" cx="0" cy="0" r="1" gradientUnits="userSpaceOnUse" gradientTransform="translate(16.057 21.1267) rotate(80.6068) scale(6.44097 9.47028)">
<stop stop-color="#7C514C"/>
<stop offset="1" stop-color="#7C514C" stop-opacity="0"/>
</radialGradient>
<radialGradient id="paint7_radial_211_3096" cx="0" cy="0" r="1" gradientUnits="userSpaceOnUse" gradientTransform="translate(16.1082 21.9432) rotate(-90) scale(6.24024 3.00589)">
<stop stop-color="#504570"/>
<stop offset="1" stop-color="#3E3157"/>
</radialGradient>
<radialGradient id="paint8_radial_211_3096" cx="0" cy="0" r="1" gradientUnits="userSpaceOnUse" gradientTransform="translate(16.1082 22.6825) rotate(90) scale(1.26117 1.4006)">
<stop offset="0.64565" stop-color="#46226D"/>
<stop offset="0.800265" stop-color="#4C386E"/>
<stop offset="0.891608" stop-color="#4C386E" stop-opacity="0"/>
</radialGradient>
<radialGradient id="paint9_radial_211_3096" cx="0" cy="0" r="1" gradientUnits="userSpaceOnUse" gradientTransform="translate(16.3681 2.92863) rotate(-90) scale(0.673425 0.803684)">
<stop stop-color="#6C5983"/>
<stop offset="1" stop-color="#563E71"/>
</radialGradient>
<linearGradient id="paint10_linear_211_3096" x1="16.1901" y1="2.97248" x2="16.1901" y2="2.7552" gradientUnits="userSpaceOnUse">
<stop stop-color="#4A1876"/>
<stop offset="1" stop-color="#4A1876" stop-opacity="0"/>
</linearGradient>
<radialGradient id="paint11_radial_211_3096" cx="0" cy="0" r="1" gradientUnits="userSpaceOnUse" gradientTransform="translate(22.4213 8.34936) rotate(158.645) scale(15.0372 22.9615)">
<stop offset="0.245182" stop-color="#8A60BB"/>
<stop offset="1" stop-color="#554A87"/>
</radialGradient>
<radialGradient id="paint12_radial_211_3096" cx="0" cy="0" r="1" gradientUnits="userSpaceOnUse" gradientTransform="translate(16.0932 16.9253) rotate(-27.7374) scale(14.1035 30.0052)">
<stop offset="0.759876" stop-color="#8A63B5" stop-opacity="0"/>
<stop offset="1" stop-color="#8A63B5"/>
</radialGradient>
<radialGradient id="paint13_radial_211_3096" cx="0" cy="0" r="1" gradientUnits="userSpaceOnUse" gradientTransform="translate(23.527 9.93531) rotate(168.528) scale(21.3383 42.6309)">
<stop offset="0.884821" stop-color="#625D82" stop-opacity="0"/>
<stop offset="1" stop-color="#625D82"/>
</radialGradient>
<radialGradient id="paint14_radial_211_3096" cx="0" cy="0" r="1" gradientUnits="userSpaceOnUse" gradientTransform="translate(16.0932 15.3276) rotate(-180) scale(10.59 17.2504)">
<stop offset="0.641088" stop-color="#7A4AB0" stop-opacity="0"/>
<stop offset="0.662165" stop-color="#7A4AB0"/>
<stop offset="0.710109" stop-color="#7A4AB0" stop-opacity="0"/>
</radialGradient>
<radialGradient id="paint15_radial_211_3096" cx="0" cy="0" r="1" gradientUnits="userSpaceOnUse" gradientTransform="translate(21.3991 18.9633) rotate(68.3243) scale(29.5837 20.5081)">
<stop offset="0.530711" stop-color="#634D95" stop-opacity="0"/>
<stop offset="0.544372" stop-color="#634D95"/>
<stop offset="0.558298" stop-color="#634D95" stop-opacity="0"/>
</radialGradient>
<radialGradient id="paint16_radial_211_3096" cx="0" cy="0" r="1" gradientUnits="userSpaceOnUse" gradientTransform="translate(21.1411 18.7837) rotate(67.9914) scale(29.8463 20.6901)">
<stop offset="0.530711" stop-color="#886FBA" stop-opacity="0"/>
<stop offset="0.544372" stop-color="#6E589B"/>
<stop offset="0.558298" stop-color="#6C559A" stop-opacity="0"/>
</radialGradient>
<radialGradient id="paint17_radial_211_3096" cx="0" cy="0" r="1" gradientUnits="userSpaceOnUse" gradientTransform="translate(23.1841 15.6978) rotate(179.624) scale(2.38247 0.809215)">
<stop offset="0.398732" stop-color="#875FB8"/>
<stop offset="0.767442" stop-color="#875FB8" stop-opacity="0"/>
</radialGradient>
<radialGradient id="paint18_radial_211_3096" cx="0" cy="0" r="1" gradientUnits="userSpaceOnUse" gradientTransform="translate(8.94754 15.7192) rotate(8.52813) scale(1.66364 1.37463)">
<stop offset="0.398732" stop-color="#554B87"/>
<stop offset="0.767442" stop-color="#554B87" stop-opacity="0"/>
</radialGradient>
<radialGradient id="paint19_radial_211_3096" cx="0" cy="0" r="1" gradientUnits="userSpaceOnUse" gradientTransform="translate(16.3915 13.4815) rotate(89.521) scale(11.5066 0.642196)">
<stop offset="0.220086" stop-color="#4C2F82" stop-opacity="0.83"/>
<stop offset="1" stop-color="#554B87" stop-opacity="0"/>
</radialGradient>
<radialGradient id="paint20_radial_211_3096" cx="0" cy="0" r="1" gradientUnits="userSpaceOnUse" gradientTransform="translate(15.9756 12.9514) rotate(90) scale(10.7301 0.603568)">
<stop offset="0.361671" stop-color="#826CB9"/>
<stop offset="1" stop-color="#8F67B7" stop-opacity="0"/>
</radialGradient>
<radialGradient id="paint21_radial_211_3096" cx="0" cy="0" r="1" gradientUnits="userSpaceOnUse" gradientTransform="translate(16.2505 15.6278) rotate(-1.50743) scale(1.97716 1.23468)">
<stop offset="0.398732" stop-color="#7256A4"/>
<stop offset="0.767442" stop-color="#7256A4" stop-opacity="0"/>
</radialGradient>
<radialGradient id="paint22_radial_211_3096" cx="0" cy="0" r="1" gradientUnits="userSpaceOnUse" gradientTransform="translate(26.5932 17.7182) rotate(90.1922) scale(4.23744 4.78735)">
<stop offset="0.662165" stop-color="#533B82"/>
<stop offset="0.818826" stop-color="#625D82" stop-opacity="0"/>
</radialGradient>
<radialGradient id="paint23_radial_211_3096" cx="0" cy="0" r="1" gradientUnits="userSpaceOnUse" gradientTransform="translate(19.6129 17.6165) rotate(92.5529) scale(4.04415 5.16276)">
<stop offset="0.662165" stop-color="#533B82"/>
<stop offset="0.818826" stop-color="#625D82" stop-opacity="0"/>
</radialGradient>
<radialGradient id="paint24_radial_211_3096" cx="0" cy="0" r="1" gradientUnits="userSpaceOnUse" gradientTransform="translate(12.5397 17.5657) rotate(88.6498) scale(4.21054 5.37518)">
<stop offset="0.662165" stop-color="#533B82"/>
<stop offset="0.818826" stop-color="#625D82" stop-opacity="0"/>
</radialGradient>
<radialGradient id="paint25_radial_211_3096" cx="0" cy="0" r="1" gradientUnits="userSpaceOnUse" gradientTransform="translate(5.56477 17.2804) rotate(89.8228) scale(4.05669 4.79125)">
<stop offset="0.662165" stop-color="#533B82"/>
<stop offset="0.818826" stop-color="#625D82" stop-opacity="0"/>
</radialGradient>
<radialGradient id="paint26_radial_211_3096" cx="0" cy="0" r="1" gradientUnits="userSpaceOnUse" gradientTransform="translate(16.0932 3.98553) rotate(91.8682) scale(2.15646 1.58354)">
<stop offset="0.372191" stop-color="#805CB2"/>
<stop offset="0.66439" stop-color="#805CB2" stop-opacity="0"/>
</radialGradient>
<radialGradient id="paint27_radial_211_3096" cx="0" cy="0" r="1" gradientUnits="userSpaceOnUse" gradientTransform="translate(15.2607 3.57074) rotate(-21.1199) scale(6.08061 0.847829)">
<stop stop-color="#7A5AAB"/>
<stop offset="0.66439" stop-color="#7A5AAB" stop-opacity="0"/>
</radialGradient>
<radialGradient id="paint28_radial_211_3096" cx="0" cy="0" r="1" gradientUnits="userSpaceOnUse" gradientTransform="translate(18.627 3.46271) rotate(8.05604) scale(6.57399 1.36959)">
<stop offset="0.372191" stop-color="#8A61BB"/>
<stop offset="0.66439" stop-color="#8A61BB" stop-opacity="0"/>
</radialGradient>
<radialGradient id="paint29_radial_211_3096" cx="0" cy="0" r="1" gradientUnits="userSpaceOnUse" gradientTransform="translate(20.1282 16.5151) rotate(100.62) scale(8.13941)">
<stop stop-color="#9B7CCF"/>
<stop offset="1" stop-color="#9A7ACE" stop-opacity="0"/>
</radialGradient>
<linearGradient id="paint30_linear_211_3096" x1="5.42627" y1="8.26795" x2="6.81021" y2="5.5523" gradientUnits="userSpaceOnUse">
<stop offset="0.558019" stop-color="#4354B9"/>
<stop offset="1" stop-color="#4970E9" stop-opacity="0"/>
</linearGradient>
<linearGradient id="paint31_linear_211_3096" x1="5.86868" y1="0.480091" x2="6.71349" y2="2.45755" gradientUnits="userSpaceOnUse">
<stop offset="0.386687" stop-color="#4354B9"/>
<stop offset="1" stop-color="#4458BF" stop-opacity="0"/>
</linearGradient>
<linearGradient id="paint32_linear_211_3096" x1="4.4504" y1="4.17803" x2="8.28741" y2="4.16915" gradientUnits="userSpaceOnUse">
<stop offset="0.243962" stop-color="#4354B9"/>
<stop offset="0.5493" stop-color="#4B76F3" stop-opacity="0"/>
</linearGradient>
<radialGradient id="paint33_radial_211_3096" cx="0" cy="0" r="1" gradientUnits="userSpaceOnUse" gradientTransform="translate(7.40572 1.54651) rotate(-54.2047) scale(1.66177 1.53217)">
<stop stop-color="#72A7FF"/>
<stop offset="1" stop-color="#72A7FF" stop-opacity="0"/>
</radialGradient>
<linearGradient id="paint34_linear_211_3096" x1="20.9771" y1="4.13361" x2="23.5879" y2="4.11151" gradientUnits="userSpaceOnUse">
<stop offset="0.344025" stop-color="#B7CBFE" stop-opacity="0"/>
<stop offset="0.612409" stop-color="#B3C6FA" stop-opacity="0.61"/>
<stop offset="0.719696" stop-color="#A4BCFB" stop-opacity="0.94"/>
<stop offset="0.874644" stop-color="#A4BCFB" stop-opacity="0.47"/>
<stop offset="1" stop-color="#7899F0" stop-opacity="0"/>
</linearGradient>
<radialGradient id="paint35_radial_211_3096" cx="0" cy="0" r="1" gradientUnits="userSpaceOnUse" gradientTransform="translate(23.2712 1.54651) rotate(-54.2047) scale(1.66177 1.53217)">
<stop stop-color="#7DBFFF"/>
<stop offset="1" stop-color="#7DBFFF" stop-opacity="0"/>
</radialGradient>
<linearGradient id="paint36_linear_211_3096" x1="22.9406" y1="8.04749" x2="22.788" y2="5.64059" gradientUnits="userSpaceOnUse">
<stop stop-color="#414BB6"/>
<stop offset="1" stop-color="#414BB6" stop-opacity="0"/>
</linearGradient>
<linearGradient id="paint37_linear_211_3096" x1="20.6473" y1="3.30664" x2="22.4994" y2="3.30444" gradientUnits="userSpaceOnUse">
<stop stop-color="#668AD6"/>
<stop offset="1" stop-color="#6487CC" stop-opacity="0"/>
</linearGradient>
<linearGradient id="paint38_linear_211_3096" x1="11.9597" y1="8.11603" x2="15.2133" y2="8.10858" gradientUnits="userSpaceOnUse">
<stop offset="0.4263" stop-color="#7899F0" stop-opacity="0"/>
<stop offset="0.611585" stop-color="#7899F0" stop-opacity="0.86"/>
<stop offset="0.676876" stop-color="#7899F0"/>
<stop offset="0.733737" stop-color="#7899F0" stop-opacity="0.74"/>
<stop offset="0.89215" stop-color="#7899F0" stop-opacity="0"/>
</linearGradient>
<radialGradient id="paint39_radial_211_3096" cx="0" cy="0" r="1" gradientUnits="userSpaceOnUse" gradientTransform="translate(14.2539 5.52893) rotate(-54.2047) scale(1.66177 1.53217)">
<stop stop-color="#6EA6FF"/>
<stop offset="1" stop-color="#6EA6FF" stop-opacity="0"/>
</radialGradient>
<linearGradient id="paint40_linear_211_3096" x1="13.9232" y1="12.0299" x2="13.7706" y2="9.62302" gradientUnits="userSpaceOnUse">
<stop stop-color="#414BB6"/>
<stop offset="1" stop-color="#414BB6" stop-opacity="0"/>
</linearGradient>
<linearGradient id="paint41_linear_211_3096" x1="11.2985" y1="8.16045" x2="15.1355" y2="8.15157" gradientUnits="userSpaceOnUse">
<stop offset="0.243962" stop-color="#6485E6"/>
<stop offset="0.410744" stop-color="#4B76F3" stop-opacity="0"/>
</linearGradient>
<linearGradient id="paint42_linear_211_3096" x1="12.3643" y1="11.2073" x2="14.0646" y2="9.79964" gradientUnits="userSpaceOnUse">
<stop offset="0.243962" stop-color="#6485E6"/>
<stop offset="0.5493" stop-color="#4B76F3" stop-opacity="0"/>
</linearGradient>
<linearGradient id="paint43_linear_211_3096" x1="14.5196" y1="11.4691" x2="13.7362" y2="9.39459" gradientUnits="userSpaceOnUse">
<stop offset="0.243962" stop-color="#6485E6"/>
<stop offset="0.5493" stop-color="#4B76F3" stop-opacity="0"/>
</linearGradient>
<radialGradient id="paint44_radial_211_3096" cx="0" cy="0" r="1" gradientUnits="userSpaceOnUse" gradientTransform="translate(30.1193 5.52893) rotate(-54.2047) scale(1.66177 1.53217)">
<stop stop-color="#7DBFFF"/>
<stop offset="1" stop-color="#7DBFFF" stop-opacity="0"/>
</radialGradient>
<linearGradient id="paint45_linear_211_3096" x1="27.164" y1="8.16045" x2="31.1931" y2="8.13534" gradientUnits="userSpaceOnUse">
<stop offset="0.216024" stop-color="#4D70DE"/>
<stop offset="0.469659" stop-color="#558BF5" stop-opacity="0"/>
<stop offset="0.65097" stop-color="#558BF5" stop-opacity="0"/>
<stop offset="0.894815" stop-color="#4D70DE"/>
</linearGradient>
<linearGradient id="paint46_linear_211_3096" x1="27.8252" y1="8.11603" x2="30.436" y2="8.09393" gradientUnits="userSpaceOnUse">
<stop offset="0.344025" stop-color="#B7CBFE" stop-opacity="0"/>
<stop offset="0.612409" stop-color="#B3C6FA" stop-opacity="0.61"/>
<stop offset="0.759123" stop-color="#A4BCFB" stop-opacity="0.47"/>
<stop offset="1" stop-color="#7899F0" stop-opacity="0"/>
</linearGradient>
<linearGradient id="paint47_linear_211_3096" x1="29.7887" y1="12.0299" x2="29.6361" y2="9.62302" gradientUnits="userSpaceOnUse">
<stop stop-color="#4D53CC"/>
<stop offset="1" stop-color="#4D53CC" stop-opacity="0"/>
</linearGradient>
<linearGradient id="paint48_linear_211_3096" x1="28.1399" y1="12.2504" x2="29.5238" y2="9.53472" gradientUnits="userSpaceOnUse">
<stop offset="0.558019" stop-color="#4D70DE"/>
<stop offset="1" stop-color="#4970E9" stop-opacity="0"/>
</linearGradient>
<linearGradient id="paint49_linear_211_3096" x1="28.5823" y1="4.46251" x2="29.4271" y2="6.43997" gradientUnits="userSpaceOnUse">
<stop offset="0.386687" stop-color="#4D70DE"/>
<stop offset="1" stop-color="#4D70DE" stop-opacity="0"/>
</linearGradient>
</defs>
</svg>
