<svg width="100%" height="100%" viewBox="0 0 20 20" fill="none" xmlns="http://www.w3.org/2000/svg">
<path fill-rule="evenodd" clip-rule="evenodd" d="M8.88896 1.66675C4.90024 1.66675 1.66675 4.90024 1.66675 8.88896C1.66675 12.8777 4.90024 16.1112 8.88896 16.1112C12.8777 16.1112 16.1112 12.8777 16.1112 8.88896C16.1112 4.90024 12.8777 1.66675 8.88896 1.66675ZM2.77786 8.88896C2.77786 5.51389 5.51389 2.77786 8.88896 2.77786C12.264 2.77786 15.0001 5.51389 15.0001 8.88896C15.0001 12.264 12.264 15.0001 8.88896 15.0001C5.51389 15.0001 2.77786 12.264 2.77786 8.88896Z" fill="#98A2B3"/>
<path d="M15.2078 14.4221C14.9908 14.2051 14.639 14.2051 14.4221 14.4221C14.2051 14.6391 14.2051 14.9908 14.4221 15.2078L17.385 18.1707C17.6019 18.3877 17.9537 18.3877 18.1706 18.1707C18.3876 17.9537 18.3876 17.602 18.1706 17.385L15.2078 14.4221Z" fill="#98A2B3"/>
</svg>
