<svg width="100%" height="100%" viewBox="0 0 36 36" fill="none" xmlns="http://www.w3.org/2000/svg">
<rect x="19.5908" y="25.7256" width="8.45215" height="13.7347" rx="4.22607" transform="rotate(-45 19.5908 25.7256)" fill="url(#paint0_linear_220_3419)"/>
<rect x="19.5908" y="25.7256" width="8.45215" height="13.7347" rx="4.22607" transform="rotate(-45 19.5908 25.7256)" fill="url(#paint1_linear_220_3419)"/>
<rect x="19.5908" y="25.7256" width="8.45215" height="13.7347" rx="4.22607" transform="rotate(-45 19.5908 25.7256)" fill="url(#paint2_radial_220_3419)"/>
<rect x="19.5908" y="25.7256" width="8.45215" height="13.7347" rx="4.22607" transform="rotate(-45 19.5908 25.7256)" fill="url(#paint3_linear_220_3419)"/>
<rect x="19.5908" y="25.7256" width="8.45215" height="13.7347" rx="4.22607" transform="rotate(-45 19.5908 25.7256)" fill="url(#paint4_radial_220_3419)"/>
<path fill-rule="evenodd" clip-rule="evenodd" d="M14.5195 26.7715C21.2376 26.7715 26.6836 21.3255 26.6836 14.6074C26.6836 7.88939 21.2376 2.44336 14.5195 2.44336C7.80149 2.44336 2.35547 7.88939 2.35547 14.6074C2.35547 21.3255 7.80149 26.7715 14.5195 26.7715ZM14.5195 24.8027C20.1502 24.8027 24.7148 20.2381 24.7148 14.6074C24.7148 8.97672 20.1502 4.41211 14.5195 4.41211C8.88883 4.41211 4.32422 8.97672 4.32422 14.6074C4.32422 20.2381 8.88883 24.8027 14.5195 24.8027Z" fill="url(#paint5_linear_220_3419)"/>
<path fill-rule="evenodd" clip-rule="evenodd" d="M14.5197 26.4963C21.0858 26.4963 26.4086 21.1735 26.4086 14.6074C26.4086 8.04125 21.0858 2.71838 14.5197 2.71838C7.95354 2.71838 2.63068 8.04125 2.63068 14.6074C2.63068 21.1735 7.95354 26.4963 14.5197 26.4963ZM14.5197 24.5721C20.023 24.5721 24.4844 20.1107 24.4844 14.6074C24.4844 9.104 20.023 4.64261 14.5197 4.64261C9.01629 4.64261 4.5549 9.104 4.5549 14.6074C4.5549 20.1107 9.01629 24.5721 14.5197 24.5721Z" fill="url(#paint6_linear_220_3419)"/>
<path fill-rule="evenodd" clip-rule="evenodd" d="M14.5197 26.4963C21.0858 26.4963 26.4086 21.1735 26.4086 14.6074C26.4086 8.04125 21.0858 2.71838 14.5197 2.71838C7.95354 2.71838 2.63068 8.04125 2.63068 14.6074C2.63068 21.1735 7.95354 26.4963 14.5197 26.4963ZM14.5197 24.5721C20.023 24.5721 24.4844 20.1107 24.4844 14.6074C24.4844 9.104 20.023 4.64261 14.5197 4.64261C9.01629 4.64261 4.5549 9.104 4.5549 14.6074C4.5549 20.1107 9.01629 24.5721 14.5197 24.5721Z" fill="url(#paint7_radial_220_3419)"/>
<circle cx="14.5197" cy="14.6074" r="10.4569" fill="url(#paint8_linear_220_3419)"/>
<circle cx="14.5195" cy="14.6074" r="10.1953" fill="#64D0EA"/>
<circle cx="14.5195" cy="14.6074" r="10.1953" fill="url(#paint9_radial_220_3419)"/>
<ellipse cx="19.1131" cy="9.49779" rx="1.85765" ry="2.28761" transform="rotate(-38.8957 19.1131 9.49779)" fill="url(#paint10_linear_220_3419)"/>
<defs>
<linearGradient id="paint0_linear_220_3419" x1="20.2993" y1="37.3846" x2="25.1717" y2="27.7889" gradientUnits="userSpaceOnUse">
<stop stop-color="#A0659C"/>
<stop offset="1" stop-color="#895792"/>
</linearGradient>
<linearGradient id="paint1_linear_220_3419" x1="23.8045" y1="26.3222" x2="23.8169" y2="31.1449" gradientUnits="userSpaceOnUse">
<stop stop-color="#6C3B74"/>
<stop offset="1" stop-color="#845590" stop-opacity="0"/>
</linearGradient>
<radialGradient id="paint2_radial_220_3419" cx="0" cy="0" r="1" gradientUnits="userSpaceOnUse" gradientTransform="translate(24.3047 33.0808) rotate(91.5998) scale(10.7962 6.11184)">
<stop offset="0.565842" stop-color="#655B6E" stop-opacity="0"/>
<stop offset="1" stop-color="#655B6E"/>
</radialGradient>
<linearGradient id="paint3_linear_220_3419" x1="28.1548" y1="35.0975" x2="22.3626" y2="34.9235" gradientUnits="userSpaceOnUse">
<stop offset="0.115168" stop-color="#703D7A"/>
<stop offset="1" stop-color="#703D7A" stop-opacity="0"/>
</linearGradient>
<radialGradient id="paint4_radial_220_3419" cx="0" cy="0" r="1" gradientUnits="userSpaceOnUse" gradientTransform="translate(23.8666 25.5143) rotate(92.4424) scale(2.62503 6.10071)">
<stop stop-color="#2F1A3D"/>
<stop offset="1" stop-color="#532D64" stop-opacity="0"/>
</radialGradient>
<linearGradient id="paint5_linear_220_3419" x1="14.5195" y1="2.44336" x2="14.5195" y2="26.7715" gradientUnits="userSpaceOnUse">
<stop offset="0.378529" stop-color="#344A7D"/>
<stop offset="0.633316" stop-color="#785790"/>
<stop offset="0.837142" stop-color="#785790"/>
<stop offset="1" stop-color="#9872A2"/>
</linearGradient>
<linearGradient id="paint6_linear_220_3419" x1="14.5197" y1="2.71838" x2="14.5197" y2="26.4963" gradientUnits="userSpaceOnUse">
<stop stop-color="#475890"/>
<stop offset="1" stop-color="#7A4D87"/>
</linearGradient>
<radialGradient id="paint7_radial_220_3419" cx="0" cy="0" r="1" gradientUnits="userSpaceOnUse" gradientTransform="translate(14.5197 8.33195) rotate(-90.0001) scale(5.76563 10.7226)">
<stop offset="0.704268" stop-color="#566298"/>
<stop offset="0.786585" stop-color="#566298" stop-opacity="0"/>
</radialGradient>
<linearGradient id="paint8_linear_220_3419" x1="14.5197" y1="4.15051" x2="14.5197" y2="25.0644" gradientUnits="userSpaceOnUse">
<stop stop-color="#204083"/>
<stop offset="1" stop-color="#523573"/>
</linearGradient>
<radialGradient id="paint9_radial_220_3419" cx="0" cy="0" r="1" gradientUnits="userSpaceOnUse" gradientTransform="translate(14.5195 15.1875) rotate(90) scale(12.375)">
<stop offset="0.651103" stop-color="#33A2F3" stop-opacity="0"/>
<stop offset="1" stop-color="#33A2F3"/>
</radialGradient>
<linearGradient id="paint10_linear_220_3419" x1="19.1131" y1="7.21018" x2="19.1131" y2="11.7854" gradientUnits="userSpaceOnUse">
<stop stop-color="#DCDBF2"/>
<stop offset="0.209118" stop-color="#DCDBF2" stop-opacity="0.84797"/>
<stop offset="1" stop-color="#DCDBF2" stop-opacity="0"/>
</linearGradient>
</defs>
</svg>
