<svg width="100%" height="100%" viewBox="0 0 24 24" fill="none" xmlns="http://www.w3.org/2000/svg">
<path fill-rule="evenodd" clip-rule="evenodd" d="M10.6667 2C5.88019 2 2 5.88019 2 10.6667C2 15.4531 5.88019 19.3333 10.6667 19.3333C15.4531 19.3333 19.3333 15.4531 19.3333 10.6667C19.3333 5.88019 15.4531 2 10.6667 2ZM3.33333 10.6667C3.33333 6.61657 6.61657 3.33333 10.6667 3.33333C14.7167 3.33333 18 6.61657 18 10.6667C18 14.7167 14.7167 18 10.6667 18C6.61657 18 3.33333 14.7167 3.33333 10.6667Z" fill="#5E5F60"/>
<path d="M18.2492 17.3064C17.9889 17.0461 17.5668 17.0461 17.3064 17.3064C17.0461 17.5668 17.0461 17.9889 17.3064 18.2492L20.8619 21.8047C21.1222 22.0651 21.5443 22.0651 21.8047 21.8047C22.065 21.5444 22.065 21.1223 21.8047 20.8619L18.2492 17.3064Z" fill="#5E5F60"/>
</svg>
