<svg width="100%" height="100%" viewBox="0 0 24 24" fill="none" xmlns="http://www.w3.org/2000/svg">
<path d="M7.78079 10.5764C7.50801 10.8489 7.50801 11.2906 7.78079 11.5631L8.15332 11.9352C10.2778 14.0572 13.7222 14.0572 15.8467 11.9352L16.2192 11.5631C16.492 11.2906 16.492 10.8489 16.2192 10.5764C15.9464 10.304 15.5042 10.304 15.2314 10.5764L14.8589 10.9485C13.28 12.5256 10.72 12.5256 9.14114 10.9485L8.76861 10.5764C8.49583 10.304 8.05357 10.304 7.78079 10.5764Z" fill="#5E5F60"/>
<path fill-rule="evenodd" clip-rule="evenodd" d="M12 2C9.73673 2 7.87043 3.69763 7.60782 5.88758C7.24115 5.95773 6.90335 6.05913 6.57933 6.2075C5.64294 6.63625 4.85022 7.32567 4.29622 8.19308C3.96091 8.71809 3.76194 9.30539 3.60564 10.0218C3.45251 10.7238 3.33083 11.5989 3.17602 12.7122L3.16745 12.7738C2.96823 14.2065 2.8125 15.3264 2.76519 16.2285C2.71717 17.1445 2.77527 17.9077 3.05113 18.6085C3.502 19.7538 4.3345 20.7088 5.40824 21.3124C6.06519 21.6817 6.8141 21.8442 7.72899 21.9227C8.63007 22 9.7621 22 11.2102 22H12.7898C14.2379 22 15.3699 22 16.271 21.9227C17.1859 21.8442 17.9348 21.6817 18.5918 21.3124C19.6655 20.7088 20.498 19.7538 20.9489 18.6085C21.2247 17.9077 21.2828 17.1445 21.2348 16.2285C21.1875 15.3264 21.0318 14.2064 20.8325 12.7737L20.824 12.7122C20.6692 11.5989 20.5475 10.7238 20.3944 10.0218C20.2381 9.30539 20.0391 8.71809 19.7038 8.19308C19.1498 7.32567 18.3571 6.63625 17.4207 6.2075C17.0966 6.05913 16.7589 5.95773 16.3922 5.88758C16.1296 3.69763 14.2633 2 12 2ZM11.2015 5.72093C10.3614 5.72092 9.65419 5.72092 9.04871 5.7445C9.35541 4.39929 10.5603 3.39535 12 3.39535C13.4397 3.39535 14.6446 4.39929 14.9513 5.7445C14.3458 5.72092 13.6386 5.72092 12.7985 5.72093H11.2015ZM8.34771 7.18937C9.0353 7.11719 9.92554 7.11628 11.2437 7.11628H12.7563C14.0745 7.11628 14.9647 7.11719 15.6523 7.18937C16.1661 7.24331 16.5289 7.33413 16.8385 7.47591C17.5306 7.79282 18.1165 8.30239 18.526 8.94352C18.7374 9.27447 18.8909 9.6839 19.0294 10.3189C19.1698 10.9625 19.2846 11.7846 19.4442 12.9327C19.649 14.4055 19.7959 15.4663 19.8397 16.3015C19.8832 17.1299 19.8195 17.6642 19.6488 18.0979C19.3155 18.9444 18.7002 19.6503 17.9066 20.0964C17.5 20.325 16.9789 20.4615 16.1515 20.5325C15.3172 20.604 14.245 20.6047 12.7563 20.6047H11.2437C9.75495 20.6047 8.68284 20.604 7.84854 20.5325C7.02112 20.4615 6.50004 20.325 6.09344 20.0964C5.2998 19.6503 4.68448 18.9444 4.35122 18.0979C4.18048 17.6642 4.11684 17.1299 4.16027 16.3015C4.20407 15.4663 4.35096 14.4055 4.55576 12.9327C4.7154 11.7846 4.8302 10.9625 4.9706 10.3189C5.10914 9.6839 5.2626 9.27447 5.47397 8.94352C5.88345 8.30239 6.46937 7.79282 7.16148 7.47591C7.47112 7.33413 7.83391 7.24331 8.34771 7.18937Z" fill="#5E5F60"/>
</svg>
