<svg width="100%" height="100%" viewBox="0 0 32 32" fill="none" xmlns="http://www.w3.org/2000/svg">
<path d="M12.792 12.4302C15.0199 12.4302 16.826 10.6242 16.826 8.39626C16.826 6.16837 15.0199 4.3623 12.792 4.3623C10.5641 4.3623 8.75806 6.16837 8.75806 8.39626C8.75806 10.6242 10.5641 12.4302 12.792 12.4302Z" fill="url(#paint0_radial_211_3260)"/>
<path d="M12.792 12.4302C15.0199 12.4302 16.826 10.6242 16.826 8.39626C16.826 6.16837 15.0199 4.3623 12.792 4.3623C10.5641 4.3623 8.75806 6.16837 8.75806 8.39626C8.75806 10.6242 10.5641 12.4302 12.792 12.4302Z" fill="url(#paint1_radial_211_3260)"/>
<path d="M27.6277 4.67772C24.083 1.22289 18.4115 1.2828 14.9566 4.82749C14.0344 5.76797 13.3711 6.85875 12.9436 8.02346C12.8847 8.18394 12.6877 8.2467 12.5451 8.1524C12.2348 7.94715 11.904 7.76784 11.5617 7.62331C10.743 7.24387 9.83432 7.03419 8.87575 7.03419C5.31109 7.03419 2.42542 9.91987 2.42542 13.4845C2.42542 15.0023 2.95462 16.4002 3.83331 17.5085C5.02153 19.0662 6.88873 20.0647 8.99558 20.0647C11.5318 20.0647 18.8209 20.0647 21.6666 20.0647C24.4824 20.0647 26.9687 18.6768 28.4864 16.5499C31.2023 12.9953 30.9028 7.88292 27.6277 4.67772Z" fill="#E0D3FF"/>
<path d="M27.6277 4.67772C24.083 1.22289 18.4115 1.2828 14.9566 4.82749C14.0344 5.76797 13.3711 6.85875 12.9436 8.02346C12.8847 8.18394 12.6877 8.2467 12.5451 8.1524C12.2348 7.94715 11.904 7.76784 11.5617 7.62331C10.743 7.24387 9.83432 7.03419 8.87575 7.03419C5.31109 7.03419 2.42542 9.91987 2.42542 13.4845C2.42542 15.0023 2.95462 16.4002 3.83331 17.5085C5.02153 19.0662 6.88873 20.0647 8.99558 20.0647C11.5318 20.0647 18.8209 20.0647 21.6666 20.0647C24.4824 20.0647 26.9687 18.6768 28.4864 16.5499C31.2023 12.9953 30.9028 7.88292 27.6277 4.67772Z" fill="url(#paint2_radial_211_3260)"/>
<path d="M27.6277 4.67772C24.083 1.22289 18.4115 1.2828 14.9566 4.82749C14.0344 5.76797 13.3711 6.85875 12.9436 8.02346C12.8847 8.18394 12.6877 8.2467 12.5451 8.1524C12.2348 7.94715 11.904 7.76784 11.5617 7.62331C10.743 7.24387 9.83432 7.03419 8.87575 7.03419C5.31109 7.03419 2.42542 9.91987 2.42542 13.4845C2.42542 15.0023 2.95462 16.4002 3.83331 17.5085C5.02153 19.0662 6.88873 20.0647 8.99558 20.0647C11.5318 20.0647 18.8209 20.0647 21.6666 20.0647C24.4824 20.0647 26.9687 18.6768 28.4864 16.5499C31.2023 12.9953 30.9028 7.88292 27.6277 4.67772Z" fill="url(#paint3_radial_211_3260)" fill-opacity="0.7"/>
<path d="M27.6277 4.67772C24.083 1.22289 18.4115 1.2828 14.9566 4.82749C14.0344 5.76797 13.3711 6.85875 12.9436 8.02346C12.8847 8.18394 12.6877 8.2467 12.5451 8.1524C12.2348 7.94715 11.904 7.76784 11.5617 7.62331C10.743 7.24387 9.83432 7.03419 8.87575 7.03419C5.31109 7.03419 2.42542 9.91987 2.42542 13.4845C2.42542 15.0023 2.95462 16.4002 3.83331 17.5085C5.02153 19.0662 6.88873 20.0647 8.99558 20.0647C11.5318 20.0647 18.8209 20.0647 21.6666 20.0647C24.4824 20.0647 26.9687 18.6768 28.4864 16.5499C31.2023 12.9953 30.9028 7.88292 27.6277 4.67772Z" fill="url(#paint4_radial_211_3260)"/>
<path d="M27.6277 4.67772C24.083 1.22289 18.4115 1.2828 14.9566 4.82749C14.0344 5.76797 13.3711 6.85875 12.9436 8.02346C12.8847 8.18394 12.6877 8.2467 12.5451 8.1524C12.2348 7.94715 11.904 7.76784 11.5617 7.62331C10.743 7.24387 9.83432 7.03419 8.87575 7.03419C5.31109 7.03419 2.42542 9.91987 2.42542 13.4845C2.42542 15.0023 2.95462 16.4002 3.83331 17.5085C5.02153 19.0662 6.88873 20.0647 8.99558 20.0647C11.5318 20.0647 18.8209 20.0647 21.6666 20.0647C24.4824 20.0647 26.9687 18.6768 28.4864 16.5499C31.2023 12.9953 30.9028 7.88292 27.6277 4.67772Z" fill="url(#paint5_radial_211_3260)"/>
<path d="M27.6277 4.67772C24.083 1.22289 18.4115 1.2828 14.9566 4.82749C14.0344 5.76797 13.3711 6.85875 12.9436 8.02346C12.8847 8.18394 12.6877 8.2467 12.5451 8.1524C12.2348 7.94715 11.904 7.76784 11.5617 7.62331C10.743 7.24387 9.83432 7.03419 8.87575 7.03419C5.31109 7.03419 2.42542 9.91987 2.42542 13.4845C2.42542 15.0023 2.95462 16.4002 3.83331 17.5085C5.02153 19.0662 6.88873 20.0647 8.99558 20.0647C11.5318 20.0647 18.8209 20.0647 21.6666 20.0647C24.4824 20.0647 26.9687 18.6768 28.4864 16.5499C31.2023 12.9953 30.9028 7.88292 27.6277 4.67772Z" fill="url(#paint6_radial_211_3260)"/>
<path d="M27.6277 4.67772C24.083 1.22289 18.4115 1.2828 14.9566 4.82749C14.0344 5.76797 13.3711 6.85875 12.9436 8.02346C12.8847 8.18394 12.6877 8.2467 12.5451 8.1524C12.2348 7.94715 11.904 7.76784 11.5617 7.62331C10.743 7.24387 9.83432 7.03419 8.87575 7.03419C5.31109 7.03419 2.42542 9.91987 2.42542 13.4845C2.42542 15.0023 2.95462 16.4002 3.83331 17.5085C5.02153 19.0662 6.88873 20.0647 8.99558 20.0647C11.5318 20.0647 18.8209 20.0647 21.6666 20.0647C24.4824 20.0647 26.9687 18.6768 28.4864 16.5499C31.2023 12.9953 30.9028 7.88292 27.6277 4.67772Z" fill="url(#paint7_radial_211_3260)"/>
<path d="M27.6277 4.67772C24.083 1.22289 18.4115 1.2828 14.9566 4.82749C14.0344 5.76797 13.3711 6.85875 12.9436 8.02346C12.8847 8.18394 12.6877 8.2467 12.5451 8.1524C12.2348 7.94715 11.904 7.76784 11.5617 7.62331C10.743 7.24387 9.83432 7.03419 8.87575 7.03419C5.31109 7.03419 2.42542 9.91987 2.42542 13.4845C2.42542 15.0023 2.95462 16.4002 3.83331 17.5085C5.02153 19.0662 6.88873 20.0647 8.99558 20.0647C11.5318 20.0647 18.8209 20.0647 21.6666 20.0647C24.4824 20.0647 26.9687 18.6768 28.4864 16.5499C31.2023 12.9953 30.9028 7.88292 27.6277 4.67772Z" fill="url(#paint8_radial_211_3260)" fill-opacity="0.55"/>
<path d="M27.6277 4.67772C24.083 1.22289 18.4115 1.2828 14.9566 4.82749C14.0344 5.76797 13.3711 6.85875 12.9436 8.02346C12.8847 8.18394 12.6877 8.2467 12.5451 8.1524C12.2348 7.94715 11.904 7.76784 11.5617 7.62331C10.743 7.24387 9.83432 7.03419 8.87575 7.03419C5.31109 7.03419 2.42542 9.91987 2.42542 13.4845C2.42542 15.0023 2.95462 16.4002 3.83331 17.5085C5.02153 19.0662 6.88873 20.0647 8.99558 20.0647C11.5318 20.0647 18.8209 20.0647 21.6666 20.0647C24.4824 20.0647 26.9687 18.6768 28.4864 16.5499C31.2023 12.9953 30.9028 7.88292 27.6277 4.67772Z" fill="url(#paint9_linear_211_3260)" fill-opacity="0.6"/>
<path d="M9.09033 25.077L9.26311 25.4391C9.36482 25.6522 9.30353 25.9075 9.11612 26.0512L8.95127 26.1776C8.24871 26.7164 8.60015 27.8386 9.48453 27.8804L9.57369 27.8846C9.83264 27.8969 10.0393 28.105 10.0497 28.364L10.0644 28.7307C10.0949 29.4901 10.9947 29.8722 11.5623 29.3667L11.8216 29.1358C12.0053 28.9721 12.2809 28.9665 12.4711 29.1225L12.6819 29.2953C13.2739 29.7807 14.1632 29.3522 14.1524 28.5866L14.1469 28.1971C14.1434 27.9459 14.3268 27.731 14.5755 27.6952L14.7361 27.672C15.5295 27.5577 15.8118 26.557 15.1951 26.0448L14.8874 25.7893C14.7104 25.6424 14.6565 25.3936 14.7569 25.1866L14.8555 24.9832C15.2206 24.2299 14.5035 23.4067 13.7072 23.6653L13.4947 23.7343C13.2701 23.8072 13.0251 23.7131 12.9071 23.5085L12.7098 23.1662C12.3518 22.5454 11.4471 22.5717 11.1257 23.2122L10.9411 23.5801C10.8455 23.7706 10.6395 23.8796 10.4282 23.8514L10.0213 23.7973C9.31301 23.703 8.78258 24.4321 9.09033 25.077Z" fill="#BFBBFF"/>
<path d="M9.09033 25.077L9.26311 25.4391C9.36482 25.6522 9.30353 25.9075 9.11612 26.0512L8.95127 26.1776C8.24871 26.7164 8.60015 27.8386 9.48453 27.8804L9.57369 27.8846C9.83264 27.8969 10.0393 28.105 10.0497 28.364L10.0644 28.7307C10.0949 29.4901 10.9947 29.8722 11.5623 29.3667L11.8216 29.1358C12.0053 28.9721 12.2809 28.9665 12.4711 29.1225L12.6819 29.2953C13.2739 29.7807 14.1632 29.3522 14.1524 28.5866L14.1469 28.1971C14.1434 27.9459 14.3268 27.731 14.5755 27.6952L14.7361 27.672C15.5295 27.5577 15.8118 26.557 15.1951 26.0448L14.8874 25.7893C14.7104 25.6424 14.6565 25.3936 14.7569 25.1866L14.8555 24.9832C15.2206 24.2299 14.5035 23.4067 13.7072 23.6653L13.4947 23.7343C13.2701 23.8072 13.0251 23.7131 12.9071 23.5085L12.7098 23.1662C12.3518 22.5454 11.4471 22.5717 11.1257 23.2122L10.9411 23.5801C10.8455 23.7706 10.6395 23.8796 10.4282 23.8514L10.0213 23.7973C9.31301 23.703 8.78258 24.4321 9.09033 25.077Z" fill="url(#paint10_radial_211_3260)"/>
<path d="M9.09033 25.077L9.26311 25.4391C9.36482 25.6522 9.30353 25.9075 9.11612 26.0512L8.95127 26.1776C8.24871 26.7164 8.60015 27.8386 9.48453 27.8804L9.57369 27.8846C9.83264 27.8969 10.0393 28.105 10.0497 28.364L10.0644 28.7307C10.0949 29.4901 10.9947 29.8722 11.5623 29.3667L11.8216 29.1358C12.0053 28.9721 12.2809 28.9665 12.4711 29.1225L12.6819 29.2953C13.2739 29.7807 14.1632 29.3522 14.1524 28.5866L14.1469 28.1971C14.1434 27.9459 14.3268 27.731 14.5755 27.6952L14.7361 27.672C15.5295 27.5577 15.8118 26.557 15.1951 26.0448L14.8874 25.7893C14.7104 25.6424 14.6565 25.3936 14.7569 25.1866L14.8555 24.9832C15.2206 24.2299 14.5035 23.4067 13.7072 23.6653L13.4947 23.7343C13.2701 23.8072 13.0251 23.7131 12.9071 23.5085L12.7098 23.1662C12.3518 22.5454 11.4471 22.5717 11.1257 23.2122L10.9411 23.5801C10.8455 23.7706 10.6395 23.8796 10.4282 23.8514L10.0213 23.7973C9.31301 23.703 8.78258 24.4321 9.09033 25.077Z" fill="url(#paint11_radial_211_3260)"/>
<path d="M9.09033 25.077L9.26311 25.4391C9.36482 25.6522 9.30353 25.9075 9.11612 26.0512L8.95127 26.1776C8.24871 26.7164 8.60015 27.8386 9.48453 27.8804L9.57369 27.8846C9.83264 27.8969 10.0393 28.105 10.0497 28.364L10.0644 28.7307C10.0949 29.4901 10.9947 29.8722 11.5623 29.3667L11.8216 29.1358C12.0053 28.9721 12.2809 28.9665 12.4711 29.1225L12.6819 29.2953C13.2739 29.7807 14.1632 29.3522 14.1524 28.5866L14.1469 28.1971C14.1434 27.9459 14.3268 27.731 14.5755 27.6952L14.7361 27.672C15.5295 27.5577 15.8118 26.557 15.1951 26.0448L14.8874 25.7893C14.7104 25.6424 14.6565 25.3936 14.7569 25.1866L14.8555 24.9832C15.2206 24.2299 14.5035 23.4067 13.7072 23.6653L13.4947 23.7343C13.2701 23.8072 13.0251 23.7131 12.9071 23.5085L12.7098 23.1662C12.3518 22.5454 11.4471 22.5717 11.1257 23.2122L10.9411 23.5801C10.8455 23.7706 10.6395 23.8796 10.4282 23.8514L10.0213 23.7973C9.31301 23.703 8.78258 24.4321 9.09033 25.077Z" fill="url(#paint12_radial_211_3260)"/>
<path d="M9.09033 25.077L9.26311 25.4391C9.36482 25.6522 9.30353 25.9075 9.11612 26.0512L8.95127 26.1776C8.24871 26.7164 8.60015 27.8386 9.48453 27.8804L9.57369 27.8846C9.83264 27.8969 10.0393 28.105 10.0497 28.364L10.0644 28.7307C10.0949 29.4901 10.9947 29.8722 11.5623 29.3667L11.8216 29.1358C12.0053 28.9721 12.2809 28.9665 12.4711 29.1225L12.6819 29.2953C13.2739 29.7807 14.1632 29.3522 14.1524 28.5866L14.1469 28.1971C14.1434 27.9459 14.3268 27.731 14.5755 27.6952L14.7361 27.672C15.5295 27.5577 15.8118 26.557 15.1951 26.0448L14.8874 25.7893C14.7104 25.6424 14.6565 25.3936 14.7569 25.1866L14.8555 24.9832C15.2206 24.2299 14.5035 23.4067 13.7072 23.6653L13.4947 23.7343C13.2701 23.8072 13.0251 23.7131 12.9071 23.5085L12.7098 23.1662C12.3518 22.5454 11.4471 22.5717 11.1257 23.2122L10.9411 23.5801C10.8455 23.7706 10.6395 23.8796 10.4282 23.8514L10.0213 23.7973C9.31301 23.703 8.78258 24.4321 9.09033 25.077Z" fill="url(#paint13_radial_211_3260)"/>
<path d="M9.09033 25.077L9.26311 25.4391C9.36482 25.6522 9.30353 25.9075 9.11612 26.0512L8.95127 26.1776C8.24871 26.7164 8.60015 27.8386 9.48453 27.8804L9.57369 27.8846C9.83264 27.8969 10.0393 28.105 10.0497 28.364L10.0644 28.7307C10.0949 29.4901 10.9947 29.8722 11.5623 29.3667L11.8216 29.1358C12.0053 28.9721 12.2809 28.9665 12.4711 29.1225L12.6819 29.2953C13.2739 29.7807 14.1632 29.3522 14.1524 28.5866L14.1469 28.1971C14.1434 27.9459 14.3268 27.731 14.5755 27.6952L14.7361 27.672C15.5295 27.5577 15.8118 26.557 15.1951 26.0448L14.8874 25.7893C14.7104 25.6424 14.6565 25.3936 14.7569 25.1866L14.8555 24.9832C15.2206 24.2299 14.5035 23.4067 13.7072 23.6653L13.4947 23.7343C13.2701 23.8072 13.0251 23.7131 12.9071 23.5085L12.7098 23.1662C12.3518 22.5454 11.4471 22.5717 11.1257 23.2122L10.9411 23.5801C10.8455 23.7706 10.6395 23.8796 10.4282 23.8514L10.0213 23.7973C9.31301 23.703 8.78258 24.4321 9.09033 25.077Z" fill="url(#paint14_radial_211_3260)"/>
<path d="M9.09033 25.077L9.26311 25.4391C9.36482 25.6522 9.30353 25.9075 9.11612 26.0512L8.95127 26.1776C8.24871 26.7164 8.60015 27.8386 9.48453 27.8804L9.57369 27.8846C9.83264 27.8969 10.0393 28.105 10.0497 28.364L10.0644 28.7307C10.0949 29.4901 10.9947 29.8722 11.5623 29.3667L11.8216 29.1358C12.0053 28.9721 12.2809 28.9665 12.4711 29.1225L12.6819 29.2953C13.2739 29.7807 14.1632 29.3522 14.1524 28.5866L14.1469 28.1971C14.1434 27.9459 14.3268 27.731 14.5755 27.6952L14.7361 27.672C15.5295 27.5577 15.8118 26.557 15.1951 26.0448L14.8874 25.7893C14.7104 25.6424 14.6565 25.3936 14.7569 25.1866L14.8555 24.9832C15.2206 24.2299 14.5035 23.4067 13.7072 23.6653L13.4947 23.7343C13.2701 23.8072 13.0251 23.7131 12.9071 23.5085L12.7098 23.1662C12.3518 22.5454 11.4471 22.5717 11.1257 23.2122L10.9411 23.5801C10.8455 23.7706 10.6395 23.8796 10.4282 23.8514L10.0213 23.7973C9.31301 23.703 8.78258 24.4321 9.09033 25.077Z" fill="url(#paint15_radial_211_3260)"/>
<path d="M9.09033 25.077L9.26311 25.4391C9.36482 25.6522 9.30353 25.9075 9.11612 26.0512L8.95127 26.1776C8.24871 26.7164 8.60015 27.8386 9.48453 27.8804L9.57369 27.8846C9.83264 27.8969 10.0393 28.105 10.0497 28.364L10.0644 28.7307C10.0949 29.4901 10.9947 29.8722 11.5623 29.3667L11.8216 29.1358C12.0053 28.9721 12.2809 28.9665 12.4711 29.1225L12.6819 29.2953C13.2739 29.7807 14.1632 29.3522 14.1524 28.5866L14.1469 28.1971C14.1434 27.9459 14.3268 27.731 14.5755 27.6952L14.7361 27.672C15.5295 27.5577 15.8118 26.557 15.1951 26.0448L14.8874 25.7893C14.7104 25.6424 14.6565 25.3936 14.7569 25.1866L14.8555 24.9832C15.2206 24.2299 14.5035 23.4067 13.7072 23.6653L13.4947 23.7343C13.2701 23.8072 13.0251 23.7131 12.9071 23.5085L12.7098 23.1662C12.3518 22.5454 11.4471 22.5717 11.1257 23.2122L10.9411 23.5801C10.8455 23.7706 10.6395 23.8796 10.4282 23.8514L10.0213 23.7973C9.31301 23.703 8.78258 24.4321 9.09033 25.077Z" fill="url(#paint16_radial_211_3260)"/>
<path d="M9.09033 25.077L9.26311 25.4391C9.36482 25.6522 9.30353 25.9075 9.11612 26.0512L8.95127 26.1776C8.24871 26.7164 8.60015 27.8386 9.48453 27.8804L9.57369 27.8846C9.83264 27.8969 10.0393 28.105 10.0497 28.364L10.0644 28.7307C10.0949 29.4901 10.9947 29.8722 11.5623 29.3667L11.8216 29.1358C12.0053 28.9721 12.2809 28.9665 12.4711 29.1225L12.6819 29.2953C13.2739 29.7807 14.1632 29.3522 14.1524 28.5866L14.1469 28.1971C14.1434 27.9459 14.3268 27.731 14.5755 27.6952L14.7361 27.672C15.5295 27.5577 15.8118 26.557 15.1951 26.0448L14.8874 25.7893C14.7104 25.6424 14.6565 25.3936 14.7569 25.1866L14.8555 24.9832C15.2206 24.2299 14.5035 23.4067 13.7072 23.6653L13.4947 23.7343C13.2701 23.8072 13.0251 23.7131 12.9071 23.5085L12.7098 23.1662C12.3518 22.5454 11.4471 22.5717 11.1257 23.2122L10.9411 23.5801C10.8455 23.7706 10.6395 23.8796 10.4282 23.8514L10.0213 23.7973C9.31301 23.703 8.78258 24.4321 9.09033 25.077Z" fill="url(#paint17_radial_211_3260)"/>
<path d="M9.09033 25.077L9.26311 25.4391C9.36482 25.6522 9.30353 25.9075 9.11612 26.0512L8.95127 26.1776C8.24871 26.7164 8.60015 27.8386 9.48453 27.8804L9.57369 27.8846C9.83264 27.8969 10.0393 28.105 10.0497 28.364L10.0644 28.7307C10.0949 29.4901 10.9947 29.8722 11.5623 29.3667L11.8216 29.1358C12.0053 28.9721 12.2809 28.9665 12.4711 29.1225L12.6819 29.2953C13.2739 29.7807 14.1632 29.3522 14.1524 28.5866L14.1469 28.1971C14.1434 27.9459 14.3268 27.731 14.5755 27.6952L14.7361 27.672C15.5295 27.5577 15.8118 26.557 15.1951 26.0448L14.8874 25.7893C14.7104 25.6424 14.6565 25.3936 14.7569 25.1866L14.8555 24.9832C15.2206 24.2299 14.5035 23.4067 13.7072 23.6653L13.4947 23.7343C13.2701 23.8072 13.0251 23.7131 12.9071 23.5085L12.7098 23.1662C12.3518 22.5454 11.4471 22.5717 11.1257 23.2122L10.9411 23.5801C10.8455 23.7706 10.6395 23.8796 10.4282 23.8514L10.0213 23.7973C9.31301 23.703 8.78258 24.4321 9.09033 25.077Z" fill="url(#paint18_radial_211_3260)" fill-opacity="0.7"/>
<path d="M19.0455 22.6271L19.2409 22.7583C19.3559 22.8355 19.4012 22.9826 19.3496 23.1112L19.3041 23.2242C19.1104 23.7061 19.6231 24.1675 20.082 23.9244L20.1283 23.8999C20.2626 23.8287 20.4291 23.8721 20.5117 23.9997L20.6287 24.1804C20.871 24.5546 21.4393 24.4787 21.5748 24.054L21.6367 23.8599C21.6806 23.7224 21.818 23.6372 21.9606 23.6592L22.1186 23.6834C22.5625 23.7516 22.8833 23.2696 22.6492 22.8864L22.53 22.6914C22.4532 22.5656 22.4816 22.4024 22.5964 22.31L22.6706 22.2503C23.0369 21.9556 22.8804 21.3661 22.4161 21.2919L22.1845 21.2548C22.0512 21.2335 21.9497 21.124 21.9385 20.9895L21.9275 20.8575C21.8868 20.3681 21.2789 20.1668 20.9542 20.5352L20.8675 20.6336C20.7759 20.7375 20.6242 20.7632 20.5035 20.6951L20.3016 20.5813C19.9354 20.3749 19.4866 20.6584 19.5158 21.0778L19.5325 21.3186C19.5411 21.4434 19.4698 21.5599 19.3547 21.6088L19.1331 21.703C18.7474 21.867 18.6975 22.3935 19.0455 22.6271Z" fill="#C9C1FF"/>
<path d="M19.0455 22.6271L19.2409 22.7583C19.3559 22.8355 19.4012 22.9826 19.3496 23.1112L19.3041 23.2242C19.1104 23.7061 19.6231 24.1675 20.082 23.9244L20.1283 23.8999C20.2626 23.8287 20.4291 23.8721 20.5117 23.9997L20.6287 24.1804C20.871 24.5546 21.4393 24.4787 21.5748 24.054L21.6367 23.8599C21.6806 23.7224 21.818 23.6372 21.9606 23.6592L22.1186 23.6834C22.5625 23.7516 22.8833 23.2696 22.6492 22.8864L22.53 22.6914C22.4532 22.5656 22.4816 22.4024 22.5964 22.31L22.6706 22.2503C23.0369 21.9556 22.8804 21.3661 22.4161 21.2919L22.1845 21.2548C22.0512 21.2335 21.9497 21.124 21.9385 20.9895L21.9275 20.8575C21.8868 20.3681 21.2789 20.1668 20.9542 20.5352L20.8675 20.6336C20.7759 20.7375 20.6242 20.7632 20.5035 20.6951L20.3016 20.5813C19.9354 20.3749 19.4866 20.6584 19.5158 21.0778L19.5325 21.3186C19.5411 21.4434 19.4698 21.5599 19.3547 21.6088L19.1331 21.703C18.7474 21.867 18.6975 22.3935 19.0455 22.6271Z" fill="url(#paint19_radial_211_3260)"/>
<path d="M19.0455 22.6271L19.2409 22.7583C19.3559 22.8355 19.4012 22.9826 19.3496 23.1112L19.3041 23.2242C19.1104 23.7061 19.6231 24.1675 20.082 23.9244L20.1283 23.8999C20.2626 23.8287 20.4291 23.8721 20.5117 23.9997L20.6287 24.1804C20.871 24.5546 21.4393 24.4787 21.5748 24.054L21.6367 23.8599C21.6806 23.7224 21.818 23.6372 21.9606 23.6592L22.1186 23.6834C22.5625 23.7516 22.8833 23.2696 22.6492 22.8864L22.53 22.6914C22.4532 22.5656 22.4816 22.4024 22.5964 22.31L22.6706 22.2503C23.0369 21.9556 22.8804 21.3661 22.4161 21.2919L22.1845 21.2548C22.0512 21.2335 21.9497 21.124 21.9385 20.9895L21.9275 20.8575C21.8868 20.3681 21.2789 20.1668 20.9542 20.5352L20.8675 20.6336C20.7759 20.7375 20.6242 20.7632 20.5035 20.6951L20.3016 20.5813C19.9354 20.3749 19.4866 20.6584 19.5158 21.0778L19.5325 21.3186C19.5411 21.4434 19.4698 21.5599 19.3547 21.6088L19.1331 21.703C18.7474 21.867 18.6975 22.3935 19.0455 22.6271Z" fill="url(#paint20_radial_211_3260)"/>
<path d="M19.0455 22.6271L19.2409 22.7583C19.3559 22.8355 19.4012 22.9826 19.3496 23.1112L19.3041 23.2242C19.1104 23.7061 19.6231 24.1675 20.082 23.9244L20.1283 23.8999C20.2626 23.8287 20.4291 23.8721 20.5117 23.9997L20.6287 24.1804C20.871 24.5546 21.4393 24.4787 21.5748 24.054L21.6367 23.8599C21.6806 23.7224 21.818 23.6372 21.9606 23.6592L22.1186 23.6834C22.5625 23.7516 22.8833 23.2696 22.6492 22.8864L22.53 22.6914C22.4532 22.5656 22.4816 22.4024 22.5964 22.31L22.6706 22.2503C23.0369 21.9556 22.8804 21.3661 22.4161 21.2919L22.1845 21.2548C22.0512 21.2335 21.9497 21.124 21.9385 20.9895L21.9275 20.8575C21.8868 20.3681 21.2789 20.1668 20.9542 20.5352L20.8675 20.6336C20.7759 20.7375 20.6242 20.7632 20.5035 20.6951L20.3016 20.5813C19.9354 20.3749 19.4866 20.6584 19.5158 21.0778L19.5325 21.3186C19.5411 21.4434 19.4698 21.5599 19.3547 21.6088L19.1331 21.703C18.7474 21.867 18.6975 22.3935 19.0455 22.6271Z" fill="url(#paint21_radial_211_3260)"/>
<path d="M19.0455 22.6271L19.2409 22.7583C19.3559 22.8355 19.4012 22.9826 19.3496 23.1112L19.3041 23.2242C19.1104 23.7061 19.6231 24.1675 20.082 23.9244L20.1283 23.8999C20.2626 23.8287 20.4291 23.8721 20.5117 23.9997L20.6287 24.1804C20.871 24.5546 21.4393 24.4787 21.5748 24.054L21.6367 23.8599C21.6806 23.7224 21.818 23.6372 21.9606 23.6592L22.1186 23.6834C22.5625 23.7516 22.8833 23.2696 22.6492 22.8864L22.53 22.6914C22.4532 22.5656 22.4816 22.4024 22.5964 22.31L22.6706 22.2503C23.0369 21.9556 22.8804 21.3661 22.4161 21.2919L22.1845 21.2548C22.0512 21.2335 21.9497 21.124 21.9385 20.9895L21.9275 20.8575C21.8868 20.3681 21.2789 20.1668 20.9542 20.5352L20.8675 20.6336C20.7759 20.7375 20.6242 20.7632 20.5035 20.6951L20.3016 20.5813C19.9354 20.3749 19.4866 20.6584 19.5158 21.0778L19.5325 21.3186C19.5411 21.4434 19.4698 21.5599 19.3547 21.6088L19.1331 21.703C18.7474 21.867 18.6975 22.3935 19.0455 22.6271Z" fill="url(#paint22_radial_211_3260)"/>
<path d="M19.0455 22.6271L19.2409 22.7583C19.3559 22.8355 19.4012 22.9826 19.3496 23.1112L19.3041 23.2242C19.1104 23.7061 19.6231 24.1675 20.082 23.9244L20.1283 23.8999C20.2626 23.8287 20.4291 23.8721 20.5117 23.9997L20.6287 24.1804C20.871 24.5546 21.4393 24.4787 21.5748 24.054L21.6367 23.8599C21.6806 23.7224 21.818 23.6372 21.9606 23.6592L22.1186 23.6834C22.5625 23.7516 22.8833 23.2696 22.6492 22.8864L22.53 22.6914C22.4532 22.5656 22.4816 22.4024 22.5964 22.31L22.6706 22.2503C23.0369 21.9556 22.8804 21.3661 22.4161 21.2919L22.1845 21.2548C22.0512 21.2335 21.9497 21.124 21.9385 20.9895L21.9275 20.8575C21.8868 20.3681 21.2789 20.1668 20.9542 20.5352L20.8675 20.6336C20.7759 20.7375 20.6242 20.7632 20.5035 20.6951L20.3016 20.5813C19.9354 20.3749 19.4866 20.6584 19.5158 21.0778L19.5325 21.3186C19.5411 21.4434 19.4698 21.5599 19.3547 21.6088L19.1331 21.703C18.7474 21.867 18.6975 22.3935 19.0455 22.6271Z" fill="url(#paint23_radial_211_3260)"/>
<path d="M19.0455 22.6271L19.2409 22.7583C19.3559 22.8355 19.4012 22.9826 19.3496 23.1112L19.3041 23.2242C19.1104 23.7061 19.6231 24.1675 20.082 23.9244L20.1283 23.8999C20.2626 23.8287 20.4291 23.8721 20.5117 23.9997L20.6287 24.1804C20.871 24.5546 21.4393 24.4787 21.5748 24.054L21.6367 23.8599C21.6806 23.7224 21.818 23.6372 21.9606 23.6592L22.1186 23.6834C22.5625 23.7516 22.8833 23.2696 22.6492 22.8864L22.53 22.6914C22.4532 22.5656 22.4816 22.4024 22.5964 22.31L22.6706 22.2503C23.0369 21.9556 22.8804 21.3661 22.4161 21.2919L22.1845 21.2548C22.0512 21.2335 21.9497 21.124 21.9385 20.9895L21.9275 20.8575C21.8868 20.3681 21.2789 20.1668 20.9542 20.5352L20.8675 20.6336C20.7759 20.7375 20.6242 20.7632 20.5035 20.6951L20.3016 20.5813C19.9354 20.3749 19.4866 20.6584 19.5158 21.0778L19.5325 21.3186C19.5411 21.4434 19.4698 21.5599 19.3547 21.6088L19.1331 21.703C18.7474 21.867 18.6975 22.3935 19.0455 22.6271Z" fill="url(#paint24_radial_211_3260)"/>
<path d="M19.0455 22.6271L19.2409 22.7583C19.3559 22.8355 19.4012 22.9826 19.3496 23.1112L19.3041 23.2242C19.1104 23.7061 19.6231 24.1675 20.082 23.9244L20.1283 23.8999C20.2626 23.8287 20.4291 23.8721 20.5117 23.9997L20.6287 24.1804C20.871 24.5546 21.4393 24.4787 21.5748 24.054L21.6367 23.8599C21.6806 23.7224 21.818 23.6372 21.9606 23.6592L22.1186 23.6834C22.5625 23.7516 22.8833 23.2696 22.6492 22.8864L22.53 22.6914C22.4532 22.5656 22.4816 22.4024 22.5964 22.31L22.6706 22.2503C23.0369 21.9556 22.8804 21.3661 22.4161 21.2919L22.1845 21.2548C22.0512 21.2335 21.9497 21.124 21.9385 20.9895L21.9275 20.8575C21.8868 20.3681 21.2789 20.1668 20.9542 20.5352L20.8675 20.6336C20.7759 20.7375 20.6242 20.7632 20.5035 20.6951L20.3016 20.5813C19.9354 20.3749 19.4866 20.6584 19.5158 21.0778L19.5325 21.3186C19.5411 21.4434 19.4698 21.5599 19.3547 21.6088L19.1331 21.703C18.7474 21.867 18.6975 22.3935 19.0455 22.6271Z" fill="url(#paint25_radial_211_3260)"/>
<path d="M19.0455 22.6271L19.2409 22.7583C19.3559 22.8355 19.4012 22.9826 19.3496 23.1112L19.3041 23.2242C19.1104 23.7061 19.6231 24.1675 20.082 23.9244L20.1283 23.8999C20.2626 23.8287 20.4291 23.8721 20.5117 23.9997L20.6287 24.1804C20.871 24.5546 21.4393 24.4787 21.5748 24.054L21.6367 23.8599C21.6806 23.7224 21.818 23.6372 21.9606 23.6592L22.1186 23.6834C22.5625 23.7516 22.8833 23.2696 22.6492 22.8864L22.53 22.6914C22.4532 22.5656 22.4816 22.4024 22.5964 22.31L22.6706 22.2503C23.0369 21.9556 22.8804 21.3661 22.4161 21.2919L22.1845 21.2548C22.0512 21.2335 21.9497 21.124 21.9385 20.9895L21.9275 20.8575C21.8868 20.3681 21.2789 20.1668 20.9542 20.5352L20.8675 20.6336C20.7759 20.7375 20.6242 20.7632 20.5035 20.6951L20.3016 20.5813C19.9354 20.3749 19.4866 20.6584 19.5158 21.0778L19.5325 21.3186C19.5411 21.4434 19.4698 21.5599 19.3547 21.6088L19.1331 21.703C18.7474 21.867 18.6975 22.3935 19.0455 22.6271Z" fill="url(#paint26_radial_211_3260)"/>
<path d="M19.0455 22.6271L19.2409 22.7583C19.3559 22.8355 19.4012 22.9826 19.3496 23.1112L19.3041 23.2242C19.1104 23.7061 19.6231 24.1675 20.082 23.9244L20.1283 23.8999C20.2626 23.8287 20.4291 23.8721 20.5117 23.9997L20.6287 24.1804C20.871 24.5546 21.4393 24.4787 21.5748 24.054L21.6367 23.8599C21.6806 23.7224 21.818 23.6372 21.9606 23.6592L22.1186 23.6834C22.5625 23.7516 22.8833 23.2696 22.6492 22.8864L22.53 22.6914C22.4532 22.5656 22.4816 22.4024 22.5964 22.31L22.6706 22.2503C23.0369 21.9556 22.8804 21.3661 22.4161 21.2919L22.1845 21.2548C22.0512 21.2335 21.9497 21.124 21.9385 20.9895L21.9275 20.8575C21.8868 20.3681 21.2789 20.1668 20.9542 20.5352L20.8675 20.6336C20.7759 20.7375 20.6242 20.7632 20.5035 20.6951L20.3016 20.5813C19.9354 20.3749 19.4866 20.6584 19.5158 21.0778L19.5325 21.3186C19.5411 21.4434 19.4698 21.5599 19.3547 21.6088L19.1331 21.703C18.7474 21.867 18.6975 22.3935 19.0455 22.6271Z" fill="url(#paint27_radial_211_3260)" fill-opacity="0.7"/>
<defs>
<radialGradient id="paint0_radial_211_3260" cx="0" cy="0" r="1" gradientUnits="userSpaceOnUse" gradientTransform="translate(12.5165 7.70716) rotate(-110.468) scale(3.57025 3.46764)">
<stop offset="0.30655" stop-color="#CECDFF"/>
<stop offset="1" stop-color="#B7B6FA"/>
</radialGradient>
<radialGradient id="paint1_radial_211_3260" cx="0" cy="0" r="1" gradientUnits="userSpaceOnUse" gradientTransform="translate(14.0303 6.81021) rotate(-148.811) scale(1.44749 4.81341)">
<stop offset="0.401187" stop-color="#B8B7FF"/>
<stop offset="1" stop-color="#B8B7FF" stop-opacity="0"/>
</radialGradient>
<radialGradient id="paint2_radial_211_3260" cx="0" cy="0" r="1" gradientUnits="userSpaceOnUse" gradientTransform="translate(16.8208 13.4046) rotate(-106.955) scale(12.9726 7.2886)">
<stop stop-color="#D6CCFF"/>
<stop offset="1" stop-color="#D6CCFF" stop-opacity="0"/>
</radialGradient>
<radialGradient id="paint3_radial_211_3260" cx="0" cy="0" r="1" gradientUnits="userSpaceOnUse" gradientTransform="translate(28.6999 7.27592) rotate(147.006) scale(12.0883 13.5028)">
<stop offset="0.352536" stop-color="white" stop-opacity="0.72"/>
<stop offset="1" stop-color="#F2F0FF" stop-opacity="0"/>
</radialGradient>
<radialGradient id="paint4_radial_211_3260" cx="0" cy="0" r="1" gradientUnits="userSpaceOnUse" gradientTransform="translate(11.6757 6.51929) rotate(71.9061) scale(8.03953 2.99718)">
<stop stop-color="#F2F0FF"/>
<stop offset="1" stop-color="#F2F0FF" stop-opacity="0"/>
</radialGradient>
<radialGradient id="paint5_radial_211_3260" cx="0" cy="0" r="1" gradientUnits="userSpaceOnUse" gradientTransform="translate(21.9604 11.0959) rotate(-142.843) scale(15.8289 15.9984)">
<stop offset="0.319632" stop-color="#D4C8FF" stop-opacity="0"/>
<stop offset="0.549037" stop-color="#B8B7FF" stop-opacity="0.83"/>
<stop offset="0.620706" stop-color="#B8B7FF"/>
<stop offset="1" stop-color="#B8B7FF" stop-opacity="0"/>
</radialGradient>
<radialGradient id="paint6_radial_211_3260" cx="0" cy="0" r="1" gradientUnits="userSpaceOnUse" gradientTransform="translate(8.23378 13.3961) rotate(-82.0245) scale(12.074 11.0385)">
<stop offset="0.234093" stop-color="#E3DBFF" stop-opacity="0"/>
<stop offset="0.513917" stop-color="#B8B7FF"/>
<stop offset="1" stop-color="#B8B7FF" stop-opacity="0"/>
</radialGradient>
<radialGradient id="paint7_radial_211_3260" cx="0" cy="0" r="1" gradientUnits="userSpaceOnUse" gradientTransform="translate(15.1023 15.0322) rotate(-113.829) scale(17.3543 17.1313)">
<stop offset="0.127273" stop-color="#D8CDFF" stop-opacity="0.97"/>
<stop offset="0.531027" stop-color="#D8CDFF" stop-opacity="0"/>
</radialGradient>
<radialGradient id="paint8_radial_211_3260" cx="0" cy="0" r="1" gradientUnits="userSpaceOnUse" gradientTransform="translate(10.5611 12.7635) rotate(110.136) scale(9.07607 8.92305)">
<stop stop-color="white" stop-opacity="0.88"/>
<stop offset="0.280304" stop-color="white" stop-opacity="0.63"/>
<stop offset="0.656385" stop-color="white" stop-opacity="0"/>
</radialGradient>
<linearGradient id="paint9_linear_211_3260" x1="19.8531" y1="21.786" x2="19.2251" y2="11.6134" gradientUnits="userSpaceOnUse">
<stop offset="0.0758362" stop-color="#B6B0FF"/>
<stop offset="0.478742" stop-color="#C1BCFE" stop-opacity="0"/>
</linearGradient>
<radialGradient id="paint10_radial_211_3260" cx="0" cy="0" r="1" gradientUnits="userSpaceOnUse" gradientTransform="translate(10.9408 28.8187) rotate(-78.2692) scale(1.85722 1.46841)">
<stop offset="0.056668" stop-color="#E0D9FF" stop-opacity="0.99"/>
<stop offset="0.327565" stop-color="#E0D9FF" stop-opacity="0.51"/>
<stop offset="0.676516" stop-color="#CBC4FF" stop-opacity="0"/>
</radialGradient>
<radialGradient id="paint11_radial_211_3260" cx="0" cy="0" r="1" gradientUnits="userSpaceOnUse" gradientTransform="translate(13.4771 28.6105) rotate(-46.5823) scale(1.86171 1.47196)">
<stop offset="0.056668" stop-color="#E0D9FF" stop-opacity="0.99"/>
<stop offset="0.327565" stop-color="#E0D9FF" stop-opacity="0.51"/>
<stop offset="0.676516" stop-color="#CBC4FF" stop-opacity="0"/>
</radialGradient>
<radialGradient id="paint12_radial_211_3260" cx="0" cy="0" r="1" gradientUnits="userSpaceOnUse" gradientTransform="translate(14.6975 26.7417) rotate(-163.058) scale(1.22264 1.37522)">
<stop offset="0.056668" stop-color="white"/>
<stop offset="0.494978" stop-color="#E0D9FF" stop-opacity="0.79"/>
<stop offset="0.676516" stop-color="#CBC4FF" stop-opacity="0.25"/>
</radialGradient>
<radialGradient id="paint13_radial_211_3260" cx="0" cy="0" r="1" gradientUnits="userSpaceOnUse" gradientTransform="translate(9.46727 26.9714) rotate(-5.07112) scale(1.62687 1.82989)">
<stop offset="0.056668" stop-color="#E0D9FF" stop-opacity="0.99"/>
<stop offset="0.277308" stop-color="#E0D9FF" stop-opacity="0.79"/>
<stop offset="0.676516" stop-color="#CBC4FF" stop-opacity="0.25"/>
</radialGradient>
<radialGradient id="paint14_radial_211_3260" cx="0" cy="0" r="1" gradientUnits="userSpaceOnUse" gradientTransform="translate(9.75573 24.6373) rotate(45.4762) scale(1.2752 1.43434)">
<stop offset="0.056668" stop-color="#E0D9FF" stop-opacity="0.99"/>
<stop offset="0.277308" stop-color="#E0D9FF" stop-opacity="0.79"/>
<stop offset="0.676516" stop-color="#CBC4FF" stop-opacity="0.25"/>
</radialGradient>
<radialGradient id="paint15_radial_211_3260" cx="0" cy="0" r="1" gradientUnits="userSpaceOnUse" gradientTransform="translate(11.8606 23.4329) rotate(81.1885) scale(1.26216 1.41967)">
<stop offset="0.056668" stop-color="#E0D9FF" stop-opacity="0.99"/>
<stop offset="0.277308" stop-color="#E0D9FF" stop-opacity="0.79"/>
<stop offset="0.676516" stop-color="#CBC4FF" stop-opacity="0.25"/>
</radialGradient>
<radialGradient id="paint16_radial_211_3260" cx="0" cy="0" r="1" gradientUnits="userSpaceOnUse" gradientTransform="translate(14.2341 24.4574) rotate(132.337) scale(1.35861 1.37657)">
<stop offset="0.056668" stop-color="#E0D9FF" stop-opacity="0.99"/>
<stop offset="0.327565" stop-color="#E0D9FF" stop-opacity="0.51"/>
<stop offset="0.676516" stop-color="#CBC4FF" stop-opacity="0"/>
</radialGradient>
<radialGradient id="paint17_radial_211_3260" cx="0" cy="0" r="1" gradientUnits="userSpaceOnUse" gradientTransform="translate(12.4988 25.5213) rotate(141.506) scale(4.70668 4.85271)">
<stop offset="0.0904056" stop-color="#F0EDFF" stop-opacity="0.69"/>
<stop offset="0.160377" stop-color="#F0EDFF" stop-opacity="0.69"/>
<stop offset="0.45283" stop-color="#E0D9FF" stop-opacity="0.51"/>
<stop offset="0.676516" stop-color="#CBC4FF" stop-opacity="0"/>
</radialGradient>
<radialGradient id="paint18_radial_211_3260" cx="0" cy="0" r="1" gradientUnits="userSpaceOnUse" gradientTransform="translate(12.054 26.156) rotate(140.615) scale(2.48502 2.50693)">
<stop offset="0.644262" stop-color="#E0D9FF" stop-opacity="0"/>
<stop offset="0.824766" stop-color="#CBC4FF" stop-opacity="0.24"/>
<stop offset="1" stop-color="#CBC4FF" stop-opacity="0"/>
</radialGradient>
<radialGradient id="paint19_radial_211_3260" cx="0" cy="0" r="1" gradientUnits="userSpaceOnUse" gradientTransform="translate(21.0974 23.963) rotate(-108.889) scale(1.08936 0.861298)">
<stop offset="0.056668" stop-color="#E0D9FF" stop-opacity="0.99"/>
<stop offset="0.327565" stop-color="#E0D9FF" stop-opacity="0.51"/>
<stop offset="0.676516" stop-color="#CBC4FF" stop-opacity="0"/>
</radialGradient>
<radialGradient id="paint20_radial_211_3260" cx="0" cy="0" r="1" gradientUnits="userSpaceOnUse" gradientTransform="translate(22.3155 23.1002) rotate(-77.2019) scale(1.09199 0.863378)">
<stop offset="0.056668" stop-color="#E0D9FF" stop-opacity="0.99"/>
<stop offset="0.327565" stop-color="#E0D9FF" stop-opacity="0.51"/>
<stop offset="0.676516" stop-color="#CBC4FF" stop-opacity="0"/>
</radialGradient>
<radialGradient id="paint21_radial_211_3260" cx="0" cy="0" r="1" gradientUnits="userSpaceOnUse" gradientTransform="translate(22.3731 21.7923) rotate(166.322) scale(0.71714 0.806635)">
<stop offset="0.056668" stop-color="white"/>
<stop offset="0.494978" stop-color="#E0D9FF" stop-opacity="0.79"/>
<stop offset="0.676516" stop-color="#CBC4FF" stop-opacity="0.25"/>
</radialGradient>
<radialGradient id="paint22_radial_211_3260" cx="0" cy="0" r="1" gradientUnits="userSpaceOnUse" gradientTransform="translate(19.8017 23.4708) rotate(-35.6907) scale(0.95424 1.07332)">
<stop offset="0.056668" stop-color="#E0D9FF" stop-opacity="0.99"/>
<stop offset="0.277308" stop-color="#E0D9FF" stop-opacity="0.79"/>
<stop offset="0.676516" stop-color="#CBC4FF" stop-opacity="0.25"/>
</radialGradient>
<radialGradient id="paint23_radial_211_3260" cx="0" cy="0" r="1" gradientUnits="userSpaceOnUse" gradientTransform="translate(19.25 22.2064) rotate(14.8566) scale(0.747968 0.841311)">
<stop offset="0.056668" stop-color="#E0D9FF" stop-opacity="0.99"/>
<stop offset="0.277308" stop-color="#E0D9FF" stop-opacity="0.79"/>
<stop offset="0.676516" stop-color="#CBC4FF" stop-opacity="0.25"/>
</radialGradient>
<radialGradient id="paint24_radial_211_3260" cx="0" cy="0" r="1" gradientUnits="userSpaceOnUse" gradientTransform="translate(19.9527 20.9696) rotate(50.569) scale(0.740321 0.832709)">
<stop offset="0.056668" stop-color="#E0D9FF" stop-opacity="0.99"/>
<stop offset="0.277308" stop-color="#E0D9FF" stop-opacity="0.79"/>
<stop offset="0.676516" stop-color="#CBC4FF" stop-opacity="0.25"/>
</radialGradient>
<radialGradient id="paint25_radial_211_3260" cx="0" cy="0" r="1" gradientUnits="userSpaceOnUse" gradientTransform="translate(21.4568 20.7777) rotate(101.717) scale(0.796894 0.80743)">
<stop offset="0.056668" stop-color="#E0D9FF" stop-opacity="0.99"/>
<stop offset="0.327565" stop-color="#E0D9FF" stop-opacity="0.51"/>
<stop offset="0.676516" stop-color="#CBC4FF" stop-opacity="0"/>
</radialGradient>
<radialGradient id="paint26_radial_211_3260" cx="0" cy="0" r="1" gradientUnits="userSpaceOnUse" gradientTransform="translate(20.8987 21.8331) rotate(110.886) scale(2.76071 2.84636)">
<stop offset="0.0904056" stop-color="#F0EDFF" stop-opacity="0.69"/>
<stop offset="0.160377" stop-color="#F0EDFF" stop-opacity="0.69"/>
<stop offset="0.45283" stop-color="#E0D9FF" stop-opacity="0.51"/>
<stop offset="0.676516" stop-color="#CBC4FF" stop-opacity="0"/>
</radialGradient>
<radialGradient id="paint27_radial_211_3260" cx="0" cy="0" r="1" gradientUnits="userSpaceOnUse" gradientTransform="translate(20.8638 22.2864) rotate(109.996) scale(1.45759 1.47044)">
<stop offset="0.644262" stop-color="#E0D9FF" stop-opacity="0"/>
<stop offset="0.824766" stop-color="#CBC4FF" stop-opacity="0.24"/>
<stop offset="1" stop-color="#CBC4FF" stop-opacity="0"/>
</radialGradient>
</defs>
</svg>
