<svg width="100%" height="100%" viewBox="0 0 32 32" fill="none" xmlns="http://www.w3.org/2000/svg">
<path d="M26.2729 4.69778L26.2559 4.71485H26.28H26.48C26.7645 4.71485 27.0001 4.95039 27.01 5.22502C27.0099 5.50942 26.7744 5.74485 26.49 5.74485H26.29H26.2659L26.2829 5.76192L26.4228 5.90175C26.4228 5.90178 26.4228 5.90181 26.4228 5.90183C26.6191 6.10795 26.6191 6.43176 26.4228 6.63787C26.2166 6.84398 25.8832 6.84369 25.6872 6.63796L25.6871 6.63778L25.5471 6.49778L25.53 6.48071V6.50485V6.71485C25.53 6.99933 25.2945 7.23485 25.01 7.23485C24.7255 7.23485 24.49 6.99933 24.49 6.71485V6.51485V6.49071L24.4729 6.50778L24.3329 6.64778C24.1267 6.85398 23.7932 6.85372 23.5972 6.64796L23.5971 6.64778C23.391 6.44169 23.391 6.11802 23.5971 5.91192L23.7371 5.77192L23.7541 5.75485H23.73H23.53C23.2455 5.75485 23.01 5.51933 23.01 5.23485C23.01 4.95025 23.2456 4.71485 23.52 4.71485H23.72H23.7441L23.7271 4.69778L23.5871 4.55778C23.381 4.35169 23.381 4.02802 23.5871 3.82192C23.7933 3.61573 24.1268 3.61599 24.3228 3.82175L24.3228 3.82175L24.3229 3.82192L24.4629 3.96192L24.48 3.979V3.95485V3.75485C24.48 3.47038 24.7155 3.23485 25 3.23485C25.2845 3.23485 25.52 3.47038 25.52 3.75485V3.95485V3.979L25.5371 3.96192L25.6771 3.82192C25.8831 3.61586 26.2067 3.61583 26.4128 3.82183C26.6091 4.02795 26.6091 4.35176 26.4128 4.55787C26.4128 4.5579 26.4128 4.55793 26.4128 4.55796L26.2729 4.69778Z" fill="url(#paint0_radial_211_3158)"/>
<path d="M26.2729 4.69778L26.2559 4.71485H26.28H26.48C26.7645 4.71485 27.0001 4.95039 27.01 5.22502C27.0099 5.50942 26.7744 5.74485 26.49 5.74485H26.29H26.2659L26.2829 5.76192L26.4228 5.90175C26.4228 5.90178 26.4228 5.90181 26.4228 5.90183C26.6191 6.10795 26.6191 6.43176 26.4228 6.63787C26.2166 6.84398 25.8832 6.84369 25.6872 6.63796L25.6871 6.63778L25.5471 6.49778L25.53 6.48071V6.50485V6.71485C25.53 6.99933 25.2945 7.23485 25.01 7.23485C24.7255 7.23485 24.49 6.99933 24.49 6.71485V6.51485V6.49071L24.4729 6.50778L24.3329 6.64778C24.1267 6.85398 23.7932 6.85372 23.5972 6.64796L23.5971 6.64778C23.391 6.44169 23.391 6.11802 23.5971 5.91192L23.7371 5.77192L23.7541 5.75485H23.73H23.53C23.2455 5.75485 23.01 5.51933 23.01 5.23485C23.01 4.95025 23.2456 4.71485 23.52 4.71485H23.72H23.7441L23.7271 4.69778L23.5871 4.55778C23.381 4.35169 23.381 4.02802 23.5871 3.82192C23.7933 3.61573 24.1268 3.61599 24.3228 3.82175L24.3228 3.82175L24.3229 3.82192L24.4629 3.96192L24.48 3.979V3.95485V3.75485C24.48 3.47038 24.7155 3.23485 25 3.23485C25.2845 3.23485 25.52 3.47038 25.52 3.75485V3.95485V3.979L25.5371 3.96192L25.6771 3.82192C25.8831 3.61586 26.2067 3.61583 26.4128 3.82183C26.6091 4.02795 26.6091 4.35176 26.4128 4.55787C26.4128 4.5579 26.4128 4.55793 26.4128 4.55796L26.2729 4.69778Z" fill="url(#paint1_radial_211_3158)"/>
<path d="M26.2729 4.69778L26.2559 4.71485H26.28H26.48C26.7645 4.71485 27.0001 4.95039 27.01 5.22502C27.0099 5.50942 26.7744 5.74485 26.49 5.74485H26.29H26.2659L26.2829 5.76192L26.4228 5.90175C26.4228 5.90178 26.4228 5.90181 26.4228 5.90183C26.6191 6.10795 26.6191 6.43176 26.4228 6.63787C26.2166 6.84398 25.8832 6.84369 25.6872 6.63796L25.6871 6.63778L25.5471 6.49778L25.53 6.48071V6.50485V6.71485C25.53 6.99933 25.2945 7.23485 25.01 7.23485C24.7255 7.23485 24.49 6.99933 24.49 6.71485V6.51485V6.49071L24.4729 6.50778L24.3329 6.64778C24.1267 6.85398 23.7932 6.85372 23.5972 6.64796L23.5971 6.64778C23.391 6.44169 23.391 6.11802 23.5971 5.91192L23.7371 5.77192L23.7541 5.75485H23.73H23.53C23.2455 5.75485 23.01 5.51933 23.01 5.23485C23.01 4.95025 23.2456 4.71485 23.52 4.71485H23.72H23.7441L23.7271 4.69778L23.5871 4.55778C23.381 4.35169 23.381 4.02802 23.5871 3.82192C23.7933 3.61573 24.1268 3.61599 24.3228 3.82175L24.3228 3.82175L24.3229 3.82192L24.4629 3.96192L24.48 3.979V3.95485V3.75485C24.48 3.47038 24.7155 3.23485 25 3.23485C25.2845 3.23485 25.52 3.47038 25.52 3.75485V3.95485V3.979L25.5371 3.96192L25.6771 3.82192C25.8831 3.61586 26.2067 3.61583 26.4128 3.82183C26.6091 4.02795 26.6091 4.35176 26.4128 4.55787C26.4128 4.5579 26.4128 4.55793 26.4128 4.55796L26.2729 4.69778Z" fill="url(#paint2_radial_211_3158)"/>
<path d="M26.2729 4.69778L26.2559 4.71485H26.28H26.48C26.7645 4.71485 27.0001 4.95039 27.01 5.22502C27.0099 5.50942 26.7744 5.74485 26.49 5.74485H26.29H26.2659L26.2829 5.76192L26.4228 5.90175C26.4228 5.90178 26.4228 5.90181 26.4228 5.90183C26.6191 6.10795 26.6191 6.43176 26.4228 6.63787C26.2166 6.84398 25.8832 6.84369 25.6872 6.63796L25.6871 6.63778L25.5471 6.49778L25.53 6.48071V6.50485V6.71485C25.53 6.99933 25.2945 7.23485 25.01 7.23485C24.7255 7.23485 24.49 6.99933 24.49 6.71485V6.51485V6.49071L24.4729 6.50778L24.3329 6.64778C24.1267 6.85398 23.7932 6.85372 23.5972 6.64796L23.5971 6.64778C23.391 6.44169 23.391 6.11802 23.5971 5.91192L23.7371 5.77192L23.7541 5.75485H23.73H23.53C23.2455 5.75485 23.01 5.51933 23.01 5.23485C23.01 4.95025 23.2456 4.71485 23.52 4.71485H23.72H23.7441L23.7271 4.69778L23.5871 4.55778C23.381 4.35169 23.381 4.02802 23.5871 3.82192C23.7933 3.61573 24.1268 3.61599 24.3228 3.82175L24.3228 3.82175L24.3229 3.82192L24.4629 3.96192L24.48 3.979V3.95485V3.75485C24.48 3.47038 24.7155 3.23485 25 3.23485C25.2845 3.23485 25.52 3.47038 25.52 3.75485V3.95485V3.979L25.5371 3.96192L25.6771 3.82192C25.8831 3.61586 26.2067 3.61583 26.4128 3.82183C26.6091 4.02795 26.6091 4.35176 26.4128 4.55787C26.4128 4.5579 26.4128 4.55793 26.4128 4.55796L26.2729 4.69778Z" stroke="#D0CDD3" stroke-width="0.02"/>
<path d="M5.44637 10.876L5.34702 10.7899H5.48C5.78381 10.7899 6.035 10.5387 6.035 10.2349C6.035 9.93106 5.78381 9.67986 5.48 9.67986H5.34036L5.43768 9.58254L5.43768 9.58255L5.4381 9.5821C5.6473 9.36245 5.6473 9.01728 5.4381 8.79762L5.43811 8.79762L5.43768 8.79719C5.21791 8.57742 4.87209 8.57742 4.65232 8.79719L4.65231 8.79718L4.65172 8.79781L4.555 8.90144V8.76486C4.555 8.46106 4.30381 8.20986 4 8.20986C3.69619 8.20986 3.445 8.46106 3.445 8.76486V8.90144L3.34828 8.79781L3.34828 8.7978L3.3481 8.79762C3.13802 8.57703 2.78184 8.57767 2.56232 8.79719C2.34256 9.01695 2.34256 9.36278 2.56232 9.58254L2.56231 9.58255L2.56294 9.58314L2.66657 9.67986H2.53C2.22619 9.67986 1.975 9.93106 1.975 10.2349C1.975 10.5387 2.22619 10.7899 2.53 10.7899H2.66964L2.57232 10.8872C2.35263 11.1069 2.35256 11.4526 2.57211 11.6723C2.78222 11.8927 3.13823 11.892 3.35768 11.6725L3.35769 11.6726L3.35828 11.6719L3.455 11.5683V11.7049C3.455 12.0087 3.70619 12.2599 4.01 12.2599C4.31381 12.2599 4.565 12.0087 4.565 11.7049V11.5652L4.66211 11.6623C4.87222 11.8827 5.22823 11.882 5.44768 11.6625L5.44768 11.6625L5.4481 11.6621C5.6573 11.4424 5.6573 11.0973 5.4481 10.8776L5.44819 10.8775L5.44637 10.876Z" fill="url(#paint3_radial_211_3158)"/>
<path d="M5.44637 10.876L5.34702 10.7899H5.48C5.78381 10.7899 6.035 10.5387 6.035 10.2349C6.035 9.93106 5.78381 9.67986 5.48 9.67986H5.34036L5.43768 9.58254L5.43768 9.58255L5.4381 9.5821C5.6473 9.36245 5.6473 9.01728 5.4381 8.79762L5.43811 8.79762L5.43768 8.79719C5.21791 8.57742 4.87209 8.57742 4.65232 8.79719L4.65231 8.79718L4.65172 8.79781L4.555 8.90144V8.76486C4.555 8.46106 4.30381 8.20986 4 8.20986C3.69619 8.20986 3.445 8.46106 3.445 8.76486V8.90144L3.34828 8.79781L3.34828 8.7978L3.3481 8.79762C3.13802 8.57703 2.78184 8.57767 2.56232 8.79719C2.34256 9.01695 2.34256 9.36278 2.56232 9.58254L2.56231 9.58255L2.56294 9.58314L2.66657 9.67986H2.53C2.22619 9.67986 1.975 9.93106 1.975 10.2349C1.975 10.5387 2.22619 10.7899 2.53 10.7899H2.66964L2.57232 10.8872C2.35263 11.1069 2.35256 11.4526 2.57211 11.6723C2.78222 11.8927 3.13823 11.892 3.35768 11.6725L3.35769 11.6726L3.35828 11.6719L3.455 11.5683V11.7049C3.455 12.0087 3.70619 12.2599 4.01 12.2599C4.31381 12.2599 4.565 12.0087 4.565 11.7049V11.5652L4.66211 11.6623C4.87222 11.8827 5.22823 11.882 5.44768 11.6625L5.44768 11.6625L5.4481 11.6621C5.6573 11.4424 5.6573 11.0973 5.4481 10.8776L5.44819 10.8775L5.44637 10.876Z" fill="url(#paint4_radial_211_3158)"/>
<path d="M5.44637 10.876L5.34702 10.7899H5.48C5.78381 10.7899 6.035 10.5387 6.035 10.2349C6.035 9.93106 5.78381 9.67986 5.48 9.67986H5.34036L5.43768 9.58254L5.43768 9.58255L5.4381 9.5821C5.6473 9.36245 5.6473 9.01728 5.4381 8.79762L5.43811 8.79762L5.43768 8.79719C5.21791 8.57742 4.87209 8.57742 4.65232 8.79719L4.65231 8.79718L4.65172 8.79781L4.555 8.90144V8.76486C4.555 8.46106 4.30381 8.20986 4 8.20986C3.69619 8.20986 3.445 8.46106 3.445 8.76486V8.90144L3.34828 8.79781L3.34828 8.7978L3.3481 8.79762C3.13802 8.57703 2.78184 8.57767 2.56232 8.79719C2.34256 9.01695 2.34256 9.36278 2.56232 9.58254L2.56231 9.58255L2.56294 9.58314L2.66657 9.67986H2.53C2.22619 9.67986 1.975 9.93106 1.975 10.2349C1.975 10.5387 2.22619 10.7899 2.53 10.7899H2.66964L2.57232 10.8872C2.35263 11.1069 2.35256 11.4526 2.57211 11.6723C2.78222 11.8927 3.13823 11.892 3.35768 11.6725L3.35769 11.6726L3.35828 11.6719L3.455 11.5683V11.7049C3.455 12.0087 3.70619 12.2599 4.01 12.2599C4.31381 12.2599 4.565 12.0087 4.565 11.7049V11.5652L4.66211 11.6623C4.87222 11.8827 5.22823 11.882 5.44768 11.6625L5.44768 11.6625L5.4481 11.6621C5.6573 11.4424 5.6573 11.0973 5.4481 10.8776L5.44819 10.8775L5.44637 10.876Z" stroke="#D0CDD3" stroke-width="0.05"/>
<path d="M27.6028 9.92795L27.5857 9.94502H27.6099H27.7199C27.8743 9.94502 27.9899 10.0605 27.9899 10.215C27.9899 10.3595 27.8643 10.485 27.7199 10.485H27.6099H27.5857L27.6028 10.5021L27.6828 10.5821C27.7889 10.6882 27.7889 10.8619 27.6828 10.9679C27.5767 11.074 27.403 11.074 27.2969 10.9679L27.2169 10.8879L27.1999 10.8709V10.895V11.005C27.1999 11.1495 27.0743 11.275 26.9299 11.275C26.7854 11.275 26.6599 11.1495 26.6599 11.005V10.895V10.8709L26.6428 10.8879L26.5628 10.9679C26.4567 11.074 26.283 11.074 26.1769 10.9679C26.0708 10.8619 26.0708 10.6882 26.1769 10.5821L26.2569 10.5021L26.274 10.485H26.2499H26.1399C25.9954 10.485 25.8699 10.3595 25.8699 10.215C25.8699 10.0705 25.9954 9.94502 26.1399 9.94502H26.2499H26.274L26.2569 9.92795L26.1769 9.84795C26.0708 9.74185 26.0708 9.56819 26.1769 9.46209C26.283 9.356 26.4567 9.356 26.5628 9.46209L26.6428 9.54209L26.6599 9.55916V9.53502V9.42502C26.6599 9.28054 26.7854 9.15502 26.9299 9.15502C27.0743 9.15502 27.1999 9.28054 27.1999 9.42502V9.53502V9.55916L27.2169 9.54209L27.2969 9.46209C27.403 9.356 27.5767 9.356 27.6828 9.46209C27.7889 9.56819 27.7889 9.74185 27.6828 9.84795L27.6028 9.92795Z" fill="url(#paint5_radial_211_3158)"/>
<path d="M27.6028 9.92795L27.5857 9.94502H27.6099H27.7199C27.8743 9.94502 27.9899 10.0605 27.9899 10.215C27.9899 10.3595 27.8643 10.485 27.7199 10.485H27.6099H27.5857L27.6028 10.5021L27.6828 10.5821C27.7889 10.6882 27.7889 10.8619 27.6828 10.9679C27.5767 11.074 27.403 11.074 27.2969 10.9679L27.2169 10.8879L27.1999 10.8709V10.895V11.005C27.1999 11.1495 27.0743 11.275 26.9299 11.275C26.7854 11.275 26.6599 11.1495 26.6599 11.005V10.895V10.8709L26.6428 10.8879L26.5628 10.9679C26.4567 11.074 26.283 11.074 26.1769 10.9679C26.0708 10.8619 26.0708 10.6882 26.1769 10.5821L26.2569 10.5021L26.274 10.485H26.2499H26.1399C25.9954 10.485 25.8699 10.3595 25.8699 10.215C25.8699 10.0705 25.9954 9.94502 26.1399 9.94502H26.2499H26.274L26.2569 9.92795L26.1769 9.84795C26.0708 9.74185 26.0708 9.56819 26.1769 9.46209C26.283 9.356 26.4567 9.356 26.5628 9.46209L26.6428 9.54209L26.6599 9.55916V9.53502V9.42502C26.6599 9.28054 26.7854 9.15502 26.9299 9.15502C27.0743 9.15502 27.1999 9.28054 27.1999 9.42502V9.53502V9.55916L27.2169 9.54209L27.2969 9.46209C27.403 9.356 27.5767 9.356 27.6828 9.46209C27.7889 9.56819 27.7889 9.74185 27.6828 9.84795L27.6028 9.92795Z" fill="url(#paint6_radial_211_3158)"/>
<path d="M27.6028 9.92795L27.5857 9.94502H27.6099H27.7199C27.8743 9.94502 27.9899 10.0605 27.9899 10.215C27.9899 10.3595 27.8643 10.485 27.7199 10.485H27.6099H27.5857L27.6028 10.5021L27.6828 10.5821C27.7889 10.6882 27.7889 10.8619 27.6828 10.9679C27.5767 11.074 27.403 11.074 27.2969 10.9679L27.2169 10.8879L27.1999 10.8709V10.895V11.005C27.1999 11.1495 27.0743 11.275 26.9299 11.275C26.7854 11.275 26.6599 11.1495 26.6599 11.005V10.895V10.8709L26.6428 10.8879L26.5628 10.9679C26.4567 11.074 26.283 11.074 26.1769 10.9679C26.0708 10.8619 26.0708 10.6882 26.1769 10.5821L26.2569 10.5021L26.274 10.485H26.2499H26.1399C25.9954 10.485 25.8699 10.3595 25.8699 10.215C25.8699 10.0705 25.9954 9.94502 26.1399 9.94502H26.2499H26.274L26.2569 9.92795L26.1769 9.84795C26.0708 9.74185 26.0708 9.56819 26.1769 9.46209C26.283 9.356 26.4567 9.356 26.5628 9.46209L26.6428 9.54209L26.6599 9.55916V9.53502V9.42502C26.6599 9.28054 26.7854 9.15502 26.9299 9.15502C27.0743 9.15502 27.1999 9.28054 27.1999 9.42502V9.53502V9.55916L27.2169 9.54209L27.2969 9.46209C27.403 9.356 27.5767 9.356 27.6828 9.46209C27.7889 9.56819 27.7889 9.74185 27.6828 9.84795L27.6028 9.92795Z" fill="url(#paint7_radial_211_3158)"/>
<path d="M27.6028 9.92795L27.5857 9.94502H27.6099H27.7199C27.8743 9.94502 27.9899 10.0605 27.9899 10.215C27.9899 10.3595 27.8643 10.485 27.7199 10.485H27.6099H27.5857L27.6028 10.5021L27.6828 10.5821C27.7889 10.6882 27.7889 10.8619 27.6828 10.9679C27.5767 11.074 27.403 11.074 27.2969 10.9679L27.2169 10.8879L27.1999 10.8709V10.895V11.005C27.1999 11.1495 27.0743 11.275 26.9299 11.275C26.7854 11.275 26.6599 11.1495 26.6599 11.005V10.895V10.8709L26.6428 10.8879L26.5628 10.9679C26.4567 11.074 26.283 11.074 26.1769 10.9679C26.0708 10.8619 26.0708 10.6882 26.1769 10.5821L26.2569 10.5021L26.274 10.485H26.2499H26.1399C25.9954 10.485 25.8699 10.3595 25.8699 10.215C25.8699 10.0705 25.9954 9.94502 26.1399 9.94502H26.2499H26.274L26.2569 9.92795L26.1769 9.84795C26.0708 9.74185 26.0708 9.56819 26.1769 9.46209C26.283 9.356 26.4567 9.356 26.5628 9.46209L26.6428 9.54209L26.6599 9.55916V9.53502V9.42502C26.6599 9.28054 26.7854 9.15502 26.9299 9.15502C27.0743 9.15502 27.1999 9.28054 27.1999 9.42502V9.53502V9.55916L27.2169 9.54209L27.2969 9.46209C27.403 9.356 27.5767 9.356 27.6828 9.46209C27.7889 9.56819 27.7889 9.74185 27.6828 9.84795L27.6028 9.92795Z" stroke="#D0CDD3" stroke-width="0.02"/>
<path d="M6.68287 4.94772L6.6658 4.96479H6.68994H6.78994C6.94465 4.96479 7.06994 5.09054 7.06994 5.23479C7.06994 5.37927 6.94442 5.50479 6.79994 5.50479H6.68994H6.6658L6.68287 5.52187L6.76287 5.60187C6.86897 5.70796 6.86897 5.88163 6.76287 5.98772C6.65678 6.09382 6.48311 6.09382 6.37701 5.98772L6.29701 5.90772L6.27994 5.89065V5.91479V6.02479C6.27994 6.16927 6.15442 6.2948 6.00994 6.2948C5.86546 6.2948 5.73994 6.16927 5.73994 6.02479V5.91479V5.89065L5.72287 5.90772L5.64287 5.98772C5.53678 6.09382 5.36311 6.09382 5.25701 5.98772C5.15092 5.88163 5.15092 5.70796 5.25701 5.60187L5.33701 5.52187L5.35408 5.50479H5.32994H5.21994C5.07546 5.50479 4.94994 5.37927 4.94994 5.23479C4.94994 5.09032 5.07546 4.96479 5.21994 4.96479H5.32994H5.35408L5.33701 4.94772L5.25701 4.86772C5.15092 4.76163 5.15092 4.58796 5.25701 4.48187C5.36311 4.37577 5.53678 4.37577 5.64287 4.48187L5.72287 4.56187L5.73994 4.57894V4.55479V4.44479C5.73994 4.30032 5.86546 4.17479 6.00994 4.17479C6.15442 4.17479 6.27994 4.30032 6.27994 4.44479V4.55479V4.57894L6.29701 4.56187L6.37701 4.48187C6.48311 4.37577 6.65678 4.37577 6.76287 4.48187C6.86897 4.58796 6.86897 4.76163 6.76287 4.86772L6.68287 4.94772Z" fill="url(#paint8_radial_211_3158)"/>
<path d="M6.68287 4.94772L6.6658 4.96479H6.68994H6.78994C6.94465 4.96479 7.06994 5.09054 7.06994 5.23479C7.06994 5.37927 6.94442 5.50479 6.79994 5.50479H6.68994H6.6658L6.68287 5.52187L6.76287 5.60187C6.86897 5.70796 6.86897 5.88163 6.76287 5.98772C6.65678 6.09382 6.48311 6.09382 6.37701 5.98772L6.29701 5.90772L6.27994 5.89065V5.91479V6.02479C6.27994 6.16927 6.15442 6.2948 6.00994 6.2948C5.86546 6.2948 5.73994 6.16927 5.73994 6.02479V5.91479V5.89065L5.72287 5.90772L5.64287 5.98772C5.53678 6.09382 5.36311 6.09382 5.25701 5.98772C5.15092 5.88163 5.15092 5.70796 5.25701 5.60187L5.33701 5.52187L5.35408 5.50479H5.32994H5.21994C5.07546 5.50479 4.94994 5.37927 4.94994 5.23479C4.94994 5.09032 5.07546 4.96479 5.21994 4.96479H5.32994H5.35408L5.33701 4.94772L5.25701 4.86772C5.15092 4.76163 5.15092 4.58796 5.25701 4.48187C5.36311 4.37577 5.53678 4.37577 5.64287 4.48187L5.72287 4.56187L5.73994 4.57894V4.55479V4.44479C5.73994 4.30032 5.86546 4.17479 6.00994 4.17479C6.15442 4.17479 6.27994 4.30032 6.27994 4.44479V4.55479V4.57894L6.29701 4.56187L6.37701 4.48187C6.48311 4.37577 6.65678 4.37577 6.76287 4.48187C6.86897 4.58796 6.86897 4.76163 6.76287 4.86772L6.68287 4.94772Z" fill="url(#paint9_radial_211_3158)"/>
<path d="M6.68287 4.94772L6.6658 4.96479H6.68994H6.78994C6.94465 4.96479 7.06994 5.09054 7.06994 5.23479C7.06994 5.37927 6.94442 5.50479 6.79994 5.50479H6.68994H6.6658L6.68287 5.52187L6.76287 5.60187C6.86897 5.70796 6.86897 5.88163 6.76287 5.98772C6.65678 6.09382 6.48311 6.09382 6.37701 5.98772L6.29701 5.90772L6.27994 5.89065V5.91479V6.02479C6.27994 6.16927 6.15442 6.2948 6.00994 6.2948C5.86546 6.2948 5.73994 6.16927 5.73994 6.02479V5.91479V5.89065L5.72287 5.90772L5.64287 5.98772C5.53678 6.09382 5.36311 6.09382 5.25701 5.98772C5.15092 5.88163 5.15092 5.70796 5.25701 5.60187L5.33701 5.52187L5.35408 5.50479H5.32994H5.21994C5.07546 5.50479 4.94994 5.37927 4.94994 5.23479C4.94994 5.09032 5.07546 4.96479 5.21994 4.96479H5.32994H5.35408L5.33701 4.94772L5.25701 4.86772C5.15092 4.76163 5.15092 4.58796 5.25701 4.48187C5.36311 4.37577 5.53678 4.37577 5.64287 4.48187L5.72287 4.56187L5.73994 4.57894V4.55479V4.44479C5.73994 4.30032 5.86546 4.17479 6.00994 4.17479C6.15442 4.17479 6.27994 4.30032 6.27994 4.44479V4.55479V4.57894L6.29701 4.56187L6.37701 4.48187C6.48311 4.37577 6.65678 4.37577 6.76287 4.48187C6.86897 4.58796 6.86897 4.76163 6.76287 4.86772L6.68287 4.94772Z" fill="url(#paint10_radial_211_3158)"/>
<path d="M6.68287 4.94772L6.6658 4.96479H6.68994H6.78994C6.94465 4.96479 7.06994 5.09054 7.06994 5.23479C7.06994 5.37927 6.94442 5.50479 6.79994 5.50479H6.68994H6.6658L6.68287 5.52187L6.76287 5.60187C6.86897 5.70796 6.86897 5.88163 6.76287 5.98772C6.65678 6.09382 6.48311 6.09382 6.37701 5.98772L6.29701 5.90772L6.27994 5.89065V5.91479V6.02479C6.27994 6.16927 6.15442 6.2948 6.00994 6.2948C5.86546 6.2948 5.73994 6.16927 5.73994 6.02479V5.91479V5.89065L5.72287 5.90772L5.64287 5.98772C5.53678 6.09382 5.36311 6.09382 5.25701 5.98772C5.15092 5.88163 5.15092 5.70796 5.25701 5.60187L5.33701 5.52187L5.35408 5.50479H5.32994H5.21994C5.07546 5.50479 4.94994 5.37927 4.94994 5.23479C4.94994 5.09032 5.07546 4.96479 5.21994 4.96479H5.32994H5.35408L5.33701 4.94772L5.25701 4.86772C5.15092 4.76163 5.15092 4.58796 5.25701 4.48187C5.36311 4.37577 5.53678 4.37577 5.64287 4.48187L5.72287 4.56187L5.73994 4.57894V4.55479V4.44479C5.73994 4.30032 5.86546 4.17479 6.00994 4.17479C6.15442 4.17479 6.27994 4.30032 6.27994 4.44479V4.55479V4.57894L6.29701 4.56187L6.37701 4.48187C6.48311 4.37577 6.65678 4.37577 6.76287 4.48187C6.86897 4.58796 6.86897 4.76163 6.76287 4.86772L6.68287 4.94772Z" stroke="#D0CDD3" stroke-width="0.02"/>
<path d="M4.54298 19.9279L4.52591 19.945H4.55005H4.66005C4.8043 19.945 4.93005 20.0703 4.93005 20.225C4.93005 20.3695 4.80453 20.495 4.66005 20.495H4.55005H4.52343L4.54346 20.5125L4.62321 20.5823C4.72907 20.6884 4.72899 20.8619 4.62298 20.9679C4.51688 21.074 4.34321 21.074 4.23712 20.9679L4.15712 20.8879L4.14005 20.8709V20.895V21.005C4.14005 21.1495 4.01453 21.275 3.87005 21.275C3.72557 21.275 3.60005 21.1495 3.60005 21.005V20.895V20.8709L3.58298 20.8879L3.50298 20.9679C3.39688 21.074 3.22321 21.074 3.11712 20.9679C3.01103 20.8619 3.01103 20.6882 3.11712 20.5821L3.19712 20.5021L3.21419 20.485H3.19005H3.08005C2.93557 20.485 2.81005 20.3595 2.81005 20.215C2.81005 20.0705 2.93557 19.945 3.08005 19.945H3.19005H3.21419L3.19712 19.9279L3.11712 19.8479C3.01103 19.7419 3.01103 19.5682 3.11712 19.4621C3.22321 19.356 3.39688 19.356 3.50298 19.4621L3.58298 19.5421L3.60005 19.5592V19.535V19.425C3.60005 19.2805 3.72557 19.155 3.87005 19.155C4.01453 19.155 4.14005 19.2805 4.14005 19.425V19.535V19.5592L4.15712 19.5421L4.23712 19.4621C4.34321 19.356 4.51688 19.356 4.62298 19.4621C4.72907 19.5682 4.72907 19.7419 4.62298 19.8479L4.54298 19.9279Z" fill="url(#paint11_radial_211_3158)"/>
<path d="M4.54298 19.9279L4.52591 19.945H4.55005H4.66005C4.8043 19.945 4.93005 20.0703 4.93005 20.225C4.93005 20.3695 4.80453 20.495 4.66005 20.495H4.55005H4.52343L4.54346 20.5125L4.62321 20.5823C4.72907 20.6884 4.72899 20.8619 4.62298 20.9679C4.51688 21.074 4.34321 21.074 4.23712 20.9679L4.15712 20.8879L4.14005 20.8709V20.895V21.005C4.14005 21.1495 4.01453 21.275 3.87005 21.275C3.72557 21.275 3.60005 21.1495 3.60005 21.005V20.895V20.8709L3.58298 20.8879L3.50298 20.9679C3.39688 21.074 3.22321 21.074 3.11712 20.9679C3.01103 20.8619 3.01103 20.6882 3.11712 20.5821L3.19712 20.5021L3.21419 20.485H3.19005H3.08005C2.93557 20.485 2.81005 20.3595 2.81005 20.215C2.81005 20.0705 2.93557 19.945 3.08005 19.945H3.19005H3.21419L3.19712 19.9279L3.11712 19.8479C3.01103 19.7419 3.01103 19.5682 3.11712 19.4621C3.22321 19.356 3.39688 19.356 3.50298 19.4621L3.58298 19.5421L3.60005 19.5592V19.535V19.425C3.60005 19.2805 3.72557 19.155 3.87005 19.155C4.01453 19.155 4.14005 19.2805 4.14005 19.425V19.535V19.5592L4.15712 19.5421L4.23712 19.4621C4.34321 19.356 4.51688 19.356 4.62298 19.4621C4.72907 19.5682 4.72907 19.7419 4.62298 19.8479L4.54298 19.9279Z" fill="url(#paint12_radial_211_3158)"/>
<path d="M4.54298 19.9279L4.52591 19.945H4.55005H4.66005C4.8043 19.945 4.93005 20.0703 4.93005 20.225C4.93005 20.3695 4.80453 20.495 4.66005 20.495H4.55005H4.52343L4.54346 20.5125L4.62321 20.5823C4.72907 20.6884 4.72899 20.8619 4.62298 20.9679C4.51688 21.074 4.34321 21.074 4.23712 20.9679L4.15712 20.8879L4.14005 20.8709V20.895V21.005C4.14005 21.1495 4.01453 21.275 3.87005 21.275C3.72557 21.275 3.60005 21.1495 3.60005 21.005V20.895V20.8709L3.58298 20.8879L3.50298 20.9679C3.39688 21.074 3.22321 21.074 3.11712 20.9679C3.01103 20.8619 3.01103 20.6882 3.11712 20.5821L3.19712 20.5021L3.21419 20.485H3.19005H3.08005C2.93557 20.485 2.81005 20.3595 2.81005 20.215C2.81005 20.0705 2.93557 19.945 3.08005 19.945H3.19005H3.21419L3.19712 19.9279L3.11712 19.8479C3.01103 19.7419 3.01103 19.5682 3.11712 19.4621C3.22321 19.356 3.39688 19.356 3.50298 19.4621L3.58298 19.5421L3.60005 19.5592V19.535V19.425C3.60005 19.2805 3.72557 19.155 3.87005 19.155C4.01453 19.155 4.14005 19.2805 4.14005 19.425V19.535V19.5592L4.15712 19.5421L4.23712 19.4621C4.34321 19.356 4.51688 19.356 4.62298 19.4621C4.72907 19.5682 4.72907 19.7419 4.62298 19.8479L4.54298 19.9279Z" fill="url(#paint13_radial_211_3158)"/>
<path d="M4.54298 19.9279L4.52591 19.945H4.55005H4.66005C4.8043 19.945 4.93005 20.0703 4.93005 20.225C4.93005 20.3695 4.80453 20.495 4.66005 20.495H4.55005H4.52343L4.54346 20.5125L4.62321 20.5823C4.72907 20.6884 4.72899 20.8619 4.62298 20.9679C4.51688 21.074 4.34321 21.074 4.23712 20.9679L4.15712 20.8879L4.14005 20.8709V20.895V21.005C4.14005 21.1495 4.01453 21.275 3.87005 21.275C3.72557 21.275 3.60005 21.1495 3.60005 21.005V20.895V20.8709L3.58298 20.8879L3.50298 20.9679C3.39688 21.074 3.22321 21.074 3.11712 20.9679C3.01103 20.8619 3.01103 20.6882 3.11712 20.5821L3.19712 20.5021L3.21419 20.485H3.19005H3.08005C2.93557 20.485 2.81005 20.3595 2.81005 20.215C2.81005 20.0705 2.93557 19.945 3.08005 19.945H3.19005H3.21419L3.19712 19.9279L3.11712 19.8479C3.01103 19.7419 3.01103 19.5682 3.11712 19.4621C3.22321 19.356 3.39688 19.356 3.50298 19.4621L3.58298 19.5421L3.60005 19.5592V19.535V19.425C3.60005 19.2805 3.72557 19.155 3.87005 19.155C4.01453 19.155 4.14005 19.2805 4.14005 19.425V19.535V19.5592L4.15712 19.5421L4.23712 19.4621C4.34321 19.356 4.51688 19.356 4.62298 19.4621C4.72907 19.5682 4.72907 19.7419 4.62298 19.8479L4.54298 19.9279Z" stroke="#D0CDD3" stroke-width="0.02"/>
<path d="M28.6731 22.9477L28.656 22.9648H28.6802H28.7902C28.9444 22.9648 29.0602 23.0901 29.0602 23.2348C29.0602 23.3793 28.9347 23.5048 28.7902 23.5048H28.6802H28.656L28.6731 23.5219L28.7531 23.6019C28.8592 23.708 28.8592 23.8816 28.7531 23.9877C28.647 24.0938 28.4733 24.0938 28.3672 23.9877L28.2872 23.9077L28.2702 23.8907V23.9148V24.0248C28.2702 24.1693 28.1447 24.2948 28.0002 24.2948C27.8557 24.2948 27.7302 24.1693 27.7302 24.0248V23.9148V23.8907L27.7131 23.9077L27.6331 23.9877C27.527 24.0938 27.3533 24.0938 27.2472 23.9877C27.1412 23.8816 27.1412 23.708 27.2472 23.6019L27.3272 23.5219L27.3443 23.5048H27.3202H27.2102C27.0657 23.5048 26.9402 23.3793 26.9402 23.2348C26.9402 23.0903 27.0657 22.9648 27.2102 22.9648H27.3202H27.3443L27.3272 22.9477L27.2472 22.8677C27.1412 22.7616 27.1412 22.588 27.2472 22.4819C27.3533 22.3758 27.527 22.3758 27.6331 22.4819L27.7131 22.5619L27.7302 22.5789V22.5548V22.4448C27.7302 22.3003 27.8557 22.1748 28.0002 22.1748C28.1447 22.1748 28.2702 22.3003 28.2702 22.4448V22.5548V22.5789L28.2872 22.5619L28.3672 22.4819C28.4733 22.3758 28.647 22.3758 28.7531 22.4819C28.8592 22.588 28.8592 22.7616 28.7531 22.8677L28.6731 22.9477Z" fill="url(#paint14_radial_211_3158)"/>
<path d="M28.6731 22.9477L28.656 22.9648H28.6802H28.7902C28.9444 22.9648 29.0602 23.0901 29.0602 23.2348C29.0602 23.3793 28.9347 23.5048 28.7902 23.5048H28.6802H28.656L28.6731 23.5219L28.7531 23.6019C28.8592 23.708 28.8592 23.8816 28.7531 23.9877C28.647 24.0938 28.4733 24.0938 28.3672 23.9877L28.2872 23.9077L28.2702 23.8907V23.9148V24.0248C28.2702 24.1693 28.1447 24.2948 28.0002 24.2948C27.8557 24.2948 27.7302 24.1693 27.7302 24.0248V23.9148V23.8907L27.7131 23.9077L27.6331 23.9877C27.527 24.0938 27.3533 24.0938 27.2472 23.9877C27.1412 23.8816 27.1412 23.708 27.2472 23.6019L27.3272 23.5219L27.3443 23.5048H27.3202H27.2102C27.0657 23.5048 26.9402 23.3793 26.9402 23.2348C26.9402 23.0903 27.0657 22.9648 27.2102 22.9648H27.3202H27.3443L27.3272 22.9477L27.2472 22.8677C27.1412 22.7616 27.1412 22.588 27.2472 22.4819C27.3533 22.3758 27.527 22.3758 27.6331 22.4819L27.7131 22.5619L27.7302 22.5789V22.5548V22.4448C27.7302 22.3003 27.8557 22.1748 28.0002 22.1748C28.1447 22.1748 28.2702 22.3003 28.2702 22.4448V22.5548V22.5789L28.2872 22.5619L28.3672 22.4819C28.4733 22.3758 28.647 22.3758 28.7531 22.4819C28.8592 22.588 28.8592 22.7616 28.7531 22.8677L28.6731 22.9477Z" fill="url(#paint15_radial_211_3158)"/>
<path d="M28.6731 22.9477L28.656 22.9648H28.6802H28.7902C28.9444 22.9648 29.0602 23.0901 29.0602 23.2348C29.0602 23.3793 28.9347 23.5048 28.7902 23.5048H28.6802H28.656L28.6731 23.5219L28.7531 23.6019C28.8592 23.708 28.8592 23.8816 28.7531 23.9877C28.647 24.0938 28.4733 24.0938 28.3672 23.9877L28.2872 23.9077L28.2702 23.8907V23.9148V24.0248C28.2702 24.1693 28.1447 24.2948 28.0002 24.2948C27.8557 24.2948 27.7302 24.1693 27.7302 24.0248V23.9148V23.8907L27.7131 23.9077L27.6331 23.9877C27.527 24.0938 27.3533 24.0938 27.2472 23.9877C27.1412 23.8816 27.1412 23.708 27.2472 23.6019L27.3272 23.5219L27.3443 23.5048H27.3202H27.2102C27.0657 23.5048 26.9402 23.3793 26.9402 23.2348C26.9402 23.0903 27.0657 22.9648 27.2102 22.9648H27.3202H27.3443L27.3272 22.9477L27.2472 22.8677C27.1412 22.7616 27.1412 22.588 27.2472 22.4819C27.3533 22.3758 27.527 22.3758 27.6331 22.4819L27.7131 22.5619L27.7302 22.5789V22.5548V22.4448C27.7302 22.3003 27.8557 22.1748 28.0002 22.1748C28.1447 22.1748 28.2702 22.3003 28.2702 22.4448V22.5548V22.5789L28.2872 22.5619L28.3672 22.4819C28.4733 22.3758 28.647 22.3758 28.7531 22.4819C28.8592 22.588 28.8592 22.7616 28.7531 22.8677L28.6731 22.9477Z" fill="url(#paint16_radial_211_3158)"/>
<path d="M28.6731 22.9477L28.656 22.9648H28.6802H28.7902C28.9444 22.9648 29.0602 23.0901 29.0602 23.2348C29.0602 23.3793 28.9347 23.5048 28.7902 23.5048H28.6802H28.656L28.6731 23.5219L28.7531 23.6019C28.8592 23.708 28.8592 23.8816 28.7531 23.9877C28.647 24.0938 28.4733 24.0938 28.3672 23.9877L28.2872 23.9077L28.2702 23.8907V23.9148V24.0248C28.2702 24.1693 28.1447 24.2948 28.0002 24.2948C27.8557 24.2948 27.7302 24.1693 27.7302 24.0248V23.9148V23.8907L27.7131 23.9077L27.6331 23.9877C27.527 24.0938 27.3533 24.0938 27.2472 23.9877C27.1412 23.8816 27.1412 23.708 27.2472 23.6019L27.3272 23.5219L27.3443 23.5048H27.3202H27.2102C27.0657 23.5048 26.9402 23.3793 26.9402 23.2348C26.9402 23.0903 27.0657 22.9648 27.2102 22.9648H27.3202H27.3443L27.3272 22.9477L27.2472 22.8677C27.1412 22.7616 27.1412 22.588 27.2472 22.4819C27.3533 22.3758 27.527 22.3758 27.6331 22.4819L27.7131 22.5619L27.7302 22.5789V22.5548V22.4448C27.7302 22.3003 27.8557 22.1748 28.0002 22.1748C28.1447 22.1748 28.2702 22.3003 28.2702 22.4448V22.5548V22.5789L28.2872 22.5619L28.3672 22.4819C28.4733 22.3758 28.647 22.3758 28.7531 22.4819C28.8592 22.588 28.8592 22.7616 28.7531 22.8677L28.6731 22.9477Z" stroke="#D0CDD3" stroke-width="0.02"/>
<path d="M6.91992 15.9948V13.5748" stroke="#433B6B" stroke-miterlimit="10" stroke-linecap="round" stroke-linejoin="round"/>
<path d="M5 14.6049L10.16 19.1149" stroke="#433B6B" stroke-miterlimit="10" stroke-linecap="round" stroke-linejoin="round"/>
<path d="M25.9399 15.9948V13.5748" stroke="#433B6B" stroke-miterlimit="10" stroke-linecap="round" stroke-linejoin="round"/>
<path d="M27.86 14.6049L22.7 19.1149" stroke="#433B6B" stroke-miterlimit="10" stroke-linecap="round" stroke-linejoin="round"/>
<path d="M24.7 17.5449H26.94" stroke="#433B6B" stroke-miterlimit="10" stroke-linecap="round" stroke-linejoin="round"/>
<path d="M5.86987 17.5349H8.10987" stroke="#433B6B" stroke-miterlimit="10" stroke-linecap="round" stroke-linejoin="round"/>
<path d="M26.6598 23.2349C26.6598 28.8649 22.0898 30.0349 16.4598 30.0349C10.8298 30.0349 6.25977 28.8649 6.25977 23.2349C6.25977 17.6049 10.8298 13.0349 16.4598 13.0349C22.0898 13.0349 26.6598 17.6049 26.6598 23.2349Z" fill="url(#paint17_radial_211_3158)"/>
<path d="M26.6598 23.2349C26.6598 28.8649 22.0898 30.0349 16.4598 30.0349C10.8298 30.0349 6.25977 28.8649 6.25977 23.2349C6.25977 17.6049 10.8298 13.0349 16.4598 13.0349C22.0898 13.0349 26.6598 17.6049 26.6598 23.2349Z" fill="url(#paint18_radial_211_3158)"/>
<path d="M26.6598 23.2349C26.6598 28.8649 22.0898 30.0349 16.4598 30.0349C10.8298 30.0349 6.25977 28.8649 6.25977 23.2349C6.25977 17.6049 10.8298 13.0349 16.4598 13.0349C22.0898 13.0349 26.6598 17.6049 26.6598 23.2349Z" fill="url(#paint19_radial_211_3158)"/>
<path d="M26.6598 23.2349C26.6598 28.8649 22.0898 30.0349 16.4598 30.0349C10.8298 30.0349 6.25977 28.8649 6.25977 23.2349C6.25977 17.6049 10.8298 13.0349 16.4598 13.0349C22.0898 13.0349 26.6598 17.6049 26.6598 23.2349Z" fill="url(#paint20_radial_211_3158)"/>
<path d="M26.6598 23.2349C26.6598 28.8649 22.0898 30.0349 16.4598 30.0349C10.8298 30.0349 6.25977 28.8649 6.25977 23.2349C6.25977 17.6049 10.8298 13.0349 16.4598 13.0349C22.0898 13.0349 26.6598 17.6049 26.6598 23.2349Z" fill="url(#paint21_linear_211_3158)"/>
<path d="M26.6598 23.2349C26.6598 28.8649 22.0898 30.0349 16.4598 30.0349C10.8298 30.0349 6.25977 28.8649 6.25977 23.2349C6.25977 17.6049 10.8298 13.0349 16.4598 13.0349C22.0898 13.0349 26.6598 17.6049 26.6598 23.2349Z" fill="url(#paint22_radial_211_3158)"/>
<path d="M17.95 25.0149C17.68 25.0149 17.46 24.7949 17.46 24.5249V23.5049C17.46 23.2349 17.68 23.0149 17.95 23.0149C18.22 23.0149 18.44 23.2349 18.44 23.5049V24.5249C18.44 24.7949 18.22 25.0149 17.95 25.0149Z" fill="url(#paint23_linear_211_3158)"/>
<path d="M19.96 25.0249C19.69 25.0249 19.47 24.8049 19.47 24.5349V23.5049C19.47 23.2349 19.69 23.0149 19.96 23.0149C20.23 23.0149 20.45 23.2349 20.45 23.5049V24.5349C20.45 24.7949 20.23 25.0249 19.96 25.0249Z" fill="url(#paint24_linear_211_3158)"/>
<path d="M21.95 25.0249C21.68 25.0249 21.46 24.8049 21.46 24.5349V23.5049C21.46 23.2349 21.68 23.0149 21.95 23.0149C22.22 23.0149 22.44 23.2349 22.44 23.5049V24.5349C22.44 24.7949 22.22 25.0249 21.95 25.0249Z" fill="url(#paint25_linear_211_3158)"/>
<path d="M21.8099 24.0349H18.0799C17.7199 24.0349 17.4299 23.7449 17.4299 23.3849V18.0349H22.4599V23.3849C22.4599 23.7449 22.1699 24.0349 21.8099 24.0349Z" fill="url(#paint26_linear_211_3158)"/>
<path d="M21.8099 24.0349H18.0799C17.7199 24.0349 17.4299 23.7449 17.4299 23.3849V18.0349H22.4599V23.3849C22.4599 23.7449 22.1699 24.0349 21.8099 24.0349Z" fill="url(#paint27_radial_211_3158)"/>
<path d="M23.5798 15.6949C23.5798 19.6249 20.3898 20.0849 16.4598 20.0849C12.5298 20.0849 9.33984 19.6249 9.33984 15.6949C9.33984 11.7649 12.5298 15.0549 16.4598 15.0549C20.3898 15.0549 23.5798 11.7649 23.5798 15.6949Z" fill="url(#paint28_linear_211_3158)"/>
<path d="M23.5798 15.6949C23.5798 19.6249 20.3898 20.0849 16.4598 20.0849C12.5298 20.0849 9.33984 19.6249 9.33984 15.6949C9.33984 11.7649 12.5298 15.0549 16.4598 15.0549C20.3898 15.0549 23.5798 11.7649 23.5798 15.6949Z" fill="url(#paint29_radial_211_3158)"/>
<path d="M23.5798 15.6949C23.5798 19.6249 20.3898 20.0849 16.4598 20.0849C12.5298 20.0849 9.33984 19.6249 9.33984 15.6949C9.33984 11.7649 12.5298 15.0549 16.4598 15.0549C20.3898 15.0549 23.5798 11.7649 23.5798 15.6949Z" fill="url(#paint30_radial_211_3158)"/>
<path d="M23.5798 15.6949C23.5798 19.6249 20.3898 20.0849 16.4598 20.0849C12.5298 20.0849 9.33984 19.6249 9.33984 15.6949C9.33984 11.7649 12.5298 15.0549 16.4598 15.0549C20.3898 15.0549 23.5798 11.7649 23.5798 15.6949Z" fill="url(#paint31_radial_211_3158)"/>
<path d="M23.5798 15.6949C23.5798 19.6249 20.3898 20.0849 16.4598 20.0849C12.5298 20.0849 9.33984 19.6249 9.33984 15.6949C9.33984 11.7649 12.5298 15.0549 16.4598 15.0549C20.3898 15.0549 23.5798 11.7649 23.5798 15.6949Z" fill="url(#paint32_radial_211_3158)"/>
<path d="M23.5798 15.6949C23.5798 19.6249 20.3898 20.0849 16.4598 20.0849C12.5298 20.0849 9.33984 19.6249 9.33984 15.6949C9.33984 11.7649 12.5298 15.0549 16.4598 15.0549C20.3898 15.0549 23.5798 11.7649 23.5798 15.6949Z" fill="url(#paint33_radial_211_3158)"/>
<path d="M23.5798 15.6949C23.5798 19.6249 20.3898 20.0849 16.4598 20.0849C12.5298 20.0849 9.33984 19.6249 9.33984 15.6949C9.33984 11.7649 12.5298 15.0549 16.4598 15.0549C20.3898 15.0549 23.5798 11.7649 23.5798 15.6949Z" fill="url(#paint34_radial_211_3158)"/>
<path d="M23.5399 12.1548C23.5399 16.0648 20.3399 16.5 16.4199 16.5C12.4999 16.5 9.36987 16.0748 9.36987 12.1548C9.36987 8.23483 12.5399 5.07483 16.4499 5.07483C20.3599 5.07483 23.5399 8.24483 23.5399 12.1548Z" fill="url(#paint35_radial_211_3158)"/>
<path d="M23.5399 12.1548C23.5399 16.0648 20.3399 16.5 16.4199 16.5C12.4999 16.5 9.36987 16.0748 9.36987 12.1548C9.36987 8.23483 12.5399 5.07483 16.4499 5.07483C20.3599 5.07483 23.5399 8.24483 23.5399 12.1548Z" fill="url(#paint36_radial_211_3158)"/>
<path d="M23.5399 12.1548C23.5399 16.0648 20.3399 16.5 16.4199 16.5C12.4999 16.5 9.36987 16.0748 9.36987 12.1548C9.36987 8.23483 12.5399 5.07483 16.4499 5.07483C20.3599 5.07483 23.5399 8.24483 23.5399 12.1548Z" fill="url(#paint37_radial_211_3158)"/>
<path d="M23.5399 12.1548C23.5399 16.0648 20.3399 16.5 16.4199 16.5C12.4999 16.5 9.36987 16.0748 9.36987 12.1548C9.36987 8.23483 12.5399 5.07483 16.4499 5.07483C20.3599 5.07483 23.5399 8.24483 23.5399 12.1548Z" fill="url(#paint38_radial_211_3158)"/>
<path d="M23.5399 12.1548C23.5399 16.0648 20.3399 16.5 16.4199 16.5C12.4999 16.5 9.36987 16.0748 9.36987 12.1548C9.36987 8.23483 12.5399 5.07483 16.4499 5.07483C20.3599 5.07483 23.5399 8.24483 23.5399 12.1548Z" fill="url(#paint39_radial_211_3158)"/>
<path d="M23.5399 12.1548C23.5399 16.0648 20.3399 16.5 16.4199 16.5C12.4999 16.5 9.36987 16.0748 9.36987 12.1548C9.36987 8.23483 12.5399 5.07483 16.4499 5.07483C20.3599 5.07483 23.5399 8.24483 23.5399 12.1548Z" fill="url(#paint40_radial_211_3158)"/>
<path d="M23.5399 12.1548C23.5399 16.0648 20.3399 16.5 16.4199 16.5C12.4999 16.5 9.36987 16.0748 9.36987 12.1548C9.36987 8.23483 12.5399 5.07483 16.4499 5.07483C20.3599 5.07483 23.5399 8.24483 23.5399 12.1548Z" fill="url(#paint41_radial_211_3158)"/>
<path d="M23.5399 12.1548C23.5399 16.0648 20.3399 16.5 16.4199 16.5C12.4999 16.5 9.36987 16.0748 9.36987 12.1548C9.36987 8.23483 12.5399 5.07483 16.4499 5.07483C20.3599 5.07483 23.5399 8.24483 23.5399 12.1548Z" fill="url(#paint42_radial_211_3158)"/>
<path d="M16.48 5.04489L10.96 7.41489L10.18 5.60489C9.74002 4.57489 10.21 3.38489 11.24 2.94489L13.05 2.16489C14.08 1.72489 15.26 2.19489 15.7 3.22489L16.48 5.04489Z" fill="url(#paint43_linear_211_3158)"/>
<path d="M16.48 5.04489L10.96 7.41489L10.18 5.60489C9.74002 4.57489 10.21 3.38489 11.24 2.94489L13.05 2.16489C14.08 1.72489 15.26 2.19489 15.7 3.22489L16.48 5.04489Z" fill="url(#paint44_linear_211_3158)"/>
<path d="M15.8999 5.29486L11.5399 7.17486C11.2199 7.30486 10.8399 7.16486 10.7099 6.84486L10.1799 5.60486L15.7099 3.23486L16.2399 4.47486C16.3699 4.78486 16.2199 5.15486 15.8999 5.29486Z" fill="url(#paint45_linear_211_3158)"/>
<path d="M17.0198 5.61493L10.9798 8.20493C10.6198 8.36493 10.1998 8.19493 10.0398 7.83493C9.88983 7.47493 10.0498 7.04493 10.4198 6.89493L16.4598 4.30493C16.8198 4.14493 17.2398 4.31493 17.3998 4.68493C17.5498 5.03493 17.3798 5.45493 17.0198 5.61493Z" fill="url(#paint46_linear_211_3158)"/>
<path d="M17.0198 5.61493L10.9798 8.20493C10.6198 8.36493 10.1998 8.19493 10.0398 7.83493C9.88983 7.47493 10.0498 7.04493 10.4198 6.89493L16.4598 4.30493C16.8198 4.14493 17.2398 4.31493 17.3998 4.68493C17.5498 5.03493 17.3798 5.45493 17.0198 5.61493Z" fill="url(#paint47_radial_211_3158)"/>
<path d="M14.9598 9.84488C14.7298 9.84488 14.5498 9.67488 14.5498 9.46488V8.75488C14.5498 8.54488 14.7398 8.37488 14.9598 8.37488C15.1898 8.37488 15.3698 8.54488 15.3698 8.75488V9.46488C15.3698 9.67488 15.1798 9.84488 14.9598 9.84488Z" fill="#433B6B"/>
<path d="M14.9598 9.84488C14.7298 9.84488 14.5498 9.67488 14.5498 9.46488V8.75488C14.5498 8.54488 14.7398 8.37488 14.9598 8.37488C15.1898 8.37488 15.3698 8.54488 15.3698 8.75488V9.46488C15.3698 9.67488 15.1798 9.84488 14.9598 9.84488Z" fill="url(#paint48_linear_211_3158)"/>
<path d="M14.9598 9.84488C14.7298 9.84488 14.5498 9.67488 14.5498 9.46488V8.75488C14.5498 8.54488 14.7398 8.37488 14.9598 8.37488C15.1898 8.37488 15.3698 8.54488 15.3698 8.75488V9.46488C15.3698 9.67488 15.1798 9.84488 14.9598 9.84488Z" fill="url(#paint49_linear_211_3158)"/>
<path d="M17.9598 9.84488C17.7298 9.84488 17.5498 9.67488 17.5498 9.46488V8.75488C17.5498 8.54488 17.7398 8.37488 17.9598 8.37488C18.1898 8.37488 18.3698 8.54488 18.3698 8.75488V9.46488C18.3698 9.67488 18.1798 9.84488 17.9598 9.84488Z" fill="#433B6B"/>
<path d="M17.9598 9.84488C17.7298 9.84488 17.5498 9.67488 17.5498 9.46488V8.75488C17.5498 8.54488 17.7398 8.37488 17.9598 8.37488C18.1898 8.37488 18.3698 8.54488 18.3698 8.75488V9.46488C18.3698 9.67488 18.1798 9.84488 17.9598 9.84488Z" fill="url(#paint50_linear_211_3158)"/>
<path d="M17.9598 9.84488C17.7298 9.84488 17.5498 9.67488 17.5498 9.46488V8.75488C17.5498 8.54488 17.7398 8.37488 17.9598 8.37488C18.1898 8.37488 18.3698 8.54488 18.3698 8.75488V9.46488C18.3698 9.67488 18.1798 9.84488 17.9598 9.84488Z" fill="url(#paint51_linear_211_3158)"/>
<path d="M20.6097 11.1348L16.5497 10.7148C16.0997 10.7148 15.7397 11.0748 15.7397 11.5248C15.7397 11.9748 16.0997 12.3348 16.5497 12.3348L20.6097 11.9148C20.8297 11.9148 21.0097 11.7348 21.0097 11.5148C21.0097 11.2948 20.8297 11.1348 20.6097 11.1348Z" fill="url(#paint52_linear_211_3158)"/>
<path d="M20.6097 11.1348L16.5497 10.7148C16.0997 10.7148 15.7397 11.0748 15.7397 11.5248C15.7397 11.9748 16.0997 12.3348 16.5497 12.3348L20.6097 11.9148C20.8297 11.9148 21.0097 11.7348 21.0097 11.5148C21.0097 11.2948 20.8297 11.1348 20.6097 11.1348Z" fill="url(#paint53_linear_211_3158)"/>
<path d="M20.6097 11.1348L16.5497 10.7148C16.0997 10.7148 15.7397 11.0748 15.7397 11.5248C15.7397 11.9748 16.0997 12.3348 16.5497 12.3348L20.6097 11.9148C20.8297 11.9148 21.0097 11.7348 21.0097 11.5148C21.0097 11.2948 20.8297 11.1348 20.6097 11.1348Z" fill="url(#paint54_radial_211_3158)"/>
<path d="M20.6097 11.1348L16.5497 10.7148C16.0997 10.7148 15.7397 11.0748 15.7397 11.5248C15.7397 11.9748 16.0997 12.3348 16.5497 12.3348L20.6097 11.9148C20.8297 11.9148 21.0097 11.7348 21.0097 11.5148C21.0097 11.2948 20.8297 11.1348 20.6097 11.1348Z" fill="url(#paint55_radial_211_3158)" fill-opacity="0.5"/>
<path d="M20.6097 11.1348L16.5497 10.7148C16.0997 10.7148 15.7397 11.0748 15.7397 11.5248C15.7397 11.9748 16.0997 12.3348 16.5497 12.3348L20.6097 11.9148C20.8297 11.9148 21.0097 11.7348 21.0097 11.5148C21.0097 11.2948 20.8297 11.1348 20.6097 11.1348Z" fill="url(#paint56_linear_211_3158)"/>
<defs>
<radialGradient id="paint0_radial_211_3158" cx="0" cy="0" r="1" gradientUnits="userSpaceOnUse" gradientTransform="translate(25.3003 3.92415) scale(11.9438 11.9438)">
<stop stop-color="#F1F2F2"/>
<stop offset="1" stop-color="#BCBEC0"/>
</radialGradient>
<radialGradient id="paint1_radial_211_3158" cx="0" cy="0" r="1" gradientUnits="userSpaceOnUse" gradientTransform="translate(25.005 4.99882) rotate(48.3108) scale(18.8413 18.8359)">
<stop offset="0.0403283" stop-color="#F7F1FF"/>
<stop offset="0.103738" stop-color="#E0DCE8"/>
</radialGradient>
<radialGradient id="paint2_radial_211_3158" cx="0" cy="0" r="1" gradientUnits="userSpaceOnUse" gradientTransform="translate(26.0075 6.00382) rotate(48.5745) scale(17.4243 17.4189)">
<stop offset="0.0815969" stop-color="#F7F1FF" stop-opacity="0"/>
<stop offset="0.21779" stop-color="#D6D1DF"/>
</radialGradient>
<radialGradient id="paint3_radial_211_3158" cx="0" cy="0" r="1" gradientUnits="userSpaceOnUse" gradientTransform="translate(4 10) rotate(48.2397) scale(18.7683 18.7683)">
<stop offset="0.0403283" stop-color="#F7F1FF"/>
<stop offset="0.103738" stop-color="#E0DCE8"/>
</radialGradient>
<radialGradient id="paint4_radial_211_3158" cx="0" cy="0" r="1" gradientUnits="userSpaceOnUse" gradientTransform="translate(5 11) rotate(48.5035) scale(17.3566 17.3565)">
<stop offset="0.0815969" stop-color="#F7F1FF" stop-opacity="0"/>
<stop offset="0.21779" stop-color="#D6D1DF"/>
</radialGradient>
<radialGradient id="paint5_radial_211_3158" cx="0" cy="0" r="1" gradientUnits="userSpaceOnUse" gradientTransform="translate(27.0925 9.51432) scale(6.3748 6.3748)">
<stop stop-color="#F1F2F2"/>
<stop offset="1" stop-color="#BCBEC0"/>
</radialGradient>
<radialGradient id="paint6_radial_211_3158" cx="0" cy="0" r="1" gradientUnits="userSpaceOnUse" gradientTransform="translate(26.9272 10.0894) rotate(48.3108) scale(10.03 10.0271)">
<stop offset="0.0403283" stop-color="#F7F1FF"/>
<stop offset="0.103738" stop-color="#E0DCE8"/>
</radialGradient>
<radialGradient id="paint7_radial_211_3158" cx="0" cy="0" r="1" gradientUnits="userSpaceOnUse" gradientTransform="translate(27.4609 10.6244) rotate(48.5745) scale(9.2756 9.27274)">
<stop offset="0.0815969" stop-color="#F7F1FF" stop-opacity="0"/>
<stop offset="0.21779" stop-color="#D6D1DF"/>
</radialGradient>
<radialGradient id="paint8_radial_211_3158" cx="0" cy="0" r="1" gradientUnits="userSpaceOnUse" gradientTransform="translate(6.16464 4.5351) scale(6.3748)">
<stop stop-color="#F1F2F2"/>
<stop offset="1" stop-color="#BCBEC0"/>
</radialGradient>
<radialGradient id="paint9_radial_211_3158" cx="0" cy="0" r="1" gradientUnits="userSpaceOnUse" gradientTransform="translate(6.00727 5.10914) rotate(48.3108) scale(10.03 10.0271)">
<stop offset="0.0403283" stop-color="#F7F1FF"/>
<stop offset="0.103738" stop-color="#E0DCE8"/>
</radialGradient>
<radialGradient id="paint10_radial_211_3158" cx="0" cy="0" r="1" gradientUnits="userSpaceOnUse" gradientTransform="translate(6.54094 5.64414) rotate(48.5745) scale(9.2756 9.27274)">
<stop offset="0.0815969" stop-color="#F7F1FF" stop-opacity="0"/>
<stop offset="0.21779" stop-color="#D6D1DF"/>
</radialGradient>
<radialGradient id="paint11_radial_211_3158" cx="0" cy="0" r="1" gradientUnits="userSpaceOnUse" gradientTransform="translate(4.02655 19.5205) scale(6.3748 6.3748)">
<stop stop-color="#F1F2F2"/>
<stop offset="1" stop-color="#BCBEC0"/>
</radialGradient>
<radialGradient id="paint12_radial_211_3158" cx="0" cy="0" r="1" gradientUnits="userSpaceOnUse" gradientTransform="translate(3.86738 20.0894) rotate(48.3108) scale(10.03 10.0271)">
<stop offset="0.0403283" stop-color="#F7F1FF"/>
<stop offset="0.103738" stop-color="#E0DCE8"/>
</radialGradient>
<radialGradient id="paint13_radial_211_3158" cx="0" cy="0" r="1" gradientUnits="userSpaceOnUse" gradientTransform="translate(4.40105 20.6244) rotate(48.5745) scale(9.2756 9.27274)">
<stop offset="0.0815969" stop-color="#F7F1FF" stop-opacity="0"/>
<stop offset="0.21779" stop-color="#D6D1DF"/>
</radialGradient>
<radialGradient id="paint14_radial_211_3158" cx="0" cy="0" r="1" gradientUnits="userSpaceOnUse" gradientTransform="translate(28.1619 22.5351) scale(6.3748)">
<stop stop-color="#F1F2F2"/>
<stop offset="1" stop-color="#BCBEC0"/>
</radialGradient>
<radialGradient id="paint15_radial_211_3158" cx="0" cy="0" r="1" gradientUnits="userSpaceOnUse" gradientTransform="translate(27.9975 23.1091) rotate(48.3108) scale(10.03 10.0271)">
<stop offset="0.0403283" stop-color="#F7F1FF"/>
<stop offset="0.103738" stop-color="#E0DCE8"/>
</radialGradient>
<radialGradient id="paint16_radial_211_3158" cx="0" cy="0" r="1" gradientUnits="userSpaceOnUse" gradientTransform="translate(28.5312 23.6441) rotate(48.5745) scale(9.2756 9.27274)">
<stop offset="0.0815969" stop-color="#F7F1FF" stop-opacity="0"/>
<stop offset="0.21779" stop-color="#D6D1DF"/>
</radialGradient>
<radialGradient id="paint17_radial_211_3158" cx="0" cy="0" r="1" gradientUnits="userSpaceOnUse" gradientTransform="translate(21.2937 20.2228) scale(18.5752)">
<stop stop-color="#FBF9FE"/>
<stop offset="1" stop-color="#B7B5B8"/>
</radialGradient>
<radialGradient id="paint18_radial_211_3158" cx="0" cy="0" r="1" gradientUnits="userSpaceOnUse" gradientTransform="translate(24.9199 14) rotate(120.763) scale(24.4387 22.4373)">
<stop offset="0.507325" stop-color="#F5F0FA"/>
<stop offset="1" stop-color="#B5B4B7"/>
</radialGradient>
<radialGradient id="paint19_radial_211_3158" cx="0" cy="0" r="1" gradientUnits="userSpaceOnUse" gradientTransform="translate(33.9199 24.5) rotate(-175.389) scale(31.1006 20.4347)">
<stop offset="0.866018" stop-color="#C5C2C9" stop-opacity="0"/>
<stop offset="0.901186" stop-color="#A8A8A9"/>
</radialGradient>
<radialGradient id="paint20_radial_211_3158" cx="0" cy="0" r="1" gradientUnits="userSpaceOnUse" gradientTransform="translate(13.9199 21.5) rotate(-162.867) scale(69.5881 51.1438)">
<stop offset="0.170689" stop-color="#C5C2C9" stop-opacity="0"/>
<stop offset="0.227343" stop-color="#A8A8A9"/>
</radialGradient>
<linearGradient id="paint21_linear_211_3158" x1="16.9199" y1="19.5" x2="16.9199" y2="30" gradientUnits="userSpaceOnUse">
<stop offset="0.136364" stop-color="#DCDDDE" stop-opacity="0"/>
<stop offset="1" stop-color="#997AB7"/>
</linearGradient>
<radialGradient id="paint22_radial_211_3158" cx="0" cy="0" r="1" gradientUnits="userSpaceOnUse" gradientTransform="translate(19.9199 24) rotate(90) scale(2 4.75)">
<stop stop-color="#9C899C"/>
<stop offset="0.679688" stop-color="#D6D7D9" stop-opacity="0"/>
</radialGradient>
<linearGradient id="paint23_linear_211_3158" x1="18.4634" y1="23.5639" x2="17.4655" y2="23.5639" gradientUnits="userSpaceOnUse">
<stop stop-color="#55A7FC"/>
<stop offset="1" stop-color="#4980E2"/>
</linearGradient>
<linearGradient id="paint24_linear_211_3158" x1="20.4734" y1="23.5666" x2="19.4755" y2="23.5666" gradientUnits="userSpaceOnUse">
<stop stop-color="#55A7FC"/>
<stop offset="1" stop-color="#4980E2"/>
</linearGradient>
<linearGradient id="paint25_linear_211_3158" x1="22.4634" y1="23.5666" x2="21.4655" y2="23.5666" gradientUnits="userSpaceOnUse">
<stop stop-color="#55A7FC"/>
<stop offset="1" stop-color="#4980E2"/>
</linearGradient>
<linearGradient id="paint26_linear_211_3158" x1="22.5801" y1="19.6818" x2="17.4582" y2="19.6818" gradientUnits="userSpaceOnUse">
<stop stop-color="#55A7FC"/>
<stop offset="1" stop-color="#4980E2"/>
</linearGradient>
<radialGradient id="paint27_radial_211_3158" cx="0" cy="0" r="1" gradientUnits="userSpaceOnUse" gradientTransform="translate(19.9199 19.5) rotate(168.111) scale(9.70824 2.21255)">
<stop stop-color="#3462D5"/>
<stop offset="0.352784" stop-color="#3462D5" stop-opacity="0"/>
</radialGradient>
<linearGradient id="paint28_linear_211_3158" x1="23.9199" y1="15.5" x2="9.41992" y2="15.5" gradientUnits="userSpaceOnUse">
<stop stop-color="#55A9FC"/>
<stop offset="1" stop-color="#4267C8"/>
</linearGradient>
<radialGradient id="paint29_radial_211_3158" cx="0" cy="0" r="1" gradientUnits="userSpaceOnUse" gradientTransform="translate(16.4199 5.5) rotate(90) scale(15.5 17.7716)">
<stop offset="0.903226" stop-color="#3462D5" stop-opacity="0"/>
<stop offset="0.983333" stop-color="#3462D5"/>
</radialGradient>
<radialGradient id="paint30_radial_211_3158" cx="0" cy="0" r="1" gradientUnits="userSpaceOnUse" gradientTransform="translate(-2.08008 25) rotate(-20.8978) scale(29.4364 7.91151)">
<stop offset="0.911966" stop-color="#3462D5" stop-opacity="0"/>
<stop offset="0.979434" stop-color="#3462D5"/>
</radialGradient>
<radialGradient id="paint31_radial_211_3158" cx="0" cy="0" r="1" gradientUnits="userSpaceOnUse" gradientTransform="translate(39.4199 27) rotate(-156.915) scale(33.1549 10.6536)">
<stop offset="0.963278" stop-color="#3462D5" stop-opacity="0"/>
<stop offset="0.979434" stop-color="#3462D5"/>
</radialGradient>
<radialGradient id="paint32_radial_211_3158" cx="0" cy="0" r="1" gradientUnits="userSpaceOnUse" gradientTransform="translate(16.4199 5.5) rotate(90) scale(12 11.9062)">
<stop offset="0.873698" stop-color="#3D59B8"/>
<stop offset="0.955729" stop-color="#2F4BAA" stop-opacity="0"/>
</radialGradient>
<radialGradient id="paint33_radial_211_3158" cx="0" cy="0" r="1" gradientUnits="userSpaceOnUse" gradientTransform="translate(20.9199 14.5) rotate(-123.69) scale(1.80278 2.93514)">
<stop stop-color="#3D59B8"/>
<stop offset="1" stop-color="#2F4BAA" stop-opacity="0"/>
</radialGradient>
<radialGradient id="paint34_radial_211_3158" cx="0" cy="0" r="1" gradientUnits="userSpaceOnUse" gradientTransform="translate(11.4199 13.5) rotate(-45) scale(2.82843 4.45256)">
<stop stop-color="#3D59B8"/>
<stop offset="1" stop-color="#2F4BAA" stop-opacity="0"/>
</radialGradient>
<radialGradient id="paint35_radial_211_3158" cx="0" cy="0" r="1" gradientUnits="userSpaceOnUse" gradientTransform="translate(18.2938 7.93893) rotate(0.247704) scale(14.1263 10.6868)">
<stop offset="0.119232" stop-color="#F1F2F2"/>
<stop offset="0.530753" stop-color="#DDD5ED"/>
<stop offset="0.848807" stop-color="#B1A1D1"/>
</radialGradient>
<radialGradient id="paint36_radial_211_3158" cx="0" cy="0" r="1" gradientUnits="userSpaceOnUse" gradientTransform="translate(18.4199 12) rotate(7.12502) scale(4.03113 1.08356)">
<stop stop-color="#9C899C"/>
<stop offset="0.675781" stop-color="#D6D7D9" stop-opacity="0"/>
</radialGradient>
<radialGradient id="paint37_radial_211_3158" cx="0" cy="0" r="1" gradientUnits="userSpaceOnUse" gradientTransform="translate(17.9199 12) rotate(-7.12501) scale(4.03113 1.08356)">
<stop stop-color="#9C899C"/>
<stop offset="0.675781" stop-color="#D6D7D9" stop-opacity="0"/>
</radialGradient>
<radialGradient id="paint38_radial_211_3158" cx="0" cy="0" r="1" gradientUnits="userSpaceOnUse" gradientTransform="translate(17.9199 9.5) rotate(90) scale(1 0.618546)">
<stop stop-color="#9C899C"/>
<stop offset="1" stop-color="#D6D7D9" stop-opacity="0"/>
</radialGradient>
<radialGradient id="paint39_radial_211_3158" cx="0" cy="0" r="1" gradientUnits="userSpaceOnUse" gradientTransform="translate(14.9199 9.5) rotate(90) scale(1 0.618546)">
<stop stop-color="#9C899C"/>
<stop offset="1" stop-color="#D6D7D9" stop-opacity="0"/>
</radialGradient>
<radialGradient id="paint40_radial_211_3158" cx="0" cy="0" r="1" gradientUnits="userSpaceOnUse" gradientTransform="translate(16.4199 11.5) scale(1.5)">
<stop offset="0.15625" stop-color="#9C899C"/>
<stop offset="1" stop-color="#D6D7D9" stop-opacity="0"/>
</radialGradient>
<radialGradient id="paint41_radial_211_3158" cx="0" cy="0" r="1" gradientUnits="userSpaceOnUse" gradientTransform="translate(13.9199 7) rotate(63.435) scale(2.23607 11.6695)">
<stop offset="0.0223122" stop-color="#807B85"/>
<stop offset="0.559375" stop-color="#DADBDC" stop-opacity="0"/>
</radialGradient>
<radialGradient id="paint42_radial_211_3158" cx="0" cy="0" r="1" gradientUnits="userSpaceOnUse" gradientTransform="translate(27.4199 13) rotate(-172.875) scale(20.1556 11.6399)">
<stop offset="0.875385" stop-color="#C5C2C9" stop-opacity="0"/>
<stop offset="0.906538" stop-color="#A8A8A9"/>
</radialGradient>
<linearGradient id="paint43_linear_211_3158" x1="10.1659" y1="5.58033" x2="15.6923" y2="3.20921" gradientUnits="userSpaceOnUse">
<stop offset="0.00558659" stop-color="#513468"/>
<stop offset="1" stop-color="#1C1C1C"/>
</linearGradient>
<linearGradient id="paint44_linear_211_3158" x1="12.4199" y1="3" x2="14.4199" y2="8.5" gradientUnits="userSpaceOnUse">
<stop stop-color="#6D5D7B"/>
<stop offset="0.555639" stop-color="#1C1C1C" stop-opacity="0"/>
</linearGradient>
<linearGradient id="paint45_linear_211_3158" x1="17.9199" y1="3" x2="10.4199" y2="6.5" gradientUnits="userSpaceOnUse">
<stop offset="0.262416" stop-color="#55BEEF"/>
<stop offset="0.9888" stop-color="#3A73B8"/>
</linearGradient>
<linearGradient id="paint46_linear_211_3158" x1="10.0395" y1="7.83013" x2="17.3971" y2="4.67332" gradientUnits="userSpaceOnUse">
<stop offset="0.00558659" stop-color="#513468"/>
<stop offset="1" stop-color="#1C1C1C"/>
</linearGradient>
<radialGradient id="paint47_radial_211_3158" cx="0" cy="0" r="1" gradientUnits="userSpaceOnUse" gradientTransform="translate(13.7183 6.25173) rotate(-24.3005) scale(7.90171 0.623568)">
<stop offset="0.00558659" stop-color="#695E75"/>
<stop offset="1" stop-color="#695E75" stop-opacity="0"/>
</radialGradient>
<linearGradient id="paint48_linear_211_3158" x1="15.9199" y1="9" x2="14.4199" y2="9" gradientUnits="userSpaceOnUse">
<stop offset="0.612955" stop-color="#62566C"/>
<stop offset="0.90625" stop-color="#34252B"/>
</linearGradient>
<linearGradient id="paint49_linear_211_3158" x1="14.9199" y1="8" x2="14.9199" y2="10" gradientUnits="userSpaceOnUse">
<stop offset="0.612955" stop-color="#34252B" stop-opacity="0"/>
<stop offset="0.834974" stop-color="#34252B"/>
</linearGradient>
<linearGradient id="paint50_linear_211_3158" x1="18.9199" y1="9" x2="17.4199" y2="9" gradientUnits="userSpaceOnUse">
<stop offset="0.612955" stop-color="#62566C"/>
<stop offset="0.90625" stop-color="#34252B"/>
</linearGradient>
<linearGradient id="paint51_linear_211_3158" x1="17.9199" y1="8" x2="17.9199" y2="10" gradientUnits="userSpaceOnUse">
<stop offset="0.612955" stop-color="#34252B" stop-opacity="0"/>
<stop offset="0.834974" stop-color="#34252B"/>
</linearGradient>
<linearGradient id="paint52_linear_211_3158" x1="15.7351" y1="11.5335" x2="21.0047" y2="11.5335" gradientUnits="userSpaceOnUse">
<stop stop-color="#DB6541"/>
<stop offset="1" stop-color="#FD9E3C"/>
</linearGradient>
<linearGradient id="paint53_linear_211_3158" x1="17.9199" y1="13.5" x2="18.4199" y2="7" gradientUnits="userSpaceOnUse">
<stop offset="0.34614" stop-color="#D2785A" stop-opacity="0"/>
<stop offset="0.5125" stop-color="#6F2911"/>
</linearGradient>
<radialGradient id="paint54_radial_211_3158" cx="0" cy="0" r="1" gradientUnits="userSpaceOnUse" gradientTransform="translate(17.9199 11.5) scale(13 13)">
<stop offset="0.0600962" stop-color="#AA3E27" stop-opacity="0"/>
<stop offset="0.375" stop-color="#AA3E27"/>
</radialGradient>
<radialGradient id="paint55_radial_211_3158" cx="0" cy="0" r="1" gradientUnits="userSpaceOnUse" gradientTransform="translate(20.4199 11.5) rotate(146.31) scale(1.80278)">
<stop stop-color="#FFAA5E"/>
<stop offset="0.231402" stop-color="#FF7C00" stop-opacity="0"/>
</radialGradient>
<linearGradient id="paint56_linear_211_3158" x1="17.9199" y1="13.5" x2="17.4199" y2="7" gradientUnits="userSpaceOnUse">
<stop offset="0.163101" stop-color="#9C4326"/>
<stop offset="0.246922" stop-color="#D2785A" stop-opacity="0"/>
</linearGradient>
</defs>
</svg>
