<svg width="100%" height="100" viewBox="0 0 16 16" fill="none" xmlns="http://www.w3.org/2000/svg">
<path d="M6.52528 1.66537C7.29091 0.803555 8.33186 0.940717 8.99794 1.66537L9.40415 2.13567C9.54481 2.2887 9.74834 2.36805 9.95546 2.35061L10.6776 2.13567C11.662 1.92465 12.5565 2.65902 12.5565 3.79965V4.22934C12.5774 4.4639 12.7823 4.62291 12.9939 4.72625L13.6464 4.99887C14.5902 5.45981 14.8261 6.55356 14.1386 7.47153L13.9433 7.72934C13.7681 7.96618 13.8041 8.27703 13.9784 8.5145L14.1737 8.78793C14.8847 9.66293 14.4838 10.8634 13.4796 11.2828L12.9179 11.5174C12.7063 11.6057 12.6234 11.7574 12.5839 11.9832L12.5448 12.7176C12.4081 13.7254 11.513 14.1806 10.7948 14.079L9.93935 13.8504C9.73389 13.8213 9.47841 13.8895 9.34169 14.1043L9.0331 14.5262C8.26747 15.3895 7.23412 15.246 6.71278 14.7411L6.14352 14.0516C5.99446 13.9072 5.80653 13.784 5.58162 13.8689L4.7206 14.1043C4.00976 14.205 3.17274 13.6585 3.03877 12.9532L2.93935 11.9325C2.89899 11.72 2.75889 11.5399 2.56288 11.4486L1.95889 11.2411C1.05062 10.8178 0.746409 9.79312 1.26791 8.93748L1.60834 8.4667C1.74508 8.24235 1.73858 7.9589 1.5917 7.74106L1.33779 7.38168C0.619053 6.35825 1.11598 5.21432 2.18104 4.87138L2.41594 4.79575C2.6752 4.71226 2.92564 4.49695 2.94719 4.22543L2.9995 3.56631C3.0844 2.49644 4.06066 1.88253 5.08749 2.19469L5.41982 2.29572C5.74013 2.42072 5.99108 2.31427 6.16591 2.12384L6.52528 1.66537Z" fill="url(#paint0_linear_254_15379)"/>
<path d="M6.52528 1.66537C7.29091 0.803555 8.33186 0.940717 8.99794 1.66537L9.40415 2.13567C9.54481 2.2887 9.74834 2.36805 9.95546 2.35061L10.6776 2.13567C11.662 1.92465 12.5565 2.65902 12.5565 3.79965V4.22934C12.5774 4.4639 12.7823 4.62291 12.9939 4.72625L13.6464 4.99887C14.5902 5.45981 14.8261 6.55356 14.1386 7.47153L13.9433 7.72934C13.7681 7.96618 13.8041 8.27703 13.9784 8.5145L14.1737 8.78793C14.8847 9.66293 14.4838 10.8634 13.4796 11.2828L12.9179 11.5174C12.7063 11.6057 12.6234 11.7574 12.5839 11.9832L12.5448 12.7176C12.4081 13.7254 11.513 14.1806 10.7948 14.079L9.93935 13.8504C9.73389 13.8213 9.47841 13.8895 9.34169 14.1043L9.0331 14.5262C8.26747 15.3895 7.23412 15.246 6.71278 14.7411L6.14352 14.0516C5.99446 13.9072 5.80653 13.784 5.58162 13.8689L4.7206 14.1043C4.00976 14.205 3.17274 13.6585 3.03877 12.9532L2.93935 11.9325C2.89899 11.72 2.75889 11.5399 2.56288 11.4486L1.95889 11.2411C1.05062 10.8178 0.746409 9.79312 1.26791 8.93748L1.60834 8.4667C1.74508 8.24235 1.73858 7.9589 1.5917 7.74106L1.33779 7.38168C0.619053 6.35825 1.11598 5.21432 2.18104 4.87138L2.41594 4.79575C2.6752 4.71226 2.92564 4.49695 2.94719 4.22543L2.9995 3.56631C3.0844 2.49644 4.06066 1.88253 5.08749 2.19469L5.41982 2.29572C5.74013 2.42072 5.99108 2.31427 6.16591 2.12384L6.52528 1.66537Z" fill="url(#paint1_radial_254_15379)"/>
<path d="M6.52528 1.66537C7.29091 0.803555 8.33186 0.940717 8.99794 1.66537L9.40415 2.13567C9.54481 2.2887 9.74834 2.36805 9.95546 2.35061L10.6776 2.13567C11.662 1.92465 12.5565 2.65902 12.5565 3.79965V4.22934C12.5774 4.4639 12.7823 4.62291 12.9939 4.72625L13.6464 4.99887C14.5902 5.45981 14.8261 6.55356 14.1386 7.47153L13.9433 7.72934C13.7681 7.96618 13.8041 8.27703 13.9784 8.5145L14.1737 8.78793C14.8847 9.66293 14.4838 10.8634 13.4796 11.2828L12.9179 11.5174C12.7063 11.6057 12.6234 11.7574 12.5839 11.9832L12.5448 12.7176C12.4081 13.7254 11.513 14.1806 10.7948 14.079L9.93935 13.8504C9.73389 13.8213 9.47841 13.8895 9.34169 14.1043L9.0331 14.5262C8.26747 15.3895 7.23412 15.246 6.71278 14.7411L6.14352 14.0516C5.99446 13.9072 5.80653 13.784 5.58162 13.8689L4.7206 14.1043C4.00976 14.205 3.17274 13.6585 3.03877 12.9532L2.93935 11.9325C2.89899 11.72 2.75889 11.5399 2.56288 11.4486L1.95889 11.2411C1.05062 10.8178 0.746409 9.79312 1.26791 8.93748L1.60834 8.4667C1.74508 8.24235 1.73858 7.9589 1.5917 7.74106L1.33779 7.38168C0.619053 6.35825 1.11598 5.21432 2.18104 4.87138L2.41594 4.79575C2.6752 4.71226 2.92564 4.49695 2.94719 4.22543L2.9995 3.56631C3.0844 2.49644 4.06066 1.88253 5.08749 2.19469L5.41982 2.29572C5.74013 2.42072 5.99108 2.31427 6.16591 2.12384L6.52528 1.66537Z" fill="url(#paint2_radial_254_15379)"/>
<path d="M6.52528 1.66537C7.29091 0.803555 8.33186 0.940717 8.99794 1.66537L9.40415 2.13567C9.54481 2.2887 9.74834 2.36805 9.95546 2.35061L10.6776 2.13567C11.662 1.92465 12.5565 2.65902 12.5565 3.79965V4.22934C12.5774 4.4639 12.7823 4.62291 12.9939 4.72625L13.6464 4.99887C14.5902 5.45981 14.8261 6.55356 14.1386 7.47153L13.9433 7.72934C13.7681 7.96618 13.8041 8.27703 13.9784 8.5145L14.1737 8.78793C14.8847 9.66293 14.4838 10.8634 13.4796 11.2828L12.9179 11.5174C12.7063 11.6057 12.6234 11.7574 12.5839 11.9832L12.5448 12.7176C12.4081 13.7254 11.513 14.1806 10.7948 14.079L9.93935 13.8504C9.73389 13.8213 9.47841 13.8895 9.34169 14.1043L9.0331 14.5262C8.26747 15.3895 7.23412 15.246 6.71278 14.7411L6.14352 14.0516C5.99446 13.9072 5.80653 13.784 5.58162 13.8689L4.7206 14.1043C4.00976 14.205 3.17274 13.6585 3.03877 12.9532L2.93935 11.9325C2.89899 11.72 2.75889 11.5399 2.56288 11.4486L1.95889 11.2411C1.05062 10.8178 0.746409 9.79312 1.26791 8.93748L1.60834 8.4667C1.74508 8.24235 1.73858 7.9589 1.5917 7.74106L1.33779 7.38168C0.619053 6.35825 1.11598 5.21432 2.18104 4.87138L2.41594 4.79575C2.6752 4.71226 2.92564 4.49695 2.94719 4.22543L2.9995 3.56631C3.0844 2.49644 4.06066 1.88253 5.08749 2.19469L5.41982 2.29572C5.74013 2.42072 5.99108 2.31427 6.16591 2.12384L6.52528 1.66537Z" fill="url(#paint3_radial_254_15379)"/>
<path d="M6.52528 1.66537C7.29091 0.803555 8.33186 0.940717 8.99794 1.66537L9.40415 2.13567C9.54481 2.2887 9.74834 2.36805 9.95546 2.35061L10.6776 2.13567C11.662 1.92465 12.5565 2.65902 12.5565 3.79965V4.22934C12.5774 4.4639 12.7823 4.62291 12.9939 4.72625L13.6464 4.99887C14.5902 5.45981 14.8261 6.55356 14.1386 7.47153L13.9433 7.72934C13.7681 7.96618 13.8041 8.27703 13.9784 8.5145L14.1737 8.78793C14.8847 9.66293 14.4838 10.8634 13.4796 11.2828L12.9179 11.5174C12.7063 11.6057 12.6234 11.7574 12.5839 11.9832L12.5448 12.7176C12.4081 13.7254 11.513 14.1806 10.7948 14.079L9.93935 13.8504C9.73389 13.8213 9.47841 13.8895 9.34169 14.1043L9.0331 14.5262C8.26747 15.3895 7.23412 15.246 6.71278 14.7411L6.14352 14.0516C5.99446 13.9072 5.80653 13.784 5.58162 13.8689L4.7206 14.1043C4.00976 14.205 3.17274 13.6585 3.03877 12.9532L2.93935 11.9325C2.89899 11.72 2.75889 11.5399 2.56288 11.4486L1.95889 11.2411C1.05062 10.8178 0.746409 9.79312 1.26791 8.93748L1.60834 8.4667C1.74508 8.24235 1.73858 7.9589 1.5917 7.74106L1.33779 7.38168C0.619053 6.35825 1.11598 5.21432 2.18104 4.87138L2.41594 4.79575C2.6752 4.71226 2.92564 4.49695 2.94719 4.22543L2.9995 3.56631C3.0844 2.49644 4.06066 1.88253 5.08749 2.19469L5.41982 2.29572C5.74013 2.42072 5.99108 2.31427 6.16591 2.12384L6.52528 1.66537Z" fill="url(#paint4_radial_254_15379)"/>
<path d="M6.52528 1.66537C7.29091 0.803555 8.33186 0.940717 8.99794 1.66537L9.40415 2.13567C9.54481 2.2887 9.74834 2.36805 9.95546 2.35061L10.6776 2.13567C11.662 1.92465 12.5565 2.65902 12.5565 3.79965V4.22934C12.5774 4.4639 12.7823 4.62291 12.9939 4.72625L13.6464 4.99887C14.5902 5.45981 14.8261 6.55356 14.1386 7.47153L13.9433 7.72934C13.7681 7.96618 13.8041 8.27703 13.9784 8.5145L14.1737 8.78793C14.8847 9.66293 14.4838 10.8634 13.4796 11.2828L12.9179 11.5174C12.7063 11.6057 12.6234 11.7574 12.5839 11.9832L12.5448 12.7176C12.4081 13.7254 11.513 14.1806 10.7948 14.079L9.93935 13.8504C9.73389 13.8213 9.47841 13.8895 9.34169 14.1043L9.0331 14.5262C8.26747 15.3895 7.23412 15.246 6.71278 14.7411L6.14352 14.0516C5.99446 13.9072 5.80653 13.784 5.58162 13.8689L4.7206 14.1043C4.00976 14.205 3.17274 13.6585 3.03877 12.9532L2.93935 11.9325C2.89899 11.72 2.75889 11.5399 2.56288 11.4486L1.95889 11.2411C1.05062 10.8178 0.746409 9.79312 1.26791 8.93748L1.60834 8.4667C1.74508 8.24235 1.73858 7.9589 1.5917 7.74106L1.33779 7.38168C0.619053 6.35825 1.11598 5.21432 2.18104 4.87138L2.41594 4.79575C2.6752 4.71226 2.92564 4.49695 2.94719 4.22543L2.9995 3.56631C3.0844 2.49644 4.06066 1.88253 5.08749 2.19469L5.41982 2.29572C5.74013 2.42072 5.99108 2.31427 6.16591 2.12384L6.52528 1.66537Z" fill="url(#paint5_radial_254_15379)"/>
<path d="M6.52528 1.66537C7.29091 0.803555 8.33186 0.940717 8.99794 1.66537L9.40415 2.13567C9.54481 2.2887 9.74834 2.36805 9.95546 2.35061L10.6776 2.13567C11.662 1.92465 12.5565 2.65902 12.5565 3.79965V4.22934C12.5774 4.4639 12.7823 4.62291 12.9939 4.72625L13.6464 4.99887C14.5902 5.45981 14.8261 6.55356 14.1386 7.47153L13.9433 7.72934C13.7681 7.96618 13.8041 8.27703 13.9784 8.5145L14.1737 8.78793C14.8847 9.66293 14.4838 10.8634 13.4796 11.2828L12.9179 11.5174C12.7063 11.6057 12.6234 11.7574 12.5839 11.9832L12.5448 12.7176C12.4081 13.7254 11.513 14.1806 10.7948 14.079L9.93935 13.8504C9.73389 13.8213 9.47841 13.8895 9.34169 14.1043L9.0331 14.5262C8.26747 15.3895 7.23412 15.246 6.71278 14.7411L6.14352 14.0516C5.99446 13.9072 5.80653 13.784 5.58162 13.8689L4.7206 14.1043C4.00976 14.205 3.17274 13.6585 3.03877 12.9532L2.93935 11.9325C2.89899 11.72 2.75889 11.5399 2.56288 11.4486L1.95889 11.2411C1.05062 10.8178 0.746409 9.79312 1.26791 8.93748L1.60834 8.4667C1.74508 8.24235 1.73858 7.9589 1.5917 7.74106L1.33779 7.38168C0.619053 6.35825 1.11598 5.21432 2.18104 4.87138L2.41594 4.79575C2.6752 4.71226 2.92564 4.49695 2.94719 4.22543L2.9995 3.56631C3.0844 2.49644 4.06066 1.88253 5.08749 2.19469L5.41982 2.29572C5.74013 2.42072 5.99108 2.31427 6.16591 2.12384L6.52528 1.66537Z" fill="url(#paint6_radial_254_15379)" fill-opacity="0.6"/>
<path d="M6.52528 1.66537C7.29091 0.803555 8.33186 0.940717 8.99794 1.66537L9.40415 2.13567C9.54481 2.2887 9.74834 2.36805 9.95546 2.35061L10.6776 2.13567C11.662 1.92465 12.5565 2.65902 12.5565 3.79965V4.22934C12.5774 4.4639 12.7823 4.62291 12.9939 4.72625L13.6464 4.99887C14.5902 5.45981 14.8261 6.55356 14.1386 7.47153L13.9433 7.72934C13.7681 7.96618 13.8041 8.27703 13.9784 8.5145L14.1737 8.78793C14.8847 9.66293 14.4838 10.8634 13.4796 11.2828L12.9179 11.5174C12.7063 11.6057 12.6234 11.7574 12.5839 11.9832L12.5448 12.7176C12.4081 13.7254 11.513 14.1806 10.7948 14.079L9.93935 13.8504C9.73389 13.8213 9.47841 13.8895 9.34169 14.1043L9.0331 14.5262C8.26747 15.3895 7.23412 15.246 6.71278 14.7411L6.14352 14.0516C5.99446 13.9072 5.80653 13.784 5.58162 13.8689L4.7206 14.1043C4.00976 14.205 3.17274 13.6585 3.03877 12.9532L2.93935 11.9325C2.89899 11.72 2.75889 11.5399 2.56288 11.4486L1.95889 11.2411C1.05062 10.8178 0.746409 9.79312 1.26791 8.93748L1.60834 8.4667C1.74508 8.24235 1.73858 7.9589 1.5917 7.74106L1.33779 7.38168C0.619053 6.35825 1.11598 5.21432 2.18104 4.87138L2.41594 4.79575C2.6752 4.71226 2.92564 4.49695 2.94719 4.22543L2.9995 3.56631C3.0844 2.49644 4.06066 1.88253 5.08749 2.19469L5.41982 2.29572C5.74013 2.42072 5.99108 2.31427 6.16591 2.12384L6.52528 1.66537Z" fill="url(#paint7_radial_254_15379)" fill-opacity="0.7"/>
<path d="M6.52528 1.66537C7.29091 0.803555 8.33186 0.940717 8.99794 1.66537L9.40415 2.13567C9.54481 2.2887 9.74834 2.36805 9.95546 2.35061L10.6776 2.13567C11.662 1.92465 12.5565 2.65902 12.5565 3.79965V4.22934C12.5774 4.4639 12.7823 4.62291 12.9939 4.72625L13.6464 4.99887C14.5902 5.45981 14.8261 6.55356 14.1386 7.47153L13.9433 7.72934C13.7681 7.96618 13.8041 8.27703 13.9784 8.5145L14.1737 8.78793C14.8847 9.66293 14.4838 10.8634 13.4796 11.2828L12.9179 11.5174C12.7063 11.6057 12.6234 11.7574 12.5839 11.9832L12.5448 12.7176C12.4081 13.7254 11.513 14.1806 10.7948 14.079L9.93935 13.8504C9.73389 13.8213 9.47841 13.8895 9.34169 14.1043L9.0331 14.5262C8.26747 15.3895 7.23412 15.246 6.71278 14.7411L6.14352 14.0516C5.99446 13.9072 5.80653 13.784 5.58162 13.8689L4.7206 14.1043C4.00976 14.205 3.17274 13.6585 3.03877 12.9532L2.93935 11.9325C2.89899 11.72 2.75889 11.5399 2.56288 11.4486L1.95889 11.2411C1.05062 10.8178 0.746409 9.79312 1.26791 8.93748L1.60834 8.4667C1.74508 8.24235 1.73858 7.9589 1.5917 7.74106L1.33779 7.38168C0.619053 6.35825 1.11598 5.21432 2.18104 4.87138L2.41594 4.79575C2.6752 4.71226 2.92564 4.49695 2.94719 4.22543L2.9995 3.56631C3.0844 2.49644 4.06066 1.88253 5.08749 2.19469L5.41982 2.29572C5.74013 2.42072 5.99108 2.31427 6.16591 2.12384L6.52528 1.66537Z" fill="url(#paint8_radial_254_15379)" fill-opacity="0.7"/>
<path d="M6.52528 1.66537C7.29091 0.803555 8.33186 0.940717 8.99794 1.66537L9.40415 2.13567C9.54481 2.2887 9.74834 2.36805 9.95546 2.35061L10.6776 2.13567C11.662 1.92465 12.5565 2.65902 12.5565 3.79965V4.22934C12.5774 4.4639 12.7823 4.62291 12.9939 4.72625L13.6464 4.99887C14.5902 5.45981 14.8261 6.55356 14.1386 7.47153L13.9433 7.72934C13.7681 7.96618 13.8041 8.27703 13.9784 8.5145L14.1737 8.78793C14.8847 9.66293 14.4838 10.8634 13.4796 11.2828L12.9179 11.5174C12.7063 11.6057 12.6234 11.7574 12.5839 11.9832L12.5448 12.7176C12.4081 13.7254 11.513 14.1806 10.7948 14.079L9.93935 13.8504C9.73389 13.8213 9.47841 13.8895 9.34169 14.1043L9.0331 14.5262C8.26747 15.3895 7.23412 15.246 6.71278 14.7411L6.14352 14.0516C5.99446 13.9072 5.80653 13.784 5.58162 13.8689L4.7206 14.1043C4.00976 14.205 3.17274 13.6585 3.03877 12.9532L2.93935 11.9325C2.89899 11.72 2.75889 11.5399 2.56288 11.4486L1.95889 11.2411C1.05062 10.8178 0.746409 9.79312 1.26791 8.93748L1.60834 8.4667C1.74508 8.24235 1.73858 7.9589 1.5917 7.74106L1.33779 7.38168C0.619053 6.35825 1.11598 5.21432 2.18104 4.87138L2.41594 4.79575C2.6752 4.71226 2.92564 4.49695 2.94719 4.22543L2.9995 3.56631C3.0844 2.49644 4.06066 1.88253 5.08749 2.19469L5.41982 2.29572C5.74013 2.42072 5.99108 2.31427 6.16591 2.12384L6.52528 1.66537Z" fill="url(#paint9_radial_254_15379)"/>
<path d="M6.52528 1.66537C7.29091 0.803555 8.33186 0.940717 8.99794 1.66537L9.40415 2.13567C9.54481 2.2887 9.74834 2.36805 9.95546 2.35061L10.6776 2.13567C11.662 1.92465 12.5565 2.65902 12.5565 3.79965V4.22934C12.5774 4.4639 12.7823 4.62291 12.9939 4.72625L13.6464 4.99887C14.5902 5.45981 14.8261 6.55356 14.1386 7.47153L13.9433 7.72934C13.7681 7.96618 13.8041 8.27703 13.9784 8.5145L14.1737 8.78793C14.8847 9.66293 14.4838 10.8634 13.4796 11.2828L12.9179 11.5174C12.7063 11.6057 12.6234 11.7574 12.5839 11.9832L12.5448 12.7176C12.4081 13.7254 11.513 14.1806 10.7948 14.079L9.93935 13.8504C9.73389 13.8213 9.47841 13.8895 9.34169 14.1043L9.0331 14.5262C8.26747 15.3895 7.23412 15.246 6.71278 14.7411L6.14352 14.0516C5.99446 13.9072 5.80653 13.784 5.58162 13.8689L4.7206 14.1043C4.00976 14.205 3.17274 13.6585 3.03877 12.9532L2.93935 11.9325C2.89899 11.72 2.75889 11.5399 2.56288 11.4486L1.95889 11.2411C1.05062 10.8178 0.746409 9.79312 1.26791 8.93748L1.60834 8.4667C1.74508 8.24235 1.73858 7.9589 1.5917 7.74106L1.33779 7.38168C0.619053 6.35825 1.11598 5.21432 2.18104 4.87138L2.41594 4.79575C2.6752 4.71226 2.92564 4.49695 2.94719 4.22543L2.9995 3.56631C3.0844 2.49644 4.06066 1.88253 5.08749 2.19469L5.41982 2.29572C5.74013 2.42072 5.99108 2.31427 6.16591 2.12384L6.52528 1.66537Z" fill="url(#paint10_radial_254_15379)" fill-opacity="0.7"/>
<path d="M6.52528 1.66537C7.29091 0.803555 8.33186 0.940717 8.99794 1.66537L9.40415 2.13567C9.54481 2.2887 9.74834 2.36805 9.95546 2.35061L10.6776 2.13567C11.662 1.92465 12.5565 2.65902 12.5565 3.79965V4.22934C12.5774 4.4639 12.7823 4.62291 12.9939 4.72625L13.6464 4.99887C14.5902 5.45981 14.8261 6.55356 14.1386 7.47153L13.9433 7.72934C13.7681 7.96618 13.8041 8.27703 13.9784 8.5145L14.1737 8.78793C14.8847 9.66293 14.4838 10.8634 13.4796 11.2828L12.9179 11.5174C12.7063 11.6057 12.6234 11.7574 12.5839 11.9832L12.5448 12.7176C12.4081 13.7254 11.513 14.1806 10.7948 14.079L9.93935 13.8504C9.73389 13.8213 9.47841 13.8895 9.34169 14.1043L9.0331 14.5262C8.26747 15.3895 7.23412 15.246 6.71278 14.7411L6.14352 14.0516C5.99446 13.9072 5.80653 13.784 5.58162 13.8689L4.7206 14.1043C4.00976 14.205 3.17274 13.6585 3.03877 12.9532L2.93935 11.9325C2.89899 11.72 2.75889 11.5399 2.56288 11.4486L1.95889 11.2411C1.05062 10.8178 0.746409 9.79312 1.26791 8.93748L1.60834 8.4667C1.74508 8.24235 1.73858 7.9589 1.5917 7.74106L1.33779 7.38168C0.619053 6.35825 1.11598 5.21432 2.18104 4.87138L2.41594 4.79575C2.6752 4.71226 2.92564 4.49695 2.94719 4.22543L2.9995 3.56631C3.0844 2.49644 4.06066 1.88253 5.08749 2.19469L5.41982 2.29572C5.74013 2.42072 5.99108 2.31427 6.16591 2.12384L6.52528 1.66537Z" fill="url(#paint11_radial_254_15379)" fill-opacity="0.7"/>
<path d="M6.52528 1.66537C7.29091 0.803555 8.33186 0.940717 8.99794 1.66537L9.40415 2.13567C9.54481 2.2887 9.74834 2.36805 9.95546 2.35061L10.6776 2.13567C11.662 1.92465 12.5565 2.65902 12.5565 3.79965V4.22934C12.5774 4.4639 12.7823 4.62291 12.9939 4.72625L13.6464 4.99887C14.5902 5.45981 14.8261 6.55356 14.1386 7.47153L13.9433 7.72934C13.7681 7.96618 13.8041 8.27703 13.9784 8.5145L14.1737 8.78793C14.8847 9.66293 14.4838 10.8634 13.4796 11.2828L12.9179 11.5174C12.7063 11.6057 12.6234 11.7574 12.5839 11.9832L12.5448 12.7176C12.4081 13.7254 11.513 14.1806 10.7948 14.079L9.93935 13.8504C9.73389 13.8213 9.47841 13.8895 9.34169 14.1043L9.0331 14.5262C8.26747 15.3895 7.23412 15.246 6.71278 14.7411L6.14352 14.0516C5.99446 13.9072 5.80653 13.784 5.58162 13.8689L4.7206 14.1043C4.00976 14.205 3.17274 13.6585 3.03877 12.9532L2.93935 11.9325C2.89899 11.72 2.75889 11.5399 2.56288 11.4486L1.95889 11.2411C1.05062 10.8178 0.746409 9.79312 1.26791 8.93748L1.60834 8.4667C1.74508 8.24235 1.73858 7.9589 1.5917 7.74106L1.33779 7.38168C0.619053 6.35825 1.11598 5.21432 2.18104 4.87138L2.41594 4.79575C2.6752 4.71226 2.92564 4.49695 2.94719 4.22543L2.9995 3.56631C3.0844 2.49644 4.06066 1.88253 5.08749 2.19469L5.41982 2.29572C5.74013 2.42072 5.99108 2.31427 6.16591 2.12384L6.52528 1.66537Z" fill="url(#paint12_radial_254_15379)"/>
<path d="M6.52528 1.66537C7.29091 0.803555 8.33186 0.940717 8.99794 1.66537L9.40415 2.13567C9.54481 2.2887 9.74834 2.36805 9.95546 2.35061L10.6776 2.13567C11.662 1.92465 12.5565 2.65902 12.5565 3.79965V4.22934C12.5774 4.4639 12.7823 4.62291 12.9939 4.72625L13.6464 4.99887C14.5902 5.45981 14.8261 6.55356 14.1386 7.47153L13.9433 7.72934C13.7681 7.96618 13.8041 8.27703 13.9784 8.5145L14.1737 8.78793C14.8847 9.66293 14.4838 10.8634 13.4796 11.2828L12.9179 11.5174C12.7063 11.6057 12.6234 11.7574 12.5839 11.9832L12.5448 12.7176C12.4081 13.7254 11.513 14.1806 10.7948 14.079L9.93935 13.8504C9.73389 13.8213 9.47841 13.8895 9.34169 14.1043L9.0331 14.5262C8.26747 15.3895 7.23412 15.246 6.71278 14.7411L6.14352 14.0516C5.99446 13.9072 5.80653 13.784 5.58162 13.8689L4.7206 14.1043C4.00976 14.205 3.17274 13.6585 3.03877 12.9532L2.93935 11.9325C2.89899 11.72 2.75889 11.5399 2.56288 11.4486L1.95889 11.2411C1.05062 10.8178 0.746409 9.79312 1.26791 8.93748L1.60834 8.4667C1.74508 8.24235 1.73858 7.9589 1.5917 7.74106L1.33779 7.38168C0.619053 6.35825 1.11598 5.21432 2.18104 4.87138L2.41594 4.79575C2.6752 4.71226 2.92564 4.49695 2.94719 4.22543L2.9995 3.56631C3.0844 2.49644 4.06066 1.88253 5.08749 2.19469L5.41982 2.29572C5.74013 2.42072 5.99108 2.31427 6.16591 2.12384L6.52528 1.66537Z" fill="url(#paint13_radial_254_15379)"/>
<path d="M6.52528 1.66537C7.29091 0.803555 8.33186 0.940717 8.99794 1.66537L9.40415 2.13567C9.54481 2.2887 9.74834 2.36805 9.95546 2.35061L10.6776 2.13567C11.662 1.92465 12.5565 2.65902 12.5565 3.79965V4.22934C12.5774 4.4639 12.7823 4.62291 12.9939 4.72625L13.6464 4.99887C14.5902 5.45981 14.8261 6.55356 14.1386 7.47153L13.9433 7.72934C13.7681 7.96618 13.8041 8.27703 13.9784 8.5145L14.1737 8.78793C14.8847 9.66293 14.4838 10.8634 13.4796 11.2828L12.9179 11.5174C12.7063 11.6057 12.6234 11.7574 12.5839 11.9832L12.5448 12.7176C12.4081 13.7254 11.513 14.1806 10.7948 14.079L9.93935 13.8504C9.73389 13.8213 9.47841 13.8895 9.34169 14.1043L9.0331 14.5262C8.26747 15.3895 7.23412 15.246 6.71278 14.7411L6.14352 14.0516C5.99446 13.9072 5.80653 13.784 5.58162 13.8689L4.7206 14.1043C4.00976 14.205 3.17274 13.6585 3.03877 12.9532L2.93935 11.9325C2.89899 11.72 2.75889 11.5399 2.56288 11.4486L1.95889 11.2411C1.05062 10.8178 0.746409 9.79312 1.26791 8.93748L1.60834 8.4667C1.74508 8.24235 1.73858 7.9589 1.5917 7.74106L1.33779 7.38168C0.619053 6.35825 1.11598 5.21432 2.18104 4.87138L2.41594 4.79575C2.6752 4.71226 2.92564 4.49695 2.94719 4.22543L2.9995 3.56631C3.0844 2.49644 4.06066 1.88253 5.08749 2.19469L5.41982 2.29572C5.74013 2.42072 5.99108 2.31427 6.16591 2.12384L6.52528 1.66537Z" fill="url(#paint14_radial_254_15379)"/>
<path d="M6.52528 1.66537C7.29091 0.803555 8.33186 0.940717 8.99794 1.66537L9.40415 2.13567C9.54481 2.2887 9.74834 2.36805 9.95546 2.35061L10.6776 2.13567C11.662 1.92465 12.5565 2.65902 12.5565 3.79965V4.22934C12.5774 4.4639 12.7823 4.62291 12.9939 4.72625L13.6464 4.99887C14.5902 5.45981 14.8261 6.55356 14.1386 7.47153L13.9433 7.72934C13.7681 7.96618 13.8041 8.27703 13.9784 8.5145L14.1737 8.78793C14.8847 9.66293 14.4838 10.8634 13.4796 11.2828L12.9179 11.5174C12.7063 11.6057 12.6234 11.7574 12.5839 11.9832L12.5448 12.7176C12.4081 13.7254 11.513 14.1806 10.7948 14.079L9.93935 13.8504C9.73389 13.8213 9.47841 13.8895 9.34169 14.1043L9.0331 14.5262C8.26747 15.3895 7.23412 15.246 6.71278 14.7411L6.14352 14.0516C5.99446 13.9072 5.80653 13.784 5.58162 13.8689L4.7206 14.1043C4.00976 14.205 3.17274 13.6585 3.03877 12.9532L2.93935 11.9325C2.89899 11.72 2.75889 11.5399 2.56288 11.4486L1.95889 11.2411C1.05062 10.8178 0.746409 9.79312 1.26791 8.93748L1.60834 8.4667C1.74508 8.24235 1.73858 7.9589 1.5917 7.74106L1.33779 7.38168C0.619053 6.35825 1.11598 5.21432 2.18104 4.87138L2.41594 4.79575C2.6752 4.71226 2.92564 4.49695 2.94719 4.22543L2.9995 3.56631C3.0844 2.49644 4.06066 1.88253 5.08749 2.19469L5.41982 2.29572C5.74013 2.42072 5.99108 2.31427 6.16591 2.12384L6.52528 1.66537Z" fill="url(#paint15_radial_254_15379)"/>
<path d="M6.52528 1.66537C7.29091 0.803555 8.33186 0.940717 8.99794 1.66537L9.40415 2.13567C9.54481 2.2887 9.74834 2.36805 9.95546 2.35061L10.6776 2.13567C11.662 1.92465 12.5565 2.65902 12.5565 3.79965V4.22934C12.5774 4.4639 12.7823 4.62291 12.9939 4.72625L13.6464 4.99887C14.5902 5.45981 14.8261 6.55356 14.1386 7.47153L13.9433 7.72934C13.7681 7.96618 13.8041 8.27703 13.9784 8.5145L14.1737 8.78793C14.8847 9.66293 14.4838 10.8634 13.4796 11.2828L12.9179 11.5174C12.7063 11.6057 12.6234 11.7574 12.5839 11.9832L12.5448 12.7176C12.4081 13.7254 11.513 14.1806 10.7948 14.079L9.93935 13.8504C9.73389 13.8213 9.47841 13.8895 9.34169 14.1043L9.0331 14.5262C8.26747 15.3895 7.23412 15.246 6.71278 14.7411L6.14352 14.0516C5.99446 13.9072 5.80653 13.784 5.58162 13.8689L4.7206 14.1043C4.00976 14.205 3.17274 13.6585 3.03877 12.9532L2.93935 11.9325C2.89899 11.72 2.75889 11.5399 2.56288 11.4486L1.95889 11.2411C1.05062 10.8178 0.746409 9.79312 1.26791 8.93748L1.60834 8.4667C1.74508 8.24235 1.73858 7.9589 1.5917 7.74106L1.33779 7.38168C0.619053 6.35825 1.11598 5.21432 2.18104 4.87138L2.41594 4.79575C2.6752 4.71226 2.92564 4.49695 2.94719 4.22543L2.9995 3.56631C3.0844 2.49644 4.06066 1.88253 5.08749 2.19469L5.41982 2.29572C5.74013 2.42072 5.99108 2.31427 6.16591 2.12384L6.52528 1.66537Z" fill="url(#paint16_radial_254_15379)"/>
<path d="M7.76723 13.4666C10.7338 13.4666 13.1387 11.0617 13.1387 8.09511C13.1387 5.12852 10.7338 2.72363 7.76723 2.72363C4.80064 2.72363 2.39575 5.12852 2.39575 8.09511C2.39575 11.0617 4.80064 13.4666 7.76723 13.4666Z" fill="url(#paint17_radial_254_15379)"/>
<defs>
<linearGradient id="paint0_linear_254_15379" x1="11.939" y1="3.43334" x2="4.26406" y2="13.2255" gradientUnits="userSpaceOnUse">
<stop stop-color="#FC8B23"/>
<stop offset="0.75886" stop-color="#E67639"/>
</linearGradient>
<radialGradient id="paint1_radial_254_15379" cx="0" cy="0" r="1" gradientUnits="userSpaceOnUse" gradientTransform="translate(9.05938 1.71855) rotate(138.155) scale(1.88932 1.66696)">
<stop offset="0.300161" stop-color="#FFA13A"/>
<stop offset="1" stop-color="#FFA13A" stop-opacity="0"/>
</radialGradient>
<radialGradient id="paint2_radial_254_15379" cx="0" cy="0" r="1" gradientUnits="userSpaceOnUse" gradientTransform="translate(4.14381 1.12212) rotate(67.8105) scale(3.00358 2.65008)">
<stop offset="0.300161" stop-color="#FF942A"/>
<stop offset="1" stop-color="#FF942A" stop-opacity="0"/>
</radialGradient>
<radialGradient id="paint3_radial_254_15379" cx="0" cy="0" r="1" gradientUnits="userSpaceOnUse" gradientTransform="translate(12.2104 3.92426) rotate(-164.745) scale(1.19757 1.65819)">
<stop offset="0.300161" stop-color="#FFA13D"/>
<stop offset="1" stop-color="#FFA13D" stop-opacity="0"/>
</radialGradient>
<radialGradient id="paint4_radial_254_15379" cx="0" cy="0" r="1" gradientUnits="userSpaceOnUse" gradientTransform="translate(14.6262 5.66781) rotate(154.195) scale(2.12334 1.56824)">
<stop offset="0.300161" stop-color="#FFA13D"/>
<stop offset="1" stop-color="#FFA13D" stop-opacity="0"/>
</radialGradient>
<radialGradient id="paint5_radial_254_15379" cx="0" cy="0" r="1" gradientUnits="userSpaceOnUse" gradientTransform="translate(15.0883 9.25996) rotate(-173.379) scale(2.36855 1.33476)">
<stop offset="0.300161" stop-color="#FFA13D"/>
<stop offset="1" stop-color="#FFA13D" stop-opacity="0"/>
</radialGradient>
<radialGradient id="paint6_radial_254_15379" cx="0" cy="0" r="1" gradientUnits="userSpaceOnUse" gradientTransform="translate(8.69478 14.5393) rotate(-105.961) scale(1.44088 1.71735)">
<stop offset="0.300161" stop-color="#FFA13D"/>
<stop offset="0.837828" stop-color="#FFA13D" stop-opacity="0.143262"/>
<stop offset="1" stop-color="#FFA13D" stop-opacity="0"/>
</radialGradient>
<radialGradient id="paint7_radial_254_15379" cx="0" cy="0" r="1" gradientUnits="userSpaceOnUse" gradientTransform="translate(12.1845 12.8677) rotate(135) scale(2.67392 1.9112)">
<stop offset="0.349216" stop-color="#FFA13D"/>
<stop offset="1" stop-color="#FFA13D" stop-opacity="0"/>
</radialGradient>
<radialGradient id="paint8_radial_254_15379" cx="0" cy="0" r="1" gradientUnits="userSpaceOnUse" gradientTransform="translate(4.94121 2.39797) rotate(75.2564) scale(1.70207 1.98428)">
<stop offset="0.349216" stop-color="#FFA13D"/>
<stop offset="1" stop-color="#FFA13D" stop-opacity="0"/>
</radialGradient>
<radialGradient id="paint9_radial_254_15379" cx="0" cy="0" r="1" gradientUnits="userSpaceOnUse" gradientTransform="translate(12.9666 12.0118) rotate(-43.9639) scale(2.14847 2.06979)">
<stop stop-color="#E0762A"/>
<stop offset="0.626569" stop-color="#E0762A" stop-opacity="0.292889"/>
<stop offset="1" stop-color="#E0762A" stop-opacity="0"/>
</radialGradient>
<radialGradient id="paint10_radial_254_15379" cx="0" cy="0" r="1" gradientUnits="userSpaceOnUse" gradientTransform="translate(9.84684 2.70045) rotate(1.69135) scale(1.29712 1.24962)">
<stop stop-color="#E0762A"/>
<stop offset="0.626569" stop-color="#E0762A" stop-opacity="0.292889"/>
<stop offset="1" stop-color="#E0762A" stop-opacity="0"/>
</radialGradient>
<radialGradient id="paint11_radial_254_15379" cx="0" cy="0" r="1" gradientUnits="userSpaceOnUse" gradientTransform="translate(6.12826 2.48178) rotate(-10.1755) scale(1.45453 1.40127)">
<stop stop-color="#E0762A"/>
<stop offset="0.626569" stop-color="#E0762A" stop-opacity="0.292889"/>
<stop offset="1" stop-color="#E0762A" stop-opacity="0"/>
</radialGradient>
<radialGradient id="paint12_radial_254_15379" cx="0" cy="0" r="1" gradientUnits="userSpaceOnUse" gradientTransform="translate(2.78773 5.12483) rotate(-39.6442) scale(1.66855 1.60745)">
<stop stop-color="#E0762A"/>
<stop offset="0.626569" stop-color="#E0762A" stop-opacity="0.292889"/>
<stop offset="1" stop-color="#E0762A" stop-opacity="0"/>
</radialGradient>
<radialGradient id="paint13_radial_254_15379" cx="0" cy="0" r="1" gradientUnits="userSpaceOnUse" gradientTransform="translate(3.00945 11.5077) rotate(-127.747) scale(1.64712 1.58681)">
<stop stop-color="#E0762A"/>
<stop offset="1" stop-color="#E0762A" stop-opacity="0"/>
</radialGradient>
<radialGradient id="paint14_radial_254_15379" cx="0" cy="0" r="1" gradientUnits="userSpaceOnUse" gradientTransform="translate(0.761732 5.9409) rotate(25.2777) scale(1.67264 2.02163)">
<stop stop-color="#F0851D"/>
<stop offset="1" stop-color="#F0851D" stop-opacity="0"/>
</radialGradient>
<radialGradient id="paint15_radial_254_15379" cx="0" cy="0" r="1" gradientUnits="userSpaceOnUse" gradientTransform="translate(10.746 14.3973) rotate(-142.487) scale(1.95012 1.83977)">
<stop offset="0.336586" stop-color="#E3745B"/>
<stop offset="0.689689" stop-color="#E3745B" stop-opacity="0.317051"/>
<stop offset="1" stop-color="#E3745B" stop-opacity="0"/>
</radialGradient>
<radialGradient id="paint16_radial_254_15379" cx="0" cy="0" r="1" gradientUnits="userSpaceOnUse" gradientTransform="translate(7.7672 8.16769) rotate(90) scale(5.75526 5.53313)">
<stop offset="0.918092" stop-color="#EB7922"/>
<stop offset="1" stop-color="#EB7922" stop-opacity="0"/>
</radialGradient>
<radialGradient id="paint17_radial_254_15379" cx="0" cy="0" r="1" gradientUnits="userSpaceOnUse" gradientTransform="translate(10.8155 4.98319) rotate(117.739) scale(9.58496 11.8365)">
<stop offset="0.17178" stop-color="#FFD13D"/>
<stop offset="0.959877" stop-color="#D89A29"/>
</radialGradient>
</defs>
</svg>
