 <svg width="32" height="32" viewBox="0 0 32 32" fill="none" xmlns="http://www.w3.org/2000/svg">
<path fill-rule="evenodd" clip-rule="evenodd" d="M15.9902 5C16.5425 5 16.9902 5.44772 16.9902 6V10.42C16.9902 10.9723 16.5425 11.42 15.9902 11.42C15.4379 11.42 14.9902 10.9723 14.9902 10.42V6C14.9902 5.44772 15.4379 5 15.9902 5Z" fill="url(#paint0_linear_210_2584)"/>
<path fill-rule="evenodd" clip-rule="evenodd" d="M15.9902 5C16.5425 5 16.9902 5.44772 16.9902 6V10.42C16.9902 10.9723 16.5425 11.42 15.9902 11.42C15.4379 11.42 14.9902 10.9723 14.9902 10.42V6C14.9902 5.44772 15.4379 5 15.9902 5Z" fill="url(#paint1_radial_210_2584)"/>
<path d="M19.97 9.98999H12C6.47 9.98999 2 14.47 2 19.99C2 25.52 6.48 29.99 12 29.99H19.96C25.49 29.99 29.96 25.51 29.96 19.99C29.97 14.47 25.49 9.98999 19.97 9.98999Z" fill="url(#paint2_radial_210_2584)"/>
<path d="M19.97 9.98999H12C6.47 9.98999 2 14.47 2 19.99C2 25.52 6.48 29.99 12 29.99H19.96C25.49 29.99 29.96 25.51 29.96 19.99C29.97 14.47 25.49 9.98999 19.97 9.98999Z" fill="url(#paint3_radial_210_2584)"/>
<path d="M19.97 9.98999H12C6.47 9.98999 2 14.47 2 19.99C2 25.52 6.48 29.99 12 29.99H19.96C25.49 29.99 29.96 25.51 29.96 19.99C29.97 14.47 25.49 9.98999 19.97 9.98999Z" fill="url(#paint4_radial_210_2584)"/>
<path d="M19.97 9.98999H12C6.47 9.98999 2 14.47 2 19.99C2 25.52 6.48 29.99 12 29.99H19.96C25.49 29.99 29.96 25.51 29.96 19.99C29.97 14.47 25.49 9.98999 19.97 9.98999Z" fill="url(#paint5_radial_210_2584)"/>
<path d="M19.97 9.98999H12C6.47 9.98999 2 14.47 2 19.99C2 25.52 6.48 29.99 12 29.99H19.96C25.49 29.99 29.96 25.51 29.96 19.99C29.97 14.47 25.49 9.98999 19.97 9.98999Z" fill="url(#paint6_radial_210_2584)"/>
<path d="M19.97 9.98999H12C6.47 9.98999 2 14.47 2 19.99C2 25.52 6.48 29.99 12 29.99H19.96C25.49 29.99 29.96 25.51 29.96 19.99C29.97 14.47 25.49 9.98999 19.97 9.98999Z" fill="url(#paint7_radial_210_2584)"/>
<path d="M22.2098 7H27.4698C27.7459 7 27.9721 7.22462 27.9481 7.49972C27.6958 10.3949 25.2714 12.66 22.3098 12.66H16.5498C16.5498 9.53 19.0798 7 22.2098 7Z" fill="#93CC2E"/>
<path d="M22.2098 7H27.4698C27.7459 7 27.9721 7.22462 27.9481 7.49972C27.6958 10.3949 25.2714 12.66 22.3098 12.66H16.5498C16.5498 9.53 19.0798 7 22.2098 7Z" fill="url(#paint8_radial_210_2584)"/>
<path d="M22.2098 7H27.4698C27.7459 7 27.9721 7.22462 27.9481 7.49972C27.6958 10.3949 25.2714 12.66 22.3098 12.66H16.5498C16.5498 9.53 19.0798 7 22.2098 7Z" fill="url(#paint9_radial_210_2584)"/>
<path d="M22.2098 7H27.4698C27.7459 7 27.9721 7.22462 27.9481 7.49972C27.6958 10.3949 25.2714 12.66 22.3098 12.66H16.5498C16.5498 9.53 19.0798 7 22.2098 7Z" fill="url(#paint10_radial_210_2584)"/>
<path d="M9.63998 12.66H15.4C15.4 9.53 12.87 7 9.73998 7H4.47998C4.20384 7 3.97768 7.22462 4.00165 7.49972C4.25397 10.3949 6.67839 12.66 9.63998 12.66Z" fill="#85BA1F"/>
<path d="M9.63998 12.66H15.4C15.4 9.53 12.87 7 9.73998 7H4.47998C4.20384 7 3.97768 7.22462 4.00165 7.49972C4.25397 10.3949 6.67839 12.66 9.63998 12.66Z" fill="url(#paint11_radial_210_2584)"/>
<path d="M9.63998 12.66H15.4C15.4 9.53 12.87 7 9.73998 7H4.47998C4.20384 7 3.97768 7.22462 4.00165 7.49972C4.25397 10.3949 6.67839 12.66 9.63998 12.66Z" fill="url(#paint12_radial_210_2584)"/>
<path d="M6.25009 15.07H11.5201C13.3346 15.07 14.953 14.2143 15.9876 12.8825C17.0224 14.2143 18.6398 15.07 20.4601 15.07H25.7201C25.9963 15.07 26.2225 14.8454 26.1983 14.5703C25.9443 11.6833 23.5118 9.41 20.5601 9.41H11.4101C8.4485 9.41 6.02408 11.6751 5.77177 14.5703C5.74779 14.8454 5.97395 15.07 6.25009 15.07Z" fill="#80AF1F"/>
<path d="M6.25009 15.07H11.5201C13.3346 15.07 14.953 14.2143 15.9876 12.8825C17.0224 14.2143 18.6398 15.07 20.4601 15.07H25.7201C25.9963 15.07 26.2225 14.8454 26.1983 14.5703C25.9443 11.6833 23.5118 9.41 20.5601 9.41H11.4101C8.4485 9.41 6.02408 11.6751 5.77177 14.5703C5.74779 14.8454 5.97395 15.07 6.25009 15.07Z" fill="url(#paint13_radial_210_2584)"/>
<path d="M6.25009 15.07H11.5201C13.3346 15.07 14.953 14.2143 15.9876 12.8825C17.0224 14.2143 18.6398 15.07 20.4601 15.07H25.7201C25.9963 15.07 26.2225 14.8454 26.1983 14.5703C25.9443 11.6833 23.5118 9.41 20.5601 9.41H11.4101C8.4485 9.41 6.02408 11.6751 5.77177 14.5703C5.74779 14.8454 5.97395 15.07 6.25009 15.07Z" fill="url(#paint14_radial_210_2584)"/>
<path d="M6.25009 15.07H11.5201C13.3346 15.07 14.953 14.2143 15.9876 12.8825C17.0224 14.2143 18.6398 15.07 20.4601 15.07H25.7201C25.9963 15.07 26.2225 14.8454 26.1983 14.5703C25.9443 11.6833 23.5118 9.41 20.5601 9.41H11.4101C8.4485 9.41 6.02408 11.6751 5.77177 14.5703C5.74779 14.8454 5.97395 15.07 6.25009 15.07Z" fill="url(#paint15_radial_210_2584)"/>
<path d="M6.25009 15.07H11.5201C13.3346 15.07 14.953 14.2143 15.9876 12.8825C17.0224 14.2143 18.6398 15.07 20.4601 15.07H25.7201C25.9963 15.07 26.2225 14.8454 26.1983 14.5703C25.9443 11.6833 23.5118 9.41 20.5601 9.41H11.4101C8.4485 9.41 6.02408 11.6751 5.77177 14.5703C5.74779 14.8454 5.97395 15.07 6.25009 15.07Z" fill="url(#paint16_radial_210_2584)"/>
<path d="M6.25009 15.07H11.5201C13.3346 15.07 14.953 14.2143 15.9876 12.8825C17.0224 14.2143 18.6398 15.07 20.4601 15.07H25.7201C25.9963 15.07 26.2225 14.8454 26.1983 14.5703C25.9443 11.6833 23.5118 9.41 20.5601 9.41H11.4101C8.4485 9.41 6.02408 11.6751 5.77177 14.5703C5.74779 14.8454 5.97395 15.07 6.25009 15.07Z" fill="url(#paint17_radial_210_2584)"/>
<path d="M6.25009 15.07H11.5201C13.3346 15.07 14.953 14.2143 15.9876 12.8825C17.0224 14.2143 18.6398 15.07 20.4601 15.07H25.7201C25.9963 15.07 26.2225 14.8454 26.1983 14.5703C25.9443 11.6833 23.5118 9.41 20.5601 9.41H11.4101C8.4485 9.41 6.02408 11.6751 5.77177 14.5703C5.74779 14.8454 5.97395 15.07 6.25009 15.07Z" fill="url(#paint18_radial_210_2584)"/>
<path d="M6.25009 15.07H11.5201C13.3346 15.07 14.953 14.2143 15.9876 12.8825C17.0224 14.2143 18.6398 15.07 20.4601 15.07H25.7201C25.9963 15.07 26.2225 14.8454 26.1983 14.5703C25.9443 11.6833 23.5118 9.41 20.5601 9.41H11.4101C8.4485 9.41 6.02408 11.6751 5.77177 14.5703C5.74779 14.8454 5.97395 15.07 6.25009 15.07Z" fill="url(#paint19_radial_210_2584)"/>
<path d="M6.25009 15.07H11.5201C13.3346 15.07 14.953 14.2143 15.9876 12.8825C17.0224 14.2143 18.6398 15.07 20.4601 15.07H25.7201C25.9963 15.07 26.2225 14.8454 26.1983 14.5703C25.9443 11.6833 23.5118 9.41 20.5601 9.41H11.4101C8.4485 9.41 6.02408 11.6751 5.77177 14.5703C5.74779 14.8454 5.97395 15.07 6.25009 15.07Z" fill="url(#paint20_radial_210_2584)"/>
<defs>
<linearGradient id="paint0_linear_210_2584" x1="14.9902" y1="8.21" x2="16.9902" y2="8.21" gradientUnits="userSpaceOnUse">
<stop stop-color="#8ECB1F"/>
<stop offset="0.235352" stop-color="#99D52F"/>
<stop offset="0.735352" stop-color="#A4DB49"/>
<stop offset="1" stop-color="#8ECB1F"/>
</linearGradient>
<radialGradient id="paint1_radial_210_2584" cx="0" cy="0" r="1" gradientUnits="userSpaceOnUse" gradientTransform="translate(16.3203 5.625) rotate(90) scale(0.609375)">
<stop stop-color="#CEFB8E" stop-opacity="0.7"/>
<stop offset="1" stop-color="#CEFB8E" stop-opacity="0"/>
</radialGradient>
<radialGradient id="paint2_radial_210_2584" cx="0" cy="0" r="1" gradientUnits="userSpaceOnUse" gradientTransform="translate(20.625 14.375) rotate(137.703) scale(20.6174 20.6174)">
<stop stop-color="#FF738E"/>
<stop offset="0.340148" stop-color="#E31B61"/>
<stop offset="0.756064" stop-color="#DD456A"/>
<stop offset="1" stop-color="#EB307B"/>
</radialGradient>
<radialGradient id="paint3_radial_210_2584" cx="0" cy="0" r="1" gradientUnits="userSpaceOnUse" gradientTransform="translate(20.375 14.375) rotate(130.885) scale(24.6355 14.1886)">
<stop stop-color="#B91B46" stop-opacity="0"/>
<stop offset="0.732913" stop-color="#B31E47" stop-opacity="0"/>
<stop offset="1" stop-color="#AC2248"/>
</radialGradient>
<radialGradient id="paint4_radial_210_2584" cx="0" cy="0" r="1" gradientUnits="userSpaceOnUse" gradientTransform="translate(11.8125 16.5625) rotate(67.0511) scale(7.53378 7.7933)">
<stop stop-color="#D91253"/>
<stop offset="1" stop-color="#D81254" stop-opacity="0"/>
</radialGradient>
<radialGradient id="paint5_radial_210_2584" cx="0" cy="0" r="1" gradientUnits="userSpaceOnUse" gradientTransform="translate(21.628 13.6678) rotate(-158.911) scale(4.59178 1.30628)">
<stop offset="0.152428" stop-opacity="0.7"/>
<stop offset="1" stop-opacity="0"/>
</radialGradient>
<radialGradient id="paint6_radial_210_2584" cx="0" cy="0" r="1" gradientUnits="userSpaceOnUse" gradientTransform="translate(17.5 12.625) rotate(-154.654) scale(4.59896 2.11808)">
<stop offset="0.152428" stop-opacity="0.7"/>
<stop offset="1" stop-opacity="0"/>
</radialGradient>
<radialGradient id="paint7_radial_210_2584" cx="0" cy="0" r="1" gradientUnits="userSpaceOnUse" gradientTransform="translate(9.84375 13.625) rotate(-15.9454) scale(5.91509 2.72423)">
<stop offset="0.152428" stop-opacity="0.3"/>
<stop offset="1" stop-opacity="0"/>
</radialGradient>
<radialGradient id="paint8_radial_210_2584" cx="0" cy="0" r="1" gradientUnits="userSpaceOnUse" gradientTransform="translate(18.6874 11.1875) rotate(7.58192) scale(11.1601 3.0852)">
<stop stop-color="#BFF96A"/>
<stop offset="1" stop-color="#BCF56A" stop-opacity="0"/>
</radialGradient>
<radialGradient id="paint9_radial_210_2584" cx="0" cy="0" r="1" gradientUnits="userSpaceOnUse" gradientTransform="translate(23.4999 9.0625) rotate(165.964) scale(7.73082 3.02933)">
<stop stop-color="#81B335" stop-opacity="0"/>
<stop offset="0.573879" stop-color="#82B632" stop-opacity="0"/>
<stop offset="1" stop-color="#83BA2D"/>
</radialGradient>
<radialGradient id="paint10_radial_210_2584" cx="0" cy="0" r="1" gradientUnits="userSpaceOnUse" gradientTransform="translate(26.5624 9) rotate(164.539) scale(6.09559 2.85683)">
<stop offset="0.339861" stop-color="#9ED347"/>
<stop offset="1" stop-color="#9DD43E" stop-opacity="0"/>
</radialGradient>
<radialGradient id="paint11_radial_210_2584" cx="0" cy="0" r="1" gradientUnits="userSpaceOnUse" gradientTransform="translate(10.25 9.83) rotate(-90) scale(6.955 21.6683)">
<stop stop-color="#ADE742"/>
<stop offset="0.820273" stop-color="#9BD03C" stop-opacity="0"/>
</radialGradient>
<radialGradient id="paint12_radial_210_2584" cx="0" cy="0" r="1" gradientUnits="userSpaceOnUse" gradientTransform="translate(9.68998 7) rotate(65.8568) scale(7.32856 6.919)">
<stop stop-color="#84B72D" stop-opacity="0"/>
<stop offset="0.597474" stop-color="#86B837" stop-opacity="0"/>
<stop offset="1" stop-color="#87B93B"/>
</radialGradient>
<radialGradient id="paint13_radial_210_2584" cx="0" cy="0" r="1" gradientUnits="userSpaceOnUse" gradientTransform="translate(19.306 13.6875) rotate(-44.1281) scale(9.60483 9.26613)">
<stop stop-color="#BFF96A"/>
<stop offset="0.899625" stop-color="#BDF66A" stop-opacity="0.169566"/>
</radialGradient>
<radialGradient id="paint14_radial_210_2584" cx="0" cy="0" r="1" gradientUnits="userSpaceOnUse" gradientTransform="translate(12.6004 13.0625) rotate(47.4277) scale(3.73426 3.47341)">
<stop stop-color="#97D121"/>
<stop offset="1" stop-color="#98D120" stop-opacity="0"/>
</radialGradient>
<radialGradient id="paint15_radial_210_2584" cx="0" cy="0" r="1" gradientUnits="userSpaceOnUse" gradientTransform="translate(15.9851 12.9062) rotate(90) scale(4.8125 22.8154)">
<stop offset="0.649351" stop-color="#7CAA24" stop-opacity="0"/>
<stop offset="0.792208" stop-color="#7CAA24"/>
</radialGradient>
<radialGradient id="paint16_radial_210_2584" cx="0" cy="0" r="1" gradientUnits="userSpaceOnUse" gradientTransform="translate(15.9851 12.9062) rotate(90) scale(5.71875 13.6459)">
<stop offset="0.63388" stop-color="#7CAA24" stop-opacity="0"/>
<stop offset="0.814208" stop-color="#7CAA24"/>
</radialGradient>
<radialGradient id="paint17_radial_210_2584" cx="0" cy="0" r="1" gradientUnits="userSpaceOnUse" gradientTransform="translate(20.6471 14.8125) rotate(90) scale(2.90625 6.93479)">
<stop stop-color="#7CAA24"/>
<stop offset="1" stop-color="#7CAA24" stop-opacity="0"/>
</radialGradient>
<radialGradient id="paint18_radial_210_2584" cx="0" cy="0" r="1" gradientUnits="userSpaceOnUse" gradientTransform="translate(20.5224 13.2188) rotate(-90) scale(2.21875 4.54852)">
<stop stop-color="#BFF96A"/>
<stop offset="0.899625" stop-color="#BDF66A" stop-opacity="0.169566"/>
</radialGradient>
<radialGradient id="paint19_radial_210_2584" cx="0" cy="0" r="1" gradientUnits="userSpaceOnUse" gradientTransform="translate(18.4238 15.8905) rotate(133.958) scale(1.81408 4.3287)">
<stop stop-color="#7CAA24"/>
<stop offset="1" stop-color="#7CAA24" stop-opacity="0"/>
</radialGradient>
<radialGradient id="paint20_radial_210_2584" cx="0" cy="0" r="1" gradientUnits="userSpaceOnUse" gradientTransform="translate(6.23785 15.07) scale(5.02141 0.711245)">
<stop stop-color="white" stop-opacity="0.25"/>
<stop offset="1" stop-color="white" stop-opacity="0"/>
</radialGradient>
</defs>
</svg>
